<?xml version="1.0" encoding="utf-8"?>
<!-- Generator: Adobe Illustrator 28.0.0, SVG Export Plug-In . SVG Version: 6.00 Build 0)  -->
<svg version="1.1" id="Capa_1" xmlns="http://www.w3.org/2000/svg" xmlns:xlink="http://www.w3.org/1999/xlink" x="0px" y="0px"
	 viewBox="0 0 200 200" style="enable-background:new 0 0 200 200;" xml:space="preserve">
<style type="text/css">
	.st0{fill:url(#SVGID_1_);}
	.st1{fill:url(#SVGID_00000060728997869673125920000004491206326656554931_);}
	.st2{fill:url(#SVGID_00000029736595584791836090000017650808197975014797_);}
</style>
<g>
	
		<linearGradient id="SVGID_1_" gradientUnits="userSpaceOnUse" x1="18.9541" y1="102.0055" x2="181.0547" y2="102.0055" gradientTransform="matrix(1 0 0 -1 0 202)">
		<stop  offset="0" style="stop-color:#BFCC60"/>
		<stop  offset="0.29" style="stop-color:#798D5C"/>
		<stop  offset="0.69" style="stop-color:#6B6052"/>
		<stop  offset="1" style="stop-color:#3D3535"/>
	</linearGradient>
	<path class="st0" d="M174.7,92.6c-9.7-2.4-16.9-11.1-16.9-21.5c0-1.5,0.1-3,0.5-4.5c0.1-0.7,0.3-1.4,0.6-2.2
		c0.9-2.7-0.8-5.6-3.6-6.2c0,0,0,0-0.1,0c-4.8-1.1-9.8-1.1-14.9,0.1c-3.9,1-7.6,2.8-11.6,4.3c-3.6-5.5-8.7-9.8-15.1-12.7
		c0.7-1.8,1.3-3.4,2.1-5c5.1-10.8,12.8-19.4,23.1-25.5c3.4-2,5.5-4.8,5.7-8.7c0.2-4-1.5-7.2-4.9-9.3c-3.3-2-7.5-1.8-10.8,0.1
		c-11.1,6.6-20.1,15.3-27,26.2c-0.4,0.6-0.8,1.2-1.4,2.1c-0.3-1.1-0.5-1.7-0.8-2.4c-2.8-8.2-7.8-14.5-16.1-17.7
		c-9.3-3.6-18.9-3.7-28.5-2c-2.9,0.5-4.8,2.8-5.1,5.8c-0.7,5.9-0.5,11.7,0.5,17.6c2.4,14.5,10.2,22.9,24.6,26
		c0.3,0.1,0.7,0.3,1.1,0.4c-1.5,1.9-2.9,3.7-4.3,5.5c-0.7-0.4-1.3-0.7-1.9-1.1c-6.7-3.8-13.8-5.2-21.4-4.2
		c-14,1.9-25.6,12.6-28.5,26.2c-3,14.2,2.9,28.4,15.1,36c1.5,0.9,1.8,1.8,1.6,3.4c-2.7,18.1,8.5,34.5,26.4,38.5
		c1.2,0.3,2.4,0.5,3.7,0.7c0,0.6,0,1.1,0,1.5c-0.4,14.2,5.6,24.9,18,31.8c3.3,1.8,6.4,2.8,10.5,3.6c0.5,0.1,1.1,0.1,1.6,0.2
		c1.8,0.2,2.6,0.2,4.5,0.2c0.7,0,0.8-0.1,1.8-0.1c1.6-0.1,1.2-0.1,3.1-0.4c12.8-2.3,23.1-11,27-24.6c1.1-3.9,1.1-8.1,1.7-12.4
		c0.7-0.1,1.8-0.3,2.9-0.5c18-3.9,29.4-20.2,26.7-38.4c-0.3-1.8,0.1-2.6,1.6-3.6c8.1-5.5,13.2-12.5,15-21c0,0,0,0,0-0.1
		c0.6-2.9-1.5-5.7-4.5-6C175.8,92.8,175.1,92.7,174.7,92.6L174.7,92.6z M101.6,43.6c6-15.4,16.1-27.3,30.3-35.8
		c1.3-0.8,2.7-1.2,4.1-0.3c2.2,1.3,2,4.1-0.3,5.7c-2.7,1.9-5.6,3.6-8.1,5.6c-9.1,7.3-15.7,16.4-19.8,27.2c-0.6,1.6-1.4,2-2.9,1.7
		c-1.4-0.3-2.8-0.3-4.5-0.5C100.7,45.9,101.1,44.7,101.6,43.6L101.6,43.6z M73.2,49.5c-9.9-2.7-14.5-9.9-15.9-19.4
		c-0.7-4.7-0.4-9.5-0.6-14.2c0-1,0.3-1.6,1.4-1.7c6-0.6,12-0.9,18,0.5c10.1,2.2,16,8.5,17.9,18.8c0.4,2.3,0.6,4.6,0.8,6.9
		c0.1,0.4,0,0.7-0.1,1.5c-0.7-0.8-1.1-1.2-1.5-1.7C86.8,32.3,79,26.1,70,21.5c-0.6-0.3-1.2-0.6-1.8-0.8c-2.2-0.9-4-0.3-4.9,1.6
		c-0.8,1.8-0.2,3.5,1.8,4.6c2.3,1.4,4.8,2.6,7.1,4c6.3,3.9,11.9,8.5,16.4,14.5c0.7,1,1.3,2,2.1,3.1c-3.3,1.8-6.5,3.1-10.2,2.4
		C78,50.5,75.5,50.2,73.2,49.5L73.2,49.5z M100.3,54.3c14.9,0,27,12.1,27,27c0,15-12,26.9-27,26.9c-14.9,0-26.9-12-26.9-27.1
		C73.4,66.4,85.6,54.3,100.3,54.3L100.3,54.3z M26.8,98.2C23.9,87.2,28.5,75.2,38,69c9.4-6.2,22.2-6,30.4,0.5
		c-4.2,13.3-1.8,25.1,7.5,35.4c-3.2,7.9-14.6,14.1-25.1,13.4C39.6,117.7,29.8,109.4,26.8,98.2L26.8,98.2z M43.5,134.1
		c-0.6-3.2-0.4-6.5-0.7-10c16.5,3.7,29.2-1.2,38.6-14c3.6,1.4,7.2,2.7,10.7,4.2c0.5,0.2,0.9,0.8,1.2,1.2c9.5,15.6-1,37.3-19.1,39.9
		C60.3,157.4,46.4,148.6,43.5,134.1z M101.2,193c-15.7,0.6-28.8-13-27.7-28.8c0.1-1.1,0.4-1.7,1.5-1.9c11.3-1.8,19.5-7.9,25-17.8
		c0.1-0.1,0.2-0.2,0.5-0.5c2.8,5.4,6.6,9.7,11.6,13c4.1,2.7,8.5,4.5,13.3,5.2c1.4,0.2,1.9,0.8,1.9,2.2
		C128,179.7,116.4,192.4,101.2,193L101.2,193z M150.7,147.1c-9,9.9-24.3,11.4-35.4,3.6c-11-7.8-14.6-22.5-8.4-34.4
		c0.7-1.3,1.6-2.1,3-2.5c3.1-1.1,6.1-2.5,9.3-3.8c11.5,13.8,20,17,38.1,14.2C158.8,132.9,156.6,140.6,150.7,147.1L150.7,147.1z
		 M162.6,114c-12.8,8.4-30.3,4.3-37.9-8.9c9.4-10.4,11.9-22.3,7.6-35.5c5.4-4.2,13-6,20.4-4.6c-0.4,2-0.7,4-0.7,6.1
		c0,13.3,9.3,24.4,21.8,27.2C172.2,104.6,168.4,110.2,162.6,114L162.6,114z"/>
	
		<linearGradient id="SVGID_00000136402343535739815910000005791241024453362845_" gradientUnits="userSpaceOnUse" x1="18.95" y1="129.1482" x2="181.05" y2="129.1482" gradientTransform="matrix(1 0 0 -1 0 202)">
		<stop  offset="0" style="stop-color:#BFCC60"/>
		<stop  offset="0.29" style="stop-color:#798D5C"/>
		<stop  offset="0.69" style="stop-color:#6B6052"/>
		<stop  offset="1" style="stop-color:#3D3535"/>
	</linearGradient>
	<path style="fill:url(#SVGID_00000136402343535739815910000005791241024453362845_);" d="M80,80.2c0.3-10.3,9.2-19.1,19.5-19.3
		c2.6-0.1,4.2,1.2,4.3,3.3c0.1,2-1.3,3.4-3.8,3.6c-8,0.9-12.4,5.4-13.1,13.3c-0.2,2.2-1.7,3.7-3.7,3.6C81.1,84.7,79.9,83.1,80,80.2
		L80,80.2z"/>
	
		<linearGradient id="SVGID_00000113338741941984852340000015362850163065031564_" gradientUnits="userSpaceOnUse" x1="18.95" y1="118.967" x2="181.05" y2="118.967" gradientTransform="matrix(1 0 0 -1 0 202)">
		<stop  offset="0" style="stop-color:#BFCC60"/>
		<stop  offset="0.29" style="stop-color:#798D5C"/>
		<stop  offset="0.69" style="stop-color:#6B6052"/>
		<stop  offset="1" style="stop-color:#3D3535"/>
	</linearGradient>
	<path style="fill:url(#SVGID_00000113338741941984852340000015362850163065031564_);" d="M32.5,90.8c0.2-10.6,9.3-19.6,20-19.7
		c2.4,0,3.8,1.2,3.9,3.3c0.1,2.1-1.3,3.5-3.8,3.7c-7.4,0.5-12.3,5.3-13,12.7c0,0.2,0,0.4-0.1,0.6c-0.3,2.3-1.7,3.7-3.7,3.6
		C33.8,94.8,32.4,93.2,32.5,90.8L32.5,90.8z"/>
</g>
</svg>
