<?xml version="1.0" encoding="utf-8"?>
<!-- Generator: Adobe Illustrator 28.0.0, SVG Export Plug-In . SVG Version: 6.00 Build 0)  -->
<svg version="1.1" id="Pruebas" xmlns="http://www.w3.org/2000/svg" xmlns:xlink="http://www.w3.org/1999/xlink" x="0px" y="0px"
	 viewBox="0 0 200 200" style="enable-background:new 0 0 200 200;" xml:space="preserve">
<style type="text/css">
	.st0{fill:url(#SVGID_1_);}
	.st1{fill:url(#SVGID_00000103975109826730335710000015447569252827332997_);}
	.st2{fill:url(#SVGID_00000085943480491710073630000001170737575209909649_);}
	.st3{fill:url(#SVGID_00000045611120305706939240000017314216788761015955_);}
</style>
<linearGradient id="SVGID_1_" gradientUnits="userSpaceOnUse" x1="99.9951" y1="182.78" x2="99.9951" y2="21.22" gradientTransform="matrix(1 0 0 -1 0 202)">
	<stop  offset="0" style="stop-color:#60C5F1"/>
	<stop  offset="0.23" style="stop-color:#47B5E7"/>
	<stop  offset="0.75" style="stop-color:#1495D3"/>
	<stop  offset="1" style="stop-color:#0089CB"/>
</linearGradient>
<path class="st0" d="M156.3,63.4c-1.6,0-3.2,0.1-4.8,0.3c-3.7-25.2-25.4-44.5-51.6-44.5S52.1,38.5,48.3,63.7
	c-1.5-0.2-3.1-0.2-4.6-0.2c-24.4,0-44.1,20-43.7,44.5c0.4,24,20.5,43,44.5,43h0.8c2.2,0,4-1.8,4-4l0,0c0-2.2-1.8-4-4-4h-0.8
	C24.9,142.9,8.5,127.5,8,108s15.7-36.6,35.7-36.6c0.7,0,6.9,0.1,10.1,0.1c1.1,0,2-0.8,2-1.9c0.1-1.4,0.2-3.3,0.3-4.4
	c3-21.5,21.4-38,43.7-38s40.7,16.6,43.7,38c0.2,1.1,0.3,2.9,0.3,4.3c0.1,1.1,0.9,1.9,2,1.9c3.3,0,9.6-0.1,10.3-0.1
	c20,0,36.2,16.5,35.7,36.6c-0.5,19.5-16.9,34.9-36.4,34.9h-0.5c-2.2,0-4,1.8-4,4l0,0c0,2.2,1.8,4,4,4h0.4c24,0,44.1-19,44.5-43
	C200.4,83.4,180.7,63.4,156.3,63.4L156.3,63.4z"/>
<g>
	
		<linearGradient id="SVGID_00000022532815053258742620000007503764906063438260_" gradientUnits="userSpaceOnUse" x1="66.4818" y1="182.78" x2="66.4818" y2="21.22" gradientTransform="matrix(1 0 0 -1 0 202)">
		<stop  offset="0" style="stop-color:#60C5F1"/>
		<stop  offset="0.23" style="stop-color:#47B5E7"/>
		<stop  offset="0.75" style="stop-color:#1495D3"/>
		<stop  offset="1" style="stop-color:#0089CB"/>
	</linearGradient>
	<path style="fill:url(#SVGID_00000022532815053258742620000007503764906063438260_);" d="M67.6,180.8c-1.2,0-2.5-0.6-3.2-1.7
		c-3.3-4.5-5.3-9.5-6.1-14.7c-1-6.8,0.3-13.9,3.9-20.6c10.1-18.8,1.4-34.6,1-35.3c-1.1-1.9-0.4-4.4,1.5-5.5c1.9-1.1,4.3-0.4,5.5,1.5
		c0.5,0.8,11.4,20.2-0.9,43.1c-2.8,5.1-3.8,10.5-3.1,15.6c0.6,4,2.2,7.7,4.7,11.2c1.3,1.8,0.9,4.3-0.9,5.6
		C69.2,180.5,68.4,180.8,67.6,180.8z"/>
	
		<linearGradient id="SVGID_00000055696169916304007510000011061456117743140270_" gradientUnits="userSpaceOnUse" x1="100.0118" y1="182.78" x2="100.0118" y2="21.22" gradientTransform="matrix(1 0 0 -1 0 202)">
		<stop  offset="0" style="stop-color:#60C5F1"/>
		<stop  offset="0.23" style="stop-color:#47B5E7"/>
		<stop  offset="0.75" style="stop-color:#1495D3"/>
		<stop  offset="1" style="stop-color:#0089CB"/>
	</linearGradient>
	<path style="fill:url(#SVGID_00000055696169916304007510000011061456117743140270_);" d="M101.1,180.8c-1.2,0-2.5-0.6-3.2-1.7
		c-3.3-4.5-5.3-9.5-6.1-14.7c-1-6.8,0.3-13.9,3.9-20.6c10.1-18.8,1.4-34.6,1-35.3c-1.1-1.9-0.4-4.4,1.5-5.5c1.9-1.1,4.3-0.4,5.5,1.5
		c0.5,0.8,11.4,20.2-0.9,43.1c-2.8,5.1-3.8,10.5-3.1,15.6c0.6,4,2.2,7.7,4.7,11.2c1.3,1.8,0.9,4.3-0.9,5.6
		C102.8,180.5,101.9,180.8,101.1,180.8z"/>
	
		<linearGradient id="SVGID_00000098199861243622604820000002312918634623842949_" gradientUnits="userSpaceOnUse" x1="133.5318" y1="182.78" x2="133.5318" y2="21.22" gradientTransform="matrix(1 0 0 -1 0 202)">
		<stop  offset="0" style="stop-color:#60C5F1"/>
		<stop  offset="0.23" style="stop-color:#47B5E7"/>
		<stop  offset="0.75" style="stop-color:#1495D3"/>
		<stop  offset="1" style="stop-color:#0089CB"/>
	</linearGradient>
	<path style="fill:url(#SVGID_00000098199861243622604820000002312918634623842949_);" d="M134.6,180.8c-1.2,0-2.5-0.6-3.2-1.7
		c-3.3-4.5-5.3-9.5-6.1-14.7c-1-6.8,0.3-13.9,3.9-20.6c10.1-18.8,1.4-34.6,1-35.3c-1.1-1.9-0.4-4.4,1.5-5.5c1.9-1.1,4.4-0.4,5.5,1.5
		c0.5,0.8,11.4,20.2-0.9,43.1c-2.8,5.1-3.8,10.5-3.1,15.6c0.6,4,2.2,7.7,4.7,11.2c1.3,1.8,0.9,4.3-0.9,5.6
		C136.3,180.5,135.5,180.8,134.6,180.8L134.6,180.8z"/>
</g>
</svg>
