<?xml version="1.0" encoding="UTF-8"?>
<svg id="Capa_1" data-name="Capa 1" xmlns="http://www.w3.org/2000/svg" xmlns:xlink="http://www.w3.org/1999/xlink" viewBox="0 0 200 200">
  <defs>
    <style>
      .cls-1 {
        fill: url(#Degradado_sin_nombre_31);
        stroke-width: 0px;
      }
    </style>
    <linearGradient id="Degradado_sin_nombre_31" data-name="Degradado sin nombre 31" x1="100" y1=".02" x2="100" y2="199.98" gradientUnits="userSpaceOnUse">
      <stop offset="0" stop-color="#60c5f1"/>
      <stop offset=".23" stop-color="#47b5e7"/>
      <stop offset=".75" stop-color="#1495d3"/>
      <stop offset="1" stop-color="#0089cb"/>
    </linearGradient>
  </defs>
  <path class="cls-1" d="m195.29,40.92c-.23-.23-.47-.44-.71-.65-.18-.16-.38-.31-.57-.46-.18-.13-.38-.27-.57-.4-.19-.14-.4-.28-.6-.39-1.19-.73-2.51-1.29-3.91-1.74-20.68-6.61-41.36-13.25-62.04-19.86C109.28,11.78,91.68,6.17,74.08.54c0,0,0,0-.01,0-1.19-.43-3.48-.79-5.36-.23-3.44,1.15-6.28,3.05-8.1,6.27-.22.39-.62.68-.93.99-11.8,11.8-23.62,23.61-35.42,35.41-.44.44-.92.85-1.33,1.22-.58-.52-1.07-.94-1.53-1.39-5.85-5.71-15.43-4.48-19.63,2.53-1.33,2.25-1.76,4.68-1.76,7.27.02,47.36.02,94.71.02,142.07,0,.45-.02.9.01,1.36.12,2.24,1.6,3.86,3.82,3.89,5.84.06,11.69.06,17.54-.01,2.11-.02,3.59-1.63,3.73-3.75.05-.71.02-1.43.02-2.14V61.51c.68.63.96.88,1.24,1.16l33.48,33.48c.36.37.72.76,1.02,1.17,4.1,5.68,8.62,7.19,15.25,5.07,18.64-5.97,37.3-11.93,55.94-17.89,18.89-6.05,37.78-12.13,56.67-18.18.75-.24,1.47-.5,2.16-.81.22-.1.44-.19.66-.31.22-.1.43-.21.65-.33.18-.09.36-.19.54-.32.44-.26.87-.54,1.28-.85.34-.26.66-.53.98-.82,3.06-2.73,5-6.69,5-11.11s-1.82-8.13-4.71-10.84ZM17.04,191.93h-8.9v-116.94h8.9v116.94Zm.12-133.52c0,2.59-.01,5.18-.02,7.77,0,.12-.06.25-.14.61h-8.91c-.04-.69-.1-1.3-.1-1.93-.01-3.95,0-7.91,0-11.85,0-.32-.01-.65.01-.97.13-2.81,2.04-4.82,4.56-4.83,2.52-.02,4.49,2,4.58,4.8.07,2.13.02,4.28.02,6.41Zm42.01,24.99c-9.14-9.15-18.37-18.38-27.49-27.5h27.49v27.5Zm0-35.74h-27.5c9.15-9.16,18.38-18.39,27.5-27.51v27.51Zm66.27,30.47c-8.17,2.63-16.41,5.26-25.04,8.03v-5.42c0-3.76.03-7.54-.02-11.3-.04-2.5-1.68-4.12-3.98-4.1-2.26.01-3.95,1.7-3.98,4.16-.05,5.58-.01,11.17-.02,16.76v2.44c-1.43.47-2.78.9-4.12,1.34-5.13,1.64-10.23,3.32-15.38,4.9-3.17.97-5.37-.65-5.59-3.95-.04-.58-.01-1.17-.01-1.75-.01-25-.01-50,0-75,0-.66-.03-1.3.02-1.95.3-3.1,2.49-4.65,5.43-3.73,6.49,2.02,12.96,4.11,19.65,6.25v2.13c0,5.59-.01,11.17.01,16.76.01,2.5,1.36,4.2,3.45,4.48,2.5.34,4.49-1.4,4.52-4.12.05-4.75.02-9.49.02-14.22v-2.45c8.52,2.73,16.77,5.36,25.04,8.01v52.75Zm33.1-10.59c-8.21,2.64-16.45,5.27-24.95,8V28.01c8.4,2.68,16.63,5.31,24.95,7.97v31.56Zm27.85-8.91c-3.91,1.27-7.83,2.52-11.75,3.76-2.38.76-4.76,1.51-7.14,2.27-.17.05-.37.07-.79.14v-26.17c1.62.51,3.09.98,4.55,1.45,1.12.36,2.24.71,3.35,1.07,3.89,1.23,7.77,2.46,11.64,3.71,3.55,1.15,5.52,3.65,5.5,6.94-.02,3.22-1.91,5.7-5.36,6.83Z"/>
  <path class="cls-1" d="m141.12,134.48c-9.42,0-18.83,0-28.25,0-3.22,0-5.15-1.51-5.13-4.01.02-2.49,1.93-3.96,5.19-3.96,18.31,0,36.63,0,54.94,0,5.93,0,10.47-3.19,11.88-8.46,1.21-4.52.14-8.54-3.36-11.69-3.49-3.14-7.61-3.93-11.96-2.17-4.31,1.74-6.8,5.05-7.24,9.77-.04.39-.05.78-.11,1.16-.41,2.49-2.12,3.95-4.39,3.75-2.18-.19-3.7-2.06-3.66-4.5.15-8.81,6.79-16.79,15.5-18.62,12.2-2.56,23.63,6.6,23.77,19.06.12,10.52-8.62,19.56-19.13,19.65-9.35.08-18.7.02-28.05.02h0Z"/>
  <path class="cls-1" d="m114.32,146c5.71,0,11.41-.01,17.12,0,2.39,0,4.04,1.31,4.35,3.33.36,2.34-1.26,4.41-3.64,4.6-.97.08-1.94.03-2.92.03-10.38,0-20.75,0-31.13,0-.58,0-1.17.02-1.75-.01-2.27-.13-3.94-1.85-3.92-4.01.02-2.16,1.71-3.9,4-3.92,5.97-.05,11.93-.02,17.9-.02h0Z"/>
  <path class="cls-1" d="m59.13,153.97c-4.67,0-9.35.05-14.02-.02-3.31-.05-5.16-3.37-3.46-6.05.88-1.39,2.18-1.91,3.8-1.9,6.03.03,12.07,0,18.11,0,3.11,0,6.23-.02,9.34,0,2.75.02,4.48,1.63,4.44,4.05-.04,2.34-1.74,3.89-4.4,3.9-4.61.02-9.21,0-13.82,0Z"/>
  <path class="cls-1" d="m100.38,51.86c-.04,2.22-1.77,3.9-3.99,3.88-2.17-.02-3.95-1.81-3.96-3.97,0-2.23,1.89-4.05,4.14-3.98,2.2.07,3.85,1.82,3.81,4.07Z"/>
</svg>