<?xml version="1.0" encoding="utf-8"?>
<!-- Generator: Adobe Illustrator 28.0.0, SVG Export Plug-In . SVG Version: 6.00 Build 0)  -->
<svg version="1.1" id="Capa_1" xmlns="http://www.w3.org/2000/svg" xmlns:xlink="http://www.w3.org/1999/xlink" x="0px" y="0px"
	 viewBox="0 0 200 200" style="enable-background:new 0 0 200 200;" xml:space="preserve">
<style type="text/css">
	.st0{fill:url(#SVGID_1_);}
</style>
<linearGradient id="SVGID_1_" gradientUnits="userSpaceOnUse" x1="28.7894" y1="194.535" x2="153.9281" y2="-22.1929" gradientTransform="matrix(1 0 0 -1 0 202)">
	<stop  offset="0" style="stop-color:#BFCC60"/>
	<stop  offset="0.29" style="stop-color:#798D5C"/>
	<stop  offset="0.69" style="stop-color:#6B6052"/>
	<stop  offset="1" style="stop-color:#3D3535"/>
</linearGradient>
<path class="st0" d="M194.5,200H5.5c-2.7,0-4.9-2.2-4.9-4.9s2.2-4.9,4.9-4.9h189.1c2.7,0,4.9,2.2,4.9,4.9S197.2,200,194.5,200
	L194.5,200z M199.4,175.6c0-2.7-2.2-4.9-4.9-4.9H5.5c-2.7,0-4.9,2.2-4.9,4.9s2.2,4.9,4.9,4.9h189.1
	C197.2,180.6,199.4,178.3,199.4,175.6L199.4,175.6L199.4,175.6z M64.5,32.2c1.4,2.3,0.6,5.3-1.8,6.7c-0.7,0.4-1.6,0.7-2.5,0.7H47.9
	v16.6c0,9.1-4.4,17.6-11.9,22.8c-0.3,0.2-0.6,0.4-0.9,0.6c-8.9,4.3-12.5,15-8.2,24c1.3,2.7,3.4,5.1,5.9,6.8c9.2,4.7,15,14,15.1,24.4
	v21.4c0,2.7-2.2,4.9-4.9,4.9l0,0c-2.7,0-4.9-2.2-4.9-4.9v-21.1c0-6.7-3.8-12.9-9.8-15.9c-0.2-0.1-0.4-0.2-0.6-0.4
	c-12.7-8.5-16.1-25.8-7.7-38.5c2.6-3.9,6.2-7.1,10.4-9.3c4.8-3.3,7.7-8.8,7.7-14.6V39.8H25.8c-2.7,0-4.9-2.2-4.9-4.9
	c0-0.9,0.2-1.7,0.7-2.5l17.1-30c1.4-2.3,4.4-3.1,6.7-1.8c0.7,0.4,1.4,1,1.8,1.8L64.5,32.2L64.5,32.2z M51.7,29.8l-8.7-15l-8.7,15
	H51.7z M122.1,32.2c1.4,2.3,0.6,5.3-1.8,6.7c-0.7,0.4-1.6,0.7-2.5,0.7h-12.3v16.6c0,9.1-4.4,17.6-11.9,22.8
	c-0.3,0.2-0.6,0.4-0.9,0.6c-8.9,4.3-12.5,15-8.2,24c1.3,2.7,3.4,5.1,5.9,6.8c9.2,4.7,15,14,15.1,24.4v21.4c0,2.7-2.2,4.9-4.9,4.9
	l0,0c-2.7,0-4.9-2.2-4.9-4.9v-21.1c0-6.7-3.8-12.9-9.8-15.9c-0.2-0.1-0.4-0.2-0.6-0.4c-12.7-8.5-16.1-25.8-7.7-38.5
	c2.6-3.9,6.2-7.1,10.4-9.3c4.8-3.3,7.7-8.8,7.7-14.6V39.7H83.4c-2.7,0-4.9-2.2-4.9-4.9c0-0.9,0.2-1.8,0.7-2.5L96.3,2.4
	c1.4-2.3,4.4-3.1,6.7-1.8c0.7,0.4,1.4,1,1.8,1.8L122.1,32.2L122.1,32.2z M109.2,29.8l-8.7-15l-8.7,15H109.2z M180.3,37.2
	c-0.9,1.5-2.5,2.5-4.3,2.5h-12.2v16.5c0,9.1-4.4,17.6-11.9,22.7c-0.3,0.2-0.6,0.4-0.9,0.6c-8.9,4.3-12.5,15-8.2,24
	c1.3,2.7,3.4,5.1,5.9,6.8c9.2,4.7,15,14,15.1,24.4v21.4c0,2.7-2.2,4.9-4.9,4.9l0,0c-2.7,0-4.9-2.2-4.9-4.9v-21.1
	c0-6.7-3.8-12.9-9.8-15.9c-0.2-0.1-0.4-0.2-0.6-0.4c-12.7-8.5-16.1-25.8-7.7-38.5c2.6-3.9,6.2-7.1,10.4-9.3
	c4.8-3.3,7.7-8.8,7.7-14.6V39.8h-12.2c-2.7,0-4.9-2.2-4.9-4.9c0-0.9,0.2-1.7,0.7-2.5l17.2-29.9c1.4-2.3,4.4-3.1,6.7-1.8
	c0.7,0.4,1.4,1,1.8,1.8l17.1,29.8C181.3,33.7,181.3,35.6,180.3,37.2L180.3,37.2L180.3,37.2z M167.6,29.8l-8.7-15l-8.7,15H167.6z"/>
</svg>
