<?xml version="1.0" encoding="utf-8"?>
<!-- Generator: Adobe Illustrator 28.0.0, SVG Export Plug-In . SVG Version: 6.00 Build 0)  -->
<svg version="1.1" id="Capa_1" xmlns="http://www.w3.org/2000/svg" xmlns:xlink="http://www.w3.org/1999/xlink" x="0px" y="0px"
	 viewBox="0 0 200 200" style="enable-background:new 0 0 200 200;" xml:space="preserve">
<style type="text/css">
	.st0{fill:url(#SVGID_1_);}
	.st1{fill:url(#SVGID_00000126311411057942336650000017064556581493202594_);}
	.st2{fill:url(#SVGID_00000034090552595791675380000006089761212868489867_);}
	.st3{fill:url(#SVGID_00000032639894256159647290000002795100546053809065_);}
	.st4{fill:url(#SVGID_00000005959729483039986550000003772134736743633328_);}
	.st5{fill:url(#SVGID_00000181790128973616243170000000470334270974989955_);}
	.st6{fill:url(#SVGID_00000098222106921024170950000002219734638659284393_);}
	.st7{fill:url(#SVGID_00000005241046995242482180000006631949752810517170_);}
	.st8{fill:url(#SVGID_00000112594299877345896550000004638464514059150233_);}
</style>
<g>
	<g>
		<g>
			<g>
				<linearGradient id="SVGID_1_" gradientUnits="userSpaceOnUse" x1="99.9973" y1="1.000479e-02" x2="99.9973" y2="200.025">
					<stop  offset="0" style="stop-color:#FF6839"/>
					<stop  offset="1" style="stop-color:#F3375B"/>
				</linearGradient>
				<path class="st0" d="M86.5,103.8c-0.7,0.7-1.2,1.7-1.2,2.8c0,2.1,1.7,3.8,3.8,3.9c2.6-2.9,5.4-5.6,8.6-7.9h-8.4
					C88.2,102.6,87.2,103,86.5,103.8z"/>
				
					<linearGradient id="SVGID_00000047030296161932638170000008606545894995013554_" gradientUnits="userSpaceOnUse" x1="99.9973" y1="1.000479e-02" x2="99.9973" y2="200.025">
					<stop  offset="0" style="stop-color:#FF6839"/>
					<stop  offset="1" style="stop-color:#F3375B"/>
				</linearGradient>
				<path style="fill:url(#SVGID_00000047030296161932638170000008606545894995013554_);" d="M102.1,76.9H89.3
					c-1.1,0-2.1,0.4-2.8,1.2c-0.7,0.7-1.2,1.7-1.2,2.8c0,2.2,1.8,4,4,4h12.8c1.1,0,2.1-0.4,2.8-1.2c0.7-0.7,1.2-1.7,1.2-2.8
					C106.1,78.7,104.3,76.9,102.1,76.9z"/>
				
					<linearGradient id="SVGID_00000091011361703602190340000015685263129005290416_" gradientUnits="userSpaceOnUse" x1="99.9973" y1="1.000479e-02" x2="99.9973" y2="200.025">
					<stop  offset="0" style="stop-color:#FF6839"/>
					<stop  offset="1" style="stop-color:#F3375B"/>
				</linearGradient>
				<path style="fill:url(#SVGID_00000091011361703602190340000015685263129005290416_);" d="M104.9,96.5c0.7-0.7,1.2-1.7,1.2-2.8
					c0-2.2-1.8-4-4-4H89.3c-1.1,0-2.1,0.4-2.8,1.2c-0.7,0.7-1.2,1.7-1.2,2.8c0,2.2,1.8,4,4,4h12.8C103.2,97.7,104.2,97.2,104.9,96.5
					z"/>
				
					<linearGradient id="SVGID_00000119087354583190488090000008426941496471280811_" gradientUnits="userSpaceOnUse" x1="99.9973" y1="1.000479e-02" x2="99.9973" y2="200.025">
					<stop  offset="0" style="stop-color:#FF6839"/>
					<stop  offset="1" style="stop-color:#F3375B"/>
				</linearGradient>
				<path style="fill:url(#SVGID_00000119087354583190488090000008426941496471280811_);" d="M86.5,52.5c-0.7,0.7-1.2,1.7-1.2,2.8
					c0,2.2,1.8,4,4,4h12.8c1.1,0,2.1-0.4,2.8-1.2c0.7-0.7,1.2-1.7,1.2-2.8c0-2.2-1.8-4-4-4H89.3C88.2,51.4,87.2,51.8,86.5,52.5z"/>
				
					<linearGradient id="SVGID_00000145045537679662679170000007443294654254152348_" gradientUnits="userSpaceOnUse" x1="99.9973" y1="1.000479e-02" x2="99.9973" y2="200.025">
					<stop  offset="0" style="stop-color:#FF6839"/>
					<stop  offset="1" style="stop-color:#F3375B"/>
				</linearGradient>
				<path style="fill:url(#SVGID_00000145045537679662679170000007443294654254152348_);" d="M70,40.5c-1.1,0-2.1,0.4-2.8,1.2
					c-0.7,0.7-1.2,1.7-1.2,2.8v92l-1.2,0.3c-11.5,3-18.3,14.7-15.4,26.2c2.9,11.4,14.7,18.3,26.2,15.4c3.1-0.8,5.9-2.3,8.2-4.2
					c-5.1-8.2-8-17.9-8-28.2c0-3.1,0.2-6.1,0.8-9c-0.3-0.1-0.6-0.2-0.9-0.3l-1.7-0.4V44.5C73.9,42.3,72.2,40.5,70,40.5z"/>
				
					<linearGradient id="SVGID_00000135686646038544810270000002687964500703113903_" gradientUnits="userSpaceOnUse" x1="99.9973" y1="1.000479e-02" x2="99.9973" y2="200.025">
					<stop  offset="0" style="stop-color:#FF6839"/>
					<stop  offset="1" style="stop-color:#F3375B"/>
				</linearGradient>
				<path style="fill:url(#SVGID_00000135686646038544810270000002687964500703113903_);" d="M102.1,64.1H89.3
					c-1.1,0-2.1,0.4-2.8,1.2c-0.7,0.7-1.2,1.7-1.2,2.8c0,2.2,1.8,4,4,4h12.8c1.1,0,2.1-0.4,2.8-1.2c0.7-0.7,1.2-1.7,1.2-2.8
					C106.1,65.9,104.3,64.1,102.1,64.1z"/>
				
					<linearGradient id="SVGID_00000114050132429543651870000003544270137365751944_" gradientUnits="userSpaceOnUse" x1="99.9973" y1="1.000479e-02" x2="99.9973" y2="200.025">
					<stop  offset="0" style="stop-color:#FF6839"/>
					<stop  offset="1" style="stop-color:#F3375B"/>
				</linearGradient>
				<path style="fill:url(#SVGID_00000114050132429543651870000003544270137365751944_);" d="M68.4,192.2
					c-18-0.9-32.4-15.3-33.1-33.4c-0.2-9.4,3.5-18.4,10.2-25.1c2.2-2.3,4.8-4.3,7.6-5.9l1.6-0.9V23.4c0-4.1,1.7-8,4.7-10.8
					c5.7-6.1,15.3-6.3,21.5-0.6c3,2.8,4.7,6.8,4.7,10.9v19.4c0,2.2,1.8,4,4,4c1.1,0,2.1-0.5,2.8-1.2c0.7-0.7,1.2-1.7,1.2-2.8V23.4
					c-0.1-11.1-7.9-20.8-18.7-23c-3.2-0.6-6.4-0.6-9.6,0c-4.5,0.9-8.6,3.2-11.9,6.4c-4.1,4.3-6.4,10-6.4,16v99.2
					c-0.2,0.1-0.5,0.3-0.5,0.3C34.2,130.3,27,144,27.5,158.6c0.7,18.8,13.5,35.2,31.8,40.2c7.3,1.7,15,1.7,22.4,0
					c6.2-1.7,11.9-4.7,16.7-8.9c-2.4-1.7-4.6-3.6-6.6-5.6C85.2,189.7,76.9,192.6,68.4,192.2L68.4,192.2z"/>
			</g>
			
				<linearGradient id="SVGID_00000057832333963199432180000002844371698285268142_" gradientUnits="userSpaceOnUse" x1="99.9973" y1="1.000479e-02" x2="99.9973" y2="200.025">
				<stop  offset="0" style="stop-color:#FF6839"/>
				<stop  offset="1" style="stop-color:#F3375B"/>
			</linearGradient>
			<path style="fill:url(#SVGID_00000057832333963199432180000002844371698285268142_);" d="M147.1,141.8h-13.6v-13.6
				c0-2.2-1.8-4-4-4s-4,1.8-4,4v13.6h-13.6c-2.2,0-4,1.8-4,4s1.8,4,4,4h13.6v13.6c0,2.2,1.8,4,4,4c2.2,0,4-1.8,4-4v-13.6h13.6
				c2.2,0,4-1.8,4-4S149.3,141.8,147.1,141.8z"/>
		</g>
		
			<linearGradient id="SVGID_00000015355597970655978880000000168976912999202958_" gradientUnits="userSpaceOnUse" x1="99.9973" y1="1.000479e-02" x2="99.9973" y2="200.025">
			<stop  offset="0" style="stop-color:#FF6839"/>
			<stop  offset="1" style="stop-color:#F3375B"/>
		</linearGradient>
		<path style="fill:url(#SVGID_00000015355597970655978880000000168976912999202958_);" d="M129.5,110.8c19.3,0,35,15.7,35,35
			s-15.7,35-35,35s-35-15.7-35-35S110.2,110.8,129.5,110.8 M129.5,102.8c-23.8,0-43,19.3-43,43s19.3,43,43,43s43-19.3,43-43
			S153.3,102.8,129.5,102.8L129.5,102.8z"/>
	</g>
</g>
</svg>
