<?xml version="1.0" encoding="utf-8"?>
<!-- Generator: Adobe Illustrator 28.0.0, SVG Export Plug-In . SVG Version: 6.00 Build 0)  -->
<svg version="1.1" id="Capa_1" xmlns="http://www.w3.org/2000/svg" xmlns:xlink="http://www.w3.org/1999/xlink" x="0px" y="0px"
	 viewBox="0 0 200 200" style="enable-background:new 0 0 200 200;" xml:space="preserve">
<style type="text/css">
	.st0{fill:url(#SVGID_1_);}
	.st1{fill:url(#SVGID_00000043438158865854172460000010207943210977863562_);}
	.st2{fill:url(#SVGID_00000096765943408645474330000003332124076261841537_);}
	.st3{fill:url(#SVGID_00000001629409402411542230000001463688161562270119_);}
	.st4{fill:url(#SVGID_00000003795093961027907590000006563703009266831025_);}
	.st5{fill:url(#SVGID_00000099654584445350846600000000103602072713330309_);}
	.st6{fill:url(#SVGID_00000183938695115258901060000014633270009402925216_);}
	.st7{fill:url(#SVGID_00000070830947049710471670000011528593181159373991_);}
</style>
<g>
	
		<linearGradient id="SVGID_1_" gradientUnits="userSpaceOnUse" x1="90.91" y1="202" x2="90.91" y2="2" gradientTransform="matrix(1 0 0 -1 0 202)">
		<stop  offset="0" style="stop-color:#60C5F1"/>
		<stop  offset="0.23" style="stop-color:#47B5E7"/>
		<stop  offset="0.75" style="stop-color:#1495D3"/>
		<stop  offset="1" style="stop-color:#0089CB"/>
	</linearGradient>
	<path class="st0" d="M85.9,103.8c-0.7,0.7-1.2,1.7-1.2,2.8c0,2.1,1.7,3.8,3.8,3.9c2.6-2.9,5.4-5.6,8.6-7.9h-8.4
		C87.6,102.6,86.6,103,85.9,103.8z"/>
	
		<linearGradient id="SVGID_00000038378281599058034420000003047824125814570900_" gradientUnits="userSpaceOnUse" x1="95.105" y1="202" x2="95.105" y2="2" gradientTransform="matrix(1 0 0 -1 0 202)">
		<stop  offset="0" style="stop-color:#60C5F1"/>
		<stop  offset="0.23" style="stop-color:#47B5E7"/>
		<stop  offset="0.75" style="stop-color:#1495D3"/>
		<stop  offset="1" style="stop-color:#0089CB"/>
	</linearGradient>
	<path style="fill:url(#SVGID_00000038378281599058034420000003047824125814570900_);" d="M101.5,76.9H88.7c-1.1,0-2.1,0.4-2.8,1.2
		c-0.7,0.7-1.2,1.7-1.2,2.8c0,2.2,1.8,4,4,4h12.8c1.1,0,2.1-0.4,2.8-1.2c0.7-0.7,1.2-1.7,1.2-2.8C105.5,78.7,103.7,76.9,101.5,76.9z
		"/>
	
		<linearGradient id="SVGID_00000091696226566407646480000013881712753959866527_" gradientUnits="userSpaceOnUse" x1="95.095" y1="202" x2="95.095" y2="2" gradientTransform="matrix(1 0 0 -1 0 202)">
		<stop  offset="0" style="stop-color:#60C5F1"/>
		<stop  offset="0.23" style="stop-color:#47B5E7"/>
		<stop  offset="0.75" style="stop-color:#1495D3"/>
		<stop  offset="1" style="stop-color:#0089CB"/>
	</linearGradient>
	<path style="fill:url(#SVGID_00000091696226566407646480000013881712753959866527_);" d="M104.3,96.5c0.7-0.7,1.2-1.7,1.2-2.8
		c0-2.2-1.8-4-4-4H88.7c-1.1,0-2.1,0.4-2.8,1.2c-0.7,0.7-1.2,1.7-1.2,2.8c0,2.2,1.8,4,4,4h12.8C102.6,97.7,103.6,97.2,104.3,96.5z"
		/>
	
		<linearGradient id="SVGID_00000107564270823250213590000005793418263046235541_" gradientUnits="userSpaceOnUse" x1="95.105" y1="202" x2="95.105" y2="2" gradientTransform="matrix(1 0 0 -1 0 202)">
		<stop  offset="0" style="stop-color:#60C5F1"/>
		<stop  offset="0.23" style="stop-color:#47B5E7"/>
		<stop  offset="0.75" style="stop-color:#1495D3"/>
		<stop  offset="1" style="stop-color:#0089CB"/>
	</linearGradient>
	<path style="fill:url(#SVGID_00000107564270823250213590000005793418263046235541_);" d="M85.9,52.5c-0.7,0.7-1.2,1.7-1.2,2.8
		c0,2.2,1.8,4,4,4h12.8c1.1,0,2.1-0.4,2.8-1.2c0.7-0.7,1.2-1.7,1.2-2.8c0-2.2-1.8-4-4-4H88.7C87.6,51.4,86.6,51.8,85.9,52.5z"/>
	
		<linearGradient id="SVGID_00000014626306505393017700000012432694333154244788_" gradientUnits="userSpaceOnUse" x1="65.5864" y1="202" x2="65.5864" y2="2" gradientTransform="matrix(1 0 0 -1 0 202)">
		<stop  offset="0" style="stop-color:#60C5F1"/>
		<stop  offset="0.23" style="stop-color:#47B5E7"/>
		<stop  offset="0.75" style="stop-color:#1495D3"/>
		<stop  offset="1" style="stop-color:#0089CB"/>
	</linearGradient>
	<path style="fill:url(#SVGID_00000014626306505393017700000012432694333154244788_);" d="M69.3,40.5c-1.1,0-2.1,0.4-2.8,1.2
		c-0.7,0.7-1.2,1.7-1.2,2.8v92l-1.2,0.3c-11.5,3-18.3,14.7-15.4,26.2c2.9,11.4,14.7,18.3,26.2,15.4c3.1-0.8,5.9-2.3,8.2-4.2
		c-5.1-8.2-8-17.9-8-28.2c0-3.1,0.2-6.1,0.8-9c-0.3-0.1-0.6-0.2-0.9-0.3l-1.7-0.4V44.5C73.3,42.3,71.5,40.5,69.3,40.5z"/>
	
		<linearGradient id="SVGID_00000101824025711970063590000007138120127133680271_" gradientUnits="userSpaceOnUse" x1="95.105" y1="202" x2="95.105" y2="2" gradientTransform="matrix(1 0 0 -1 0 202)">
		<stop  offset="0" style="stop-color:#60C5F1"/>
		<stop  offset="0.23" style="stop-color:#47B5E7"/>
		<stop  offset="0.75" style="stop-color:#1495D3"/>
		<stop  offset="1" style="stop-color:#0089CB"/>
	</linearGradient>
	<path style="fill:url(#SVGID_00000101824025711970063590000007138120127133680271_);" d="M101.5,64.1H88.7c-1.1,0-2.1,0.4-2.8,1.2
		c-0.7,0.7-1.2,1.7-1.2,2.8c0,2.2,1.8,4,4,4h12.8c1.1,0,2.1-0.4,2.8-1.2c0.7-0.7,1.2-1.7,1.2-2.8C105.5,65.9,103.7,64.1,101.5,64.1z
		"/>
	
		<linearGradient id="SVGID_00000073716414582312186290000004154370485991469719_" gradientUnits="userSpaceOnUse" x1="62.3123" y1="201.99" x2="62.3123" y2="1.975" gradientTransform="matrix(1 0 0 -1 0 202)">
		<stop  offset="0" style="stop-color:#60C5F1"/>
		<stop  offset="0.23" style="stop-color:#47B5E7"/>
		<stop  offset="0.75" style="stop-color:#1495D3"/>
		<stop  offset="1" style="stop-color:#0089CB"/>
	</linearGradient>
	<path style="fill:url(#SVGID_00000073716414582312186290000004154370485991469719_);" d="M67.8,192.2c-18-0.9-32.4-15.3-33.1-33.4
		c-0.2-9.4,3.5-18.4,10.2-25.1c2.2-2.3,4.8-4.3,7.6-5.9l1.6-0.9V23.4c0-4.1,1.7-8,4.7-10.8c5.7-6.1,15.3-6.3,21.5-0.6
		c3,2.8,4.7,6.8,4.7,10.9v19.4c0,2.2,1.8,4,4,4c1.1,0,2.1-0.5,2.8-1.2c0.7-0.7,1.2-1.7,1.2-2.8V23.4c-0.1-11.1-7.9-20.8-18.7-23
		c-3.2-0.6-6.4-0.6-9.6,0c-4.5,0.9-8.6,3.2-11.9,6.4c-4.1,4.3-6.4,10-6.4,16v99.2c-0.2,0.1-0.5,0.3-0.5,0.3
		c-12.2,7.8-19.5,21.6-18.9,36.1c0.7,18.8,13.5,35.2,31.8,40.2c7.3,1.7,15,1.7,22.4,0c6.2-1.7,11.9-4.7,16.7-8.9
		c-2.4-1.7-4.6-3.6-6.6-5.6C84.6,189.7,76.2,192.6,67.8,192.2L67.8,192.2z"/>
</g>
<linearGradient id="SVGID_00000018235702927531377940000014619260030800954247_" gradientUnits="userSpaceOnUse" x1="128.885" y1="202" x2="128.885" y2="2" gradientTransform="matrix(1 0 0 -1 0 202)">
	<stop  offset="0" style="stop-color:#60C5F1"/>
	<stop  offset="0.23" style="stop-color:#47B5E7"/>
	<stop  offset="0.75" style="stop-color:#1495D3"/>
	<stop  offset="1" style="stop-color:#0089CB"/>
</linearGradient>
<path style="fill:url(#SVGID_00000018235702927531377940000014619260030800954247_);" d="M170.4,143.2h-3.9l1.8-3
	c0.7-1.3,0.3-2.9-1-3.7c-1.3-0.7-2.9-0.3-3.7,1l-3.3,5.7h-25l17.6-17.7l6.4,1.7c0.2,0.1,0.5,0.1,0.7,0.1c1.2,0,2.3-0.8,2.6-2
	c0.4-1.4-0.5-2.9-1.9-3.3l-3.4-0.9l2.7-2.7c1.1-1.1,1.1-2.8,0-3.8c-1.1-1.1-2.8-1.1-3.8,0l-2.7,2.7l-0.9-3.4
	c-0.4-1.4-1.9-2.3-3.3-1.9c-1.4,0.4-2.3,1.9-1.9,3.3l1.7,6.4l-17.6,17.6v-25l5.7-3.3c1.3-0.7,1.7-2.4,1-3.7c-0.7-1.3-2.4-1.7-3.7-1
	l-3,1.8v-3.9c0-1.5-1.2-2.7-2.7-2.7h-0.1c-1.5,0-2.7,1.2-2.7,2.7v3.7l-3-1.7c-0.4-0.2-0.9-0.4-1.3-0.4c-0.9,0-1.8,0.5-2.3,1.3
	c-0.7,1.3-0.3,2.9,1,3.7l5.7,3.3v25.2l-17.7-17.7l1.7-6.4c0.4-1.4-0.5-2.9-1.9-3.3c-0.2-0.1-0.5-0.1-0.7-0.1c-1.2,0-2.3,0.8-2.6,2
	l-0.9,3.4l-2.7-2.7c-0.5-0.5-1.2-0.8-1.9-0.8s-1.4,0.3-1.9,0.8c-1.1,1.1-1.1,2.8,0,3.8l2.7,2.7l-3.4,0.9c-1.4,0.4-2.3,1.9-1.9,3.3
	c0.4,1.4,1.9,2.3,3.3,1.9l6.4-1.7l17.7,17.7H97.4l-3.3-5.7c-0.5-0.9-1.4-1.4-2.3-1.4c-0.5,0-0.9,0.1-1.3,0.4c-1.3,0.7-1.7,2.4-1,3.7
	l1.8,3h-3.9c-1.5,0-2.7,1.2-2.7,2.7c0,1.5,1.2,2.7,2.7,2.7h3.9l-1.8,3c-0.7,1.3-0.3,2.9,1,3.7c1.3,0.7,2.9,0.3,3.7-1l3.3-5.7h25
	l-17.6,17.6l-6.4-1.7c-0.2-0.1-0.5-0.1-0.7-0.1c-1.2,0-2.3,0.8-2.6,2c-0.4,1.4,0.5,2.9,1.9,3.3l3.4,0.9l-2.7,2.7
	c-1.1,1.1-1.1,2.8,0,3.8s2.8,1.1,3.8,0l2.7-2.7l0.9,3.4c0.4,1.4,1.9,2.3,3.3,1.9c1.4-0.4,2.3-1.9,1.9-3.3l-1.7-6.4l17.6-17.6v25
	l-5.7,3.3c-1.3,0.7-1.7,2.4-1,3.7c0.7,1.3,2.4,1.7,3.7,1l3-1.8v3.9c0,1.5,1.2,2.7,2.7,2.7h0.1c1.5,0,2.7-1.2,2.7-2.7v-3.7l3,1.7
	c0.4,0.2,0.9,0.4,1.3,0.4c0.9,0,1.8-0.5,2.3-1.4c0.7-1.3,0.3-2.9-1-3.7l-5.7-3.3v-25.2l17.7,17.7l-1.7,6.4c-0.4,1.4,0.5,2.9,1.9,3.3
	c0.2,0.1,0.5,0.1,0.7,0.1c1.2,0,2.3-0.8,2.6-2l0.9-3.4l2.7,2.7c0.5,0.5,1.2,0.8,1.9,0.8s1.4-0.3,1.9-0.8c1.1-1.1,1.1-2.8,0-3.8
	l-2.7-2.7l3.4-0.9c1.4-0.4,2.3-1.9,1.9-3.3c-0.4-1.4-1.9-2.3-3.3-1.9l-6.4,1.7l-17.7-17.7h24.9l3.3,5.7c0.5,0.9,1.4,1.4,2.3,1.4
	c0.5,0,0.9-0.1,1.4-0.4c1.3-0.7,1.7-2.4,1-3.7l-1.8-3h3.9c1.5,0,2.7-1.2,2.7-2.7C173.1,144.4,171.9,143.2,170.4,143.2L170.4,143.2z"
	/>
</svg>
