<?xml version="1.0" encoding="utf-8"?>
<!-- Generator: Adobe Illustrator 28.0.0, SVG Export Plug-In . SVG Version: 6.00 Build 0)  -->
<svg version="1.1" id="Capa_1" xmlns="http://www.w3.org/2000/svg" xmlns:xlink="http://www.w3.org/1999/xlink" x="0px" y="0px"
	 viewBox="0 0 145 200" style="enable-background:new 0 0 145 200;" xml:space="preserve">
<style type="text/css">
	.st0{fill:url(#SVGID_1_);}
	.st1{fill:url(#SVGID_00000121271028400491243260000010725073384731547304_);}
	.st2{fill:url(#SVGID_00000013185314315057017830000004956887317790694566_);}
	.st3{fill:url(#SVGID_00000098927995267950146950000017267785180508622225_);}
	.st4{fill:url(#SVGID_00000098909773884569852710000006016485075367466905_);}
	.st5{fill:url(#SVGID_00000137112425724176695110000001788762724858880912_);}
	.st6{fill:url(#SVGID_00000122716872968803223460000000576275548373531012_);}
	.st7{fill:url(#SVGID_00000044857080620930315520000012122206019145832340_);}
	.st8{fill:url(#SVGID_00000024712401659537445940000017067927154170163348_);}
</style>
<g>
	<g>
		<linearGradient id="SVGID_1_" gradientUnits="userSpaceOnUse" x1="72.5728" y1="1.000479e-02" x2="72.5728" y2="200.005">
			<stop  offset="0" style="stop-color:#60C5F1"/>
			<stop  offset="0.23" style="stop-color:#47B5E7"/>
			<stop  offset="0.75" style="stop-color:#1495D3"/>
			<stop  offset="1" style="stop-color:#0089CB"/>
		</linearGradient>
		<path class="st0" d="M102,110.6c19.4,0,35.1,15.8,35.1,35.1s-15.8,35.1-35.1,35.1s-35.1-15.8-35.1-35.1S82.6,110.6,102,110.6
			 M102,102.6c-23.8,0-43.1,19.3-43.1,43.1s19.3,43.1,43.1,43.1s43.1-19.3,43.1-43.1S125.8,102.6,102,102.6L102,102.6z"/>
		
			<linearGradient id="SVGID_00000098213576539840652290000012273878729691940523_" gradientUnits="userSpaceOnUse" x1="72.5728" y1="1.000479e-02" x2="72.5728" y2="200.005">
			<stop  offset="0" style="stop-color:#60C5F1"/>
			<stop  offset="0.23" style="stop-color:#47B5E7"/>
			<stop  offset="0.75" style="stop-color:#1495D3"/>
			<stop  offset="1" style="stop-color:#0089CB"/>
		</linearGradient>
		<path style="fill:url(#SVGID_00000098213576539840652290000012273878729691940523_);" d="M115.9,146.3h-12v-18.6c0-2.2-1.8-4-4-4
			s-4,1.8-4,4v22.6c0,2.2,1.8,4,4,4h16c2.2,0,4-1.8,4-4S118.1,146.3,115.9,146.3L115.9,146.3z"/>
		<g>
			
				<linearGradient id="SVGID_00000178163546983616992570000013570277531235426730_" gradientUnits="userSpaceOnUse" x1="72.5728" y1="1.000479e-02" x2="72.5728" y2="200.005">
				<stop  offset="0" style="stop-color:#60C5F1"/>
				<stop  offset="0.23" style="stop-color:#47B5E7"/>
				<stop  offset="0.75" style="stop-color:#1495D3"/>
				<stop  offset="1" style="stop-color:#0089CB"/>
			</linearGradient>
			<path style="fill:url(#SVGID_00000178163546983616992570000013570277531235426730_);" d="M59,103.8c-0.7,0.7-1.2,1.7-1.2,2.8
				c0,2.1,1.7,3.8,3.8,3.9c2.6-2.9,5.5-5.6,8.6-7.9h-8.4C60.7,102.6,59.7,103,59,103.8z"/>
			
				<linearGradient id="SVGID_00000133500048012846732240000001082512979115996573_" gradientUnits="userSpaceOnUse" x1="72.5728" y1="1.000479e-02" x2="72.5728" y2="200.005">
				<stop  offset="0" style="stop-color:#60C5F1"/>
				<stop  offset="0.23" style="stop-color:#47B5E7"/>
				<stop  offset="0.75" style="stop-color:#1495D3"/>
				<stop  offset="1" style="stop-color:#0089CB"/>
			</linearGradient>
			<path style="fill:url(#SVGID_00000133500048012846732240000001082512979115996573_);" d="M74.7,76.9H61.8c-1.1,0-2.1,0.4-2.8,1.2
				c-0.7,0.7-1.2,1.7-1.2,2.8c0,2.2,1.8,4,4,4h12.8c1.1,0,2.1-0.4,2.8-1.2c0.7-0.7,1.2-1.7,1.2-2.8C78.6,78.7,76.8,76.9,74.7,76.9z"
				/>
			
				<linearGradient id="SVGID_00000139996936087861551550000010119985290637268142_" gradientUnits="userSpaceOnUse" x1="72.5728" y1="1.000479e-02" x2="72.5728" y2="200.005">
				<stop  offset="0" style="stop-color:#60C5F1"/>
				<stop  offset="0.23" style="stop-color:#47B5E7"/>
				<stop  offset="0.75" style="stop-color:#1495D3"/>
				<stop  offset="1" style="stop-color:#0089CB"/>
			</linearGradient>
			<path style="fill:url(#SVGID_00000139996936087861551550000010119985290637268142_);" d="M77.4,96.5c0.7-0.7,1.2-1.7,1.2-2.8
				c0-2.2-1.8-4-4-4H61.8c-1.1,0-2.1,0.4-2.8,1.2c-0.7,0.7-1.2,1.7-1.2,2.8c0,2.2,1.8,4,4,4h12.8C75.7,97.7,76.7,97.2,77.4,96.5z"/>
			
				<linearGradient id="SVGID_00000085966217363471593820000012217252708695643324_" gradientUnits="userSpaceOnUse" x1="72.5728" y1="1.000479e-02" x2="72.5728" y2="200.005">
				<stop  offset="0" style="stop-color:#60C5F1"/>
				<stop  offset="0.23" style="stop-color:#47B5E7"/>
				<stop  offset="0.75" style="stop-color:#1495D3"/>
				<stop  offset="1" style="stop-color:#0089CB"/>
			</linearGradient>
			<path style="fill:url(#SVGID_00000085966217363471593820000012217252708695643324_);" d="M59,52.5c-0.7,0.7-1.2,1.7-1.2,2.8
				c0,2.2,1.8,4,4,4h12.8c1.1,0,2.1-0.4,2.8-1.2c0.7-0.7,1.2-1.7,1.2-2.8c0-2.2-1.8-4-4-4H61.8C60.7,51.4,59.7,51.8,59,52.5z"/>
			
				<linearGradient id="SVGID_00000008868610949092165260000014281001618400001208_" gradientUnits="userSpaceOnUse" x1="72.5728" y1="1.000479e-02" x2="72.5728" y2="200.005">
				<stop  offset="0" style="stop-color:#60C5F1"/>
				<stop  offset="0.23" style="stop-color:#47B5E7"/>
				<stop  offset="0.75" style="stop-color:#1495D3"/>
				<stop  offset="1" style="stop-color:#0089CB"/>
			</linearGradient>
			<path style="fill:url(#SVGID_00000008868610949092165260000014281001618400001208_);" d="M42.5,40.5c-1.1,0-2.1,0.4-2.8,1.2
				c-0.7,0.7-1.2,1.7-1.2,2.8v92l-1.2,0.3c-11.5,3-18.3,14.7-15.4,26.2c2.9,11.4,14.7,18.3,26.2,15.4c3.1-0.8,5.9-2.3,8.2-4.2
				c-5-8.2-8-17.9-8-28.2c0-3.1,0.2-6.1,0.8-9c-0.3-0.1-0.6-0.2-0.9-0.3l-1.7-0.4V44.5C46.4,42.3,44.7,40.5,42.5,40.5z"/>
			
				<linearGradient id="SVGID_00000078750593921954807690000006049919512750693290_" gradientUnits="userSpaceOnUse" x1="72.5728" y1="1.000479e-02" x2="72.5728" y2="200.005">
				<stop  offset="0" style="stop-color:#60C5F1"/>
				<stop  offset="0.23" style="stop-color:#47B5E7"/>
				<stop  offset="0.75" style="stop-color:#1495D3"/>
				<stop  offset="1" style="stop-color:#0089CB"/>
			</linearGradient>
			<path style="fill:url(#SVGID_00000078750593921954807690000006049919512750693290_);" d="M74.7,64.1H61.8c-1.1,0-2.1,0.4-2.8,1.2
				c-0.7,0.7-1.2,1.7-1.2,2.8c0,2.2,1.8,4,4,4h12.8c1.1,0,2.1-0.4,2.8-1.2c0.7-0.7,1.2-1.7,1.2-2.8C78.6,65.9,76.8,64.1,74.7,64.1z"
				/>
			
				<linearGradient id="SVGID_00000083061778140439688810000011442115529124069299_" gradientUnits="userSpaceOnUse" x1="72.5728" y1="1.000479e-02" x2="72.5728" y2="200.005">
				<stop  offset="0" style="stop-color:#60C5F1"/>
				<stop  offset="0.23" style="stop-color:#47B5E7"/>
				<stop  offset="0.75" style="stop-color:#1495D3"/>
				<stop  offset="1" style="stop-color:#0089CB"/>
			</linearGradient>
			<path style="fill:url(#SVGID_00000083061778140439688810000011442115529124069299_);" d="M40.9,192.2
				c-18-0.9-32.4-15.3-33.1-33.4c-0.2-9.4,3.5-18.4,10.2-25.1c2.2-2.3,4.8-4.3,7.6-5.9l1.6-0.9V23.4c0-4.1,1.7-8,4.7-10.8
				c5.7-6.1,15.3-6.3,21.5-0.6c3,2.8,4.7,6.8,4.7,10.9v19.4c0,2.2,1.8,4,4,4c1.1,0,2.1-0.5,2.8-1.2c0.7-0.7,1.2-1.7,1.2-2.8V23.4
				c-0.1-11.1-7.9-20.8-18.7-23c-3.2-0.6-6.4-0.6-9.6,0c-4.5,0.9-8.6,3.2-11.9,6.4c-4.1,4.3-6.4,10-6.4,16v99.2
				c-0.2,0.1-0.5,0.3-0.5,0.3C6.7,130.3-0.5,144,0,158.5c0.7,18.8,13.5,35.2,31.8,40.2c7.3,1.7,15,1.7,22.4,0
				c6.2-1.7,11.9-4.7,16.7-8.9c-2.4-1.7-4.6-3.6-6.6-5.6C57.7,189.7,49.4,192.6,40.9,192.2L40.9,192.2z"/>
		</g>
	</g>
</g>
</svg>
