<?xml version="1.0" encoding="UTF-8"?>
<svg id="Capa_1" data-name="Capa 1" xmlns="http://www.w3.org/2000/svg" xmlns:xlink="http://www.w3.org/1999/xlink" viewBox="0 0 200 200">
  <defs>
    <style>
      .cls-1 {
        fill: url(#Degradado_sin_nombre_32);
        stroke-width: 0px;
      }
    </style>
    <linearGradient id="Degradado_sin_nombre_32" data-name="Degradado sin nombre 32" x1="0" y1="100" x2="200" y2="100" gradientUnits="userSpaceOnUse">
      <stop offset="0" stop-color="#eb6840"/>
      <stop offset=".43" stop-color="#e63a5d"/>
      <stop offset="1" stop-color="#874592"/>
    </linearGradient>
  </defs>
  <path class="cls-1" d="m120.61,185.06c-.86-1.09-1.66-2.21-2.42-3.35-3.76,3.56-7.64,6-11.84,7.38l-3.33,1.1v-47.8l2.48-.05c1.58-.03,3.7.12,6.08.37.74-2.78,1.72-5.48,2.94-8.07-2.98-.36-6.02-.64-9.14-.82l-2.38-.14v-29.41h25.98v-8.57h-25.98v-29.33l2.38-.14c8.31-.48,16.1-1.61,23.6-3.39v-8.66c-7.71,1.98-15.39,3.15-23.3,3.52l-2.65.13V9.6l3.47,1.4c1.73.69,3.17,1.29,4.56,2.05,5.46,3,10.2,7.59,14.94,14.44,1.04,1.51,2.03,3.07,2.98,4.68v-8.33c0-2.09.22-4.14.64-6.14l.61-2.42c.81-2.68,1.99-5.24,3.52-7.6-10.51-4.02-21.86-6.29-33.71-6.44-.43-.01-.84-.01-1.26-.01-26.13,0-50.75,10.14-69.45,28.61C10.39,48.59-.02,73.43,0,99.81c-.19,53.72,43.38,98.1,97.14,98.94.54.01,1.05.01,1.59.01,10.62,0,21-1.68,30.83-4.92-3.31-2.51-6.32-5.44-8.95-8.78ZM91.07,10.93l3.36-1.17v47.93h-2.53c-7.27-.01-23.05-2.84-29.63-5.3l-2.26-.85.74-2.29c.13-.44.27-.87.44-1.3,4.77-12.69,10.01-21.5,17-28.57,4.01-4.07,8.23-6.84,12.89-8.45Zm3.4,55.44v29.38h-41.91l.1-2.62c.39-10.67,1.76-20.74,4.19-30.78l.64-2.62,2.57.8c10.16,3.16,20.63,5.02,32.02,5.7l2.38.14Zm-59.66-30.16c8.24-8.19,17.22-14.32,27.43-18.75l8.31-3.6-5.24,7.38c-4.86,6.87-8.99,15.03-12.63,24.98l-1,2.73-19.28-10.34,2.42-2.41Zm-26.14,56.82c1.29-16.75,6.99-32.26,16.94-46.11l1.3-1.8,22.41,12.05-.48,1.91c-2.59,10.49-4.11,21.69-4.65,34.24l-.11,2.43H8.47l.2-2.72Zm18.26,61.85l-1.3-1.79c-9.9-13.63-15.61-29.13-16.97-46.03l-.22-2.74h35.65l.11,2.42c.56,12.62,2.09,23.81,4.66,34.2l.48,1.9-22.4,12.04Zm35.34,27.69c-10.18-4.42-19.16-10.55-27.46-18.78l-2.44-2.41,19.3-10.34,1,2.74c3.64,9.95,7.78,18.12,12.66,24.99l5.27,7.4-8.33-3.61Zm32.2,7.77l-3.44-1.33c-1.57-.61-2.98-1.17-4.3-1.89-6.43-3.5-11.68-8.84-16.99-17.3-3.38-5.37-6.32-11.57-8.98-18.96l-.85-2.37,2.36-.86c7.02-2.58,23.14-5.44,29.75-5.29l2.47.06v47.94Zm.02-56.69l-2.37.15c-11.69.74-22.16,2.6-32.02,5.69l-2.56.8-.65-2.61c-2.4-9.7-3.78-19.76-4.22-30.75l-.11-2.63h41.94v29.35Z"/>
  <path id="thermometer" class="cls-1" d="m177.28,101.54h12.51c2.13,0,3.86,1.73,3.86,3.86h0c0,2.13-1.73,3.86-3.86,3.86h-12.51c-2.13,0-3.86-1.73-3.86-3.86h0c0-2.13,1.73-3.86,3.86-3.86Zm0-12.51h12.51c2.13,0,3.86,1.73,3.86,3.86h0c0,2.13-1.73,3.86-3.86,3.86h-12.51c-2.13,0-3.86-1.73-3.86-3.86h0c0-2.13,1.73-3.86,3.86-3.86Zm0-12.51h12.51c2.13,0,3.86,1.73,3.86,3.86h0c0,2.13-1.73,3.86-3.86,3.86h-12.51c-2.13,0-3.86-1.73-3.86-3.86h0c0-2.13,1.73-3.86,3.86-3.86Zm0-12.51h12.51c2.13,0,3.86,1.73,3.86,3.86h0c0,2.13-1.73,3.86-3.86,3.86h-12.51c-2.13,0-3.86-1.73-3.86-3.86h0c0-2.13,1.73-3.86,3.86-3.86Zm0-12.41h12.51c2.13,0,3.86,1.73,3.86,3.86h0c0,2.13-1.73,3.86-3.86,3.86h-12.51c-2.13,0-3.86-1.73-3.86-3.86h0c0-2.13,1.73-3.86,3.86-3.86Zm11.39,132.43c7.33-7.72,11.34-17.88,11.34-28.44-.1-13.98-7.13-26.97-18.76-34.69v-3.03c0-2.16-1.75-3.91-3.91-3.91h0c-2.16,0-3.91,1.75-3.91,3.91v7.13s2.05,1.17,2.05,1.17c10.36,5.96,16.71,16.91,16.91,28.83,0,8.7-3.42,17.1-9.58,23.26-.39.49-.78.88-1.27,1.27-6.65,6.35-15.54,9.77-24.63,9.38-17.59-.88-31.57-14.95-32.25-32.54-.2-9.19,3.42-17.98,9.97-24.43,2.15-2.25,4.69-4.2,7.43-5.77l1.56-.88V24.33c0-4.01,1.66-7.82,4.59-10.56,5.57-5.96,14.95-6.16,20.91-.59,2.93,2.74,4.59,6.65,4.59,10.65v18.86c0,2.16,1.75,3.91,3.91,3.91h0c2.16,0,3.91-1.75,3.91-3.91v-18.37c-.1-10.85-7.72-20.23-18.28-22.38-3.13-.59-6.25-.59-9.38,0-4.4.88-8.4,3.13-11.63,6.25-4.01,4.2-6.25,9.77-6.25,15.64v96.75c-.2.1-.49.29-.49.29-11.92,7.62-18.96,21.01-18.47,35.18.68,18.37,13.19,34.3,30.98,39.19,7.13,1.66,14.66,1.66,21.79,0,6.74-1.86,13-5.28,17.98-10.16.2-.29.59-.68.88-1.08Zm-24.73-49.16l-1.66-.39V44.9c0-2.13-1.73-3.86-3.86-3.86h0c-2.13,0-3.86,1.73-3.86,3.86v89.67l-1.17.29c-11.24,2.93-17.88,14.37-15.05,25.51,2.83,11.14,14.37,17.88,25.51,15.05,11.24-2.93,17.88-14.37,15.05-25.51-1.86-7.33-7.62-13.1-14.95-15.05h0Z"/>
</svg>