<?xml version="1.0" encoding="utf-8"?>
<!-- Generator: Adobe Illustrator 28.0.0, SVG Export Plug-In . SVG Version: 6.00 Build 0)  -->
<svg version="1.1" id="Capa_1" xmlns="http://www.w3.org/2000/svg" xmlns:xlink="http://www.w3.org/1999/xlink" x="0px" y="0px"
	 viewBox="0 0 200 200" style="enable-background:new 0 0 200 200;" xml:space="preserve">
<style type="text/css">
	.st0{fill:url(#SVGID_1_);}
	.st1{fill:url(#SVGID_00000022549568515787745670000017850023382337919107_);}
	.st2{fill:url(#SVGID_00000044885757771744813520000006473691522094136197_);}
	.st3{fill:url(#SVGID_00000180332330079792274450000014039621443898690945_);}
	.st4{fill:url(#SVGID_00000059305928519518476630000017707482942684306571_);}
	.st5{fill:url(#SVGID_00000168795036381408464430000002956198123936586679_);}
	.st6{fill:url(#SVGID_00000036212827994441534950000009678243296365525399_);}
	.st7{fill:url(#SVGID_00000088826404580839783840000010095535216461815180_);}
	.st8{fill:url(#SVGID_00000139261911883775967170000004456380006165297036_);}
	.st9{fill:url(#SVGID_00000086679301570708676310000004526082448375753359_);}
	.st10{fill:url(#SVGID_00000126296020782665966030000009147608661059944860_);}
	.st11{fill:url(#SVGID_00000087405893169938459450000001607541805753445042_);}
	.st12{fill:url(#SVGID_00000151504398719716908970000010776452248101661068_);}
</style>
<g>
	
		<linearGradient id="SVGID_1_" gradientUnits="userSpaceOnUse" x1="88.565" y1="202" x2="88.565" y2="2" gradientTransform="matrix(1 0 0 -1 0 202)">
		<stop  offset="0" style="stop-color:#FDCA40"/>
		<stop  offset="1" style="stop-color:#F08900"/>
	</linearGradient>
	<path class="st0" d="M95,89.8H82.2c-1.1,0-2.1,0.4-2.8,1.2c-0.7,0.7-1.2,1.7-1.2,2.8c0,2.2,1.8,4,4,4H95c1.1,0,2.1-0.4,2.8-1.2
		c0.7-0.7,1.2-1.7,1.2-2.8C98.9,91.5,97.2,89.8,95,89.8z"/>
	
		<linearGradient id="SVGID_00000100343201932030498960000013234269537150027413_" gradientUnits="userSpaceOnUse" x1="88.565" y1="202" x2="88.565" y2="2" gradientTransform="matrix(1 0 0 -1 0 202)">
		<stop  offset="0" style="stop-color:#FDCA40"/>
		<stop  offset="1" style="stop-color:#F08900"/>
	</linearGradient>
	<path style="fill:url(#SVGID_00000100343201932030498960000013234269537150027413_);" d="M95,76.9H82.2c-1.1,0-2.1,0.4-2.8,1.2
		c-0.7,0.7-1.2,1.7-1.2,2.8c0,2.2,1.8,4,4,4H95c1.1,0,2.1-0.4,2.8-1.2c0.7-0.7,1.2-1.7,1.2-2.8C98.9,78.7,97.2,76.9,95,76.9z"/>
	
		<linearGradient id="SVGID_00000183206470405939420090000003143461114467479436_" gradientUnits="userSpaceOnUse" x1="88.565" y1="202" x2="88.565" y2="2" gradientTransform="matrix(1 0 0 -1 0 202)">
		<stop  offset="0" style="stop-color:#FDCA40"/>
		<stop  offset="1" style="stop-color:#F08900"/>
	</linearGradient>
	<path style="fill:url(#SVGID_00000183206470405939420090000003143461114467479436_);" d="M97.8,109.3c0.7-0.7,1.2-1.7,1.2-2.8
		c0-2.2-1.8-4-4-4H82.2c-1.1,0-2.1,0.4-2.8,1.2c-0.7,0.7-1.2,1.7-1.2,2.8c0,2.2,1.8,4,4,4H95C96.1,110.5,97.1,110.1,97.8,109.3z"/>
	
		<linearGradient id="SVGID_00000000199678351745219140000012345982386073485482_" gradientUnits="userSpaceOnUse" x1="88.565" y1="202" x2="88.565" y2="2" gradientTransform="matrix(1 0 0 -1 0 202)">
		<stop  offset="0" style="stop-color:#FDCA40"/>
		<stop  offset="1" style="stop-color:#F08900"/>
	</linearGradient>
	<path style="fill:url(#SVGID_00000000199678351745219140000012345982386073485482_);" d="M79.3,52.5c-0.7,0.7-1.2,1.7-1.2,2.8
		c0,2.2,1.8,4,4,4H95c1.1,0,2.1-0.4,2.8-1.2c0.7-0.7,1.2-1.7,1.2-2.8c0-2.2-1.8-4-4-4H82.2C81.1,51.4,80.1,51.8,79.3,52.5z"/>
	
		<linearGradient id="SVGID_00000076598576828464320760000002580007368151410603_" gradientUnits="userSpaceOnUse" x1="54.6214" y1="202" x2="54.6214" y2="2" gradientTransform="matrix(1 0 0 -1 0 202)">
		<stop  offset="0" style="stop-color:#FDCA40"/>
		<stop  offset="1" style="stop-color:#F08900"/>
	</linearGradient>
	<path style="fill:url(#SVGID_00000076598576828464320760000002580007368151410603_);" d="M63.8,134.2l2.9-1.5V44.5c0-2.2-1.8-4-4-4
		c-1.1,0-2.1,0.4-2.8,1.2c-0.7,0.7-1.2,1.7-1.2,2.8v92l-1.2,0.3c-11.5,3-18.3,14.7-15.4,26.2c2.8,11.2,14.3,18.1,25.5,15.6v-27.8
		h-0.1c-4.8,0-8.7-3.9-8.7-8.7C58.9,138.7,60.8,135.6,63.8,134.2L63.8,134.2z"/>
	
		<linearGradient id="SVGID_00000072238387816076527070000018177485532233160380_" gradientUnits="userSpaceOnUse" x1="86.565" y1="202" x2="86.565" y2="2" gradientTransform="matrix(1 0 0 -1 0 202)">
		<stop  offset="0" style="stop-color:#FDCA40"/>
		<stop  offset="1" style="stop-color:#F08900"/>
	</linearGradient>
	<path style="fill:url(#SVGID_00000072238387816076527070000018177485532233160380_);" d="M88.5,134.4c1.9-2.1,4.2-3.5,6.4-4.3
		c-2.5-2.9-5.4-5.5-8.7-7.7v-3.1c0-2.2-1.8-4-4-4c-1.1,0-2.1,0.4-2.8,1.2c-0.7,0.7-1.2,1.7-1.2,2.8v7.3l2.1,1.2
		C83.4,129.6,86.1,131.9,88.5,134.4z"/>
	
		<linearGradient id="SVGID_00000011746550395492503450000004150341210757922949_" gradientUnits="userSpaceOnUse" x1="88.565" y1="202" x2="88.565" y2="2" gradientTransform="matrix(1 0 0 -1 0 202)">
		<stop  offset="0" style="stop-color:#FDCA40"/>
		<stop  offset="1" style="stop-color:#F08900"/>
	</linearGradient>
	<path style="fill:url(#SVGID_00000011746550395492503450000004150341210757922949_);" d="M95,64.1H82.2c-1.1,0-2.1,0.4-2.8,1.2
		c-0.7,0.7-1.2,1.7-1.2,2.8c0,2.2,1.8,4,4,4H95c1.1,0,2.1-0.4,2.8-1.2c0.7-0.7,1.2-1.7,1.2-2.8C98.9,65.9,97.2,64.1,95,64.1z"/>
	
		<linearGradient id="SVGID_00000030456906024619855930000012985637680867402894_" gradientUnits="userSpaceOnUse" x1="57.2228" y1="201.99" x2="57.2228" y2="1.975" gradientTransform="matrix(1 0 0 -1 0 202)">
		<stop  offset="0" style="stop-color:#FDCA40"/>
		<stop  offset="1" style="stop-color:#F08900"/>
	</linearGradient>
	<path style="fill:url(#SVGID_00000030456906024619855930000012985637680867402894_);" d="M87.5,181.7c-0.3,0.3-0.6,0.6-0.9,0.9
		c-0.9,0.8-1.8,1.6-2.7,2.3c-1.5,1.1-3,2.2-4.6,3c-5.5,3-11.7,4.5-18,4.3c-18-0.9-32.4-15.3-33.1-33.4c-0.2-9.4,3.5-18.4,10.2-25.1
		c2.2-2.3,4.8-4.3,7.6-5.9l1.6-0.9V23.4c0-4.1,1.7-8,4.7-10.8C58,6.5,67.7,6.3,73.8,12c3,2.8,4.7,6.8,4.7,10.9v19.4c0,2.2,1.8,4,4,4
		c1.1,0,2.1-0.5,2.8-1.2c0.7-0.7,1.2-1.7,1.2-2.8V23.4c-0.1-11.1-7.9-20.8-18.7-23c-3.2-0.6-6.4-0.6-9.6,0
		c-4.5,0.9-8.6,3.2-11.9,6.4c-4.1,4.3-6.4,10-6.4,16v99.2c-0.2,0.1-0.5,0.3-0.5,0.3c-12.2,7.8-19.5,21.6-19,36.1
		c0.7,18.8,13.5,35.2,31.8,40.2c7.3,1.7,15,1.7,22.3,0c6.9-1.9,13.3-5.4,18.4-10.4c0.2-0.3,0.6-0.7,0.9-1.1c0.1-0.1,0.2-0.2,0.3-0.3
		C91.6,185.9,89.3,184.2,87.5,181.7L87.5,181.7z"/>
	
		<linearGradient id="SVGID_00000092445492269784281510000006661318717403638192_" gradientUnits="userSpaceOnUse" x1="72.39" y1="202" x2="72.39" y2="2" gradientTransform="matrix(1 0 0 -1 0 202)">
		<stop  offset="0" style="stop-color:#FDCA40"/>
		<stop  offset="1" style="stop-color:#F08900"/>
	</linearGradient>
	<path style="fill:url(#SVGID_00000092445492269784281510000006661318717403638192_);" d="M72.7,179.1c0,2.2,1.8,4.1,4.1,4.1
		s4.1-1.9,4.1-4.1v-41.6c0-1.8-1.3-3.6-3.7-3.6c-1.7,0-2.7,0.6-4.3,1.3l-3.5,1.8l-3.3,1.6c-1.2,0.6-2.1,1.8-2.1,3.4
		c0,2,1.7,3.7,3.7,3.7c0.4,0,0.9-0.1,1.3-0.3c0.1,0,3.8-1.7,3.8-1.7L72.7,179.1L72.7,179.1z"/>
	
		<linearGradient id="SVGID_00000126319564416013348170000006230948089853307807_" gradientUnits="userSpaceOnUse" x1="102.415" y1="202" x2="102.415" y2="2" gradientTransform="matrix(1 0 0 -1 0 202)">
		<stop  offset="0" style="stop-color:#FDCA40"/>
		<stop  offset="1" style="stop-color:#F08900"/>
	</linearGradient>
	<path style="fill:url(#SVGID_00000126319564416013348170000006230948089853307807_);" d="M102.6,133.9c-1.6,0-3.1,0.2-4.4,0.5
		c-2.8,0.7-4.9,2-6.5,4.1c-2.1,2.8-3.1,6.8-3.1,11.9v16.5c0,4.5,0.7,8.1,2.3,10.9c1.4,2.5,3.6,4.2,6.7,5c1.4,0.4,3,0.6,4.8,0.6
		c9.7,0,13.8-5.9,13.8-16.4v-16.5C116.2,139.7,112.4,133.9,102.6,133.9L102.6,133.9z M108,167.1c0,5.7-1.1,8.8-5.7,8.8
		c-0.3,0-0.6,0-0.9-0.1c-3.9-0.4-4.8-3.6-4.8-8.8V150c0-5.9,1.4-8.6,5.2-8.8c0.2,0,0.3,0,0.5,0c4.3,0,5.7,2.8,5.7,8.8L108,167.1
		L108,167.1z"/>
	
		<linearGradient id="SVGID_00000107552251066771035950000001772439759122761118_" gradientUnits="userSpaceOnUse" x1="133.815" y1="202" x2="133.815" y2="2" gradientTransform="matrix(1 0 0 -1 0 202)">
		<stop  offset="0" style="stop-color:#FDCA40"/>
		<stop  offset="1" style="stop-color:#F08900"/>
	</linearGradient>
	<path style="fill:url(#SVGID_00000107552251066771035950000001772439759122761118_);" d="M133.8,133.9c-6.9,0-10.9,3.8-10.9,11.3
		v4.2c0,7.5,4,11.3,10.9,11.3c6.9,0,11-4.1,11-11.3v-4.2C144.8,137.8,140.9,133.9,133.8,133.9z M138.2,150c0,4.1-1.5,5.8-4.4,5.8
		s-4.4-1.8-4.4-5.8v-5.3c0-4,1.4-5.8,4.4-5.8s4.4,1.7,4.4,5.8V150z"/>
	
		<linearGradient id="SVGID_00000151536310582945698510000012750019251800245432_" gradientUnits="userSpaceOnUse" x1="133.845" y1="202" x2="133.845" y2="2" gradientTransform="matrix(1 0 0 -1 0 202)">
		<stop  offset="0" style="stop-color:#FDCA40"/>
		<stop  offset="1" style="stop-color:#F08900"/>
	</linearGradient>
	<path style="fill:url(#SVGID_00000151536310582945698510000012750019251800245432_);" d="M142,164.5h-16.3c-1.5,0-2.8,1.2-2.8,2.7
		s1.3,2.9,2.8,2.9H142c1.5,0,2.8-1.3,2.8-2.9S143.5,164.5,142,164.5z"/>
	
		<linearGradient id="SVGID_00000008830005807827813190000004088734386595436978_" gradientUnits="userSpaceOnUse" x1="165.37" y1="202" x2="165.37" y2="2" gradientTransform="matrix(1 0 0 -1 0 202)">
		<stop  offset="0" style="stop-color:#FDCA40"/>
		<stop  offset="1" style="stop-color:#F08900"/>
	</linearGradient>
	<path style="fill:url(#SVGID_00000008830005807827813190000004088734386595436978_);" d="M176.5,174.6c-0.4,0-0.9,0.1-1.4,0.1
		c-1.6,0.4-3.4,1.1-5.9,1.1c-5.9,0-9.9-2.8-9.9-10.7v-13c0-7.7,3.8-11,9.9-11c3.2,0,4.6,0.9,6.2,1.3c0.3,0.1,0.7,0.1,1,0.1
		c1.8-0.1,3.2-1.6,3.2-3.4c0-1.9-1.1-3-2.7-3.8c-2.6-1.3-6.1-1.6-8.5-1.6c-10.8,0-17.4,6.7-17.4,19.1v11.6
		c0,12.5,6.6,18.8,17.2,18.8c3.1,0,6.9-0.4,9.4-2c1.1-0.7,1.9-1.8,1.9-3.2C179.5,176.2,178.3,174.7,176.5,174.6L176.5,174.6z"/>
</g>
</svg>
