<?xml version="1.0" encoding="utf-8"?>
<!-- Generator: Adobe Illustrator 28.0.0, SVG Export Plug-In . SVG Version: 6.00 Build 0)  -->
<svg version="1.1" id="Capa_1" xmlns="http://www.w3.org/2000/svg" xmlns:xlink="http://www.w3.org/1999/xlink" x="0px" y="0px"
	 viewBox="0 0 200 200" style="enable-background:new 0 0 200 200;" xml:space="preserve">
<style type="text/css">
	.st0{fill:url(#SVGID_1_);}
	.st1{fill:url(#SVGID_00000083062303127552115950000017177162417193306811_);}
	.st2{fill:url(#SVGID_00000059286675913337381990000014690666668017403785_);}
	.st3{fill:url(#SVGID_00000044875301030667613190000006071951065771425687_);}
	.st4{fill:url(#SVGID_00000119078328474058849430000000823838549260904890_);}
	.st5{fill:url(#SVGID_00000033341349095863074740000005619506407384557974_);}
	.st6{fill:url(#SVGID_00000124861551954702295540000000255214891274072511_);}
	.st7{fill:url(#SVGID_00000030476027679619077280000017750950571009931189_);}
</style>
<g>
	
		<linearGradient id="SVGID_1_" gradientUnits="userSpaceOnUse" x1="91.46" y1="202" x2="91.46" y2="2" gradientTransform="matrix(1 0 0 -1 0 202)">
		<stop  offset="0" style="stop-color:#60C5F1"/>
		<stop  offset="0.23" style="stop-color:#47B5E7"/>
		<stop  offset="0.75" style="stop-color:#1495D3"/>
		<stop  offset="1" style="stop-color:#0089CB"/>
	</linearGradient>
	<path class="st0" d="M86.4,103.8c-0.7,0.7-1.2,1.7-1.2,2.8c0,2.1,1.7,3.8,3.8,3.9c2.6-2.9,5.4-5.6,8.6-7.9h-8.4
		C88.2,102.6,87.2,103,86.4,103.8z"/>
	
		<linearGradient id="SVGID_00000094580201580898427720000002931326250936145063_" gradientUnits="userSpaceOnUse" x1="95.655" y1="202" x2="95.655" y2="2" gradientTransform="matrix(1 0 0 -1 0 202)">
		<stop  offset="0" style="stop-color:#60C5F1"/>
		<stop  offset="0.23" style="stop-color:#47B5E7"/>
		<stop  offset="0.75" style="stop-color:#1495D3"/>
		<stop  offset="1" style="stop-color:#0089CB"/>
	</linearGradient>
	<path style="fill:url(#SVGID_00000094580201580898427720000002931326250936145063_);" d="M102.1,76.9H89.2c-1.1,0-2.1,0.4-2.8,1.2
		c-0.7,0.7-1.2,1.7-1.2,2.8c0,2.2,1.8,4,4,4h12.8c1.1,0,2.1-0.4,2.8-1.2c0.7-0.7,1.2-1.7,1.2-2.8C106,78.7,104.3,76.9,102.1,76.9z"
		/>
	
		<linearGradient id="SVGID_00000035502601390563526870000014302123393373692034_" gradientUnits="userSpaceOnUse" x1="95.645" y1="202" x2="95.645" y2="2" gradientTransform="matrix(1 0 0 -1 0 202)">
		<stop  offset="0" style="stop-color:#60C5F1"/>
		<stop  offset="0.23" style="stop-color:#47B5E7"/>
		<stop  offset="0.75" style="stop-color:#1495D3"/>
		<stop  offset="1" style="stop-color:#0089CB"/>
	</linearGradient>
	<path style="fill:url(#SVGID_00000035502601390563526870000014302123393373692034_);" d="M104.9,96.5c0.7-0.7,1.2-1.7,1.2-2.8
		c0-2.2-1.8-4-4-4H89.2c-1.1,0-2.1,0.4-2.8,1.2c-0.7,0.7-1.2,1.7-1.2,2.8c0,2.2,1.8,4,4,4h12.8C103.1,97.7,104.1,97.2,104.9,96.5z"
		/>
	
		<linearGradient id="SVGID_00000146468831238326803570000005925116221411385022_" gradientUnits="userSpaceOnUse" x1="95.655" y1="202" x2="95.655" y2="2" gradientTransform="matrix(1 0 0 -1 0 202)">
		<stop  offset="0" style="stop-color:#60C5F1"/>
		<stop  offset="0.23" style="stop-color:#47B5E7"/>
		<stop  offset="0.75" style="stop-color:#1495D3"/>
		<stop  offset="1" style="stop-color:#0089CB"/>
	</linearGradient>
	<path style="fill:url(#SVGID_00000146468831238326803570000005925116221411385022_);" d="M86.4,52.5c-0.7,0.7-1.2,1.7-1.2,2.8
		c0,2.2,1.8,4,4,4h12.8c1.1,0,2.1-0.4,2.8-1.2c0.7-0.7,1.2-1.7,1.2-2.8c0-2.2-1.8-4-4-4H89.2C88.2,51.4,87.2,51.8,86.4,52.5z"/>
	
		<linearGradient id="SVGID_00000040558497389832839420000001546026227736770688_" gradientUnits="userSpaceOnUse" x1="66.1364" y1="202" x2="66.1364" y2="2" gradientTransform="matrix(1 0 0 -1 0 202)">
		<stop  offset="0" style="stop-color:#60C5F1"/>
		<stop  offset="0.23" style="stop-color:#47B5E7"/>
		<stop  offset="0.75" style="stop-color:#1495D3"/>
		<stop  offset="1" style="stop-color:#0089CB"/>
	</linearGradient>
	<path style="fill:url(#SVGID_00000040558497389832839420000001546026227736770688_);" d="M69.9,40.5c-1.1,0-2.1,0.4-2.8,1.2
		c-0.7,0.7-1.2,1.7-1.2,2.8v92l-1.2,0.3c-11.5,3-18.3,14.7-15.4,26.2c2.9,11.4,14.7,18.3,26.2,15.4c3.1-0.8,5.9-2.3,8.2-4.2
		c-5.1-8.2-8-17.9-8-28.2c0-3.1,0.2-6.1,0.8-9c-0.3-0.1-0.6-0.2-0.9-0.3l-1.7-0.4V44.5C73.8,42.3,72.1,40.5,69.9,40.5z"/>
	
		<linearGradient id="SVGID_00000151511764202151262040000007746519276420750260_" gradientUnits="userSpaceOnUse" x1="95.655" y1="202" x2="95.655" y2="2" gradientTransform="matrix(1 0 0 -1 0 202)">
		<stop  offset="0" style="stop-color:#60C5F1"/>
		<stop  offset="0.23" style="stop-color:#47B5E7"/>
		<stop  offset="0.75" style="stop-color:#1495D3"/>
		<stop  offset="1" style="stop-color:#0089CB"/>
	</linearGradient>
	<path style="fill:url(#SVGID_00000151511764202151262040000007746519276420750260_);" d="M102.1,64.1H89.2c-1.1,0-2.1,0.4-2.8,1.2
		c-0.7,0.7-1.2,1.7-1.2,2.8c0,2.2,1.8,4,4,4h12.8c1.1,0,2.1-0.4,2.8-1.2c0.7-0.7,1.2-1.7,1.2-2.8C106,65.9,104.3,64.1,102.1,64.1z"
		/>
	
		<linearGradient id="SVGID_00000173880933159818030200000006683759110579853970_" gradientUnits="userSpaceOnUse" x1="62.8623" y1="201.99" x2="62.8623" y2="1.975" gradientTransform="matrix(1 0 0 -1 0 202)">
		<stop  offset="0" style="stop-color:#60C5F1"/>
		<stop  offset="0.23" style="stop-color:#47B5E7"/>
		<stop  offset="0.75" style="stop-color:#1495D3"/>
		<stop  offset="1" style="stop-color:#0089CB"/>
	</linearGradient>
	<path style="fill:url(#SVGID_00000173880933159818030200000006683759110579853970_);" d="M68.3,192.2c-18-0.9-32.4-15.3-33.1-33.4
		c-0.2-9.4,3.5-18.4,10.2-25.1c2.2-2.3,4.8-4.3,7.6-5.9l1.6-0.9V23.4c0-4.1,1.7-8,4.7-10.8c5.7-6.1,15.3-6.3,21.5-0.6
		c3,2.8,4.7,6.8,4.7,10.9v19.4c0,2.2,1.8,4,4,4c1.1,0,2.1-0.5,2.8-1.2c0.7-0.7,1.2-1.7,1.2-2.8V23.4c-0.1-11.1-7.9-20.8-18.7-23
		c-3.2-0.6-6.4-0.6-9.6,0c-4.5,0.9-8.6,3.2-11.9,6.4c-4.1,4.3-6.4,10-6.4,16v99.2c-0.2,0.1-0.5,0.3-0.5,0.3
		c-12.2,7.8-19.5,21.6-18.9,36.1c0.7,18.8,13.5,35.2,31.8,40.2c7.3,1.7,15,1.7,22.4,0c6.2-1.7,11.9-4.7,16.7-8.9
		c-2.4-1.7-4.6-3.6-6.6-5.6C85.1,189.7,76.8,192.6,68.3,192.2L68.3,192.2z"/>
</g>
<linearGradient id="SVGID_00000049900566082035477810000012825608295989345958_" gradientUnits="userSpaceOnUse" x1="129.4161" y1="202" x2="129.4161" y2="2" gradientTransform="matrix(1 0 0 -1 0 202)">
	<stop  offset="0" style="stop-color:#60C5F1"/>
	<stop  offset="0.23" style="stop-color:#47B5E7"/>
	<stop  offset="0.75" style="stop-color:#1495D3"/>
	<stop  offset="1" style="stop-color:#0089CB"/>
</linearGradient>
<path style="fill:url(#SVGID_00000049900566082035477810000012825608295989345958_);" d="M127.2,188.9c-1.1-0.1-2.3-0.3-3.4-0.4
	c-6.7-1-12.9-3.4-18.5-7.3c-8.2-5.7-13.9-13.4-17-22.9c-1-3.2-1.7-6.4-1.9-9.8c-0.4-4.7,0-9.4,1.1-13.9c0.9-3.7,2.3-7.3,4.1-10.6
	c2.1-3.8,4.7-7.3,7.9-10.3c2.8-2.7,5.9-5,9.3-6.9c2.8-1.6,5.8-2.8,9-3.8c1.8-0.6,3.4,0,4.2,1.6c0.4,0.9,0.4,1.9,0,2.8
	c-0.6,1.2-1.3,2.4-1.8,3.7c-2,4.5-3,9.2-2.9,14.1c0.1,6.5,2.1,12.5,5.7,18c2.7,4,6.1,7.3,10.1,9.9c4.1,2.6,8.6,4.2,13.3,4.9
	c5.4,0.7,10.6,0.2,15.7-1.7c1.9-0.7,3.6-1.6,5.4-2.5c1.2-0.6,2.4-0.7,3.7,0.1c0.5,0.3,0.8,0.7,1,1.2c0.2,0.4,0.3,0.9,0.3,1.4l0,0
	c0,0.6-0.1,1.2-0.3,1.8l0,0c-1.3,4.1-3.1,7.9-5.4,11.4c-2.1,3.1-4.5,6-7.4,8.5c-4.3,3.8-9.1,6.8-14.6,8.7c-2.6,0.9-5.4,1.6-8.1,2
	c-1.2,0.2-2.4,0.3-3.6,0.5L127.2,188.9L127.2,188.9z M163.2,162.5c-15.5,4.3-29,1.1-40.7-9.9c-11-11.6-14.2-25.2-9.9-40.6
	c-12.6,6.6-21.9,21.4-19.5,38.1c2.3,16.6,15.6,30.2,33.2,32.1C141.8,183.9,156.5,175.5,163.2,162.5L163.2,162.5z"/>
</svg>
