<?xml version="1.0" encoding="utf-8"?>
<!-- Generator: Adobe Illustrator 28.0.0, SVG Export Plug-In . SVG Version: 6.00 Build 0)  -->
<svg version="1.1" id="Capa_1" xmlns="http://www.w3.org/2000/svg" xmlns:xlink="http://www.w3.org/1999/xlink" x="0px" y="0px"
	 viewBox="0 0 200 200" style="enable-background:new 0 0 200 200;" xml:space="preserve">
<style type="text/css">
	.st0{fill:url(#SVGID_1_);}
	.st1{fill:url(#SVGID_00000053538086897364846190000002801060590613023108_);}
	.st2{fill:url(#SVGID_00000072258472520411031660000012950627187022390451_);}
	.st3{fill:url(#SVGID_00000008128160204363441320000011257904091528661940_);}
	.st4{fill:url(#SVGID_00000072984211153819983280000006372839700784787334_);}
	.st5{fill:url(#SVGID_00000111162831048288210910000007160940801460693659_);}
	.st6{fill:url(#SVGID_00000163776304091836362860000014807085992835255213_);}
	.st7{fill:url(#SVGID_00000102508059707734648200000011077841360188624784_);}
	.st8{fill:url(#SVGID_00000084494803098501133590000015677835344511311785_);}
	.st9{fill:url(#SVGID_00000170261807137601093170000000938901500871469739_);}
	.st10{fill:url(#SVGID_00000111181767994376239300000016855158438666135939_);}
	.st11{fill:url(#SVGID_00000085234588364954852480000003580797165048431275_);}
</style>
<g>
	<g>
		<linearGradient id="SVGID_1_" gradientUnits="userSpaceOnUse" x1="5187.938" y1="1075.5198" x2="5383.2065" y2="1075.5198">
			<stop  offset="0" style="stop-color:#FC5D30"/>
			<stop  offset="0.43" style="stop-color:#F91B5A"/>
			<stop  offset="1" style="stop-color:#904095"/>
		</linearGradient>
		<path class="st0" d="M5242.8,1011.4c1,1.6,2.8,2.4,4.5,2.1c0.6-0.1,1.1-0.3,1.6-0.6c2.1-1.3,2.8-4,1.5-6.2l-8.8-14.6
			c-1.3-2.1-4-2.8-6.2-1.5c-2.1,1.3-2.8,4-1.5,6.2L5242.8,1011.4z"/>
		
			<linearGradient id="SVGID_00000160901056775972367310000012299366298186662050_" gradientUnits="userSpaceOnUse" x1="5187.938" y1="1075.5198" x2="5383.2065" y2="1075.5198">
			<stop  offset="0" style="stop-color:#FC5D30"/>
			<stop  offset="0.43" style="stop-color:#F91B5A"/>
			<stop  offset="1" style="stop-color:#904095"/>
		</linearGradient>
		<path style="fill:url(#SVGID_00000160901056775972367310000012299366298186662050_);" d="M5201.7,1034.3l15.1,7.9
			c0.5,0.3,1.1,0.4,1.7,0.5c1.8,0.2,3.5-0.7,4.4-2.4c1.2-2.2,0.3-4.9-1.9-6.1l-15.1-7.9c-2.2-1.2-4.9-0.3-6.1,1.9
			C5198.7,1030.4,5199.5,1033.2,5201.7,1034.3z"/>
		
			<linearGradient id="SVGID_00000128451494239482607680000004109511269434650288_" gradientUnits="userSpaceOnUse" x1="5187.938" y1="1075.5198" x2="5383.2065" y2="1075.5198">
			<stop  offset="0" style="stop-color:#FC5D30"/>
			<stop  offset="0.43" style="stop-color:#F91B5A"/>
			<stop  offset="1" style="stop-color:#904095"/>
		</linearGradient>
		<path style="fill:url(#SVGID_00000128451494239482607680000004109511269434650288_);" d="M5213.9,1075.4c0-2.5-2-4.5-4.5-4.5h-17
			c-2.5,0-4.5,2-4.5,4.5s2,4.5,4.5,4.5h17C5211.9,1079.9,5213.9,1077.9,5213.9,1075.4z"/>
		
			<linearGradient id="SVGID_00000099640885601098806840000016669693643399074715_" gradientUnits="userSpaceOnUse" x1="5187.938" y1="1075.5198" x2="5383.2065" y2="1075.5198">
			<stop  offset="0" style="stop-color:#FC5D30"/>
			<stop  offset="0.43" style="stop-color:#F91B5A"/>
			<stop  offset="1" style="stop-color:#904095"/>
		</linearGradient>
		<path style="fill:url(#SVGID_00000099640885601098806840000016669693643399074715_);" d="M5223.4,1111.5c-1.2-2.2-3.9-2.9-6.1-1.7
			l-14.9,8.3c-2.2,1.2-2.9,3.9-1.7,6.1c0.9,1.6,2.7,2.5,4.5,2.3c0.6-0.1,1.1-0.2,1.6-0.5l14.9-8.3
			C5223.8,1116.4,5224.6,1113.6,5223.4,1111.5z"/>
		
			<linearGradient id="SVGID_00000027604101643258956380000004650215533992035474_" gradientUnits="userSpaceOnUse" x1="5187.938" y1="1075.5198" x2="5383.2065" y2="1075.5198">
			<stop  offset="0" style="stop-color:#FC5D30"/>
			<stop  offset="0.43" style="stop-color:#F91B5A"/>
			<stop  offset="1" style="stop-color:#904095"/>
		</linearGradient>
		<path style="fill:url(#SVGID_00000027604101643258956380000004650215533992035474_);" d="M5248.5,1137.9c-2.1-1.2-4.9-0.5-6.1,1.6
			l-8.5,14.7c-1.2,2.2-0.5,4.9,1.6,6.1c0.5,0.3,1.1,0.5,1.7,0.6c1.7,0.2,3.5-0.6,4.5-2.2l8.5-14.7
			C5251.3,1141.9,5250.6,1139.2,5248.5,1137.9z"/>
		
			<linearGradient id="SVGID_00000052804949141032977370000004791347603179330484_" gradientUnits="userSpaceOnUse" x1="5187.938" y1="1075.5198" x2="5383.2065" y2="1075.5198">
			<stop  offset="0" style="stop-color:#FC5D30"/>
			<stop  offset="0.43" style="stop-color:#F91B5A"/>
			<stop  offset="1" style="stop-color:#904095"/>
		</linearGradient>
		<path style="fill:url(#SVGID_00000052804949141032977370000004791347603179330484_);" d="M5378.7,1070.9h-13.1l6.1-10.5
			c1.2-2.2,0.5-4.9-1.6-6.1c-2.2-1.2-4.9-0.5-6.1,1.6l-8.7,15h-13.8h-9h-37.2l26.2-26.2l6.4-6.4l10.5-10.5l0,0l16.7,4.5
			c0.4,0.1,0.8,0.2,1.2,0.2c2,0,3.8-1.3,4.3-3.3c0.6-2.4-0.8-4.9-3.2-5.5l-11.7-3.1l9.3-9.3c1.8-1.8,1.7-4.6,0-6.4
			c-1.8-1.8-4.6-1.7-6.4,0l-9.3,9.3l0,0l-3.1-11.7c-0.6-2.4-3.1-3.8-5.5-3.2c-2.4,0.6-3.8,3.1-3.2,5.5l4.5,16.8l0,0l-10.5,10.5
			l-6.4,6.4l-26.4,26.4v-37.4v-9v-14.8l15-8.7c2.2-1.2,2.9-4,1.6-6.1c-1.2-2.2-4-2.9-6.1-1.6l-10.5,6.1V980c0-2.5-2-4.5-4.5-4.5
			c-2.5,0-4.5,2-4.5,4.5v38.3c-29.6,2.3-52.9,27.1-52.9,57.3c0,30.2,23.3,55,52.9,57.3v38.2c0,2.5,2,4.5,4.5,4.5
			c2.5,0,4.5-2,4.5-4.5v-13l10.5,6.1c0.7,0.4,1.5,0.6,2.2,0.6c1.6,0,3.1-0.8,3.9-2.2c1.2-2.2,0.5-4.9-1.6-6.1l-15-8.7v-14.8v-9
			v-37.6l26.5,26.6l6.4,6.4l10.1,10.1l0,0l-4.5,16.8c-0.6,2.4,0.8,4.9,3.2,5.5c0.4,0.1,0.8,0.2,1.2,0.2c2,0,3.8-1.3,4.3-3.3
			l3.2-11.8l9.3,9.3c0.9,0.9,2,1.3,3.2,1.3s2.3-0.4,3.2-1.3c1.8-1.7,1.8-4.6,0-6.4l-9.3-9.3l0,0l11.7-3.1c2.4-0.6,3.8-3.1,3.2-5.5
			c-0.6-2.4-3.1-3.8-5.5-3.2l-16.7,4.5l-10.1-10.2l-6.4-6.4l-26.5-26.6h37.4h9h13.8l8.7,15c0.8,1.4,2.3,2.2,3.9,2.2
			c0.8,0,1.5-0.2,2.2-0.6c2.2-1.2,2.9-4,1.6-6.1l-6.1-10.5h13.1c2.5,0,4.5-2,4.5-4.5C5383.2,1072.9,5381.2,1070.9,5378.7,1070.9z
			 M5235.7,1075.6c0-25.2,19.3-46,44-48.2v48v0.1v0v0.1v48.2C5255,1121.6,5235.7,1100.8,5235.7,1075.6z"/>
	</g>
</g>
<g>
	<g>
		
			<linearGradient id="SVGID_00000124157702787635752970000013661425657264307645_" gradientUnits="userSpaceOnUse" x1="2.3656" y1="100" x2="197.6344" y2="100">
			<stop  offset="0" style="stop-color:#FC5D30"/>
			<stop  offset="0.43" style="stop-color:#F91B5A"/>
			<stop  offset="1" style="stop-color:#904095"/>
		</linearGradient>
		<path style="fill:url(#SVGID_00000124157702787635752970000013661425657264307645_);" d="M57.2,35.9c1,1.6,2.8,2.4,4.5,2.1
			c0.6-0.1,1.1-0.3,1.6-0.6c2.1-1.3,2.8-4,1.5-6.2l-8.8-14.6c-1.3-2.1-4-2.8-6.2-1.5c-2.1,1.3-2.8,4-1.5,6.2L57.2,35.9z"/>
		
			<linearGradient id="SVGID_00000057843193448087123300000005297741417127378868_" gradientUnits="userSpaceOnUse" x1="2.3656" y1="100" x2="197.6344" y2="100">
			<stop  offset="0" style="stop-color:#FC5D30"/>
			<stop  offset="0.43" style="stop-color:#F91B5A"/>
			<stop  offset="1" style="stop-color:#904095"/>
		</linearGradient>
		<path style="fill:url(#SVGID_00000057843193448087123300000005297741417127378868_);" d="M16.2,58.8l15.1,7.9
			c0.5,0.3,1.1,0.4,1.7,0.5c1.8,0.2,3.5-0.7,4.4-2.4c1.2-2.2,0.3-4.9-1.9-6.1l-15.1-7.9c-2.2-1.2-4.9-0.3-6.1,1.9
			C13.1,54.9,14,57.6,16.2,58.8z"/>
		
			<linearGradient id="SVGID_00000003091869334151373690000017275468069965075601_" gradientUnits="userSpaceOnUse" x1="2.3656" y1="100" x2="197.6344" y2="100">
			<stop  offset="0" style="stop-color:#FC5D30"/>
			<stop  offset="0.43" style="stop-color:#F91B5A"/>
			<stop  offset="1" style="stop-color:#904095"/>
		</linearGradient>
		<path style="fill:url(#SVGID_00000003091869334151373690000017275468069965075601_);" d="M28.4,99.9c0-2.5-2-4.5-4.5-4.5h-17
			c-2.5,0-4.5,2-4.5,4.5s2,4.5,4.5,4.5h17C26.4,104.4,28.4,102.3,28.4,99.9z"/>
		
			<linearGradient id="SVGID_00000102524872644329729700000009223578829309863353_" gradientUnits="userSpaceOnUse" x1="2.3656" y1="100" x2="197.6344" y2="100">
			<stop  offset="0" style="stop-color:#FC5D30"/>
			<stop  offset="0.43" style="stop-color:#F91B5A"/>
			<stop  offset="1" style="stop-color:#904095"/>
		</linearGradient>
		<path style="fill:url(#SVGID_00000102524872644329729700000009223578829309863353_);" d="M37.8,136c-1.2-2.2-3.9-2.9-6.1-1.7
			l-14.9,8.3c-2.2,1.2-2.9,3.9-1.7,6.1c0.9,1.6,2.7,2.5,4.5,2.3c0.6-0.1,1.1-0.2,1.6-0.5l14.9-8.3C38.2,140.9,39,138.1,37.8,136z"/>
		
			<linearGradient id="SVGID_00000154397495102031833130000015758253239399964546_" gradientUnits="userSpaceOnUse" x1="2.3656" y1="100" x2="197.6344" y2="100">
			<stop  offset="0" style="stop-color:#FC5D30"/>
			<stop  offset="0.43" style="stop-color:#F91B5A"/>
			<stop  offset="1" style="stop-color:#904095"/>
		</linearGradient>
		<path style="fill:url(#SVGID_00000154397495102031833130000015758253239399964546_);" d="M62.9,162.4c-2.1-1.2-4.9-0.5-6.1,1.6
			l-8.5,14.7c-1.2,2.2-0.5,4.9,1.6,6.1c0.5,0.3,1.1,0.5,1.7,0.6c1.7,0.2,3.5-0.6,4.5-2.2l8.5-14.7C65.8,166.4,65,163.6,62.9,162.4z"
			/>
		
			<linearGradient id="SVGID_00000127032898288575904480000015461502412659295932_" gradientUnits="userSpaceOnUse" x1="2.3656" y1="100" x2="197.6344" y2="100">
			<stop  offset="0" style="stop-color:#FC5D30"/>
			<stop  offset="0.43" style="stop-color:#F91B5A"/>
			<stop  offset="1" style="stop-color:#904095"/>
		</linearGradient>
		<path style="fill:url(#SVGID_00000127032898288575904480000015461502412659295932_);" d="M193.1,95.4H180l6.1-10.5
			c1.2-2.2,0.5-4.9-1.6-6.1c-2.2-1.2-4.9-0.5-6.1,1.6l-8.7,15h-13.8h-9h-37.2l26.2-26.2l6.4-6.4l10.5-10.5l0,0l16.7,4.5
			c0.4,0.1,0.8,0.2,1.2,0.2c2,0,3.8-1.3,4.3-3.3c0.6-2.4-0.8-4.9-3.2-5.5L160,44.9l9.3-9.3c1.8-1.8,1.7-4.6,0-6.4
			c-1.8-1.8-4.6-1.7-6.4,0l-9.3,9.3l0,0l-3.1-11.7c-0.6-2.4-3.1-3.8-5.5-3.2c-2.4,0.6-3.8,3.1-3.2,5.5l4.5,16.8l0,0l-10.5,10.5
			l-6.4,6.4l-26.4,26.4V51.8v-9V28l15-8.7c2.2-1.2,2.9-4,1.6-6.1c-1.2-2.2-4-2.9-6.1-1.6l-10.5,6.1V4.5c0-2.5-2-4.5-4.5-4.5
			c-2.5,0-4.5,2-4.5,4.5v38.3c-29.6,2.3-52.9,27.1-52.9,57.3c0,30.2,23.3,55,52.9,57.3v38.2c0,2.5,2,4.5,4.5,4.5
			c2.5,0,4.5-2,4.5-4.5v-13l10.5,6.1c0.7,0.4,1.5,0.6,2.2,0.6c1.6,0,3.1-0.8,3.9-2.2c1.2-2.2,0.5-4.9-1.6-6.1l-15-8.7v-14.8v-9
			v-37.6l26.5,26.6l6.4,6.4l10.1,10.1l0,0l-4.5,16.8c-0.6,2.4,0.8,4.9,3.2,5.5c0.4,0.1,0.8,0.2,1.2,0.2c2,0,3.8-1.3,4.3-3.3
			l3.2-11.8l9.3,9.3c0.9,0.9,2,1.3,3.2,1.3s2.3-0.4,3.2-1.3c1.8-1.7,1.8-4.6,0-6.4l-9.3-9.3l0,0l11.7-3.1c2.4-0.6,3.8-3.1,3.2-5.5
			c-0.6-2.4-3.1-3.8-5.5-3.2l-16.7,4.5l-10.1-10.2l-6.4-6.4l-26.5-26.6h37.4h9h13.8l8.7,15c0.8,1.4,2.3,2.2,3.9,2.2
			c0.8,0,1.5-0.2,2.2-0.6c2.2-1.2,2.9-4,1.6-6.1l-6.1-10.5h13.1c2.5,0,4.5-2,4.5-4.5C197.6,97.4,195.6,95.4,193.1,95.4z M50.1,100.1
			c0-25.2,19.3-46,44-48.2v48v0.1v0v0.1v48.2C69.4,146,50.1,125.3,50.1,100.1z"/>
	</g>
</g>
</svg>
