<?xml version="1.0" encoding="utf-8"?>
<!-- Generator: Adobe Illustrator 28.0.0, SVG Export Plug-In . SVG Version: 6.00 Build 0)  -->
<svg version="1.1" id="Capa_1" xmlns="http://www.w3.org/2000/svg" xmlns:xlink="http://www.w3.org/1999/xlink" x="0px" y="0px"
	 viewBox="0 0 200 200" style="enable-background:new 0 0 200 200;" xml:space="preserve">
<style type="text/css">
	.st0{fill:url(#SVGID_1_);}
	.st1{fill:url(#SVGID_00000029010330451458023180000000073819659681692056_);}
	.st2{fill:url(#SVGID_00000154413515649083159560000003448202943839310994_);}
	.st3{fill:url(#SVGID_00000029744151379736790520000005312563723853720713_);}
	.st4{fill:url(#SVGID_00000061437317240532326290000011406653964542410415_);}
	.st5{fill:url(#SVGID_00000026878197014797034320000015669125979012572337_);}
	.st6{fill:url(#SVGID_00000106108799200008151620000001306881632364121766_);}
	.st7{fill:url(#SVGID_00000069362184845636006720000011817825583456470447_);}
	.st8{fill:url(#SVGID_00000012459271058694564620000017365209915850148513_);}
	.st9{fill:url(#SVGID_00000054246878473094699600000004031119160918855552_);}
</style>
<g>
	<g>
		<g>
			
				<linearGradient id="SVGID_1_" gradientUnits="userSpaceOnUse" x1="26.5033" y1="102.0062" x2="173.4916" y2="102.0062" gradientTransform="matrix(1 0 0 -1 0 202)">
				<stop  offset="0" style="stop-color:#BFCC60"/>
				<stop  offset="0.29" style="stop-color:#798D5C"/>
				<stop  offset="0.69" style="stop-color:#6B6052"/>
				<stop  offset="1" style="stop-color:#3D3535"/>
			</linearGradient>
			<path class="st0" d="M173.4,15.5c-0.3-1.4-1.3-2.5-2.8-3.1c-3.1-1.3-6.2-2.8-9.1-4.2c-6-2.9-12.2-5.9-18.9-7.7
				c-0.8-0.2-1.7-0.3-2.6-0.4L140,1l0-1c-5-0.3-10,0.5-14.5,2.5l-0.1,0c-8.1,3.6-13.6,9.9-16.3,18.8c-0.6,2.1-1.5,2.8-3.5,2.9
				c-1.5,0-2.9,0-4.2-0.2c-3.4-0.5-6-1.8-8-4c-0.6-0.7-1.2-1.4-1.7-2.3c-1.1-1.8-2.4-3.4-3.5-4.8c-1.8-2.2-4.4-2.6-6.4-1
				c-0.9,0.8-1.5,1.8-1.6,2.9c-0.1,1.2,0.4,2.5,1.4,3.6c1.5,1.7,2.8,3.5,3.8,5.6c1.2,2.4,2.1,5.2,2.8,8.4c0.1,0.4,0.2,0.8,0.2,1.2
				c0.3,1.9,0.5,3.9,0.7,5.9c0,0.3,0.1,0.5,0.1,0.8c0.1,0.7,0.1,1.5,0.2,2.2c-0.1,0-0.1,0-0.2,0c-0.3,0-0.6,0.1-0.9,0.1
				s-0.6,0.1-0.8,0.2c-0.3,0.1-0.6,0.2-0.9,0.2c0,0-0.1,0-0.1,0c-0.3,0.1-0.6,0.1-0.8,0.2c-0.7,0.2-1.4,0.3-2,0.5
				c-0.1,0-0.2,0.1-0.4,0.1c-1.2,0.3-4.3,1.4-4.7,1.6c-6.5,2.7-11.8,6.7-15.9,12c-4.3,5.4-7.2,11.7-8.5,18.8
				c-0.2,1.2-0.5,2.3-0.8,3.4c-0.1,0.2-0.1,0.3-0.2,0.5c-1.2,4.1-3.2,7.8-5.9,11c-0.2,0.2-0.4,0.5-0.6,0.7c-0.3,0.3-0.5,0.6-0.8,0.9
				c-0.6,0.7-1.3,1.4-2,2.2c0,0-0.1,0.1-0.1,0.1c-2.1,2.3-4.3,5.1-6.3,8c-1.4,2.1-2.6,4.2-3.7,6.3l-0.1,0.1
				c-5.6,10.8-8,22.4-7.2,34.7c0.1,1.3,0.2,2.6,0.4,4c0,0,0,0.1,0,0.1c1.3,9.8,4.6,18.4,10.1,25.8c0,0,0,0,0,0.1
				c3.1,4.2,6.9,8.1,11.4,11.5c1.6,1.2,3.3,2.4,5,3.5c1.2,0.8,2.4,1.5,3.7,2.1c0,0,0,0,0,0c0.4,0.2,0.8,0.4,1.2,0.6
				c0.1,0.1,0.2,0.1,0.3,0.1c2.5,1.3,5.2,2.4,7.9,3.4c0,0,0.1,0,0.1,0.1c0.5,0.2,1,0.4,1.6,0.5c0.2,0.1,0.4,0.1,0.6,0.2
				c0.3,0.1,0.6,0.2,1,0.3c0.6,0.2,1.3,0.4,1.9,0.6c6.6,1.8,13.7,2.7,21.5,2.8h0.1c7.7,0,14.8-0.9,21.5-2.8c0.2-0.1,0.4-0.1,0.7-0.2
				c1.5-0.4,2.9-0.9,4.4-1.4c2.9-1,5.7-2.3,8-3.4c0.1,0,0.1-0.1,0.1-0.1c0.3-0.1,0.5-0.3,0.8-0.4c0.2-0.1,0.4-0.2,0.6-0.4l0,0
				c1.2-0.7,2.4-1.4,3.6-2.1c1.8-1.1,3.4-2.3,5-3.5l0,0c0.4-0.2,2.6-2.2,2.9-2.5c4.1-3.6,5.8-5.2,8.5-9c0.1-0.2,0.3-0.4,0.4-0.6
				c0.6-0.9,1.2-1.9,1.8-2.9c4.2-7.1,6.8-14.7,7.9-22.5c0.1-0.7,0.2-1.3,0.2-2c0.1-0.7,0.1-1.3,0.2-2c0.5-8-0.5-16.2-3.2-24.8
				c-1-3.4-2.4-6.7-4-9.9c-0.2-0.4-0.4-0.7-0.6-1.1c-2.4-4.6-5.5-8.9-9-12.8c-0.2-0.2-0.4-0.4-0.5-0.6c-0.3-0.3-0.6-0.7-0.9-1
				c-0.9-0.9-1.7-1.8-2.5-2.8c0-0.1-0.1-0.1-0.1-0.2c-2.6-3.4-4.6-7.2-5.9-11.4c0,0,0,0,0-0.1c-0.3-1-0.6-2.1-0.9-3.2
				c-1.7-7.6-4.6-13.9-8.5-19c-4.1-5.3-9.3-9.2-15.8-11.9c-1.7-0.7-3.4-1.3-5.2-1.8c-0.9-0.3-1.8-0.5-2.7-0.7c0,0,0,0-0.1,0
				c-0.5-0.1-1.1-0.2-1.6-0.3c0,0-0.1,0-0.1-0.1C98.3,42.6,98,42.2,98,42c-0.1-0.8-0.2-1.6-0.3-2.3c-0.1-1.2-0.2-2.3-0.3-3.5
				c-0.1-0.9-0.2-1.9-0.3-2.8c-0.1-0.4-0.1-0.8-0.2-1.3c0.6,0.2,1.1,0.3,1.7,0.4c3.4,0.7,6.9,0.7,10.8,0.1c0.1,0,0.6,0.2,1,0.6
				c0.7,0.7,1.3,1.4,2,2.1c0.6,0.7,1.2,1.3,1.9,2c10.9,10.9,28.7,11.3,39.8,1c4.8-4.5,9.4-9.4,13.8-14.2c1.4-1.5,2.8-3,4.2-4.5
				C173.2,18.4,173.7,16.9,173.4,15.5L173.4,15.5z M103.5,61.5c1.5-1.7,1.6-4,0.2-5.6c-0.8-1-1.9-1.5-3.1-1.6
				c-0.8,0-1.7,0.2-2.4,0.6c-0.1,0.1-0.2,0.1-0.3,0.2s-0.2,0.1-0.3,0.2l0.2-1.8l0.2-1.9v0c0.3,0,0.6,0.1,0.9,0.2
				c0.5,0.1,0.9,0.2,1.4,0.4c5.1,1.4,9.3,3.6,12.9,6.5c0,0,0,0,0,0c2.6,2.2,4.8,4.8,6.5,7.8c0,0,0,0,0,0c1.7,2.9,3,6.3,3.8,10
				c0.3,1.3,0.7,2.6,1,3.9c2,6.4,4.9,12.3,8.8,17.2c0,0,0.1,0.1,0.1,0.1c0.9,1.1,1.8,2.2,2.8,3.2c4.1,4.4,7.5,9.2,9.9,14.5
				c1.7,3.5,1.7,3.5,0,0c1.5,3.2,2.7,6.7,3.6,10.2c0.1,0.3,0.1,0.5,0.2,0.8c0.7,3.2,1.2,6.6,1.5,10c0.4,6.3-0.1,12.2-1.6,17.6
				c0,0,0,0,0,0.1c-1.2,4.7-3.2,9-5.8,12.9c0,0,0,0,0,0c-0.6,0.9-1.1,1.7-1.8,2.5c-1.7,2.2-3.4,4.4-5.5,6.4
				c-0.9,0.9-3.1,2.7-3.2,2.7c-3.1,2.4-6.5,4.4-10.3,6.1c-9.9,4.4-19.8,6.6-29.7,6.6h-0.3c-9.9-0.1-19.8-2.3-29.7-6.6
				c-3.8-1.7-7.2-3.7-10.3-6.1c-4.1-3.2-7.6-7-10.3-11.5c-0.3-0.4-0.5-0.8-0.8-1.2c-2.3-3.9-4-7.9-5.2-11.9
				c-2.6-8.8-2.6-18-0.1-27.7c0.1-0.3,0.1-0.5,0.2-0.8c0.8-3,1.9-6.1,3.2-9.2c0.1-0.3,0.3-0.7,0.4-1c3.3-7.4,8.5-13.3,12.7-17.8
				c0,0,0.1-0.1,0.1-0.1c4.5-4.8,7.5-10.6,8.8-17.2c0.1-0.2,0.1-0.5,0.1-0.7c0.9-5,2.4-9.3,4.7-13.1v0c0.7-1.1,1.4-2.2,2.3-3.3
				c1-1.2,2.1-2.4,3.2-3.6l0.6-0.6c0.1-0.1,0.3-0.3,0.4-0.4c3.5-3,7.8-5.2,12.9-6.5c0.7-0.2,1.5-0.3,2.3-0.5h0.1l0.4-0.1l-0.2,2
				l-0.2,1.6l0,0.4c-0.3-0.2-0.6-0.4-0.8-0.5c-0.6-0.3-1.2-0.6-1.9-0.6c-1.4-0.2-2.7,0.4-3.7,1.5c-1.4,1.6-1.3,4,0.2,5.6
				c2.4,2.8,6.2,4.3,10.4,4.3h0c0.1,0,0.2,0,0.3,0C97.5,65.7,101.1,64.2,103.5,61.5L103.5,61.5z M158.2,21.8c-3,3.2-6.2,6.6-9.4,9.7
				c-3.8,3.7-8.8,5.7-14,5.7h-0.4c-5.3-0.1-10.3-2.3-14-6.1c-1-1.1-1.9-1.9-2.6-2.5c-0.9-0.9-1.6-1.5-1.6-1.8
				c-0.1-0.4,0.3-1.1,0.8-2.3c0.4-0.9,0.9-1.9,1.4-3.3c1.9-4.9,5.7-8.7,10.6-10.8c2.6-1.1,5.3-1.6,8-1.6c2.6,0,5.1,0.5,7.6,1.5
				c4.2,1.7,8.5,3.7,12.6,5.6c1.6,0.7,3.1,1.4,4.6,2.1C160.7,19.1,159.4,20.4,158.2,21.8L158.2,21.8z"/>
			
				<linearGradient id="SVGID_00000018951408847136923340000017051997299030190744_" gradientUnits="userSpaceOnUse" x1="26.5033" y1="102.0062" x2="173.4916" y2="102.0062" gradientTransform="matrix(1 0 0 -1 0 202)">
				<stop  offset="0" style="stop-color:#BFCC60"/>
				<stop  offset="0.29" style="stop-color:#798D5C"/>
				<stop  offset="0.69" style="stop-color:#6B6052"/>
				<stop  offset="1" style="stop-color:#3D3535"/>
			</linearGradient>
			<path style="fill:url(#SVGID_00000018951408847136923340000017051997299030190744_);" d="M173.4,15.5c-0.3-1.4-1.3-2.5-2.8-3.1
				c-3.1-1.3-6.2-2.8-9.1-4.2c-6-2.9-12.2-5.9-18.9-7.7c-0.8-0.2-1.7-0.3-2.6-0.4L140,1l0-1c-5-0.3-10,0.5-14.5,2.5l-0.1,0
				c-8.1,3.6-13.6,9.9-16.3,18.8c-0.6,2.1-1.5,2.8-3.5,2.9c-1.5,0-2.9,0-4.2-0.2c-3.4-0.5-6-1.8-8-4c-0.6-0.7-1.2-1.4-1.7-2.3
				c-1.1-1.8-2.4-3.4-3.5-4.8c-1.8-2.2-4.4-2.6-6.4-1c-0.9,0.8-1.5,1.8-1.6,2.9c-0.1,1.2,0.4,2.5,1.4,3.6c1.5,1.7,2.8,3.5,3.8,5.6
				c1.2,2.4,2.1,5.2,2.8,8.4c0.1,0.4,0.2,0.8,0.2,1.2c0.3,1.9,0.5,3.9,0.7,5.9c0,0.3,0.1,0.5,0.1,0.8c0.1,0.7,0.1,1.5,0.2,2.2
				c-0.1,0-0.1,0-0.2,0c-0.3,0-0.6,0.1-0.9,0.1s-0.6,0.1-0.8,0.2c-0.3,0.1-0.6,0.2-0.9,0.2c0,0-0.1,0-0.1,0
				c-0.3,0.1-0.6,0.1-0.8,0.2c-0.7,0.2-1.4,0.3-2,0.5c-0.1,0-0.2,0.1-0.4,0.1c-1.2,0.3-4.3,1.4-4.7,1.6c-6.5,2.7-11.8,6.7-15.9,12
				c-4.3,5.4-7.2,11.7-8.5,18.8c-0.2,1.2-0.5,2.3-0.8,3.4c-0.1,0.2-0.1,0.3-0.2,0.5c-1.2,4.1-3.2,7.8-5.9,11
				c-0.2,0.2-0.4,0.5-0.6,0.7c-0.3,0.3-0.5,0.6-0.8,0.9c-0.6,0.7-1.3,1.4-2,2.2c0,0-0.1,0.1-0.1,0.1c-2.1,2.3-4.3,5.1-6.3,8
				c-1.4,2.1-2.6,4.2-3.7,6.3l-0.1,0.1c-5.6,10.8-8,22.4-7.2,34.7c0.1,1.3,0.2,2.6,0.4,4c0,0,0,0.1,0,0.1
				c1.3,9.8,4.6,18.4,10.1,25.8c0,0,0,0,0,0.1c3.1,4.2,6.9,8.1,11.4,11.5c1.6,1.2,3.3,2.4,5,3.5c1.2,0.8,2.4,1.5,3.7,2.1
				c0,0,0,0,0,0c0.4,0.2,0.8,0.4,1.2,0.6c0.1,0.1,0.2,0.1,0.3,0.1c2.5,1.3,5.2,2.4,7.9,3.4c0,0,0.1,0,0.1,0.1c0.5,0.2,1,0.4,1.6,0.5
				c0.2,0.1,0.4,0.1,0.6,0.2c0.3,0.1,0.6,0.2,1,0.3c0.6,0.2,1.3,0.4,1.9,0.6c6.6,1.8,13.7,2.7,21.5,2.8h0.1c7.7,0,14.8-0.9,21.5-2.8
				c0.2-0.1,0.4-0.1,0.7-0.2c1.5-0.4,2.9-0.9,4.4-1.4c2.9-1,5.7-2.3,8-3.4c0.1,0,0.1-0.1,0.1-0.1c0.3-0.1,0.5-0.3,0.8-0.4
				c0.2-0.1,0.4-0.2,0.6-0.4l0,0c1.2-0.7,2.4-1.4,3.6-2.1c1.8-1.1,3.4-2.3,5-3.5l0,0c0.4-0.2,2.6-2.2,2.9-2.5c4.1-3.6,5.8-5.2,8.5-9
				c0.1-0.2,0.3-0.4,0.4-0.6c0.6-0.9,1.2-1.9,1.8-2.9c4.2-7.1,6.8-14.7,7.9-22.5c0.1-0.7,0.2-1.3,0.2-2c0.1-0.7,0.1-1.3,0.2-2
				c0.5-8-0.5-16.2-3.2-24.8c-1-3.4-2.4-6.7-4-9.9c-0.2-0.4-0.4-0.7-0.6-1.1c-2.4-4.6-5.5-8.9-9-12.8c-0.2-0.2-0.4-0.4-0.5-0.6
				c-0.3-0.3-0.6-0.7-0.9-1c-0.9-0.9-1.7-1.8-2.5-2.8c0-0.1-0.1-0.1-0.1-0.2c-2.6-3.4-4.6-7.2-5.9-11.4c0,0,0,0,0-0.1
				c-0.3-1-0.6-2.1-0.9-3.2c-1.7-7.6-4.6-13.9-8.5-19c-4.1-5.3-9.3-9.2-15.8-11.9c-1.7-0.7-3.4-1.3-5.2-1.8
				c-0.9-0.3-1.8-0.5-2.7-0.7c0,0,0,0-0.1,0c-0.5-0.1-1.1-0.2-1.6-0.3c0,0-0.1,0-0.1-0.1C98.3,42.6,98,42.2,98,42
				c-0.1-0.8-0.2-1.6-0.3-2.3c-0.1-1.2-0.2-2.3-0.3-3.5c-0.1-0.9-0.2-1.9-0.3-2.8c-0.1-0.4-0.1-0.8-0.2-1.3c0.6,0.2,1.1,0.3,1.7,0.4
				c3.4,0.7,6.9,0.7,10.8,0.1c0.1,0,0.6,0.2,1,0.6c0.7,0.7,1.3,1.4,2,2.1c0.6,0.7,1.2,1.3,1.9,2c10.9,10.9,28.7,11.3,39.8,1
				c4.8-4.5,9.4-9.4,13.8-14.2c1.4-1.5,2.8-3,4.2-4.5C173.2,18.4,173.7,16.9,173.4,15.5L173.4,15.5z M103.5,61.5
				c1.5-1.7,1.6-4,0.2-5.6c-0.8-1-1.9-1.5-3.1-1.6c-0.8,0-1.7,0.2-2.4,0.6c-0.1,0.1-0.2,0.1-0.3,0.2s-0.2,0.1-0.3,0.2l0.2-1.8
				l0.2-1.9v0c0.3,0,0.6,0.1,0.9,0.2c0.5,0.1,0.9,0.2,1.4,0.4c5.1,1.4,9.3,3.6,12.9,6.5c0,0,0,0,0,0c2.6,2.2,4.8,4.8,6.5,7.8
				c0,0,0,0,0,0c1.7,2.9,3,6.3,3.8,10c0.3,1.3,0.7,2.6,1,3.9c2,6.4,4.9,12.3,8.8,17.2c0,0,0.1,0.1,0.1,0.1c0.9,1.1,1.8,2.2,2.8,3.2
				c4.1,4.4,7.5,9.2,9.9,14.5c1.7,3.5,1.7,3.5,0,0c1.5,3.2,2.7,6.7,3.6,10.2c0.1,0.3,0.1,0.5,0.2,0.8c0.7,3.2,1.2,6.6,1.5,10
				c0.4,6.3-0.1,12.2-1.6,17.6c0,0,0,0,0,0.1c-1.2,4.7-3.2,9-5.8,12.9c0,0,0,0,0,0c-0.6,0.9-1.1,1.7-1.8,2.5
				c-1.7,2.2-3.4,4.4-5.5,6.4c-0.9,0.9-3.1,2.7-3.2,2.7c-3.1,2.4-6.5,4.4-10.3,6.1c-9.9,4.4-19.8,6.6-29.7,6.6h-0.3
				c-9.9-0.1-19.8-2.3-29.7-6.6c-3.8-1.7-7.2-3.7-10.3-6.1c-4.1-3.2-7.6-7-10.3-11.5c-0.3-0.4-0.5-0.8-0.8-1.2
				c-2.3-3.9-4-7.9-5.2-11.9c-2.6-8.8-2.6-18-0.1-27.7c0.1-0.3,0.1-0.5,0.2-0.8c0.8-3,1.9-6.1,3.2-9.2c0.1-0.3,0.3-0.7,0.4-1
				c3.3-7.4,8.5-13.3,12.7-17.8c0,0,0.1-0.1,0.1-0.1c4.5-4.8,7.5-10.6,8.8-17.2c0.1-0.2,0.1-0.5,0.1-0.7c0.9-5,2.4-9.3,4.7-13.1v0
				c0.7-1.1,1.4-2.2,2.3-3.3c1-1.2,2.1-2.4,3.2-3.6l0.6-0.6c0.1-0.1,0.3-0.3,0.4-0.4c3.5-3,7.8-5.2,12.9-6.5
				c0.7-0.2,1.5-0.3,2.3-0.5h0.1l0.4-0.1l-0.2,2l-0.2,1.6l0,0.4c-0.3-0.2-0.6-0.4-0.8-0.5c-0.6-0.3-1.2-0.6-1.9-0.6
				c-1.4-0.2-2.7,0.4-3.7,1.5c-1.4,1.6-1.3,4,0.2,5.6c2.4,2.8,6.2,4.3,10.4,4.3h0c0.1,0,0.2,0,0.3,0
				C97.5,65.7,101.1,64.2,103.5,61.5L103.5,61.5z M158.2,21.8c-3,3.2-6.2,6.6-9.4,9.7c-3.8,3.7-8.8,5.7-14,5.7h-0.4
				c-5.3-0.1-10.3-2.3-14-6.1c-1-1.1-1.9-1.9-2.6-2.5c-0.9-0.9-1.6-1.5-1.6-1.8c-0.1-0.4,0.3-1.1,0.8-2.3c0.4-0.9,0.9-1.9,1.4-3.3
				c1.9-4.9,5.7-8.7,10.6-10.8c2.6-1.1,5.3-1.6,8-1.6c2.6,0,5.1,0.5,7.6,1.5c4.2,1.7,8.5,3.7,12.6,5.6c1.6,0.7,3.1,1.4,4.6,2.1
				C160.7,19.1,159.4,20.4,158.2,21.8L158.2,21.8z"/>
			
				<linearGradient id="SVGID_00000129166807223888478310000005903067438897822384_" gradientUnits="userSpaceOnUse" x1="26.5033" y1="102.0062" x2="173.4916" y2="102.0062" gradientTransform="matrix(1 0 0 -1 0 202)">
				<stop  offset="0" style="stop-color:#BFCC60"/>
				<stop  offset="0.29" style="stop-color:#798D5C"/>
				<stop  offset="0.69" style="stop-color:#6B6052"/>
				<stop  offset="1" style="stop-color:#3D3535"/>
			</linearGradient>
			<path style="fill:url(#SVGID_00000129166807223888478310000005903067438897822384_);" d="M173.4,15.5c-0.3-1.4-1.3-2.5-2.8-3.1
				c-3.1-1.3-6.2-2.8-9.1-4.2c-6-2.9-12.2-5.9-18.9-7.7c-0.8-0.2-1.7-0.3-2.6-0.4L140,1l0-1c-5-0.3-10,0.5-14.5,2.5l-0.1,0
				c-8.1,3.6-13.6,9.9-16.3,18.8c-0.6,2.1-1.5,2.8-3.5,2.9c-1.5,0-2.9,0-4.2-0.2c-3.4-0.5-6-1.8-8-4c-0.6-0.7-1.2-1.4-1.7-2.3
				c-1.1-1.8-2.4-3.4-3.5-4.8c-1.8-2.2-4.4-2.6-6.4-1c-0.9,0.8-1.5,1.8-1.6,2.9c-0.1,1.2,0.4,2.5,1.4,3.6c1.5,1.7,2.8,3.5,3.8,5.6
				c1.2,2.4,2.1,5.2,2.8,8.4c0.1,0.4,0.2,0.8,0.2,1.2c0.3,1.9,0.5,3.9,0.7,5.9c0,0.3,0.1,0.5,0.1,0.8c0.1,0.7,0.1,1.5,0.2,2.2
				c-0.1,0-0.1,0-0.2,0c-0.3,0-0.6,0.1-0.9,0.1s-0.6,0.1-0.8,0.2c-0.3,0.1-0.6,0.2-0.9,0.2c0,0-0.1,0-0.1,0
				c-0.3,0.1-0.6,0.1-0.8,0.2c-0.7,0.2-1.4,0.3-2,0.5c-0.1,0-0.2,0.1-0.4,0.1c-1.2,0.3-4.3,1.4-4.7,1.6c-6.5,2.7-11.8,6.7-15.9,12
				c-4.3,5.4-7.2,11.7-8.5,18.8c-0.2,1.2-0.5,2.3-0.8,3.4c-0.1,0.2-0.1,0.3-0.2,0.5c-1.2,4.1-3.2,7.8-5.9,11
				c-0.2,0.2-0.4,0.5-0.6,0.7c-0.3,0.3-0.5,0.6-0.8,0.9c-0.6,0.7-1.3,1.4-2,2.2c0,0-0.1,0.1-0.1,0.1c-2.1,2.3-4.3,5.1-6.3,8
				c-1.4,2.1-2.6,4.2-3.7,6.3l-0.1,0.1c-5.6,10.8-8,22.4-7.2,34.7c0.1,1.3,0.2,2.6,0.4,4c0,0,0,0.1,0,0.1
				c1.3,9.8,4.6,18.4,10.1,25.8c0,0,0,0,0,0.1c3.1,4.2,6.9,8.1,11.4,11.5c1.6,1.2,3.3,2.4,5,3.5c1.2,0.8,2.4,1.5,3.7,2.1
				c0,0,0,0,0,0c0.4,0.2,0.8,0.4,1.2,0.6c0.1,0.1,0.2,0.1,0.3,0.1c2.5,1.3,5.2,2.4,7.9,3.4c0,0,0.1,0,0.1,0.1c0.5,0.2,1,0.4,1.6,0.5
				c0.2,0.1,0.4,0.1,0.6,0.2c0.3,0.1,0.6,0.2,1,0.3c0.6,0.2,1.3,0.4,1.9,0.6c6.6,1.8,13.7,2.7,21.5,2.8h0.1c7.7,0,14.8-0.9,21.5-2.8
				c0.2-0.1,0.4-0.1,0.7-0.2c1.5-0.4,2.9-0.9,4.4-1.4c2.9-1,5.7-2.3,8-3.4c0.1,0,0.1-0.1,0.1-0.1c0.3-0.1,0.5-0.3,0.8-0.4
				c0.2-0.1,0.4-0.2,0.6-0.4l0,0c1.2-0.7,2.4-1.4,3.6-2.1c1.8-1.1,3.4-2.3,5-3.5l0,0c0.4-0.2,2.6-2.2,2.9-2.5c4.1-3.6,5.8-5.2,8.5-9
				c0.1-0.2,0.3-0.4,0.4-0.6c0.6-0.9,1.2-1.9,1.8-2.9c4.2-7.1,6.8-14.7,7.9-22.5c0.1-0.7,0.2-1.3,0.2-2c0.1-0.7,0.1-1.3,0.2-2
				c0.5-8-0.5-16.2-3.2-24.8c-1-3.4-2.4-6.7-4-9.9c-0.2-0.4-0.4-0.7-0.6-1.1c-2.4-4.6-5.5-8.9-9-12.8c-0.2-0.2-0.4-0.4-0.5-0.6
				c-0.3-0.3-0.6-0.7-0.9-1c-0.9-0.9-1.7-1.8-2.5-2.8c0-0.1-0.1-0.1-0.1-0.2c-2.6-3.4-4.6-7.2-5.9-11.4c0,0,0,0,0-0.1
				c-0.3-1-0.6-2.1-0.9-3.2c-1.7-7.6-4.6-13.9-8.5-19c-4.1-5.3-9.3-9.2-15.8-11.9c-1.7-0.7-3.4-1.3-5.2-1.8
				c-0.9-0.3-1.8-0.5-2.7-0.7c0,0,0,0-0.1,0c-0.5-0.1-1.1-0.2-1.6-0.3c0,0-0.1,0-0.1-0.1C98.3,42.6,98,42.2,98,42
				c-0.1-0.8-0.2-1.6-0.3-2.3c-0.1-1.2-0.2-2.3-0.3-3.5c-0.1-0.9-0.2-1.9-0.3-2.8c-0.1-0.4-0.1-0.8-0.2-1.3c0.6,0.2,1.1,0.3,1.7,0.4
				c3.4,0.7,6.9,0.7,10.8,0.1c0.1,0,0.6,0.2,1,0.6c0.7,0.7,1.3,1.4,2,2.1c0.6,0.7,1.2,1.3,1.9,2c10.9,10.9,28.7,11.3,39.8,1
				c4.8-4.5,9.4-9.4,13.8-14.2c1.4-1.5,2.8-3,4.2-4.5C173.2,18.4,173.7,16.9,173.4,15.5L173.4,15.5z M103.5,61.5
				c1.5-1.7,1.6-4,0.2-5.6c-0.8-1-1.9-1.5-3.1-1.6c-0.8,0-1.7,0.2-2.4,0.6c-0.1,0.1-0.2,0.1-0.3,0.2s-0.2,0.1-0.3,0.2l0.2-1.8
				l0.2-1.9v0c0.3,0,0.6,0.1,0.9,0.2c0.5,0.1,0.9,0.2,1.4,0.4c5.1,1.4,9.3,3.6,12.9,6.5c0,0,0,0,0,0c2.6,2.2,4.8,4.8,6.5,7.8
				c0,0,0,0,0,0c1.7,2.9,3,6.3,3.8,10c0.3,1.3,0.7,2.6,1,3.9c2,6.4,4.9,12.3,8.8,17.2c0,0,0.1,0.1,0.1,0.1c0.9,1.1,1.8,2.2,2.8,3.2
				c4.1,4.4,7.5,9.2,9.9,14.5c1.7,3.5,1.7,3.5,0,0c1.5,3.2,2.7,6.7,3.6,10.2c0.1,0.3,0.1,0.5,0.2,0.8c0.7,3.2,1.2,6.6,1.5,10
				c0.4,6.3-0.1,12.2-1.6,17.6c0,0,0,0,0,0.1c-1.2,4.7-3.2,9-5.8,12.9c0,0,0,0,0,0c-0.6,0.9-1.1,1.7-1.8,2.5
				c-1.7,2.2-3.4,4.4-5.5,6.4c-0.9,0.9-3.1,2.7-3.2,2.7c-3.1,2.4-6.5,4.4-10.3,6.1c-9.9,4.4-19.8,6.6-29.7,6.6h-0.3
				c-9.9-0.1-19.8-2.3-29.7-6.6c-3.8-1.7-7.2-3.7-10.3-6.1c-4.1-3.2-7.6-7-10.3-11.5c-0.3-0.4-0.5-0.8-0.8-1.2
				c-2.3-3.9-4-7.9-5.2-11.9c-2.6-8.8-2.6-18-0.1-27.7c0.1-0.3,0.1-0.5,0.2-0.8c0.8-3,1.9-6.1,3.2-9.2c0.1-0.3,0.3-0.7,0.4-1
				c3.3-7.4,8.5-13.3,12.7-17.8c0,0,0.1-0.1,0.1-0.1c4.5-4.8,7.5-10.6,8.8-17.2c0.1-0.2,0.1-0.5,0.1-0.7c0.9-5,2.4-9.3,4.7-13.1v0
				c0.7-1.1,1.4-2.2,2.3-3.3c1-1.2,2.1-2.4,3.2-3.6l0.6-0.6c0.1-0.1,0.3-0.3,0.4-0.4c3.5-3,7.8-5.2,12.9-6.5
				c0.7-0.2,1.5-0.3,2.3-0.5h0.1l0.4-0.1l-0.2,2l-0.2,1.6l0,0.4c-0.3-0.2-0.6-0.4-0.8-0.5c-0.6-0.3-1.2-0.6-1.9-0.6
				c-1.4-0.2-2.7,0.4-3.7,1.5c-1.4,1.6-1.3,4,0.2,5.6c2.4,2.8,6.2,4.3,10.4,4.3h0c0.1,0,0.2,0,0.3,0
				C97.5,65.7,101.1,64.2,103.5,61.5L103.5,61.5z M158.2,21.8c-3,3.2-6.2,6.6-9.4,9.7c-3.8,3.7-8.8,5.7-14,5.7h-0.4
				c-5.3-0.1-10.3-2.3-14-6.1c-1-1.1-1.9-1.9-2.6-2.5c-0.9-0.9-1.6-1.5-1.6-1.8c-0.1-0.4,0.3-1.1,0.8-2.3c0.4-0.9,0.9-1.9,1.4-3.3
				c1.9-4.9,5.7-8.7,10.6-10.8c2.6-1.1,5.3-1.6,8-1.6c2.6,0,5.1,0.5,7.6,1.5c4.2,1.7,8.5,3.7,12.6,5.6c1.6,0.7,3.1,1.4,4.6,2.1
				C160.7,19.1,159.4,20.4,158.2,21.8L158.2,21.8z"/>
		</g>
		<g>
			
				<linearGradient id="SVGID_00000070802361156877861270000017500448810526417341_" gradientUnits="userSpaceOnUse" x1="26.5033" y1="102.0062" x2="173.4916" y2="102.0062" gradientTransform="matrix(1 0 0 -1 0 202)">
				<stop  offset="0" style="stop-color:#BFCC60"/>
				<stop  offset="0.29" style="stop-color:#798D5C"/>
				<stop  offset="0.69" style="stop-color:#6B6052"/>
				<stop  offset="1" style="stop-color:#3D3535"/>
			</linearGradient>
			<path style="fill:url(#SVGID_00000070802361156877861270000017500448810526417341_);" d="M173.4,15.5c-0.3-1.4-1.3-2.5-2.8-3.1
				c-3.1-1.3-6.2-2.8-9.1-4.2c-6-2.9-12.2-5.9-18.9-7.7c-0.8-0.2-1.7-0.3-2.6-0.4L140,1l0-1c-5-0.3-10,0.5-14.5,2.5l-0.1,0
				c-8.1,3.6-13.6,9.9-16.3,18.8c-0.6,2.1-1.5,2.8-3.5,2.9c-1.5,0-2.9,0-4.2-0.2c-3.4-0.5-6-1.8-8-4c-0.6-0.7-1.2-1.4-1.7-2.3
				c-1.1-1.8-2.4-3.4-3.5-4.8c-1.8-2.2-4.4-2.6-6.4-1c-0.9,0.8-1.5,1.8-1.6,2.9c-0.1,1.2,0.4,2.5,1.4,3.6c1.5,1.7,2.8,3.5,3.8,5.6
				c1.2,2.4,2.1,5.2,2.8,8.4c0.1,0.4,0.2,0.8,0.2,1.2c0.3,1.9,0.5,3.9,0.7,5.9c0,0.3,0.1,0.5,0.1,0.8c0.1,0.7,0.1,1.5,0.2,2.2
				c-0.1,0-0.1,0-0.2,0c-0.3,0-0.6,0.1-0.9,0.1s-0.6,0.1-0.8,0.2c-0.3,0.1-0.6,0.2-0.9,0.2c0,0-0.1,0-0.1,0
				c-0.3,0.1-0.6,0.1-0.8,0.2c-0.7,0.2-1.4,0.3-2,0.5c-0.1,0-0.2,0.1-0.4,0.1c-1.2,0.3-4.3,1.4-4.7,1.6c-6.5,2.7-11.8,6.7-15.9,12
				c-4.3,5.4-7.2,11.7-8.5,18.8c-0.2,1.2-0.5,2.3-0.8,3.4c-0.1,0.2-0.1,0.3-0.2,0.5c-1.2,4.1-3.2,7.8-5.9,11
				c-0.2,0.2-0.4,0.5-0.6,0.7c-0.3,0.3-0.5,0.6-0.8,0.9c-0.6,0.7-1.3,1.4-2,2.2c0,0-0.1,0.1-0.1,0.1c-2.1,2.3-4.3,5.1-6.3,8
				c-1.4,2.1-2.6,4.2-3.7,6.3l-0.1,0.1c-5.6,10.8-8,22.4-7.2,34.7c0.1,1.3,0.2,2.6,0.4,4c0,0,0,0.1,0,0.1
				c1.3,9.8,4.6,18.4,10.1,25.8c0,0,0,0,0,0.1c3.1,4.2,6.9,8.1,11.4,11.5c1.6,1.2,3.3,2.4,5,3.5c1.2,0.8,2.4,1.5,3.7,2.1
				c0,0,0,0,0,0c0.4,0.2,0.8,0.4,1.2,0.6c0.1,0.1,0.2,0.1,0.3,0.1c2.5,1.3,5.2,2.4,7.9,3.4c0,0,0.1,0,0.1,0.1c0.5,0.2,1,0.4,1.6,0.5
				c0.2,0.1,0.4,0.1,0.6,0.2c0.3,0.1,0.6,0.2,1,0.3c0.6,0.2,1.3,0.4,1.9,0.6c6.6,1.8,13.7,2.7,21.5,2.8h0.1c7.7,0,14.8-0.9,21.5-2.8
				c0.2-0.1,0.4-0.1,0.7-0.2c1.5-0.4,2.9-0.9,4.4-1.4c2.9-1,5.7-2.3,8-3.4c0.1,0,0.1-0.1,0.1-0.1c0.3-0.1,0.5-0.3,0.8-0.4
				c0.2-0.1,0.4-0.2,0.6-0.4l0,0c1.2-0.7,2.4-1.4,3.6-2.1c1.8-1.1,3.4-2.3,5-3.5l0,0c0.4-0.2,2.6-2.2,2.9-2.5c4.1-3.6,5.8-5.2,8.5-9
				c0.1-0.2,0.3-0.4,0.4-0.6c0.6-0.9,1.2-1.9,1.8-2.9c4.2-7.1,6.8-14.7,7.9-22.5c0.1-0.7,0.2-1.3,0.2-2c0.1-0.7,0.1-1.3,0.2-2
				c0.5-8-0.5-16.2-3.2-24.8c-1-3.4-2.4-6.7-4-9.9c-0.2-0.4-0.4-0.7-0.6-1.1c-2.4-4.6-5.5-8.9-9-12.8c-0.2-0.2-0.4-0.4-0.5-0.6
				c-0.3-0.3-0.6-0.7-0.9-1c-0.9-0.9-1.7-1.8-2.5-2.8c0-0.1-0.1-0.1-0.1-0.2c-2.6-3.4-4.6-7.2-5.9-11.4c0,0,0,0,0-0.1
				c-0.3-1-0.6-2.1-0.9-3.2c-1.7-7.6-4.6-13.9-8.5-19c-4.1-5.3-9.3-9.2-15.8-11.9c-1.7-0.7-3.4-1.3-5.2-1.8
				c-0.9-0.3-1.8-0.5-2.7-0.7c0,0,0,0-0.1,0c-0.5-0.1-1.1-0.2-1.6-0.3c0,0-0.1,0-0.1-0.1C98.3,42.6,98,42.2,98,42
				c-0.1-0.8-0.2-1.6-0.3-2.3c-0.1-1.2-0.2-2.3-0.3-3.5c-0.1-0.9-0.2-1.9-0.3-2.8c-0.1-0.4-0.1-0.8-0.2-1.3c0.6,0.2,1.1,0.3,1.7,0.4
				c3.4,0.7,6.9,0.7,10.8,0.1c0.1,0,0.6,0.2,1,0.6c0.7,0.7,1.3,1.4,2,2.1c0.6,0.7,1.2,1.3,1.9,2c10.9,10.9,28.7,11.3,39.8,1
				c4.8-4.5,9.4-9.4,13.8-14.2c1.4-1.5,2.8-3,4.2-4.5C173.2,18.4,173.7,16.9,173.4,15.5L173.4,15.5z M103.5,61.5
				c1.5-1.7,1.6-4,0.2-5.6c-0.8-1-1.9-1.5-3.1-1.6c-0.8,0-1.7,0.2-2.4,0.6c-0.1,0.1-0.2,0.1-0.3,0.2s-0.2,0.1-0.3,0.2l0.2-1.8
				l0.2-1.9v0c0.3,0,0.6,0.1,0.9,0.2c0.5,0.1,0.9,0.2,1.4,0.4c5.1,1.4,9.3,3.6,12.9,6.5c0,0,0,0,0,0c2.6,2.2,4.8,4.8,6.5,7.8
				c0,0,0,0,0,0c1.7,2.9,3,6.3,3.8,10c0.3,1.3,0.7,2.6,1,3.9c2,6.4,4.9,12.3,8.8,17.2c0,0,0.1,0.1,0.1,0.1c0.9,1.1,1.8,2.2,2.8,3.2
				c4.1,4.4,7.5,9.2,9.9,14.5c1.7,3.5,1.7,3.5,0,0c1.5,3.2,2.7,6.7,3.6,10.2c0.1,0.3,0.1,0.5,0.2,0.8c0.7,3.2,1.2,6.6,1.5,10
				c0.4,6.3-0.1,12.2-1.6,17.6c0,0,0,0,0,0.1c-1.2,4.7-3.2,9-5.8,12.9c0,0,0,0,0,0c-0.6,0.9-1.1,1.7-1.8,2.5
				c-1.7,2.2-3.4,4.4-5.5,6.4c-0.9,0.9-3.1,2.7-3.2,2.7c-3.1,2.4-6.5,4.4-10.3,6.1c-9.9,4.4-19.8,6.6-29.7,6.6h-0.3
				c-9.9-0.1-19.8-2.3-29.7-6.6c-3.8-1.7-7.2-3.7-10.3-6.1c-4.1-3.2-7.6-7-10.3-11.5c-0.3-0.4-0.5-0.8-0.8-1.2
				c-2.3-3.9-4-7.9-5.2-11.9c-2.6-8.8-2.6-18-0.1-27.7c0.1-0.3,0.1-0.5,0.2-0.8c0.8-3,1.9-6.1,3.2-9.2c0.1-0.3,0.3-0.7,0.4-1
				c3.3-7.4,8.5-13.3,12.7-17.8c0,0,0.1-0.1,0.1-0.1c4.5-4.8,7.5-10.6,8.8-17.2c0.1-0.2,0.1-0.5,0.1-0.7c0.9-5,2.4-9.3,4.7-13.1v0
				c0.7-1.1,1.4-2.2,2.3-3.3c1-1.2,2.1-2.4,3.2-3.6l0.6-0.6c0.1-0.1,0.3-0.3,0.4-0.4c3.5-3,7.8-5.2,12.9-6.5
				c0.7-0.2,1.5-0.3,2.3-0.5h0.1l0.4-0.1l-0.2,2l-0.2,1.6l0,0.4c-0.3-0.2-0.6-0.4-0.8-0.5c-0.6-0.3-1.2-0.6-1.9-0.6
				c-1.4-0.2-2.7,0.4-3.7,1.5c-1.4,1.6-1.3,4,0.2,5.6c2.4,2.8,6.2,4.3,10.4,4.3h0c0.1,0,0.2,0,0.3,0
				C97.5,65.7,101.1,64.2,103.5,61.5L103.5,61.5z M158.2,21.8c-3,3.2-6.2,6.6-9.4,9.7c-3.8,3.7-8.8,5.7-14,5.7h-0.4
				c-5.3-0.1-10.3-2.3-14-6.1c-1-1.1-1.9-1.9-2.6-2.5c-0.9-0.9-1.6-1.5-1.6-1.8c-0.1-0.4,0.3-1.1,0.8-2.3c0.4-0.9,0.9-1.9,1.4-3.3
				c1.9-4.9,5.7-8.7,10.6-10.8c2.6-1.1,5.3-1.6,8-1.6c2.6,0,5.1,0.5,7.6,1.5c4.2,1.7,8.5,3.7,12.6,5.6c1.6,0.7,3.1,1.4,4.6,2.1
				C160.7,19.1,159.4,20.4,158.2,21.8L158.2,21.8z"/>
			
				<linearGradient id="SVGID_00000181784729799125144140000005024515724991688832_" gradientUnits="userSpaceOnUse" x1="26.5033" y1="102.0062" x2="173.4916" y2="102.0062" gradientTransform="matrix(1 0 0 -1 0 202)">
				<stop  offset="0" style="stop-color:#BFCC60"/>
				<stop  offset="0.29" style="stop-color:#798D5C"/>
				<stop  offset="0.69" style="stop-color:#6B6052"/>
				<stop  offset="1" style="stop-color:#3D3535"/>
			</linearGradient>
			<path style="fill:url(#SVGID_00000181784729799125144140000005024515724991688832_);" d="M173.4,15.5c-0.3-1.4-1.3-2.5-2.8-3.1
				c-3.1-1.3-6.2-2.8-9.1-4.2c-6-2.9-12.2-5.9-18.9-7.7c-0.8-0.2-1.7-0.3-2.6-0.4L140,1l0-1c-5-0.3-10,0.5-14.5,2.5l-0.1,0
				c-8.1,3.6-13.6,9.9-16.3,18.8c-0.6,2.1-1.5,2.8-3.5,2.9c-1.5,0-2.9,0-4.2-0.2c-3.4-0.5-6-1.8-8-4c-0.6-0.7-1.2-1.4-1.7-2.3
				c-1.1-1.8-2.4-3.4-3.5-4.8c-1.8-2.2-4.4-2.6-6.4-1c-0.9,0.8-1.5,1.8-1.6,2.9c-0.1,1.2,0.4,2.5,1.4,3.6c1.5,1.7,2.8,3.5,3.8,5.6
				c1.2,2.4,2.1,5.2,2.8,8.4c0.1,0.4,0.2,0.8,0.2,1.2c0.3,1.9,0.5,3.9,0.7,5.9c0,0.3,0.1,0.5,0.1,0.8c0.1,0.7,0.1,1.5,0.2,2.2
				c-0.1,0-0.1,0-0.2,0c-0.3,0-0.6,0.1-0.9,0.1s-0.6,0.1-0.8,0.2c-0.3,0.1-0.6,0.2-0.9,0.2c0,0-0.1,0-0.1,0
				c-0.3,0.1-0.6,0.1-0.8,0.2c-0.7,0.2-1.4,0.3-2,0.5c-0.1,0-0.2,0.1-0.4,0.1c-1.2,0.3-4.3,1.4-4.7,1.6c-6.5,2.7-11.8,6.7-15.9,12
				c-4.3,5.4-7.2,11.7-8.5,18.8c-0.2,1.2-0.5,2.3-0.8,3.4c-0.1,0.2-0.1,0.3-0.2,0.5c-1.2,4.1-3.2,7.8-5.9,11
				c-0.2,0.2-0.4,0.5-0.6,0.7c-0.3,0.3-0.5,0.6-0.8,0.9c-0.6,0.7-1.3,1.4-2,2.2c0,0-0.1,0.1-0.1,0.1c-2.1,2.3-4.3,5.1-6.3,8
				c-1.4,2.1-2.6,4.2-3.7,6.3l-0.1,0.1c-5.6,10.8-8,22.4-7.2,34.7c0.1,1.3,0.2,2.6,0.4,4c0,0,0,0.1,0,0.1
				c1.3,9.8,4.6,18.4,10.1,25.8c0,0,0,0,0,0.1c3.1,4.2,6.9,8.1,11.4,11.5c1.6,1.2,3.3,2.4,5,3.5c1.2,0.8,2.4,1.5,3.7,2.1
				c0,0,0,0,0,0c0.4,0.2,0.8,0.4,1.2,0.6c0.1,0.1,0.2,0.1,0.3,0.1c2.5,1.3,5.2,2.4,7.9,3.4c0,0,0.1,0,0.1,0.1c0.5,0.2,1,0.4,1.6,0.5
				c0.2,0.1,0.4,0.1,0.6,0.2c0.3,0.1,0.6,0.2,1,0.3c0.6,0.2,1.3,0.4,1.9,0.6c6.6,1.8,13.7,2.7,21.5,2.8h0.1c7.7,0,14.8-0.9,21.5-2.8
				c0.2-0.1,0.4-0.1,0.7-0.2c1.5-0.4,2.9-0.9,4.4-1.4c2.9-1,5.7-2.3,8-3.4c0.1,0,0.1-0.1,0.1-0.1c0.3-0.1,0.5-0.3,0.8-0.4
				c0.2-0.1,0.4-0.2,0.6-0.4l0,0c1.2-0.7,2.4-1.4,3.6-2.1c1.8-1.1,3.4-2.3,5-3.5l0,0c0.4-0.2,2.6-2.2,2.9-2.5c4.1-3.6,5.8-5.2,8.5-9
				c0.1-0.2,0.3-0.4,0.4-0.6c0.6-0.9,1.2-1.9,1.8-2.9c4.2-7.1,6.8-14.7,7.9-22.5c0.1-0.7,0.2-1.3,0.2-2c0.1-0.7,0.1-1.3,0.2-2
				c0.5-8-0.5-16.2-3.2-24.8c-1-3.4-2.4-6.7-4-9.9c-0.2-0.4-0.4-0.7-0.6-1.1c-2.4-4.6-5.5-8.9-9-12.8c-0.2-0.2-0.4-0.4-0.5-0.6
				c-0.3-0.3-0.6-0.7-0.9-1c-0.9-0.9-1.7-1.8-2.5-2.8c0-0.1-0.1-0.1-0.1-0.2c-2.6-3.4-4.6-7.2-5.9-11.4c0,0,0,0,0-0.1
				c-0.3-1-0.6-2.1-0.9-3.2c-1.7-7.6-4.6-13.9-8.5-19c-4.1-5.3-9.3-9.2-15.8-11.9c-1.7-0.7-3.4-1.3-5.2-1.8
				c-0.9-0.3-1.8-0.5-2.7-0.7c0,0,0,0-0.1,0c-0.5-0.1-1.1-0.2-1.6-0.3c0,0-0.1,0-0.1-0.1C98.3,42.6,98,42.2,98,42
				c-0.1-0.8-0.2-1.6-0.3-2.3c-0.1-1.2-0.2-2.3-0.3-3.5c-0.1-0.9-0.2-1.9-0.3-2.8c-0.1-0.4-0.1-0.8-0.2-1.3c0.6,0.2,1.1,0.3,1.7,0.4
				c3.4,0.7,6.9,0.7,10.8,0.1c0.1,0,0.6,0.2,1,0.6c0.7,0.7,1.3,1.4,2,2.1c0.6,0.7,1.2,1.3,1.9,2c10.9,10.9,28.7,11.3,39.8,1
				c4.8-4.5,9.4-9.4,13.8-14.2c1.4-1.5,2.8-3,4.2-4.5C173.2,18.4,173.7,16.9,173.4,15.5L173.4,15.5z M103.5,61.5
				c1.5-1.7,1.6-4,0.2-5.6c-0.8-1-1.9-1.5-3.1-1.6c-0.8,0-1.7,0.2-2.4,0.6c-0.1,0.1-0.2,0.1-0.3,0.2s-0.2,0.1-0.3,0.2l0.2-1.8
				l0.2-1.9v0c0.3,0,0.6,0.1,0.9,0.2c0.5,0.1,0.9,0.2,1.4,0.4c5.1,1.4,9.3,3.6,12.9,6.5c0,0,0,0,0,0c2.6,2.2,4.8,4.8,6.5,7.8
				c0,0,0,0,0,0c1.7,2.9,3,6.3,3.8,10c0.3,1.3,0.7,2.6,1,3.9c2,6.4,4.9,12.3,8.8,17.2c0,0,0.1,0.1,0.1,0.1c0.9,1.1,1.8,2.2,2.8,3.2
				c4.1,4.4,7.5,9.2,9.9,14.5c1.7,3.5,1.7,3.5,0,0c1.5,3.2,2.7,6.7,3.6,10.2c0.1,0.3,0.1,0.5,0.2,0.8c0.7,3.2,1.2,6.6,1.5,10
				c0.4,6.3-0.1,12.2-1.6,17.6c0,0,0,0,0,0.1c-1.2,4.7-3.2,9-5.8,12.9c0,0,0,0,0,0c-0.6,0.9-1.1,1.7-1.8,2.5
				c-1.7,2.2-3.4,4.4-5.5,6.4c-0.9,0.9-3.1,2.7-3.2,2.7c-3.1,2.4-6.5,4.4-10.3,6.1c-9.9,4.4-19.8,6.6-29.7,6.6h-0.3
				c-9.9-0.1-19.8-2.3-29.7-6.6c-3.8-1.7-7.2-3.7-10.3-6.1c-4.1-3.2-7.6-7-10.3-11.5c-0.3-0.4-0.5-0.8-0.8-1.2
				c-2.3-3.9-4-7.9-5.2-11.9c-2.6-8.8-2.6-18-0.1-27.7c0.1-0.3,0.1-0.5,0.2-0.8c0.8-3,1.9-6.1,3.2-9.2c0.1-0.3,0.3-0.7,0.4-1
				c3.3-7.4,8.5-13.3,12.7-17.8c0,0,0.1-0.1,0.1-0.1c4.5-4.8,7.5-10.6,8.8-17.2c0.1-0.2,0.1-0.5,0.1-0.7c0.9-5,2.4-9.3,4.7-13.1v0
				c0.7-1.1,1.4-2.2,2.3-3.3c1-1.2,2.1-2.4,3.2-3.6l0.6-0.6c0.1-0.1,0.3-0.3,0.4-0.4c3.5-3,7.8-5.2,12.9-6.5
				c0.7-0.2,1.5-0.3,2.3-0.5h0.1l0.4-0.1l-0.2,2l-0.2,1.6l0,0.4c-0.3-0.2-0.6-0.4-0.8-0.5c-0.6-0.3-1.2-0.6-1.9-0.6
				c-1.4-0.2-2.7,0.4-3.7,1.5c-1.4,1.6-1.3,4,0.2,5.6c2.4,2.8,6.2,4.3,10.4,4.3h0c0.1,0,0.2,0,0.3,0
				C97.5,65.7,101.1,64.2,103.5,61.5L103.5,61.5z M158.2,21.8c-3,3.2-6.2,6.6-9.4,9.7c-3.8,3.7-8.8,5.7-14,5.7h-0.4
				c-5.3-0.1-10.3-2.3-14-6.1c-1-1.1-1.9-1.9-2.6-2.5c-0.9-0.9-1.6-1.5-1.6-1.8c-0.1-0.4,0.3-1.1,0.8-2.3c0.4-0.9,0.9-1.9,1.4-3.3
				c1.9-4.9,5.7-8.7,10.6-10.8c2.6-1.1,5.3-1.6,8-1.6c2.6,0,5.1,0.5,7.6,1.5c4.2,1.7,8.5,3.7,12.6,5.6c1.6,0.7,3.1,1.4,4.6,2.1
				C160.7,19.1,159.4,20.4,158.2,21.8L158.2,21.8z"/>
			
				<linearGradient id="SVGID_00000048462807295258202290000013444571499235848362_" gradientUnits="userSpaceOnUse" x1="26.5033" y1="102.0062" x2="173.4916" y2="102.0062" gradientTransform="matrix(1 0 0 -1 0 202)">
				<stop  offset="0" style="stop-color:#BFCC60"/>
				<stop  offset="0.29" style="stop-color:#798D5C"/>
				<stop  offset="0.69" style="stop-color:#6B6052"/>
				<stop  offset="1" style="stop-color:#3D3535"/>
			</linearGradient>
			<path style="fill:url(#SVGID_00000048462807295258202290000013444571499235848362_);" d="M173.4,15.5c-0.3-1.4-1.3-2.5-2.8-3.1
				c-3.1-1.3-6.2-2.8-9.1-4.2c-6-2.9-12.2-5.9-18.9-7.7c-0.8-0.2-1.7-0.3-2.6-0.4L140,1l0-1c-5-0.3-10,0.5-14.5,2.5l-0.1,0
				c-8.1,3.6-13.6,9.9-16.3,18.8c-0.6,2.1-1.5,2.8-3.5,2.9c-1.5,0-2.9,0-4.2-0.2c-3.4-0.5-6-1.8-8-4c-0.6-0.7-1.2-1.4-1.7-2.3
				c-1.1-1.8-2.4-3.4-3.5-4.8c-1.8-2.2-4.4-2.6-6.4-1c-0.9,0.8-1.5,1.8-1.6,2.9c-0.1,1.2,0.4,2.5,1.4,3.6c1.5,1.7,2.8,3.5,3.8,5.6
				c1.2,2.4,2.1,5.2,2.8,8.4c0.1,0.4,0.2,0.8,0.2,1.2c0.3,1.9,0.5,3.9,0.7,5.9c0,0.3,0.1,0.5,0.1,0.8c0.1,0.7,0.1,1.5,0.2,2.2
				c-0.1,0-0.1,0-0.2,0c-0.3,0-0.6,0.1-0.9,0.1s-0.6,0.1-0.8,0.2c-0.3,0.1-0.6,0.2-0.9,0.2c0,0-0.1,0-0.1,0
				c-0.3,0.1-0.6,0.1-0.8,0.2c-0.7,0.2-1.4,0.3-2,0.5c-0.1,0-0.2,0.1-0.4,0.1c-1.2,0.3-4.3,1.4-4.7,1.6c-6.5,2.7-11.8,6.7-15.9,12
				c-4.3,5.4-7.2,11.7-8.5,18.8c-0.2,1.2-0.5,2.3-0.8,3.4c-0.1,0.2-0.1,0.3-0.2,0.5c-1.2,4.1-3.2,7.8-5.9,11
				c-0.2,0.2-0.4,0.5-0.6,0.7c-0.3,0.3-0.5,0.6-0.8,0.9c-0.6,0.7-1.3,1.4-2,2.2c0,0-0.1,0.1-0.1,0.1c-2.1,2.3-4.3,5.1-6.3,8
				c-1.4,2.1-2.6,4.2-3.7,6.3l-0.1,0.1c-5.6,10.8-8,22.4-7.2,34.7c0.1,1.3,0.2,2.6,0.4,4c0,0,0,0.1,0,0.1
				c1.3,9.8,4.6,18.4,10.1,25.8c0,0,0,0,0,0.1c3.1,4.2,6.9,8.1,11.4,11.5c1.6,1.2,3.3,2.4,5,3.5c1.2,0.8,2.4,1.5,3.7,2.1
				c0,0,0,0,0,0c0.4,0.2,0.8,0.4,1.2,0.6c0.1,0.1,0.2,0.1,0.3,0.1c2.5,1.3,5.2,2.4,7.9,3.4c0,0,0.1,0,0.1,0.1c0.5,0.2,1,0.4,1.6,0.5
				c0.2,0.1,0.4,0.1,0.6,0.2c0.3,0.1,0.6,0.2,1,0.3c0.6,0.2,1.3,0.4,1.9,0.6c6.6,1.8,13.7,2.7,21.5,2.8h0.1c7.7,0,14.8-0.9,21.5-2.8
				c0.2-0.1,0.4-0.1,0.7-0.2c1.5-0.4,2.9-0.9,4.4-1.4c2.9-1,5.7-2.3,8-3.4c0.1,0,0.1-0.1,0.1-0.1c0.3-0.1,0.5-0.3,0.8-0.4
				c0.2-0.1,0.4-0.2,0.6-0.4l0,0c1.2-0.7,2.4-1.4,3.6-2.1c1.8-1.1,3.4-2.3,5-3.5l0,0c0.4-0.2,2.6-2.2,2.9-2.5c4.1-3.6,5.8-5.2,8.5-9
				c0.1-0.2,0.3-0.4,0.4-0.6c0.6-0.9,1.2-1.9,1.8-2.9c4.2-7.1,6.8-14.7,7.9-22.5c0.1-0.7,0.2-1.3,0.2-2c0.1-0.7,0.1-1.3,0.2-2
				c0.5-8-0.5-16.2-3.2-24.8c-1-3.4-2.4-6.7-4-9.9c-0.2-0.4-0.4-0.7-0.6-1.1c-2.4-4.6-5.5-8.9-9-12.8c-0.2-0.2-0.4-0.4-0.5-0.6
				c-0.3-0.3-0.6-0.7-0.9-1c-0.9-0.9-1.7-1.8-2.5-2.8c0-0.1-0.1-0.1-0.1-0.2c-2.6-3.4-4.6-7.2-5.9-11.4c0,0,0,0,0-0.1
				c-0.3-1-0.6-2.1-0.9-3.2c-1.7-7.6-4.6-13.9-8.5-19c-4.1-5.3-9.3-9.2-15.8-11.9c-1.7-0.7-3.4-1.3-5.2-1.8
				c-0.9-0.3-1.8-0.5-2.7-0.7c0,0,0,0-0.1,0c-0.5-0.1-1.1-0.2-1.6-0.3c0,0-0.1,0-0.1-0.1C98.3,42.6,98,42.2,98,42
				c-0.1-0.8-0.2-1.6-0.3-2.3c-0.1-1.2-0.2-2.3-0.3-3.5c-0.1-0.9-0.2-1.9-0.3-2.8c-0.1-0.4-0.1-0.8-0.2-1.3c0.6,0.2,1.1,0.3,1.7,0.4
				c3.4,0.7,6.9,0.7,10.8,0.1c0.1,0,0.6,0.2,1,0.6c0.7,0.7,1.3,1.4,2,2.1c0.6,0.7,1.2,1.3,1.9,2c10.9,10.9,28.7,11.3,39.8,1
				c4.8-4.5,9.4-9.4,13.8-14.2c1.4-1.5,2.8-3,4.2-4.5C173.2,18.4,173.7,16.9,173.4,15.5L173.4,15.5z M103.5,61.5
				c1.5-1.7,1.6-4,0.2-5.6c-0.8-1-1.9-1.5-3.1-1.6c-0.8,0-1.7,0.2-2.4,0.6c-0.1,0.1-0.2,0.1-0.3,0.2s-0.2,0.1-0.3,0.2l0.2-1.8
				l0.2-1.9v0c0.3,0,0.6,0.1,0.9,0.2c0.5,0.1,0.9,0.2,1.4,0.4c5.1,1.4,9.3,3.6,12.9,6.5c0,0,0,0,0,0c2.6,2.2,4.8,4.8,6.5,7.8
				c0,0,0,0,0,0c1.7,2.9,3,6.3,3.8,10c0.3,1.3,0.7,2.6,1,3.9c2,6.4,4.9,12.3,8.8,17.2c0,0,0.1,0.1,0.1,0.1c0.9,1.1,1.8,2.2,2.8,3.2
				c4.1,4.4,7.5,9.2,9.9,14.5c1.7,3.5,1.7,3.5,0,0c1.5,3.2,2.7,6.7,3.6,10.2c0.1,0.3,0.1,0.5,0.2,0.8c0.7,3.2,1.2,6.6,1.5,10
				c0.4,6.3-0.1,12.2-1.6,17.6c0,0,0,0,0,0.1c-1.2,4.7-3.2,9-5.8,12.9c0,0,0,0,0,0c-0.6,0.9-1.1,1.7-1.8,2.5
				c-1.7,2.2-3.4,4.4-5.5,6.4c-0.9,0.9-3.1,2.7-3.2,2.7c-3.1,2.4-6.5,4.4-10.3,6.1c-9.9,4.4-19.8,6.6-29.7,6.6h-0.3
				c-9.9-0.1-19.8-2.3-29.7-6.6c-3.8-1.7-7.2-3.7-10.3-6.1c-4.1-3.2-7.6-7-10.3-11.5c-0.3-0.4-0.5-0.8-0.8-1.2
				c-2.3-3.9-4-7.9-5.2-11.9c-2.6-8.8-2.6-18-0.1-27.7c0.1-0.3,0.1-0.5,0.2-0.8c0.8-3,1.9-6.1,3.2-9.2c0.1-0.3,0.3-0.7,0.4-1
				c3.3-7.4,8.5-13.3,12.7-17.8c0,0,0.1-0.1,0.1-0.1c4.5-4.8,7.5-10.6,8.8-17.2c0.1-0.2,0.1-0.5,0.1-0.7c0.9-5,2.4-9.3,4.7-13.1v0
				c0.7-1.1,1.4-2.2,2.3-3.3c1-1.2,2.1-2.4,3.2-3.6l0.6-0.6c0.1-0.1,0.3-0.3,0.4-0.4c3.5-3,7.8-5.2,12.9-6.5
				c0.7-0.2,1.5-0.3,2.3-0.5h0.1l0.4-0.1l-0.2,2l-0.2,1.6l0,0.4c-0.3-0.2-0.6-0.4-0.8-0.5c-0.6-0.3-1.2-0.6-1.9-0.6
				c-1.4-0.2-2.7,0.4-3.7,1.5c-1.4,1.6-1.3,4,0.2,5.6c2.4,2.8,6.2,4.3,10.4,4.3h0c0.1,0,0.2,0,0.3,0
				C97.5,65.7,101.1,64.2,103.5,61.5L103.5,61.5z M158.2,21.8c-3,3.2-6.2,6.6-9.4,9.7c-3.8,3.7-8.8,5.7-14,5.7h-0.4
				c-5.3-0.1-10.3-2.3-14-6.1c-1-1.1-1.9-1.9-2.6-2.5c-0.9-0.9-1.6-1.5-1.6-1.8c-0.1-0.4,0.3-1.1,0.8-2.3c0.4-0.9,0.9-1.9,1.4-3.3
				c1.9-4.9,5.7-8.7,10.6-10.8c2.6-1.1,5.3-1.6,8-1.6c2.6,0,5.1,0.5,7.6,1.5c4.2,1.7,8.5,3.7,12.6,5.6c1.6,0.7,3.1,1.4,4.6,2.1
				C160.7,19.1,159.4,20.4,158.2,21.8L158.2,21.8z"/>
		</g>
		<g>
			
				<linearGradient id="SVGID_00000062159061504289958530000011776413824163087023_" gradientUnits="userSpaceOnUse" x1="26.5033" y1="102.0062" x2="173.4916" y2="102.0062" gradientTransform="matrix(1 0 0 -1 0 202)">
				<stop  offset="0" style="stop-color:#BFCC60"/>
				<stop  offset="0.29" style="stop-color:#798D5C"/>
				<stop  offset="0.69" style="stop-color:#6B6052"/>
				<stop  offset="1" style="stop-color:#3D3535"/>
			</linearGradient>
			<path style="fill:url(#SVGID_00000062159061504289958530000011776413824163087023_);" d="M173.4,15.5c-0.3-1.4-1.3-2.5-2.8-3.1
				c-3.1-1.3-6.2-2.8-9.1-4.2c-6-2.9-12.2-5.9-18.9-7.7c-0.8-0.2-1.7-0.3-2.6-0.4L140,1l0-1c-5-0.3-10,0.5-14.5,2.5l-0.1,0
				c-8.1,3.6-13.6,9.9-16.3,18.8c-0.6,2.1-1.5,2.8-3.5,2.9c-1.5,0-2.9,0-4.2-0.2c-3.4-0.5-6-1.8-8-4c-0.6-0.7-1.2-1.4-1.7-2.3
				c-1.1-1.8-2.4-3.4-3.5-4.8c-1.8-2.2-4.4-2.6-6.4-1c-0.9,0.8-1.5,1.8-1.6,2.9c-0.1,1.2,0.4,2.5,1.4,3.6c1.5,1.7,2.8,3.5,3.8,5.6
				c1.2,2.4,2.1,5.2,2.8,8.4c0.1,0.4,0.2,0.8,0.2,1.2c0.3,1.9,0.5,3.9,0.7,5.9c0,0.3,0.1,0.5,0.1,0.8c0.1,0.7,0.1,1.5,0.2,2.2
				c-0.1,0-0.1,0-0.2,0c-0.3,0-0.6,0.1-0.9,0.1s-0.6,0.1-0.8,0.2c-0.3,0.1-0.6,0.2-0.9,0.2c0,0-0.1,0-0.1,0
				c-0.3,0.1-0.6,0.1-0.8,0.2c-0.7,0.2-1.4,0.3-2,0.5c-0.1,0-0.2,0.1-0.4,0.1c-1.2,0.3-4.3,1.4-4.7,1.6c-6.5,2.7-11.8,6.7-15.9,12
				c-4.3,5.4-7.2,11.7-8.5,18.8c-0.2,1.2-0.5,2.3-0.8,3.4c-0.1,0.2-0.1,0.3-0.2,0.5c-1.2,4.1-3.2,7.8-5.9,11
				c-0.2,0.2-0.4,0.5-0.6,0.7c-0.3,0.3-0.5,0.6-0.8,0.9c-0.6,0.7-1.3,1.4-2,2.2c0,0-0.1,0.1-0.1,0.1c-2.1,2.3-4.3,5.1-6.3,8
				c-1.4,2.1-2.6,4.2-3.7,6.3l-0.1,0.1c-5.6,10.8-8,22.4-7.2,34.7c0.1,1.3,0.2,2.6,0.4,4c0,0,0,0.1,0,0.1
				c1.3,9.8,4.6,18.4,10.1,25.8c0,0,0,0,0,0.1c3.1,4.2,6.9,8.1,11.4,11.5c1.6,1.2,3.3,2.4,5,3.5c1.2,0.8,2.4,1.5,3.7,2.1
				c0,0,0,0,0,0c0.4,0.2,0.8,0.4,1.2,0.6c0.1,0.1,0.2,0.1,0.3,0.1c2.5,1.3,5.2,2.4,7.9,3.4c0,0,0.1,0,0.1,0.1c0.5,0.2,1,0.4,1.6,0.5
				c0.2,0.1,0.4,0.1,0.6,0.2c0.3,0.1,0.6,0.2,1,0.3c0.6,0.2,1.3,0.4,1.9,0.6c6.6,1.8,13.7,2.7,21.5,2.8h0.1c7.7,0,14.8-0.9,21.5-2.8
				c0.2-0.1,0.4-0.1,0.7-0.2c1.5-0.4,2.9-0.9,4.4-1.4c2.9-1,5.7-2.3,8-3.4c0.1,0,0.1-0.1,0.1-0.1c0.3-0.1,0.5-0.3,0.8-0.4
				c0.2-0.1,0.4-0.2,0.6-0.4l0,0c1.2-0.7,2.4-1.4,3.6-2.1c1.8-1.1,3.4-2.3,5-3.5l0,0c0.4-0.2,2.6-2.2,2.9-2.5c4.1-3.6,5.8-5.2,8.5-9
				c0.1-0.2,0.3-0.4,0.4-0.6c0.6-0.9,1.2-1.9,1.8-2.9c4.2-7.1,6.8-14.7,7.9-22.5c0.1-0.7,0.2-1.3,0.2-2c0.1-0.7,0.1-1.3,0.2-2
				c0.5-8-0.5-16.2-3.2-24.8c-1-3.4-2.4-6.7-4-9.9c-0.2-0.4-0.4-0.7-0.6-1.1c-2.4-4.6-5.5-8.9-9-12.8c-0.2-0.2-0.4-0.4-0.5-0.6
				c-0.3-0.3-0.6-0.7-0.9-1c-0.9-0.9-1.7-1.8-2.5-2.8c0-0.1-0.1-0.1-0.1-0.2c-2.6-3.4-4.6-7.2-5.9-11.4c0,0,0,0,0-0.1
				c-0.3-1-0.6-2.1-0.9-3.2c-1.7-7.6-4.6-13.9-8.5-19c-4.1-5.3-9.3-9.2-15.8-11.9c-1.7-0.7-3.4-1.3-5.2-1.8
				c-0.9-0.3-1.8-0.5-2.7-0.7c0,0,0,0-0.1,0c-0.5-0.1-1.1-0.2-1.6-0.3c0,0-0.1,0-0.1-0.1C98.3,42.6,98,42.2,98,42
				c-0.1-0.8-0.2-1.6-0.3-2.3c-0.1-1.2-0.2-2.3-0.3-3.5c-0.1-0.9-0.2-1.9-0.3-2.8c-0.1-0.4-0.1-0.8-0.2-1.3c0.6,0.2,1.1,0.3,1.7,0.4
				c3.4,0.7,6.9,0.7,10.8,0.1c0.1,0,0.6,0.2,1,0.6c0.7,0.7,1.3,1.4,2,2.1c0.6,0.7,1.2,1.3,1.9,2c10.9,10.9,28.7,11.3,39.8,1
				c4.8-4.5,9.4-9.4,13.8-14.2c1.4-1.5,2.8-3,4.2-4.5C173.2,18.4,173.7,16.9,173.4,15.5L173.4,15.5z M103.5,61.5
				c1.5-1.7,1.6-4,0.2-5.6c-0.8-1-1.9-1.5-3.1-1.6c-0.8,0-1.7,0.2-2.4,0.6c-0.1,0.1-0.2,0.1-0.3,0.2s-0.2,0.1-0.3,0.2l0.2-1.8
				l0.2-1.9v0c0.3,0,0.6,0.1,0.9,0.2c0.5,0.1,0.9,0.2,1.4,0.4c5.1,1.4,9.3,3.6,12.9,6.5c0,0,0,0,0,0c2.6,2.2,4.8,4.8,6.5,7.8
				c0,0,0,0,0,0c1.7,2.9,3,6.3,3.8,10c0.3,1.3,0.7,2.6,1,3.9c2,6.4,4.9,12.3,8.8,17.2c0,0,0.1,0.1,0.1,0.1c0.9,1.1,1.8,2.2,2.8,3.2
				c4.1,4.4,7.5,9.2,9.9,14.5c1.7,3.5,1.7,3.5,0,0c1.5,3.2,2.7,6.7,3.6,10.2c0.1,0.3,0.1,0.5,0.2,0.8c0.7,3.2,1.2,6.6,1.5,10
				c0.4,6.3-0.1,12.2-1.6,17.6c0,0,0,0,0,0.1c-1.2,4.7-3.2,9-5.8,12.9c0,0,0,0,0,0c-0.6,0.9-1.1,1.7-1.8,2.5
				c-1.7,2.2-3.4,4.4-5.5,6.4c-0.9,0.9-3.1,2.7-3.2,2.7c-3.1,2.4-6.5,4.4-10.3,6.1c-9.9,4.4-19.8,6.6-29.7,6.6h-0.3
				c-9.9-0.1-19.8-2.3-29.7-6.6c-3.8-1.7-7.2-3.7-10.3-6.1c-4.1-3.2-7.6-7-10.3-11.5c-0.3-0.4-0.5-0.8-0.8-1.2
				c-2.3-3.9-4-7.9-5.2-11.9c-2.6-8.8-2.6-18-0.1-27.7c0.1-0.3,0.1-0.5,0.2-0.8c0.8-3,1.9-6.1,3.2-9.2c0.1-0.3,0.3-0.7,0.4-1
				c3.3-7.4,8.5-13.3,12.7-17.8c0,0,0.1-0.1,0.1-0.1c4.5-4.8,7.5-10.6,8.8-17.2c0.1-0.2,0.1-0.5,0.1-0.7c0.9-5,2.4-9.3,4.7-13.1v0
				c0.7-1.1,1.4-2.2,2.3-3.3c1-1.2,2.1-2.4,3.2-3.6l0.6-0.6c0.1-0.1,0.3-0.3,0.4-0.4c3.5-3,7.8-5.2,12.9-6.5
				c0.7-0.2,1.5-0.3,2.3-0.5h0.1l0.4-0.1l-0.2,2l-0.2,1.6l0,0.4c-0.3-0.2-0.6-0.4-0.8-0.5c-0.6-0.3-1.2-0.6-1.9-0.6
				c-1.4-0.2-2.7,0.4-3.7,1.5c-1.4,1.6-1.3,4,0.2,5.6c2.4,2.8,6.2,4.3,10.4,4.3h0c0.1,0,0.2,0,0.3,0
				C97.5,65.7,101.1,64.2,103.5,61.5L103.5,61.5z M158.2,21.8c-3,3.2-6.2,6.6-9.4,9.7c-3.8,3.7-8.8,5.7-14,5.7h-0.4
				c-5.3-0.1-10.3-2.3-14-6.1c-1-1.1-1.9-1.9-2.6-2.5c-0.9-0.9-1.6-1.5-1.6-1.8c-0.1-0.4,0.3-1.1,0.8-2.3c0.4-0.9,0.9-1.9,1.4-3.3
				c1.9-4.9,5.7-8.7,10.6-10.8c2.6-1.1,5.3-1.6,8-1.6c2.6,0,5.1,0.5,7.6,1.5c4.2,1.7,8.5,3.7,12.6,5.6c1.6,0.7,3.1,1.4,4.6,2.1
				C160.7,19.1,159.4,20.4,158.2,21.8L158.2,21.8z"/>
			
				<linearGradient id="SVGID_00000023960141399939273210000008628569262167662465_" gradientUnits="userSpaceOnUse" x1="26.5033" y1="102.0062" x2="173.4916" y2="102.0062" gradientTransform="matrix(1 0 0 -1 0 202)">
				<stop  offset="0" style="stop-color:#BFCC60"/>
				<stop  offset="0.29" style="stop-color:#798D5C"/>
				<stop  offset="0.69" style="stop-color:#6B6052"/>
				<stop  offset="1" style="stop-color:#3D3535"/>
			</linearGradient>
			<path style="fill:url(#SVGID_00000023960141399939273210000008628569262167662465_);" d="M173.4,15.5c-0.3-1.4-1.3-2.5-2.8-3.1
				c-3.1-1.3-6.2-2.8-9.1-4.2c-6-2.9-12.2-5.9-18.9-7.7c-0.8-0.2-1.7-0.3-2.6-0.4L140,1l0-1c-5-0.3-10,0.5-14.5,2.5l-0.1,0
				c-8.1,3.6-13.6,9.9-16.3,18.8c-0.6,2.1-1.5,2.8-3.5,2.9c-1.5,0-2.9,0-4.2-0.2c-3.4-0.5-6-1.8-8-4c-0.6-0.7-1.2-1.4-1.7-2.3
				c-1.1-1.8-2.4-3.4-3.5-4.8c-1.8-2.2-4.4-2.6-6.4-1c-0.9,0.8-1.5,1.8-1.6,2.9c-0.1,1.2,0.4,2.5,1.4,3.6c1.5,1.7,2.8,3.5,3.8,5.6
				c1.2,2.4,2.1,5.2,2.8,8.4c0.1,0.4,0.2,0.8,0.2,1.2c0.3,1.9,0.5,3.9,0.7,5.9c0,0.3,0.1,0.5,0.1,0.8c0.1,0.7,0.1,1.5,0.2,2.2
				c-0.1,0-0.1,0-0.2,0c-0.3,0-0.6,0.1-0.9,0.1s-0.6,0.1-0.8,0.2c-0.3,0.1-0.6,0.2-0.9,0.2c0,0-0.1,0-0.1,0
				c-0.3,0.1-0.6,0.1-0.8,0.2c-0.7,0.2-1.4,0.3-2,0.5c-0.1,0-0.2,0.1-0.4,0.1c-1.2,0.3-4.3,1.4-4.7,1.6c-6.5,2.7-11.8,6.7-15.9,12
				c-4.3,5.4-7.2,11.7-8.5,18.8c-0.2,1.2-0.5,2.3-0.8,3.4c-0.1,0.2-0.1,0.3-0.2,0.5c-1.2,4.1-3.2,7.8-5.9,11
				c-0.2,0.2-0.4,0.5-0.6,0.7c-0.3,0.3-0.5,0.6-0.8,0.9c-0.6,0.7-1.3,1.4-2,2.2c0,0-0.1,0.1-0.1,0.1c-2.1,2.3-4.3,5.1-6.3,8
				c-1.4,2.1-2.6,4.2-3.7,6.3l-0.1,0.1c-5.6,10.8-8,22.4-7.2,34.7c0.1,1.3,0.2,2.6,0.4,4c0,0,0,0.1,0,0.1
				c1.3,9.8,4.6,18.4,10.1,25.8c0,0,0,0,0,0.1c3.1,4.2,6.9,8.1,11.4,11.5c1.6,1.2,3.3,2.4,5,3.5c1.2,0.8,2.4,1.5,3.7,2.1
				c0,0,0,0,0,0c0.4,0.2,0.8,0.4,1.2,0.6c0.1,0.1,0.2,0.1,0.3,0.1c2.5,1.3,5.2,2.4,7.9,3.4c0,0,0.1,0,0.1,0.1c0.5,0.2,1,0.4,1.6,0.5
				c0.2,0.1,0.4,0.1,0.6,0.2c0.3,0.1,0.6,0.2,1,0.3c0.6,0.2,1.3,0.4,1.9,0.6c6.6,1.8,13.7,2.7,21.5,2.8h0.1c7.7,0,14.8-0.9,21.5-2.8
				c0.2-0.1,0.4-0.1,0.7-0.2c1.5-0.4,2.9-0.9,4.4-1.4c2.9-1,5.7-2.3,8-3.4c0.1,0,0.1-0.1,0.1-0.1c0.3-0.1,0.5-0.3,0.8-0.4
				c0.2-0.1,0.4-0.2,0.6-0.4l0,0c1.2-0.7,2.4-1.4,3.6-2.1c1.8-1.1,3.4-2.3,5-3.5l0,0c0.4-0.2,2.6-2.2,2.9-2.5c4.1-3.6,5.8-5.2,8.5-9
				c0.1-0.2,0.3-0.4,0.4-0.6c0.6-0.9,1.2-1.9,1.8-2.9c4.2-7.1,6.8-14.7,7.9-22.5c0.1-0.7,0.2-1.3,0.2-2c0.1-0.7,0.1-1.3,0.2-2
				c0.5-8-0.5-16.2-3.2-24.8c-1-3.4-2.4-6.7-4-9.9c-0.2-0.4-0.4-0.7-0.6-1.1c-2.4-4.6-5.5-8.9-9-12.8c-0.2-0.2-0.4-0.4-0.5-0.6
				c-0.3-0.3-0.6-0.7-0.9-1c-0.9-0.9-1.7-1.8-2.5-2.8c0-0.1-0.1-0.1-0.1-0.2c-2.6-3.4-4.6-7.2-5.9-11.4c0,0,0,0,0-0.1
				c-0.3-1-0.6-2.1-0.9-3.2c-1.7-7.6-4.6-13.9-8.5-19c-4.1-5.3-9.3-9.2-15.8-11.9c-1.7-0.7-3.4-1.3-5.2-1.8
				c-0.9-0.3-1.8-0.5-2.7-0.7c0,0,0,0-0.1,0c-0.5-0.1-1.1-0.2-1.6-0.3c0,0-0.1,0-0.1-0.1C98.3,42.6,98,42.2,98,42
				c-0.1-0.8-0.2-1.6-0.3-2.3c-0.1-1.2-0.2-2.3-0.3-3.5c-0.1-0.9-0.2-1.9-0.3-2.8c-0.1-0.4-0.1-0.8-0.2-1.3c0.6,0.2,1.1,0.3,1.7,0.4
				c3.4,0.7,6.9,0.7,10.8,0.1c0.1,0,0.6,0.2,1,0.6c0.7,0.7,1.3,1.4,2,2.1c0.6,0.7,1.2,1.3,1.9,2c10.9,10.9,28.7,11.3,39.8,1
				c4.8-4.5,9.4-9.4,13.8-14.2c1.4-1.5,2.8-3,4.2-4.5C173.2,18.4,173.7,16.9,173.4,15.5L173.4,15.5z M103.5,61.5
				c1.5-1.7,1.6-4,0.2-5.6c-0.8-1-1.9-1.5-3.1-1.6c-0.8,0-1.7,0.2-2.4,0.6c-0.1,0.1-0.2,0.1-0.3,0.2s-0.2,0.1-0.3,0.2l0.2-1.8
				l0.2-1.9v0c0.3,0,0.6,0.1,0.9,0.2c0.5,0.1,0.9,0.2,1.4,0.4c5.1,1.4,9.3,3.6,12.9,6.5c0,0,0,0,0,0c2.6,2.2,4.8,4.8,6.5,7.8
				c0,0,0,0,0,0c1.7,2.9,3,6.3,3.8,10c0.3,1.3,0.7,2.6,1,3.9c2,6.4,4.9,12.3,8.8,17.2c0,0,0.1,0.1,0.1,0.1c0.9,1.1,1.8,2.2,2.8,3.2
				c4.1,4.4,7.5,9.2,9.9,14.5c1.7,3.5,1.7,3.5,0,0c1.5,3.2,2.7,6.7,3.6,10.2c0.1,0.3,0.1,0.5,0.2,0.8c0.7,3.2,1.2,6.6,1.5,10
				c0.4,6.3-0.1,12.2-1.6,17.6c0,0,0,0,0,0.1c-1.2,4.7-3.2,9-5.8,12.9c0,0,0,0,0,0c-0.6,0.9-1.1,1.7-1.8,2.5
				c-1.7,2.2-3.4,4.4-5.5,6.4c-0.9,0.9-3.1,2.7-3.2,2.7c-3.1,2.4-6.5,4.4-10.3,6.1c-9.9,4.4-19.8,6.6-29.7,6.6h-0.3
				c-9.9-0.1-19.8-2.3-29.7-6.6c-3.8-1.7-7.2-3.7-10.3-6.1c-4.1-3.2-7.6-7-10.3-11.5c-0.3-0.4-0.5-0.8-0.8-1.2
				c-2.3-3.9-4-7.9-5.2-11.9c-2.6-8.8-2.6-18-0.1-27.7c0.1-0.3,0.1-0.5,0.2-0.8c0.8-3,1.9-6.1,3.2-9.2c0.1-0.3,0.3-0.7,0.4-1
				c3.3-7.4,8.5-13.3,12.7-17.8c0,0,0.1-0.1,0.1-0.1c4.5-4.8,7.5-10.6,8.8-17.2c0.1-0.2,0.1-0.5,0.1-0.7c0.9-5,2.4-9.3,4.7-13.1v0
				c0.7-1.1,1.4-2.2,2.3-3.3c1-1.2,2.1-2.4,3.2-3.6l0.6-0.6c0.1-0.1,0.3-0.3,0.4-0.4c3.5-3,7.8-5.2,12.9-6.5
				c0.7-0.2,1.5-0.3,2.3-0.5h0.1l0.4-0.1l-0.2,2l-0.2,1.6l0,0.4c-0.3-0.2-0.6-0.4-0.8-0.5c-0.6-0.3-1.2-0.6-1.9-0.6
				c-1.4-0.2-2.7,0.4-3.7,1.5c-1.4,1.6-1.3,4,0.2,5.6c2.4,2.8,6.2,4.3,10.4,4.3h0c0.1,0,0.2,0,0.3,0
				C97.5,65.7,101.1,64.2,103.5,61.5L103.5,61.5z M158.2,21.8c-3,3.2-6.2,6.6-9.4,9.7c-3.8,3.7-8.8,5.7-14,5.7h-0.4
				c-5.3-0.1-10.3-2.3-14-6.1c-1-1.1-1.9-1.9-2.6-2.5c-0.9-0.9-1.6-1.5-1.6-1.8c-0.1-0.4,0.3-1.1,0.8-2.3c0.4-0.9,0.9-1.9,1.4-3.3
				c1.9-4.9,5.7-8.7,10.6-10.8c2.6-1.1,5.3-1.6,8-1.6c2.6,0,5.1,0.5,7.6,1.5c4.2,1.7,8.5,3.7,12.6,5.6c1.6,0.7,3.1,1.4,4.6,2.1
				C160.7,19.1,159.4,20.4,158.2,21.8L158.2,21.8z"/>
			
				<linearGradient id="SVGID_00000074401943979922585550000001751615496017010095_" gradientUnits="userSpaceOnUse" x1="26.5033" y1="102.0062" x2="173.4916" y2="102.0062" gradientTransform="matrix(1 0 0 -1 0 202)">
				<stop  offset="0" style="stop-color:#BFCC60"/>
				<stop  offset="0.29" style="stop-color:#798D5C"/>
				<stop  offset="0.69" style="stop-color:#6B6052"/>
				<stop  offset="1" style="stop-color:#3D3535"/>
			</linearGradient>
			<path style="fill:url(#SVGID_00000074401943979922585550000001751615496017010095_);" d="M173.4,15.5c-0.3-1.4-1.3-2.5-2.8-3.1
				c-3.1-1.3-6.2-2.8-9.1-4.2c-6-2.9-12.2-5.9-18.9-7.7c-0.8-0.2-1.7-0.3-2.6-0.4L140,1l0-1c-5-0.3-10,0.5-14.5,2.5l-0.1,0
				c-8.1,3.6-13.6,9.9-16.3,18.8c-0.6,2.1-1.5,2.8-3.5,2.9c-1.5,0-2.9,0-4.2-0.2c-3.4-0.5-6-1.8-8-4c-0.6-0.7-1.2-1.4-1.7-2.3
				c-1.1-1.8-2.4-3.4-3.5-4.8c-1.8-2.2-4.4-2.6-6.4-1c-0.9,0.8-1.5,1.8-1.6,2.9c-0.1,1.2,0.4,2.5,1.4,3.6c1.5,1.7,2.8,3.5,3.8,5.6
				c1.2,2.4,2.1,5.2,2.8,8.4c0.1,0.4,0.2,0.8,0.2,1.2c0.3,1.9,0.5,3.9,0.7,5.9c0,0.3,0.1,0.5,0.1,0.8c0.1,0.7,0.1,1.5,0.2,2.2
				c-0.1,0-0.1,0-0.2,0c-0.3,0-0.6,0.1-0.9,0.1s-0.6,0.1-0.8,0.2c-0.3,0.1-0.6,0.2-0.9,0.2c0,0-0.1,0-0.1,0
				c-0.3,0.1-0.6,0.1-0.8,0.2c-0.7,0.2-1.4,0.3-2,0.5c-0.1,0-0.2,0.1-0.4,0.1c-1.2,0.3-4.3,1.4-4.7,1.6c-6.5,2.7-11.8,6.7-15.9,12
				c-4.3,5.4-7.2,11.7-8.5,18.8c-0.2,1.2-0.5,2.3-0.8,3.4c-0.1,0.2-0.1,0.3-0.2,0.5c-1.2,4.1-3.2,7.8-5.9,11
				c-0.2,0.2-0.4,0.5-0.6,0.7c-0.3,0.3-0.5,0.6-0.8,0.9c-0.6,0.7-1.3,1.4-2,2.2c0,0-0.1,0.1-0.1,0.1c-2.1,2.3-4.3,5.1-6.3,8
				c-1.4,2.1-2.6,4.2-3.7,6.3l-0.1,0.1c-5.6,10.8-8,22.4-7.2,34.7c0.1,1.3,0.2,2.6,0.4,4c0,0,0,0.1,0,0.1
				c1.3,9.8,4.6,18.4,10.1,25.8c0,0,0,0,0,0.1c3.1,4.2,6.9,8.1,11.4,11.5c1.6,1.2,3.3,2.4,5,3.5c1.2,0.8,2.4,1.5,3.7,2.1
				c0,0,0,0,0,0c0.4,0.2,0.8,0.4,1.2,0.6c0.1,0.1,0.2,0.1,0.3,0.1c2.5,1.3,5.2,2.4,7.9,3.4c0,0,0.1,0,0.1,0.1c0.5,0.2,1,0.4,1.6,0.5
				c0.2,0.1,0.4,0.1,0.6,0.2c0.3,0.1,0.6,0.2,1,0.3c0.6,0.2,1.3,0.4,1.9,0.6c6.6,1.8,13.7,2.7,21.5,2.8h0.1c7.7,0,14.8-0.9,21.5-2.8
				c0.2-0.1,0.4-0.1,0.7-0.2c1.5-0.4,2.9-0.9,4.4-1.4c2.9-1,5.7-2.3,8-3.4c0.1,0,0.1-0.1,0.1-0.1c0.3-0.1,0.5-0.3,0.8-0.4
				c0.2-0.1,0.4-0.2,0.6-0.4l0,0c1.2-0.7,2.4-1.4,3.6-2.1c1.8-1.1,3.4-2.3,5-3.5l0,0c0.4-0.2,2.6-2.2,2.9-2.5c4.1-3.6,5.8-5.2,8.5-9
				c0.1-0.2,0.3-0.4,0.4-0.6c0.6-0.9,1.2-1.9,1.8-2.9c4.2-7.1,6.8-14.7,7.9-22.5c0.1-0.7,0.2-1.3,0.2-2c0.1-0.7,0.1-1.3,0.2-2
				c0.5-8-0.5-16.2-3.2-24.8c-1-3.4-2.4-6.7-4-9.9c-0.2-0.4-0.4-0.7-0.6-1.1c-2.4-4.6-5.5-8.9-9-12.8c-0.2-0.2-0.4-0.4-0.5-0.6
				c-0.3-0.3-0.6-0.7-0.9-1c-0.9-0.9-1.7-1.8-2.5-2.8c0-0.1-0.1-0.1-0.1-0.2c-2.6-3.4-4.6-7.2-5.9-11.4c0,0,0,0,0-0.1
				c-0.3-1-0.6-2.1-0.9-3.2c-1.7-7.6-4.6-13.9-8.5-19c-4.1-5.3-9.3-9.2-15.8-11.9c-1.7-0.7-3.4-1.3-5.2-1.8
				c-0.9-0.3-1.8-0.5-2.7-0.7c0,0,0,0-0.1,0c-0.5-0.1-1.1-0.2-1.6-0.3c0,0-0.1,0-0.1-0.1C98.3,42.6,98,42.2,98,42
				c-0.1-0.8-0.2-1.6-0.3-2.3c-0.1-1.2-0.2-2.3-0.3-3.5c-0.1-0.9-0.2-1.9-0.3-2.8c-0.1-0.4-0.1-0.8-0.2-1.3c0.6,0.2,1.1,0.3,1.7,0.4
				c3.4,0.7,6.9,0.7,10.8,0.1c0.1,0,0.6,0.2,1,0.6c0.7,0.7,1.3,1.4,2,2.1c0.6,0.7,1.2,1.3,1.9,2c10.9,10.9,28.7,11.3,39.8,1
				c4.8-4.5,9.4-9.4,13.8-14.2c1.4-1.5,2.8-3,4.2-4.5C173.2,18.4,173.7,16.9,173.4,15.5L173.4,15.5z M103.5,61.5
				c1.5-1.7,1.6-4,0.2-5.6c-0.8-1-1.9-1.5-3.1-1.6c-0.8,0-1.7,0.2-2.4,0.6c-0.1,0.1-0.2,0.1-0.3,0.2s-0.2,0.1-0.3,0.2l0.2-1.8
				l0.2-1.9v0c0.3,0,0.6,0.1,0.9,0.2c0.5,0.1,0.9,0.2,1.4,0.4c5.1,1.4,9.3,3.6,12.9,6.5c0,0,0,0,0,0c2.6,2.2,4.8,4.8,6.5,7.8
				c0,0,0,0,0,0c1.7,2.9,3,6.3,3.8,10c0.3,1.3,0.7,2.6,1,3.9c2,6.4,4.9,12.3,8.8,17.2c0,0,0.1,0.1,0.1,0.1c0.9,1.1,1.8,2.2,2.8,3.2
				c4.1,4.4,7.5,9.2,9.9,14.5c1.7,3.5,1.7,3.5,0,0c1.5,3.2,2.7,6.7,3.6,10.2c0.1,0.3,0.1,0.5,0.2,0.8c0.7,3.2,1.2,6.6,1.5,10
				c0.4,6.3-0.1,12.2-1.6,17.6c0,0,0,0,0,0.1c-1.2,4.7-3.2,9-5.8,12.9c0,0,0,0,0,0c-0.6,0.9-1.1,1.7-1.8,2.5
				c-1.7,2.2-3.4,4.4-5.5,6.4c-0.9,0.9-3.1,2.7-3.2,2.7c-3.1,2.4-6.5,4.4-10.3,6.1c-9.9,4.4-19.8,6.6-29.7,6.6h-0.3
				c-9.9-0.1-19.8-2.3-29.7-6.6c-3.8-1.7-7.2-3.7-10.3-6.1c-4.1-3.2-7.6-7-10.3-11.5c-0.3-0.4-0.5-0.8-0.8-1.2
				c-2.3-3.9-4-7.9-5.2-11.9c-2.6-8.8-2.6-18-0.1-27.7c0.1-0.3,0.1-0.5,0.2-0.8c0.8-3,1.9-6.1,3.2-9.2c0.1-0.3,0.3-0.7,0.4-1
				c3.3-7.4,8.5-13.3,12.7-17.8c0,0,0.1-0.1,0.1-0.1c4.5-4.8,7.5-10.6,8.8-17.2c0.1-0.2,0.1-0.5,0.1-0.7c0.9-5,2.4-9.3,4.7-13.1v0
				c0.7-1.1,1.4-2.2,2.3-3.3c1-1.2,2.1-2.4,3.2-3.6l0.6-0.6c0.1-0.1,0.3-0.3,0.4-0.4c3.5-3,7.8-5.2,12.9-6.5
				c0.7-0.2,1.5-0.3,2.3-0.5h0.1l0.4-0.1l-0.2,2l-0.2,1.6l0,0.4c-0.3-0.2-0.6-0.4-0.8-0.5c-0.6-0.3-1.2-0.6-1.9-0.6
				c-1.4-0.2-2.7,0.4-3.7,1.5c-1.4,1.6-1.3,4,0.2,5.6c2.4,2.8,6.2,4.3,10.4,4.3h0c0.1,0,0.2,0,0.3,0
				C97.5,65.7,101.1,64.2,103.5,61.5L103.5,61.5z M158.2,21.8c-3,3.2-6.2,6.6-9.4,9.7c-3.8,3.7-8.8,5.7-14,5.7h-0.4
				c-5.3-0.1-10.3-2.3-14-6.1c-1-1.1-1.9-1.9-2.6-2.5c-0.9-0.9-1.6-1.5-1.6-1.8c-0.1-0.4,0.3-1.1,0.8-2.3c0.4-0.9,0.9-1.9,1.4-3.3
				c1.9-4.9,5.7-8.7,10.6-10.8c2.6-1.1,5.3-1.6,8-1.6c2.6,0,5.1,0.5,7.6,1.5c4.2,1.7,8.5,3.7,12.6,5.6c1.6,0.7,3.1,1.4,4.6,2.1
				C160.7,19.1,159.4,20.4,158.2,21.8L158.2,21.8z"/>
		</g>
	</g>
	
		<linearGradient id="SVGID_00000114793494875922874830000002380486564000410013_" gradientUnits="userSpaceOnUse" x1="26.49" y1="62.3875" x2="173.51" y2="62.3875" gradientTransform="matrix(1 0 0 -1 0 202)">
		<stop  offset="0" style="stop-color:#BFCC60"/>
		<stop  offset="0.29" style="stop-color:#798D5C"/>
		<stop  offset="0.69" style="stop-color:#6B6052"/>
		<stop  offset="1" style="stop-color:#3D3535"/>
	</linearGradient>
	<path style="fill:url(#SVGID_00000114793494875922874830000002380486564000410013_);" d="M126.4,126.1c-2.4-1.2-2.8-3-3.3-5.9
		c-0.1-0.6-0.2-1.1-0.3-1.6c-0.8-3.7-4-7.9-10.5-7.8c-3.1,0-5.4,2.4-7.7,4.7c-1.1,1.1-2.3,2.3-3,2.7c-0.5,0.3-0.6,0.3-2.2-0.6
		c-1-0.6-2.3-1.2-4-1.6c-4.9-1-9.9,2-11.7,7.2c-0.4,1-1.3,1.8-2.3,2.3c-1,0.5-2,0.9-2.5,1l-0.2,0l-0.2,0.1
		c-5.6,1.8-9.5,5.6-10.4,10.3c-0.8,3.7,0.4,7.3,3.1,9.7c0.8,0.7,1.7,1.4,2.6,2c3.4,2.4,5.4,4.1,5.5,7.5c0.1,3.3,0.4,11,9,12
		c2.4,0.3,4.9-0.8,7-1.7c1.1-0.4,2.6-1.1,3.2-1.1c1.4,0.1,2.5,0.5,3.8,1c1.8,0.7,3.8,1.4,6.4,1.2c0.8-0.1,1.5-0.2,2.2-0.4
		c8.1-2.1,10-11.4,10.6-14.6c0.4-1.9,1.1-2.9,2.5-3.7c5.1-2.9,8.1-7.8,7.9-13.1C131.9,131.5,129.7,127.8,126.4,126.1L126.4,126.1z
		 M120.9,143.1c-3.2,1.8-5,4.4-5.8,8.2c-1.3,6.5-3.4,9.4-6.9,9.7c-1,0.1-1.9-0.2-3.4-0.8c-1.5-0.6-3.4-1.3-5.9-1.4
		c-0.9,0-1.8,0.1-2.6,0.3c-1.2,0.3-2.4,0.8-3.5,1.3s-2.9,1.2-3.6,1.2c-2.1-0.2-2.9-0.8-3.1-5.6c-0.3-6.8-5.1-10.3-8.3-12.7
		c-0.8-0.6-1.6-1.1-2.1-1.6c-0.9-0.8-1.3-2-1-3.4c0.5-2.3,2.6-4.2,5.8-5.3c1.4-0.3,7.6-2,9.6-7.6c0.7-2,2.4-3.2,4-2.8
		c0.7,0.1,1.4,0.5,2.2,0.9c1.8,1,4.6,2.4,8.3,0.6c1.8-0.9,3.3-2.4,4.8-3.9c0.9-0.9,2.5-2.5,3.2-2.8c2.2,0,3.4,0.8,3.8,2.5
		c0.1,0.4,0.1,0.8,0.2,1.2c0.5,3,1.2,8.1,7,10.9c1.1,0.5,1.9,2.1,1.9,3.9C125.5,137.4,125.1,140.8,120.9,143.1L120.9,143.1z"/>
</g>
</svg>
