<?xml version="1.0" encoding="utf-8"?>
<!-- Generator: Adobe Illustrator 28.0.0, SVG Export Plug-In . SVG Version: 6.00 Build 0)  -->
<svg version="1.1" id="Capa_1" xmlns="http://www.w3.org/2000/svg" xmlns:xlink="http://www.w3.org/1999/xlink" x="0px" y="0px"
	 viewBox="0 0 200 200" style="enable-background:new 0 0 200 200;" xml:space="preserve">
<style type="text/css">
	.st0{fill:url(#SVGID_1_);}
	.st1{fill:url(#SVGID_00000089563671982147480920000007613758345032571831_);}
	.st2{fill:url(#SVGID_00000049938443388222072320000017543104855295750586_);}
	.st3{fill:url(#SVGID_00000026854748449148393040000009963515046459657887_);}
	.st4{fill:url(#SVGID_00000085929199520419838290000007549759544552693658_);}
	.st5{fill:url(#SVGID_00000147938500993927262730000016223024416562321065_);}
	.st6{fill:url(#SVGID_00000183961309516511414210000003531297304306662800_);}
	.st7{fill:url(#SVGID_00000029731417339779741950000011998955953142739887_);}
	.st8{fill:url(#SVGID_00000177473824800792890160000015903725413240453543_);}
	.st9{fill:url(#SVGID_00000100353691592320409440000012630548245535066774_);}
	.st10{fill:url(#SVGID_00000010309103033148582550000002704407915817002929_);}
	.st11{fill:url(#SVGID_00000160184586743991746720000000955913703655044527_);}
</style>
<g>
	<g>
		
			<linearGradient id="SVGID_1_" gradientUnits="userSpaceOnUse" x1="63.0036" y1="-0.706" x2="199.5336" y2="135.8141" gradientTransform="matrix(1 0 0 -1 0 202)">
			<stop  offset="0" style="stop-color:#BFCC60"/>
			<stop  offset="0.29" style="stop-color:#798D5C"/>
			<stop  offset="0.69" style="stop-color:#6B6052"/>
			<stop  offset="1" style="stop-color:#3D3535"/>
		</linearGradient>
		<path class="st0" d="M151.5,124.9c-2.3-1.1-2.8-2.9-3.2-5.7c-0.1-0.6-0.2-1.1-0.3-1.5c-0.7-3.6-3.8-7.7-10.2-7.6
			c-3,0-5.2,2.3-7.5,4.6c-1,1-2.2,2.2-2.9,2.6c-0.5,0.2-0.6,0.3-2.1-0.5c-1-0.5-2.3-1.2-3.9-1.5c-4.8-1-9.6,1.9-11.3,7
			c-0.3,1-1.3,1.7-2.2,2.2c-1,0.5-1.9,0.8-2.4,0.9l-0.2,0l-0.2,0.1c-5.4,1.7-9.2,5.5-10.1,10c-0.8,3.6,0.4,7.1,3,9.4
			c0.8,0.7,1.7,1.4,2.6,2c3.3,2.4,5.2,4,5.4,7.3c0.1,3.2,0.4,10.7,8.7,11.6c2.4,0.3,4.7-0.7,6.8-1.6c1-0.4,2.6-1.1,3.1-1.1
			c1.3,0.1,2.4,0.5,3.7,0.9c1.7,0.6,3.7,1.4,6.2,1.1c0.7-0.1,1.4-0.2,2.1-0.4c7.8-2.1,9.7-11.1,10.3-14.2c0.4-1.9,1-2.8,2.4-3.6
			c5-2.8,7.8-7.5,7.7-12.7C156.9,130.1,154.8,126.5,151.5,124.9L151.5,124.9z M146.2,141.4c-3.1,1.7-4.9,4.2-5.6,7.9
			c-1.3,6.3-3.3,9.1-6.7,9.4c-1,0.1-1.9-0.2-3.3-0.8c-1.5-0.6-3.3-1.2-5.7-1.3c-0.8,0-1.7,0.1-2.5,0.3c-1.2,0.3-2.3,0.8-3.4,1.3
			s-2.8,1.2-3.5,1.1c-2-0.2-2.8-0.8-3-5.4c-0.2-6.6-4.9-10-8.1-12.3c-0.8-0.6-1.5-1.1-2.1-1.6c-0.9-0.8-1.2-2-1-3.2
			c0.5-2.2,2.6-4.1,5.6-5.1c1.4-0.3,7.4-1.9,9.3-7.3c0.7-2,2.3-3.1,3.9-2.8c0.7,0.1,1.4,0.5,2.1,0.9c1.8,0.9,4.5,2.4,8,0.6
			c1.7-0.8,3.2-2.3,4.6-3.8c0.9-0.9,2.4-2.4,3.1-2.7c2.1,0,3.3,0.8,3.7,2.4c0.1,0.4,0.1,0.8,0.2,1.2c0.4,2.9,1.2,7.8,6.8,10.5
			c1.1,0.5,1.8,2,1.9,3.8C150.6,135.8,150.3,139.1,146.2,141.4L146.2,141.4z"/>
		
			<linearGradient id="SVGID_00000044162031013563877750000001391447509350744969_" gradientUnits="userSpaceOnUse" x1="63.0036" y1="-0.706" x2="199.5336" y2="135.8141" gradientTransform="matrix(1 0 0 -1 0 202)">
			<stop  offset="0" style="stop-color:#BFCC60"/>
			<stop  offset="0.29" style="stop-color:#798D5C"/>
			<stop  offset="0.69" style="stop-color:#6B6052"/>
			<stop  offset="1" style="stop-color:#3D3535"/>
		</linearGradient>
		<path style="fill:url(#SVGID_00000044162031013563877750000001391447509350744969_);" d="M151.5,124.9c-2.3-1.1-2.8-2.9-3.2-5.7
			c-0.1-0.6-0.2-1.1-0.3-1.5c-0.7-3.6-3.8-7.7-10.2-7.6c-3,0-5.2,2.3-7.5,4.6c-1,1-2.2,2.2-2.9,2.6c-0.5,0.2-0.6,0.3-2.1-0.5
			c-1-0.5-2.3-1.2-3.9-1.5c-4.8-1-9.6,1.9-11.3,7c-0.3,1-1.3,1.7-2.2,2.2c-1,0.5-1.9,0.8-2.4,0.9l-0.2,0l-0.2,0.1
			c-5.4,1.7-9.2,5.5-10.1,10c-0.8,3.6,0.4,7.1,3,9.4c0.8,0.7,1.7,1.4,2.6,2c3.3,2.4,5.2,4,5.4,7.3c0.1,3.2,0.4,10.7,8.7,11.6
			c2.4,0.3,4.7-0.7,6.8-1.6c1-0.4,2.6-1.1,3.1-1.1c1.3,0.1,2.4,0.5,3.7,0.9c1.7,0.6,3.7,1.4,6.2,1.1c0.7-0.1,1.4-0.2,2.1-0.4
			c7.8-2.1,9.7-11.1,10.3-14.2c0.4-1.9,1-2.8,2.4-3.6c5-2.8,7.8-7.5,7.7-12.7C156.9,130.1,154.8,126.5,151.5,124.9L151.5,124.9z
			 M146.2,141.4c-3.1,1.7-4.9,4.2-5.6,7.9c-1.3,6.3-3.3,9.1-6.7,9.4c-1,0.1-1.9-0.2-3.3-0.8c-1.5-0.6-3.3-1.2-5.7-1.3
			c-0.8,0-1.7,0.1-2.5,0.3c-1.2,0.3-2.3,0.8-3.4,1.3s-2.8,1.2-3.5,1.1c-2-0.2-2.8-0.8-3-5.4c-0.2-6.6-4.9-10-8.1-12.3
			c-0.8-0.6-1.5-1.1-2.1-1.6c-0.9-0.8-1.2-2-1-3.2c0.5-2.2,2.6-4.1,5.6-5.1c1.4-0.3,7.4-1.9,9.3-7.3c0.7-2,2.3-3.1,3.9-2.8
			c0.7,0.1,1.4,0.5,2.1,0.9c1.8,0.9,4.5,2.4,8,0.6c1.7-0.8,3.2-2.3,4.6-3.8c0.9-0.9,2.4-2.4,3.1-2.7c2.1,0,3.3,0.8,3.7,2.4
			c0.1,0.4,0.1,0.8,0.2,1.2c0.4,2.9,1.2,7.8,6.8,10.5c1.1,0.5,1.8,2,1.9,3.8C150.6,135.8,150.3,139.1,146.2,141.4L146.2,141.4z"/>
		
			<linearGradient id="SVGID_00000160869749347740654810000004475455375824614312_" gradientUnits="userSpaceOnUse" x1="63.0036" y1="-0.706" x2="199.5336" y2="135.8141" gradientTransform="matrix(1 0 0 -1 0 202)">
			<stop  offset="0" style="stop-color:#BFCC60"/>
			<stop  offset="0.29" style="stop-color:#798D5C"/>
			<stop  offset="0.69" style="stop-color:#6B6052"/>
			<stop  offset="1" style="stop-color:#3D3535"/>
		</linearGradient>
		<path style="fill:url(#SVGID_00000160869749347740654810000004475455375824614312_);" d="M151.5,124.9c-2.3-1.1-2.8-2.9-3.2-5.7
			c-0.1-0.6-0.2-1.1-0.3-1.5c-0.7-3.6-3.8-7.7-10.2-7.6c-3,0-5.2,2.3-7.5,4.6c-1,1-2.2,2.2-2.9,2.6c-0.5,0.2-0.6,0.3-2.1-0.5
			c-1-0.5-2.3-1.2-3.9-1.5c-4.8-1-9.6,1.9-11.3,7c-0.3,1-1.3,1.7-2.2,2.2c-1,0.5-1.9,0.8-2.4,0.9l-0.2,0l-0.2,0.1
			c-5.4,1.7-9.2,5.5-10.1,10c-0.8,3.6,0.4,7.1,3,9.4c0.8,0.7,1.7,1.4,2.6,2c3.3,2.4,5.2,4,5.4,7.3c0.1,3.2,0.4,10.7,8.7,11.6
			c2.4,0.3,4.7-0.7,6.8-1.6c1-0.4,2.6-1.1,3.1-1.1c1.3,0.1,2.4,0.5,3.7,0.9c1.7,0.6,3.7,1.4,6.2,1.1c0.7-0.1,1.4-0.2,2.1-0.4
			c7.8-2.1,9.7-11.1,10.3-14.2c0.4-1.9,1-2.8,2.4-3.6c5-2.8,7.8-7.5,7.7-12.7C156.9,130.1,154.8,126.5,151.5,124.9L151.5,124.9z
			 M146.2,141.4c-3.1,1.7-4.9,4.2-5.6,7.9c-1.3,6.3-3.3,9.1-6.7,9.4c-1,0.1-1.9-0.2-3.3-0.8c-1.5-0.6-3.3-1.2-5.7-1.3
			c-0.8,0-1.7,0.1-2.5,0.3c-1.2,0.3-2.3,0.8-3.4,1.3s-2.8,1.2-3.5,1.1c-2-0.2-2.8-0.8-3-5.4c-0.2-6.6-4.9-10-8.1-12.3
			c-0.8-0.6-1.5-1.1-2.1-1.6c-0.9-0.8-1.2-2-1-3.2c0.5-2.2,2.6-4.1,5.6-5.1c1.4-0.3,7.4-1.9,9.3-7.3c0.7-2,2.3-3.1,3.9-2.8
			c0.7,0.1,1.4,0.5,2.1,0.9c1.8,0.9,4.5,2.4,8,0.6c1.7-0.8,3.2-2.3,4.6-3.8c0.9-0.9,2.4-2.4,3.1-2.7c2.1,0,3.3,0.8,3.7,2.4
			c0.1,0.4,0.1,0.8,0.2,1.2c0.4,2.9,1.2,7.8,6.8,10.5c1.1,0.5,1.8,2,1.9,3.8C150.6,135.8,150.3,139.1,146.2,141.4L146.2,141.4z"/>
	</g>
	<g>
		<g>
			
				<linearGradient id="SVGID_00000043427053357573340690000008227379769285842103_" gradientUnits="userSpaceOnUse" x1="31.0883" y1="31.2247" x2="167.6106" y2="167.737" gradientTransform="matrix(1 0 0 -1 0 202)">
				<stop  offset="0" style="stop-color:#BFCC60"/>
				<stop  offset="0.29" style="stop-color:#798D5C"/>
				<stop  offset="0.69" style="stop-color:#6B6052"/>
				<stop  offset="1" style="stop-color:#3D3535"/>
			</linearGradient>
			<path style="fill:url(#SVGID_00000043427053357573340690000008227379769285842103_);" d="M82.1,0c5.7,1.7,9.6,5.7,13.1,10.3
				c4.8,6.4,8.5,13.4,11.6,20.7c0.8,2,2,2.5,4,2.2c9-1.5,17.9-1.1,26.6,1.5c2.4,0.7,4.8,1.7,7.1,2.5c1.6,0.5,3.2,1.1,4.9,1.3
				c4.5,0.6,8.3-0.8,11.1-4.6c2-2.6,5.7-2.4,6.8,0.5c0.4,1.2,0.3,2.9-0.2,4.1c-2,5-4.9,9.5-8.7,13.3c-0.6,0.6-1.4,1-2.1,1.5
				c3.5,3.1,6.6,5.6,9.4,8.4c11.6,11.3,19.5,24.8,22.6,40.8c4.8,24.3-1,46.1-16.7,65.1c-14.7,17.7-33.9,27.9-56.5,31.3
				c-24.2,3.7-46.9-0.8-67.4-14.3c-18-11.9-30.5-28.1-35.4-49.3c-5.5-24-0.3-45.8,14.7-65.2c3.7-4.8,8.4-8.8,12.7-13.2
				c0.4-0.4,0.8-0.7,1.1-1c-2.1-3-4.4-5.7-6.2-8.8c-1.8-3-3.1-6.3-4.5-9.5c-0.9-2.1,0-4.1,1.8-5c1.7-0.9,3.8-0.6,5,1.2
				c3.7,5.4,10,5.7,15.4,3.7c3.4-1.2,6.8-2.8,10.3-3.4c4.8-0.9,9.6-1.2,14.5-1.7c0.7-0.1,1.4,0,2.6,0c-1.4-2.5-2.8-4.7-3.9-7
				c-1.8-3.5-3.8-6.8-5-10.5c-0.7-2.2-0.6-4.9-0.2-7.3c0.6-3.9,3.1-6.4,6.9-7.7L82.1,0L82.1,0z M127.1,63.5c1,1.5,1.7,2.4,2.3,3.4
				c4.1,6.2,6.2,13.1,6.6,20.5c0.1,1.9-0.5,3.5-2.3,4.3c-1.9,0.9-3.5,0.3-4.8-1.1c-3.5-4-8.1-5.1-13.1-5.5c-2.4-0.2-4.8-0.6-7-1.4
				c-3.6-1.5-6.9-3.4-10.6-5.3c-4.1,3.9-9.1,7.3-14.8,9.2c-5.9,2.1-11,4.9-15,9.7c-1.4,1.7-3.3,2-4.9,1.2c-1.8-0.9-2.4-2.5-2.3-4.4
				c0.7-8.6,3.2-16.5,8-23.7c0.6-0.8,1.1-1.7,1.7-2.6c-0.4-0.1-0.6-0.2-0.8-0.2c-8,0.1-15.5-1.6-22.3-5.9c-0.4-0.3-1.5,0-2,0.3
				c-3.7,3.4-7.6,6.6-10.8,10.4c-15,17.9-20.6,38.3-15.1,61.1c5.7,23.4,20.7,39.4,42,49.9c10.7,5.2,22.1,7.8,34,8.3
				c10.2,0.4,20.1-0.7,29.8-3.7c21.5-6.8,38.2-19.6,48.6-40c7-13.8,8.9-28.4,5.9-43.6c-3.8-18.8-14.1-33.4-29.4-44.7
				c-1-0.7-1.8-0.8-2.8-0.2c-4,2.2-8.4,3.5-12.9,4C132.8,63.7,130.2,63.5,127.1,63.5L127.1,63.5z M151.4,47.5
				c-4.2-1.3-8.4-2.5-12.5-3.9c-4.7-1.7-9.5-2.9-14.4-2.9c-5.8,0-11.5,0.5-17.3,0.7c-4.1,0.1-4.9-0.5-6.4-4.2
				c-3.3-8-7.1-15.8-12.5-22.6c-1.9-2.4-4.3-4.5-6.9-6.2c-1.9-1.3-3.2-0.3-3,2c0.2,2.3,0.8,4.6,1.7,6.7c1.1,2.5,2.9,4.6,4.1,7.1
				c4,8,7.9,16.1,11.8,24.2c1.2,2.5,0,5-2.3,5.7c-2.1,0.6-3.9-0.3-5-2.6c-1.3-2.9-2.6-5.8-3.8-8.8c-0.5-1.2-1.2-1.7-2.4-1.8
				C76,40.3,69.8,40.4,63.7,42c-6.4,1.7-12.3,5.4-19.4,4.8c0.2,0.5,0.2,0.7,0.3,0.8c6.2,7.7,14.1,12.1,24.1,11.8
				c3.7-0.1,7.4-1,11.2-1.6c1.8-0.3,3.4,0.1,4.5,1.7c1,1.5,0.9,3.1-0.1,4.6c-0.9,1.3-1.8,2.5-2.8,3.7c-3.5,4.1-6.6,8.6-8.8,13.5
				c-0.3,0.8-0.6,1.6-0.8,2.4c2.7-1.1,5.1-2.1,7.5-2.9c4.4-1.6,8.4-3.8,11.9-6.8c1.5-1.3,2.7-3.1,3.5-4.9c1-2.3,2-3.5,4.1-3.5
				c2.1,0,3.2,1.3,4,3.6c0.5,1.4,1.4,3,2.6,3.9c3.4,2.6,7.3,4,11.7,4.3c2.6,0.2,5.2,0.9,7.8,1.3c0.3,0.1,0.7,0.1,1.3,0.1
				c-0.4-1.1-0.7-1.9-1.1-2.7c-2-4.7-5.2-8.5-8.7-12.1c-1.3-1.3-2.6-2.6-3.5-4.2c-1.6-2.7,0.4-6,3.5-5.8c1.1,0,2.2,0.4,3.2,0.6
				c6.9,1.6,13.8,2,20.6-0.3C144.6,52.7,148.4,50.5,151.4,47.5z"/>
			
				<linearGradient id="SVGID_00000000193355467813589260000010408191022935667113_" gradientUnits="userSpaceOnUse" x1="31.0883" y1="31.2247" x2="167.6106" y2="167.737" gradientTransform="matrix(1 0 0 -1 0 202)">
				<stop  offset="0" style="stop-color:#BFCC60"/>
				<stop  offset="0.29" style="stop-color:#798D5C"/>
				<stop  offset="0.69" style="stop-color:#6B6052"/>
				<stop  offset="1" style="stop-color:#3D3535"/>
			</linearGradient>
			<path style="fill:url(#SVGID_00000000193355467813589260000010408191022935667113_);" d="M82.1,0c5.7,1.7,9.6,5.7,13.1,10.3
				c4.8,6.4,8.5,13.4,11.6,20.7c0.8,2,2,2.5,4,2.2c9-1.5,17.9-1.1,26.6,1.5c2.4,0.7,4.8,1.7,7.1,2.5c1.6,0.5,3.2,1.1,4.9,1.3
				c4.5,0.6,8.3-0.8,11.1-4.6c2-2.6,5.7-2.4,6.8,0.5c0.4,1.2,0.3,2.9-0.2,4.1c-2,5-4.9,9.5-8.7,13.3c-0.6,0.6-1.4,1-2.1,1.5
				c3.5,3.1,6.6,5.6,9.4,8.4c11.6,11.3,19.5,24.8,22.6,40.8c4.8,24.3-1,46.1-16.7,65.1c-14.7,17.7-33.9,27.9-56.5,31.3
				c-24.2,3.7-46.9-0.8-67.4-14.3c-18-11.9-30.5-28.1-35.4-49.3c-5.5-24-0.3-45.8,14.7-65.2c3.7-4.8,8.4-8.8,12.7-13.2
				c0.4-0.4,0.8-0.7,1.1-1c-2.1-3-4.4-5.7-6.2-8.8c-1.8-3-3.1-6.3-4.5-9.5c-0.9-2.1,0-4.1,1.8-5c1.7-0.9,3.8-0.6,5,1.2
				c3.7,5.4,10,5.7,15.4,3.7c3.4-1.2,6.8-2.8,10.3-3.4c4.8-0.9,9.6-1.2,14.5-1.7c0.7-0.1,1.4,0,2.6,0c-1.4-2.5-2.8-4.7-3.9-7
				c-1.8-3.5-3.8-6.8-5-10.5c-0.7-2.2-0.6-4.9-0.2-7.3c0.6-3.9,3.1-6.4,6.9-7.7L82.1,0L82.1,0z M127.1,63.5c1,1.5,1.7,2.4,2.3,3.4
				c4.1,6.2,6.2,13.1,6.6,20.5c0.1,1.9-0.5,3.5-2.3,4.3c-1.9,0.9-3.5,0.3-4.8-1.1c-3.5-4-8.1-5.1-13.1-5.5c-2.4-0.2-4.8-0.6-7-1.4
				c-3.6-1.5-6.9-3.4-10.6-5.3c-4.1,3.9-9.1,7.3-14.8,9.2c-5.9,2.1-11,4.9-15,9.7c-1.4,1.7-3.3,2-4.9,1.2c-1.8-0.9-2.4-2.5-2.3-4.4
				c0.7-8.6,3.2-16.5,8-23.7c0.6-0.8,1.1-1.7,1.7-2.6c-0.4-0.1-0.6-0.2-0.8-0.2c-8,0.1-15.5-1.6-22.3-5.9c-0.4-0.3-1.5,0-2,0.3
				c-3.7,3.4-7.6,6.6-10.8,10.4c-15,17.9-20.6,38.3-15.1,61.1c5.7,23.4,20.7,39.4,42,49.9c10.7,5.2,22.1,7.8,34,8.3
				c10.2,0.4,20.1-0.7,29.8-3.7c21.5-6.8,38.2-19.6,48.6-40c7-13.8,8.9-28.4,5.9-43.6c-3.8-18.8-14.1-33.4-29.4-44.7
				c-1-0.7-1.8-0.8-2.8-0.2c-4,2.2-8.4,3.5-12.9,4C132.8,63.7,130.2,63.5,127.1,63.5L127.1,63.5z M151.4,47.5
				c-4.2-1.3-8.4-2.5-12.5-3.9c-4.7-1.7-9.5-2.9-14.4-2.9c-5.8,0-11.5,0.5-17.3,0.7c-4.1,0.1-4.9-0.5-6.4-4.2
				c-3.3-8-7.1-15.8-12.5-22.6c-1.9-2.4-4.3-4.5-6.9-6.2c-1.9-1.3-3.2-0.3-3,2c0.2,2.3,0.8,4.6,1.7,6.7c1.1,2.5,2.9,4.6,4.1,7.1
				c4,8,7.9,16.1,11.8,24.2c1.2,2.5,0,5-2.3,5.7c-2.1,0.6-3.9-0.3-5-2.6c-1.3-2.9-2.6-5.8-3.8-8.8c-0.5-1.2-1.2-1.7-2.4-1.8
				C76,40.3,69.8,40.4,63.7,42c-6.4,1.7-12.3,5.4-19.4,4.8c0.2,0.5,0.2,0.7,0.3,0.8c6.2,7.7,14.1,12.1,24.1,11.8
				c3.7-0.1,7.4-1,11.2-1.6c1.8-0.3,3.4,0.1,4.5,1.7c1,1.5,0.9,3.1-0.1,4.6c-0.9,1.3-1.8,2.5-2.8,3.7c-3.5,4.1-6.6,8.6-8.8,13.5
				c-0.3,0.8-0.6,1.6-0.8,2.4c2.7-1.1,5.1-2.1,7.5-2.9c4.4-1.6,8.4-3.8,11.9-6.8c1.5-1.3,2.7-3.1,3.5-4.9c1-2.3,2-3.5,4.1-3.5
				c2.1,0,3.2,1.3,4,3.6c0.5,1.4,1.4,3,2.6,3.9c3.4,2.6,7.3,4,11.7,4.3c2.6,0.2,5.2,0.9,7.8,1.3c0.3,0.1,0.7,0.1,1.3,0.1
				c-0.4-1.1-0.7-1.9-1.1-2.7c-2-4.7-5.2-8.5-8.7-12.1c-1.3-1.3-2.6-2.6-3.5-4.2c-1.6-2.7,0.4-6,3.5-5.8c1.1,0,2.2,0.4,3.2,0.6
				c6.9,1.6,13.8,2,20.6-0.3C144.6,52.7,148.4,50.5,151.4,47.5z"/>
			
				<linearGradient id="SVGID_00000057108997988109960710000001925992989150050727_" gradientUnits="userSpaceOnUse" x1="31.0883" y1="31.2247" x2="167.6106" y2="167.737" gradientTransform="matrix(1 0 0 -1 0 202)">
				<stop  offset="0" style="stop-color:#BFCC60"/>
				<stop  offset="0.29" style="stop-color:#798D5C"/>
				<stop  offset="0.69" style="stop-color:#6B6052"/>
				<stop  offset="1" style="stop-color:#3D3535"/>
			</linearGradient>
			<path style="fill:url(#SVGID_00000057108997988109960710000001925992989150050727_);" d="M82.1,0c5.7,1.7,9.6,5.7,13.1,10.3
				c4.8,6.4,8.5,13.4,11.6,20.7c0.8,2,2,2.5,4,2.2c9-1.5,17.9-1.1,26.6,1.5c2.4,0.7,4.8,1.7,7.1,2.5c1.6,0.5,3.2,1.1,4.9,1.3
				c4.5,0.6,8.3-0.8,11.1-4.6c2-2.6,5.7-2.4,6.8,0.5c0.4,1.2,0.3,2.9-0.2,4.1c-2,5-4.9,9.5-8.7,13.3c-0.6,0.6-1.4,1-2.1,1.5
				c3.5,3.1,6.6,5.6,9.4,8.4c11.6,11.3,19.5,24.8,22.6,40.8c4.8,24.3-1,46.1-16.7,65.1c-14.7,17.7-33.9,27.9-56.5,31.3
				c-24.2,3.7-46.9-0.8-67.4-14.3c-18-11.9-30.5-28.1-35.4-49.3c-5.5-24-0.3-45.8,14.7-65.2c3.7-4.8,8.4-8.8,12.7-13.2
				c0.4-0.4,0.8-0.7,1.1-1c-2.1-3-4.4-5.7-6.2-8.8c-1.8-3-3.1-6.3-4.5-9.5c-0.9-2.1,0-4.1,1.8-5c1.7-0.9,3.8-0.6,5,1.2
				c3.7,5.4,10,5.7,15.4,3.7c3.4-1.2,6.8-2.8,10.3-3.4c4.8-0.9,9.6-1.2,14.5-1.7c0.7-0.1,1.4,0,2.6,0c-1.4-2.5-2.8-4.7-3.9-7
				c-1.8-3.5-3.8-6.8-5-10.5c-0.7-2.2-0.6-4.9-0.2-7.3c0.6-3.9,3.1-6.4,6.9-7.7L82.1,0L82.1,0z M127.1,63.5c1,1.5,1.7,2.4,2.3,3.4
				c4.1,6.2,6.2,13.1,6.6,20.5c0.1,1.9-0.5,3.5-2.3,4.3c-1.9,0.9-3.5,0.3-4.8-1.1c-3.5-4-8.1-5.1-13.1-5.5c-2.4-0.2-4.8-0.6-7-1.4
				c-3.6-1.5-6.9-3.4-10.6-5.3c-4.1,3.9-9.1,7.3-14.8,9.2c-5.9,2.1-11,4.9-15,9.7c-1.4,1.7-3.3,2-4.9,1.2c-1.8-0.9-2.4-2.5-2.3-4.4
				c0.7-8.6,3.2-16.5,8-23.7c0.6-0.8,1.1-1.7,1.7-2.6c-0.4-0.1-0.6-0.2-0.8-0.2c-8,0.1-15.5-1.6-22.3-5.9c-0.4-0.3-1.5,0-2,0.3
				c-3.7,3.4-7.6,6.6-10.8,10.4c-15,17.9-20.6,38.3-15.1,61.1c5.7,23.4,20.7,39.4,42,49.9c10.7,5.2,22.1,7.8,34,8.3
				c10.2,0.4,20.1-0.7,29.8-3.7c21.5-6.8,38.2-19.6,48.6-40c7-13.8,8.9-28.4,5.9-43.6c-3.8-18.8-14.1-33.4-29.4-44.7
				c-1-0.7-1.8-0.8-2.8-0.2c-4,2.2-8.4,3.5-12.9,4C132.8,63.7,130.2,63.5,127.1,63.5L127.1,63.5z M151.4,47.5
				c-4.2-1.3-8.4-2.5-12.5-3.9c-4.7-1.7-9.5-2.9-14.4-2.9c-5.8,0-11.5,0.5-17.3,0.7c-4.1,0.1-4.9-0.5-6.4-4.2
				c-3.3-8-7.1-15.8-12.5-22.6c-1.9-2.4-4.3-4.5-6.9-6.2c-1.9-1.3-3.2-0.3-3,2c0.2,2.3,0.8,4.6,1.7,6.7c1.1,2.5,2.9,4.6,4.1,7.1
				c4,8,7.9,16.1,11.8,24.2c1.2,2.5,0,5-2.3,5.7c-2.1,0.6-3.9-0.3-5-2.6c-1.3-2.9-2.6-5.8-3.8-8.8c-0.5-1.2-1.2-1.7-2.4-1.8
				C76,40.3,69.8,40.4,63.7,42c-6.4,1.7-12.3,5.4-19.4,4.8c0.2,0.5,0.2,0.7,0.3,0.8c6.2,7.7,14.1,12.1,24.1,11.8
				c3.7-0.1,7.4-1,11.2-1.6c1.8-0.3,3.4,0.1,4.5,1.7c1,1.5,0.9,3.1-0.1,4.6c-0.9,1.3-1.8,2.5-2.8,3.7c-3.5,4.1-6.6,8.6-8.8,13.5
				c-0.3,0.8-0.6,1.6-0.8,2.4c2.7-1.1,5.1-2.1,7.5-2.9c4.4-1.6,8.4-3.8,11.9-6.8c1.5-1.3,2.7-3.1,3.5-4.9c1-2.3,2-3.5,4.1-3.5
				c2.1,0,3.2,1.3,4,3.6c0.5,1.4,1.4,3,2.6,3.9c3.4,2.6,7.3,4,11.7,4.3c2.6,0.2,5.2,0.9,7.8,1.3c0.3,0.1,0.7,0.1,1.3,0.1
				c-0.4-1.1-0.7-1.9-1.1-2.7c-2-4.7-5.2-8.5-8.7-12.1c-1.3-1.3-2.6-2.6-3.5-4.2c-1.6-2.7,0.4-6,3.5-5.8c1.1,0,2.2,0.4,3.2,0.6
				c6.9,1.6,13.8,2,20.6-0.3C144.6,52.7,148.4,50.5,151.4,47.5z"/>
		</g>
		<g>
			
				<linearGradient id="SVGID_00000021106194188379007950000003304351121289007240_" gradientUnits="userSpaceOnUse" x1="31.0883" y1="31.2247" x2="167.6106" y2="167.737" gradientTransform="matrix(1 0 0 -1 0 202)">
				<stop  offset="0" style="stop-color:#BFCC60"/>
				<stop  offset="0.29" style="stop-color:#798D5C"/>
				<stop  offset="0.69" style="stop-color:#6B6052"/>
				<stop  offset="1" style="stop-color:#3D3535"/>
			</linearGradient>
			<path style="fill:url(#SVGID_00000021106194188379007950000003304351121289007240_);" d="M82.1,0c5.7,1.7,9.6,5.7,13.1,10.3
				c4.8,6.4,8.5,13.4,11.6,20.7c0.8,2,2,2.5,4,2.2c9-1.5,17.9-1.1,26.6,1.5c2.4,0.7,4.8,1.7,7.1,2.5c1.6,0.5,3.2,1.1,4.9,1.3
				c4.5,0.6,8.3-0.8,11.1-4.6c2-2.6,5.7-2.4,6.8,0.5c0.4,1.2,0.3,2.9-0.2,4.1c-2,5-4.9,9.5-8.7,13.3c-0.6,0.6-1.4,1-2.1,1.5
				c3.5,3.1,6.6,5.6,9.4,8.4c11.6,11.3,19.5,24.8,22.6,40.8c4.8,24.3-1,46.1-16.7,65.1c-14.7,17.7-33.9,27.9-56.5,31.3
				c-24.2,3.7-46.9-0.8-67.4-14.3c-18-11.9-30.5-28.1-35.4-49.3c-5.5-24-0.3-45.8,14.7-65.2c3.7-4.8,8.4-8.8,12.7-13.2
				c0.4-0.4,0.8-0.7,1.1-1c-2.1-3-4.4-5.7-6.2-8.8c-1.8-3-3.1-6.3-4.5-9.5c-0.9-2.1,0-4.1,1.8-5c1.7-0.9,3.8-0.6,5,1.2
				c3.7,5.4,10,5.7,15.4,3.7c3.4-1.2,6.8-2.8,10.3-3.4c4.8-0.9,9.6-1.2,14.5-1.7c0.7-0.1,1.4,0,2.6,0c-1.4-2.5-2.8-4.7-3.9-7
				c-1.8-3.5-3.8-6.8-5-10.5c-0.7-2.2-0.6-4.9-0.2-7.3c0.6-3.9,3.1-6.4,6.9-7.7L82.1,0L82.1,0z M127.1,63.5c1,1.5,1.7,2.4,2.3,3.4
				c4.1,6.2,6.2,13.1,6.6,20.5c0.1,1.9-0.5,3.5-2.3,4.3c-1.9,0.9-3.5,0.3-4.8-1.1c-3.5-4-8.1-5.1-13.1-5.5c-2.4-0.2-4.8-0.6-7-1.4
				c-3.6-1.5-6.9-3.4-10.6-5.3c-4.1,3.9-9.1,7.3-14.8,9.2c-5.9,2.1-11,4.9-15,9.7c-1.4,1.7-3.3,2-4.9,1.2c-1.8-0.9-2.4-2.5-2.3-4.4
				c0.7-8.6,3.2-16.5,8-23.7c0.6-0.8,1.1-1.7,1.7-2.6c-0.4-0.1-0.6-0.2-0.8-0.2c-8,0.1-15.5-1.6-22.3-5.9c-0.4-0.3-1.5,0-2,0.3
				c-3.7,3.4-7.6,6.6-10.8,10.4c-15,17.9-20.6,38.3-15.1,61.1c5.7,23.4,20.7,39.4,42,49.9c10.7,5.2,22.1,7.8,34,8.3
				c10.2,0.4,20.1-0.7,29.8-3.7c21.5-6.8,38.2-19.6,48.6-40c7-13.8,8.9-28.4,5.9-43.6c-3.8-18.8-14.1-33.4-29.4-44.7
				c-1-0.7-1.8-0.8-2.8-0.2c-4,2.2-8.4,3.5-12.9,4C132.8,63.7,130.2,63.5,127.1,63.5L127.1,63.5z M151.4,47.5
				c-4.2-1.3-8.4-2.5-12.5-3.9c-4.7-1.7-9.5-2.9-14.4-2.9c-5.8,0-11.5,0.5-17.3,0.7c-4.1,0.1-4.9-0.5-6.4-4.2
				c-3.3-8-7.1-15.8-12.5-22.6c-1.9-2.4-4.3-4.5-6.9-6.2c-1.9-1.3-3.2-0.3-3,2c0.2,2.3,0.8,4.6,1.7,6.7c1.1,2.5,2.9,4.6,4.1,7.1
				c4,8,7.9,16.1,11.8,24.2c1.2,2.5,0,5-2.3,5.7c-2.1,0.6-3.9-0.3-5-2.6c-1.3-2.9-2.6-5.8-3.8-8.8c-0.5-1.2-1.2-1.7-2.4-1.8
				C76,40.3,69.8,40.4,63.7,42c-6.4,1.7-12.3,5.4-19.4,4.8c0.2,0.5,0.2,0.7,0.3,0.8c6.2,7.7,14.1,12.1,24.1,11.8
				c3.7-0.1,7.4-1,11.2-1.6c1.8-0.3,3.4,0.1,4.5,1.7c1,1.5,0.9,3.1-0.1,4.6c-0.9,1.3-1.8,2.5-2.8,3.7c-3.5,4.1-6.6,8.6-8.8,13.5
				c-0.3,0.8-0.6,1.6-0.8,2.4c2.7-1.1,5.1-2.1,7.5-2.9c4.4-1.6,8.4-3.8,11.9-6.8c1.5-1.3,2.7-3.1,3.5-4.9c1-2.3,2-3.5,4.1-3.5
				c2.1,0,3.2,1.3,4,3.6c0.5,1.4,1.4,3,2.6,3.9c3.4,2.6,7.3,4,11.7,4.3c2.6,0.2,5.2,0.9,7.8,1.3c0.3,0.1,0.7,0.1,1.3,0.1
				c-0.4-1.1-0.7-1.9-1.1-2.7c-2-4.7-5.2-8.5-8.7-12.1c-1.3-1.3-2.6-2.6-3.5-4.2c-1.6-2.7,0.4-6,3.5-5.8c1.1,0,2.2,0.4,3.2,0.6
				c6.9,1.6,13.8,2,20.6-0.3C144.6,52.7,148.4,50.5,151.4,47.5z"/>
			
				<linearGradient id="SVGID_00000025407146730743126910000001191610868928559258_" gradientUnits="userSpaceOnUse" x1="31.0883" y1="31.2247" x2="167.6106" y2="167.737" gradientTransform="matrix(1 0 0 -1 0 202)">
				<stop  offset="0" style="stop-color:#BFCC60"/>
				<stop  offset="0.29" style="stop-color:#798D5C"/>
				<stop  offset="0.69" style="stop-color:#6B6052"/>
				<stop  offset="1" style="stop-color:#3D3535"/>
			</linearGradient>
			<path style="fill:url(#SVGID_00000025407146730743126910000001191610868928559258_);" d="M82.1,0c5.7,1.7,9.6,5.7,13.1,10.3
				c4.8,6.4,8.5,13.4,11.6,20.7c0.8,2,2,2.5,4,2.2c9-1.5,17.9-1.1,26.6,1.5c2.4,0.7,4.8,1.7,7.1,2.5c1.6,0.5,3.2,1.1,4.9,1.3
				c4.5,0.6,8.3-0.8,11.1-4.6c2-2.6,5.7-2.4,6.8,0.5c0.4,1.2,0.3,2.9-0.2,4.1c-2,5-4.9,9.5-8.7,13.3c-0.6,0.6-1.4,1-2.1,1.5
				c3.5,3.1,6.6,5.6,9.4,8.4c11.6,11.3,19.5,24.8,22.6,40.8c4.8,24.3-1,46.1-16.7,65.1c-14.7,17.7-33.9,27.9-56.5,31.3
				c-24.2,3.7-46.9-0.8-67.4-14.3c-18-11.9-30.5-28.1-35.4-49.3c-5.5-24-0.3-45.8,14.7-65.2c3.7-4.8,8.4-8.8,12.7-13.2
				c0.4-0.4,0.8-0.7,1.1-1c-2.1-3-4.4-5.7-6.2-8.8c-1.8-3-3.1-6.3-4.5-9.5c-0.9-2.1,0-4.1,1.8-5c1.7-0.9,3.8-0.6,5,1.2
				c3.7,5.4,10,5.7,15.4,3.7c3.4-1.2,6.8-2.8,10.3-3.4c4.8-0.9,9.6-1.2,14.5-1.7c0.7-0.1,1.4,0,2.6,0c-1.4-2.5-2.8-4.7-3.9-7
				c-1.8-3.5-3.8-6.8-5-10.5c-0.7-2.2-0.6-4.9-0.2-7.3c0.6-3.9,3.1-6.4,6.9-7.7L82.1,0L82.1,0z M127.1,63.5c1,1.5,1.7,2.4,2.3,3.4
				c4.1,6.2,6.2,13.1,6.6,20.5c0.1,1.9-0.5,3.5-2.3,4.3c-1.9,0.9-3.5,0.3-4.8-1.1c-3.5-4-8.1-5.1-13.1-5.5c-2.4-0.2-4.8-0.6-7-1.4
				c-3.6-1.5-6.9-3.4-10.6-5.3c-4.1,3.9-9.1,7.3-14.8,9.2c-5.9,2.1-11,4.9-15,9.7c-1.4,1.7-3.3,2-4.9,1.2c-1.8-0.9-2.4-2.5-2.3-4.4
				c0.7-8.6,3.2-16.5,8-23.7c0.6-0.8,1.1-1.7,1.7-2.6c-0.4-0.1-0.6-0.2-0.8-0.2c-8,0.1-15.5-1.6-22.3-5.9c-0.4-0.3-1.5,0-2,0.3
				c-3.7,3.4-7.6,6.6-10.8,10.4c-15,17.9-20.6,38.3-15.1,61.1c5.7,23.4,20.7,39.4,42,49.9c10.7,5.2,22.1,7.8,34,8.3
				c10.2,0.4,20.1-0.7,29.8-3.7c21.5-6.8,38.2-19.6,48.6-40c7-13.8,8.9-28.4,5.9-43.6c-3.8-18.8-14.1-33.4-29.4-44.7
				c-1-0.7-1.8-0.8-2.8-0.2c-4,2.2-8.4,3.5-12.9,4C132.8,63.7,130.2,63.5,127.1,63.5L127.1,63.5z M151.4,47.5
				c-4.2-1.3-8.4-2.5-12.5-3.9c-4.7-1.7-9.5-2.9-14.4-2.9c-5.8,0-11.5,0.5-17.3,0.7c-4.1,0.1-4.9-0.5-6.4-4.2
				c-3.3-8-7.1-15.8-12.5-22.6c-1.9-2.4-4.3-4.5-6.9-6.2c-1.9-1.3-3.2-0.3-3,2c0.2,2.3,0.8,4.6,1.7,6.7c1.1,2.5,2.9,4.6,4.1,7.1
				c4,8,7.9,16.1,11.8,24.2c1.2,2.5,0,5-2.3,5.7c-2.1,0.6-3.9-0.3-5-2.6c-1.3-2.9-2.6-5.8-3.8-8.8c-0.5-1.2-1.2-1.7-2.4-1.8
				C76,40.3,69.8,40.4,63.7,42c-6.4,1.7-12.3,5.4-19.4,4.8c0.2,0.5,0.2,0.7,0.3,0.8c6.2,7.7,14.1,12.1,24.1,11.8
				c3.7-0.1,7.4-1,11.2-1.6c1.8-0.3,3.4,0.1,4.5,1.7c1,1.5,0.9,3.1-0.1,4.6c-0.9,1.3-1.8,2.5-2.8,3.7c-3.5,4.1-6.6,8.6-8.8,13.5
				c-0.3,0.8-0.6,1.6-0.8,2.4c2.7-1.1,5.1-2.1,7.5-2.9c4.4-1.6,8.4-3.8,11.9-6.8c1.5-1.3,2.7-3.1,3.5-4.9c1-2.3,2-3.5,4.1-3.5
				c2.1,0,3.2,1.3,4,3.6c0.5,1.4,1.4,3,2.6,3.9c3.4,2.6,7.3,4,11.7,4.3c2.6,0.2,5.2,0.9,7.8,1.3c0.3,0.1,0.7,0.1,1.3,0.1
				c-0.4-1.1-0.7-1.9-1.1-2.7c-2-4.7-5.2-8.5-8.7-12.1c-1.3-1.3-2.6-2.6-3.5-4.2c-1.6-2.7,0.4-6,3.5-5.8c1.1,0,2.2,0.4,3.2,0.6
				c6.9,1.6,13.8,2,20.6-0.3C144.6,52.7,148.4,50.5,151.4,47.5z"/>
			
				<linearGradient id="SVGID_00000021835895470528480320000016689367363482894721_" gradientUnits="userSpaceOnUse" x1="31.0883" y1="31.2247" x2="167.6106" y2="167.737" gradientTransform="matrix(1 0 0 -1 0 202)">
				<stop  offset="0" style="stop-color:#BFCC60"/>
				<stop  offset="0.29" style="stop-color:#798D5C"/>
				<stop  offset="0.69" style="stop-color:#6B6052"/>
				<stop  offset="1" style="stop-color:#3D3535"/>
			</linearGradient>
			<path style="fill:url(#SVGID_00000021835895470528480320000016689367363482894721_);" d="M82.1,0c5.7,1.7,9.6,5.7,13.1,10.3
				c4.8,6.4,8.5,13.4,11.6,20.7c0.8,2,2,2.5,4,2.2c9-1.5,17.9-1.1,26.6,1.5c2.4,0.7,4.8,1.7,7.1,2.5c1.6,0.5,3.2,1.1,4.9,1.3
				c4.5,0.6,8.3-0.8,11.1-4.6c2-2.6,5.7-2.4,6.8,0.5c0.4,1.2,0.3,2.9-0.2,4.1c-2,5-4.9,9.5-8.7,13.3c-0.6,0.6-1.4,1-2.1,1.5
				c3.5,3.1,6.6,5.6,9.4,8.4c11.6,11.3,19.5,24.8,22.6,40.8c4.8,24.3-1,46.1-16.7,65.1c-14.7,17.7-33.9,27.9-56.5,31.3
				c-24.2,3.7-46.9-0.8-67.4-14.3c-18-11.9-30.5-28.1-35.4-49.3c-5.5-24-0.3-45.8,14.7-65.2c3.7-4.8,8.4-8.8,12.7-13.2
				c0.4-0.4,0.8-0.7,1.1-1c-2.1-3-4.4-5.7-6.2-8.8c-1.8-3-3.1-6.3-4.5-9.5c-0.9-2.1,0-4.1,1.8-5c1.7-0.9,3.8-0.6,5,1.2
				c3.7,5.4,10,5.7,15.4,3.7c3.4-1.2,6.8-2.8,10.3-3.4c4.8-0.9,9.6-1.2,14.5-1.7c0.7-0.1,1.4,0,2.6,0c-1.4-2.5-2.8-4.7-3.9-7
				c-1.8-3.5-3.8-6.8-5-10.5c-0.7-2.2-0.6-4.9-0.2-7.3c0.6-3.9,3.1-6.4,6.9-7.7L82.1,0L82.1,0z M127.1,63.5c1,1.5,1.7,2.4,2.3,3.4
				c4.1,6.2,6.2,13.1,6.6,20.5c0.1,1.9-0.5,3.5-2.3,4.3c-1.9,0.9-3.5,0.3-4.8-1.1c-3.5-4-8.1-5.1-13.1-5.5c-2.4-0.2-4.8-0.6-7-1.4
				c-3.6-1.5-6.9-3.4-10.6-5.3c-4.1,3.9-9.1,7.3-14.8,9.2c-5.9,2.1-11,4.9-15,9.7c-1.4,1.7-3.3,2-4.9,1.2c-1.8-0.9-2.4-2.5-2.3-4.4
				c0.7-8.6,3.2-16.5,8-23.7c0.6-0.8,1.1-1.7,1.7-2.6c-0.4-0.1-0.6-0.2-0.8-0.2c-8,0.1-15.5-1.6-22.3-5.9c-0.4-0.3-1.5,0-2,0.3
				c-3.7,3.4-7.6,6.6-10.8,10.4c-15,17.9-20.6,38.3-15.1,61.1c5.7,23.4,20.7,39.4,42,49.9c10.7,5.2,22.1,7.8,34,8.3
				c10.2,0.4,20.1-0.7,29.8-3.7c21.5-6.8,38.2-19.6,48.6-40c7-13.8,8.9-28.4,5.9-43.6c-3.8-18.8-14.1-33.4-29.4-44.7
				c-1-0.7-1.8-0.8-2.8-0.2c-4,2.2-8.4,3.5-12.9,4C132.8,63.7,130.2,63.5,127.1,63.5L127.1,63.5z M151.4,47.5
				c-4.2-1.3-8.4-2.5-12.5-3.9c-4.7-1.7-9.5-2.9-14.4-2.9c-5.8,0-11.5,0.5-17.3,0.7c-4.1,0.1-4.9-0.5-6.4-4.2
				c-3.3-8-7.1-15.8-12.5-22.6c-1.9-2.4-4.3-4.5-6.9-6.2c-1.9-1.3-3.2-0.3-3,2c0.2,2.3,0.8,4.6,1.7,6.7c1.1,2.5,2.9,4.6,4.1,7.1
				c4,8,7.9,16.1,11.8,24.2c1.2,2.5,0,5-2.3,5.7c-2.1,0.6-3.9-0.3-5-2.6c-1.3-2.9-2.6-5.8-3.8-8.8c-0.5-1.2-1.2-1.7-2.4-1.8
				C76,40.3,69.8,40.4,63.7,42c-6.4,1.7-12.3,5.4-19.4,4.8c0.2,0.5,0.2,0.7,0.3,0.8c6.2,7.7,14.1,12.1,24.1,11.8
				c3.7-0.1,7.4-1,11.2-1.6c1.8-0.3,3.4,0.1,4.5,1.7c1,1.5,0.9,3.1-0.1,4.6c-0.9,1.3-1.8,2.5-2.8,3.7c-3.5,4.1-6.6,8.6-8.8,13.5
				c-0.3,0.8-0.6,1.6-0.8,2.4c2.7-1.1,5.1-2.1,7.5-2.9c4.4-1.6,8.4-3.8,11.9-6.8c1.5-1.3,2.7-3.1,3.5-4.9c1-2.3,2-3.5,4.1-3.5
				c2.1,0,3.2,1.3,4,3.6c0.5,1.4,1.4,3,2.6,3.9c3.4,2.6,7.3,4,11.7,4.3c2.6,0.2,5.2,0.9,7.8,1.3c0.3,0.1,0.7,0.1,1.3,0.1
				c-0.4-1.1-0.7-1.9-1.1-2.7c-2-4.7-5.2-8.5-8.7-12.1c-1.3-1.3-2.6-2.6-3.5-4.2c-1.6-2.7,0.4-6,3.5-5.8c1.1,0,2.2,0.4,3.2,0.6
				c6.9,1.6,13.8,2,20.6-0.3C144.6,52.7,148.4,50.5,151.4,47.5z"/>
		</g>
		<g>
			
				<linearGradient id="SVGID_00000122708910115972219630000008482096931951138197_" gradientUnits="userSpaceOnUse" x1="31.0883" y1="31.2247" x2="167.6106" y2="167.737" gradientTransform="matrix(1 0 0 -1 0 202)">
				<stop  offset="0" style="stop-color:#BFCC60"/>
				<stop  offset="0.29" style="stop-color:#798D5C"/>
				<stop  offset="0.69" style="stop-color:#6B6052"/>
				<stop  offset="1" style="stop-color:#3D3535"/>
			</linearGradient>
			<path style="fill:url(#SVGID_00000122708910115972219630000008482096931951138197_);" d="M82.1,0c5.7,1.7,9.6,5.7,13.1,10.3
				c4.8,6.4,8.5,13.4,11.6,20.7c0.8,2,2,2.5,4,2.2c9-1.5,17.9-1.1,26.6,1.5c2.4,0.7,4.8,1.7,7.1,2.5c1.6,0.5,3.2,1.1,4.9,1.3
				c4.5,0.6,8.3-0.8,11.1-4.6c2-2.6,5.7-2.4,6.8,0.5c0.4,1.2,0.3,2.9-0.2,4.1c-2,5-4.9,9.5-8.7,13.3c-0.6,0.6-1.4,1-2.1,1.5
				c3.5,3.1,6.6,5.6,9.4,8.4c11.6,11.3,19.5,24.8,22.6,40.8c4.8,24.3-1,46.1-16.7,65.1c-14.7,17.7-33.9,27.9-56.5,31.3
				c-24.2,3.7-46.9-0.8-67.4-14.3c-18-11.9-30.5-28.1-35.4-49.3c-5.5-24-0.3-45.8,14.7-65.2c3.7-4.8,8.4-8.8,12.7-13.2
				c0.4-0.4,0.8-0.7,1.1-1c-2.1-3-4.4-5.7-6.2-8.8c-1.8-3-3.1-6.3-4.5-9.5c-0.9-2.1,0-4.1,1.8-5c1.7-0.9,3.8-0.6,5,1.2
				c3.7,5.4,10,5.7,15.4,3.7c3.4-1.2,6.8-2.8,10.3-3.4c4.8-0.9,9.6-1.2,14.5-1.7c0.7-0.1,1.4,0,2.6,0c-1.4-2.5-2.8-4.7-3.9-7
				c-1.8-3.5-3.8-6.8-5-10.5c-0.7-2.2-0.6-4.9-0.2-7.3c0.6-3.9,3.1-6.4,6.9-7.7L82.1,0L82.1,0z M127.1,63.5c1,1.5,1.7,2.4,2.3,3.4
				c4.1,6.2,6.2,13.1,6.6,20.5c0.1,1.9-0.5,3.5-2.3,4.3c-1.9,0.9-3.5,0.3-4.8-1.1c-3.5-4-8.1-5.1-13.1-5.5c-2.4-0.2-4.8-0.6-7-1.4
				c-3.6-1.5-6.9-3.4-10.6-5.3c-4.1,3.9-9.1,7.3-14.8,9.2c-5.9,2.1-11,4.9-15,9.7c-1.4,1.7-3.3,2-4.9,1.2c-1.8-0.9-2.4-2.5-2.3-4.4
				c0.7-8.6,3.2-16.5,8-23.7c0.6-0.8,1.1-1.7,1.7-2.6c-0.4-0.1-0.6-0.2-0.8-0.2c-8,0.1-15.5-1.6-22.3-5.9c-0.4-0.3-1.5,0-2,0.3
				c-3.7,3.4-7.6,6.6-10.8,10.4c-15,17.9-20.6,38.3-15.1,61.1c5.7,23.4,20.7,39.4,42,49.9c10.7,5.2,22.1,7.8,34,8.3
				c10.2,0.4,20.1-0.7,29.8-3.7c21.5-6.8,38.2-19.6,48.6-40c7-13.8,8.9-28.4,5.9-43.6c-3.8-18.8-14.1-33.4-29.4-44.7
				c-1-0.7-1.8-0.8-2.8-0.2c-4,2.2-8.4,3.5-12.9,4C132.8,63.7,130.2,63.5,127.1,63.5L127.1,63.5z M151.4,47.5
				c-4.2-1.3-8.4-2.5-12.5-3.9c-4.7-1.7-9.5-2.9-14.4-2.9c-5.8,0-11.5,0.5-17.3,0.7c-4.1,0.1-4.9-0.5-6.4-4.2
				c-3.3-8-7.1-15.8-12.5-22.6c-1.9-2.4-4.3-4.5-6.9-6.2c-1.9-1.3-3.2-0.3-3,2c0.2,2.3,0.8,4.6,1.7,6.7c1.1,2.5,2.9,4.6,4.1,7.1
				c4,8,7.9,16.1,11.8,24.2c1.2,2.5,0,5-2.3,5.7c-2.1,0.6-3.9-0.3-5-2.6c-1.3-2.9-2.6-5.8-3.8-8.8c-0.5-1.2-1.2-1.7-2.4-1.8
				C76,40.3,69.8,40.4,63.7,42c-6.4,1.7-12.3,5.4-19.4,4.8c0.2,0.5,0.2,0.7,0.3,0.8c6.2,7.7,14.1,12.1,24.1,11.8
				c3.7-0.1,7.4-1,11.2-1.6c1.8-0.3,3.4,0.1,4.5,1.7c1,1.5,0.9,3.1-0.1,4.6c-0.9,1.3-1.8,2.5-2.8,3.7c-3.5,4.1-6.6,8.6-8.8,13.5
				c-0.3,0.8-0.6,1.6-0.8,2.4c2.7-1.1,5.1-2.1,7.5-2.9c4.4-1.6,8.4-3.8,11.9-6.8c1.5-1.3,2.7-3.1,3.5-4.9c1-2.3,2-3.5,4.1-3.5
				c2.1,0,3.2,1.3,4,3.6c0.5,1.4,1.4,3,2.6,3.9c3.4,2.6,7.3,4,11.7,4.3c2.6,0.2,5.2,0.9,7.8,1.3c0.3,0.1,0.7,0.1,1.3,0.1
				c-0.4-1.1-0.7-1.9-1.1-2.7c-2-4.7-5.2-8.5-8.7-12.1c-1.3-1.3-2.6-2.6-3.5-4.2c-1.6-2.7,0.4-6,3.5-5.8c1.1,0,2.2,0.4,3.2,0.6
				c6.9,1.6,13.8,2,20.6-0.3C144.6,52.7,148.4,50.5,151.4,47.5z"/>
			
				<linearGradient id="SVGID_00000034067218772685483500000008782122119112578977_" gradientUnits="userSpaceOnUse" x1="31.0883" y1="31.2247" x2="167.6106" y2="167.737" gradientTransform="matrix(1 0 0 -1 0 202)">
				<stop  offset="0" style="stop-color:#BFCC60"/>
				<stop  offset="0.29" style="stop-color:#798D5C"/>
				<stop  offset="0.69" style="stop-color:#6B6052"/>
				<stop  offset="1" style="stop-color:#3D3535"/>
			</linearGradient>
			<path style="fill:url(#SVGID_00000034067218772685483500000008782122119112578977_);" d="M82.1,0c5.7,1.7,9.6,5.7,13.1,10.3
				c4.8,6.4,8.5,13.4,11.6,20.7c0.8,2,2,2.5,4,2.2c9-1.5,17.9-1.1,26.6,1.5c2.4,0.7,4.8,1.7,7.1,2.5c1.6,0.5,3.2,1.1,4.9,1.3
				c4.5,0.6,8.3-0.8,11.1-4.6c2-2.6,5.7-2.4,6.8,0.5c0.4,1.2,0.3,2.9-0.2,4.1c-2,5-4.9,9.5-8.7,13.3c-0.6,0.6-1.4,1-2.1,1.5
				c3.5,3.1,6.6,5.6,9.4,8.4c11.6,11.3,19.5,24.8,22.6,40.8c4.8,24.3-1,46.1-16.7,65.1c-14.7,17.7-33.9,27.9-56.5,31.3
				c-24.2,3.7-46.9-0.8-67.4-14.3c-18-11.9-30.5-28.1-35.4-49.3c-5.5-24-0.3-45.8,14.7-65.2c3.7-4.8,8.4-8.8,12.7-13.2
				c0.4-0.4,0.8-0.7,1.1-1c-2.1-3-4.4-5.7-6.2-8.8c-1.8-3-3.1-6.3-4.5-9.5c-0.9-2.1,0-4.1,1.8-5c1.7-0.9,3.8-0.6,5,1.2
				c3.7,5.4,10,5.7,15.4,3.7c3.4-1.2,6.8-2.8,10.3-3.4c4.8-0.9,9.6-1.2,14.5-1.7c0.7-0.1,1.4,0,2.6,0c-1.4-2.5-2.8-4.7-3.9-7
				c-1.8-3.5-3.8-6.8-5-10.5c-0.7-2.2-0.6-4.9-0.2-7.3c0.6-3.9,3.1-6.4,6.9-7.7L82.1,0L82.1,0z M127.1,63.5c1,1.5,1.7,2.4,2.3,3.4
				c4.1,6.2,6.2,13.1,6.6,20.5c0.1,1.9-0.5,3.5-2.3,4.3c-1.9,0.9-3.5,0.3-4.8-1.1c-3.5-4-8.1-5.1-13.1-5.5c-2.4-0.2-4.8-0.6-7-1.4
				c-3.6-1.5-6.9-3.4-10.6-5.3c-4.1,3.9-9.1,7.3-14.8,9.2c-5.9,2.1-11,4.9-15,9.7c-1.4,1.7-3.3,2-4.9,1.2c-1.8-0.9-2.4-2.5-2.3-4.4
				c0.7-8.6,3.2-16.5,8-23.7c0.6-0.8,1.1-1.7,1.7-2.6c-0.4-0.1-0.6-0.2-0.8-0.2c-8,0.1-15.5-1.6-22.3-5.9c-0.4-0.3-1.5,0-2,0.3
				c-3.7,3.4-7.6,6.6-10.8,10.4c-15,17.9-20.6,38.3-15.1,61.1c5.7,23.4,20.7,39.4,42,49.9c10.7,5.2,22.1,7.8,34,8.3
				c10.2,0.4,20.1-0.7,29.8-3.7c21.5-6.8,38.2-19.6,48.6-40c7-13.8,8.9-28.4,5.9-43.6c-3.8-18.8-14.1-33.4-29.4-44.7
				c-1-0.7-1.8-0.8-2.8-0.2c-4,2.2-8.4,3.5-12.9,4C132.8,63.7,130.2,63.5,127.1,63.5L127.1,63.5z M151.4,47.5
				c-4.2-1.3-8.4-2.5-12.5-3.9c-4.7-1.7-9.5-2.9-14.4-2.9c-5.8,0-11.5,0.5-17.3,0.7c-4.1,0.1-4.9-0.5-6.4-4.2
				c-3.3-8-7.1-15.8-12.5-22.6c-1.9-2.4-4.3-4.5-6.9-6.2c-1.9-1.3-3.2-0.3-3,2c0.2,2.3,0.8,4.6,1.7,6.7c1.1,2.5,2.9,4.6,4.1,7.1
				c4,8,7.9,16.1,11.8,24.2c1.2,2.5,0,5-2.3,5.7c-2.1,0.6-3.9-0.3-5-2.6c-1.3-2.9-2.6-5.8-3.8-8.8c-0.5-1.2-1.2-1.7-2.4-1.8
				C76,40.3,69.8,40.4,63.7,42c-6.4,1.7-12.3,5.4-19.4,4.8c0.2,0.5,0.2,0.7,0.3,0.8c6.2,7.7,14.1,12.1,24.1,11.8
				c3.7-0.1,7.4-1,11.2-1.6c1.8-0.3,3.4,0.1,4.5,1.7c1,1.5,0.9,3.1-0.1,4.6c-0.9,1.3-1.8,2.5-2.8,3.7c-3.5,4.1-6.6,8.6-8.8,13.5
				c-0.3,0.8-0.6,1.6-0.8,2.4c2.7-1.1,5.1-2.1,7.5-2.9c4.4-1.6,8.4-3.8,11.9-6.8c1.5-1.3,2.7-3.1,3.5-4.9c1-2.3,2-3.5,4.1-3.5
				c2.1,0,3.2,1.3,4,3.6c0.5,1.4,1.4,3,2.6,3.9c3.4,2.6,7.3,4,11.7,4.3c2.6,0.2,5.2,0.9,7.8,1.3c0.3,0.1,0.7,0.1,1.3,0.1
				c-0.4-1.1-0.7-1.9-1.1-2.7c-2-4.7-5.2-8.5-8.7-12.1c-1.3-1.3-2.6-2.6-3.5-4.2c-1.6-2.7,0.4-6,3.5-5.8c1.1,0,2.2,0.4,3.2,0.6
				c6.9,1.6,13.8,2,20.6-0.3C144.6,52.7,148.4,50.5,151.4,47.5z"/>
			
				<linearGradient id="SVGID_00000134244028562150194190000001908345628942658977_" gradientUnits="userSpaceOnUse" x1="31.0883" y1="31.2247" x2="167.6106" y2="167.737" gradientTransform="matrix(1 0 0 -1 0 202)">
				<stop  offset="0" style="stop-color:#BFCC60"/>
				<stop  offset="0.29" style="stop-color:#798D5C"/>
				<stop  offset="0.69" style="stop-color:#6B6052"/>
				<stop  offset="1" style="stop-color:#3D3535"/>
			</linearGradient>
			<path style="fill:url(#SVGID_00000134244028562150194190000001908345628942658977_);" d="M82.1,0c5.7,1.7,9.6,5.7,13.1,10.3
				c4.8,6.4,8.5,13.4,11.6,20.7c0.8,2,2,2.5,4,2.2c9-1.5,17.9-1.1,26.6,1.5c2.4,0.7,4.8,1.7,7.1,2.5c1.6,0.5,3.2,1.1,4.9,1.3
				c4.5,0.6,8.3-0.8,11.1-4.6c2-2.6,5.7-2.4,6.8,0.5c0.4,1.2,0.3,2.9-0.2,4.1c-2,5-4.9,9.5-8.7,13.3c-0.6,0.6-1.4,1-2.1,1.5
				c3.5,3.1,6.6,5.6,9.4,8.4c11.6,11.3,19.5,24.8,22.6,40.8c4.8,24.3-1,46.1-16.7,65.1c-14.7,17.7-33.9,27.9-56.5,31.3
				c-24.2,3.7-46.9-0.8-67.4-14.3c-18-11.9-30.5-28.1-35.4-49.3c-5.5-24-0.3-45.8,14.7-65.2c3.7-4.8,8.4-8.8,12.7-13.2
				c0.4-0.4,0.8-0.7,1.1-1c-2.1-3-4.4-5.7-6.2-8.8c-1.8-3-3.1-6.3-4.5-9.5c-0.9-2.1,0-4.1,1.8-5c1.7-0.9,3.8-0.6,5,1.2
				c3.7,5.4,10,5.7,15.4,3.7c3.4-1.2,6.8-2.8,10.3-3.4c4.8-0.9,9.6-1.2,14.5-1.7c0.7-0.1,1.4,0,2.6,0c-1.4-2.5-2.8-4.7-3.9-7
				c-1.8-3.5-3.8-6.8-5-10.5c-0.7-2.2-0.6-4.9-0.2-7.3c0.6-3.9,3.1-6.4,6.9-7.7L82.1,0L82.1,0z M127.1,63.5c1,1.5,1.7,2.4,2.3,3.4
				c4.1,6.2,6.2,13.1,6.6,20.5c0.1,1.9-0.5,3.5-2.3,4.3c-1.9,0.9-3.5,0.3-4.8-1.1c-3.5-4-8.1-5.1-13.1-5.5c-2.4-0.2-4.8-0.6-7-1.4
				c-3.6-1.5-6.9-3.4-10.6-5.3c-4.1,3.9-9.1,7.3-14.8,9.2c-5.9,2.1-11,4.9-15,9.7c-1.4,1.7-3.3,2-4.9,1.2c-1.8-0.9-2.4-2.5-2.3-4.4
				c0.7-8.6,3.2-16.5,8-23.7c0.6-0.8,1.1-1.7,1.7-2.6c-0.4-0.1-0.6-0.2-0.8-0.2c-8,0.1-15.5-1.6-22.3-5.9c-0.4-0.3-1.5,0-2,0.3
				c-3.7,3.4-7.6,6.6-10.8,10.4c-15,17.9-20.6,38.3-15.1,61.1c5.7,23.4,20.7,39.4,42,49.9c10.7,5.2,22.1,7.8,34,8.3
				c10.2,0.4,20.1-0.7,29.8-3.7c21.5-6.8,38.2-19.6,48.6-40c7-13.8,8.9-28.4,5.9-43.6c-3.8-18.8-14.1-33.4-29.4-44.7
				c-1-0.7-1.8-0.8-2.8-0.2c-4,2.2-8.4,3.5-12.9,4C132.8,63.7,130.2,63.5,127.1,63.5L127.1,63.5z M151.4,47.5
				c-4.2-1.3-8.4-2.5-12.5-3.9c-4.7-1.7-9.5-2.9-14.4-2.9c-5.8,0-11.5,0.5-17.3,0.7c-4.1,0.1-4.9-0.5-6.4-4.2
				c-3.3-8-7.1-15.8-12.5-22.6c-1.9-2.4-4.3-4.5-6.9-6.2c-1.9-1.3-3.2-0.3-3,2c0.2,2.3,0.8,4.6,1.7,6.7c1.1,2.5,2.9,4.6,4.1,7.1
				c4,8,7.9,16.1,11.8,24.2c1.2,2.5,0,5-2.3,5.7c-2.1,0.6-3.9-0.3-5-2.6c-1.3-2.9-2.6-5.8-3.8-8.8c-0.5-1.2-1.2-1.7-2.4-1.8
				C76,40.3,69.8,40.4,63.7,42c-6.4,1.7-12.3,5.4-19.4,4.8c0.2,0.5,0.2,0.7,0.3,0.8c6.2,7.7,14.1,12.1,24.1,11.8
				c3.7-0.1,7.4-1,11.2-1.6c1.8-0.3,3.4,0.1,4.5,1.7c1,1.5,0.9,3.1-0.1,4.6c-0.9,1.3-1.8,2.5-2.8,3.7c-3.5,4.1-6.6,8.6-8.8,13.5
				c-0.3,0.8-0.6,1.6-0.8,2.4c2.7-1.1,5.1-2.1,7.5-2.9c4.4-1.6,8.4-3.8,11.9-6.8c1.5-1.3,2.7-3.1,3.5-4.9c1-2.3,2-3.5,4.1-3.5
				c2.1,0,3.2,1.3,4,3.6c0.5,1.4,1.4,3,2.6,3.9c3.4,2.6,7.3,4,11.7,4.3c2.6,0.2,5.2,0.9,7.8,1.3c0.3,0.1,0.7,0.1,1.3,0.1
				c-0.4-1.1-0.7-1.9-1.1-2.7c-2-4.7-5.2-8.5-8.7-12.1c-1.3-1.3-2.6-2.6-3.5-4.2c-1.6-2.7,0.4-6,3.5-5.8c1.1,0,2.2,0.4,3.2,0.6
				c6.9,1.6,13.8,2,20.6-0.3C144.6,52.7,148.4,50.5,151.4,47.5z"/>
		</g>
	</g>
</g>
</svg>
