<?xml version="1.0" encoding="UTF-8"?>
<svg id="Capa_1" data-name="Capa 1" xmlns="http://www.w3.org/2000/svg" xmlns:xlink="http://www.w3.org/1999/xlink" viewBox="0 0 200 200">
  <defs>
    <style>
      .cls-1 {
        fill: url(#Degradado_sin_nombre_24);
        stroke-width: 0px;
      }
    </style>
    <linearGradient id="Degradado_sin_nombre_24" data-name="Degradado sin nombre 24" x1="-773.31" y1="511.17" x2="-540.17" y2="511.17" gradientTransform="translate(600.99 -569.98) rotate(-14.93)" gradientUnits="userSpaceOnUse">
      <stop offset="0" stop-color="#bfcc60"/>
      <stop offset=".29" stop-color="#798d5c"/>
      <stop offset=".69" stop-color="#6b6052"/>
      <stop offset="1" stop-color="#3d3535"/>
    </linearGradient>
  </defs>
  <path class="cls-1" d="m194.68,2.81C194.06,1.14,192.47.02,190.68,0,23.09-.02,4.99,73.11,4.99,104.53c0,17.93,5.71,33.26,15.83,44.83-10.26,19.54-15.83,36.52-15.83,46.06-.07,2.45,1.86,4.5,4.31,4.57h.01c2.44-.07,4.38-2.1,4.32-4.54,0-7.32,4.63-22.08,13.59-39.77,12.74,10.86,30.33,17,51.19,17,55.46,0,67.08-55.54,73.32-85.37,8.39-40.16,26.87-63.62,42-79.57,1.24-1.33,1.61-3.25.95-4.94Zm-51.4,82.57c-7.92,37.84-20.11,78.23-64.88,78.23-19.31,0-35.45-5.9-46.8-16.18,3.39-6.08,6.9-11.9,11.2-18.31.7-1.42.63-3.63-.25-4.5-1.25-1.44-2.69-1.38-3.25-1.41-2.43-.13-3.9,1.79-4.31,2.35-3.56,5.34-6.54,10.14-9.51,15.31-7.61-9.69-11.86-22.06-11.86-36.33.01-28.07,16.52-92.55,166.88-95.34-14.28,16.53-29.62,39.88-37.21,76.19Zm-82.12,39.17c3.79,2.74,6.1,4.68,6.24,8.45.14,3.71.46,12.4,10.11,13.51,2.76.32,5.47-.85,7.87-1.89,1.18-.51,2.96-1.28,3.65-1.25,1.55.06,2.82.54,4.3,1.09,1.99.75,4.25,1.6,7.17,1.32.86-.08,1.67-.23,2.43-.43,9.07-2.42,11.22-12.85,11.96-16.46.44-2.15,1.18-3.24,2.84-4.16,5.76-3.22,9.09-8.73,8.92-14.75-.14-4.88-2.6-9.06-6.42-10.91-2.71-1.31-3.2-3.37-3.7-6.6-.1-.63-.19-1.23-.3-1.77-.86-4.11-4.47-8.87-11.83-8.77-3.44.05-6.09,2.72-8.67,5.3-1.2,1.2-2.55,2.56-3.41,2.99-.58.29-.67.33-2.46-.62-1.17-.62-2.62-1.39-4.5-1.78-5.57-1.15-11.1,2.25-13.14,8.08h0c-.8,2.28-4.25,3.46-5.37,3.7l-.21.04-.21.07c-6.25,2-10.65,6.34-11.75,11.61-.87,4.15.44,8.23,3.51,10.93.92.81,1.96,1.57,2.97,2.29Zm.86-11.69c.54-2.56,2.97-4.77,6.52-5.95,1.61-.35,8.56-2.25,10.76-8.53.8-2.28,2.67-3.6,4.55-3.21.82.17,1.59.58,2.49,1.06,2.07,1.1,5.19,2.76,9.31.72,1.97-.97,3.71-2.72,5.39-4.42,1.05-1.06,2.8-2.81,3.58-3.1,2.44,0,3.87.93,4.25,2.79.09.42.16.88.23,1.38.52,3.4,1.39,9.09,7.84,12.22,1.25.61,2.13,2.36,2.19,4.38.04,1.52-.36,5.35-5.08,7.98-3.57,1.99-5.65,4.92-6.53,9.2-1.5,7.29-3.82,10.56-7.75,10.93-1.14.11-2.15-.24-3.83-.87-1.73-.65-3.88-1.46-6.65-1.56-.99-.04-1.97.11-2.93.37-1.35.36-2.68.93-3.98,1.5-1.3.56-3.27,1.41-4.03,1.32-2.31-.27-3.26-.91-3.47-6.33-.29-7.7-5.73-11.64-9.34-14.25-.9-.65-1.76-1.27-2.41-1.85-1.03-.91-1.44-2.28-1.13-3.77Z"/>
</svg>