<?xml version="1.0" encoding="utf-8"?>
<!-- Generator: Adobe Illustrator 28.0.0, SVG Export Plug-In . SVG Version: 6.00 Build 0)  -->
<svg version="1.1" id="Capa_1" xmlns="http://www.w3.org/2000/svg" xmlns:xlink="http://www.w3.org/1999/xlink" x="0px" y="0px"
	 viewBox="0 0 200 200" style="enable-background:new 0 0 200 200;" xml:space="preserve">
<style type="text/css">
	.st0{fill:url(#SVGID_1_);}
	.st1{fill:url(#SVGID_00000109741590623816479510000004002533848094014883_);}
	.st2{fill:url(#SVGID_00000062895962049981020710000000567964790218980281_);}
	.st3{fill:url(#SVGID_00000061431229746217325190000000778443914884104375_);}
</style>
<g>
	
		<linearGradient id="SVGID_1_" gradientUnits="userSpaceOnUse" x1="31.2012" y1="31.1396" x2="167.4879" y2="167.4363" gradientTransform="matrix(1 0 0 -1 0 202)">
		<stop  offset="0" style="stop-color:#BFCC60"/>
		<stop  offset="0.29" style="stop-color:#798D5C"/>
		<stop  offset="0.69" style="stop-color:#6B6052"/>
		<stop  offset="1" style="stop-color:#3D3535"/>
	</linearGradient>
	<path class="st0" d="M82.1,0.3C87.8,2,91.7,6,95.2,10.6c4.8,6.4,8.5,13.3,11.6,20.7c0.8,2,2,2.5,4,2.2c9-1.4,17.9-1.1,26.6,1.5
		c2.4,0.7,4.7,1.7,7.1,2.5c1.6,0.5,3.2,1.1,4.9,1.3c4.5,0.6,8.2-0.8,11.1-4.6c2-2.6,5.7-2.4,6.8,0.5c0.4,1.2,0.3,2.9-0.2,4.1
		c-2,5-4.9,9.4-8.6,13.3c-0.6,0.6-1.4,1-2.1,1.5c3.5,3.1,6.5,5.6,9.4,8.3c11.6,11.3,19.4,24.8,22.6,40.7c4.8,24.2-1,46-16.7,64.9
		c-14.7,17.6-33.8,27.8-56.4,31.2c-24.2,3.6-46.8-0.8-67.3-14.3c-18-11.8-30.4-28-35.3-49.2C6.8,111.4,12,89.6,27,70.3
		c3.7-4.8,8.4-8.8,12.7-13.2c0.3-0.4,0.7-0.7,1-1c-2.1-3-4.4-5.7-6.2-8.8c-1.8-3-3.1-6.2-4.5-9.5c-0.9-2.1,0-4,1.8-5
		c1.7-0.9,3.8-0.6,5,1.2c3.7,5.4,10,5.7,15.3,3.7c3.4-1.2,6.8-2.8,10.3-3.4c4.7-0.9,9.6-1.2,14.5-1.7c0.7-0.1,1.4,0,2.6,0
		c-1.4-2.5-2.8-4.7-3.9-7c-1.8-3.4-3.8-6.8-5-10.5c-0.7-2.2-0.6-4.9-0.2-7.3c0.6-3.9,3.1-6.4,6.9-7.7C79.5-0.2,80.5,0,82.1,0.3
		L82.1,0.3z M127.1,63.8c1,1.5,1.6,2.4,2.3,3.4c4.1,6.2,6.2,13.1,6.6,20.5c0.1,1.9-0.5,3.5-2.3,4.3c-1.8,0.9-3.5,0.3-4.7-1.1
		c-3.5-4-8-5.1-13.1-5.5c-2.4-0.2-4.8-0.6-7-1.4c-3.6-1.5-6.9-3.4-10.5-5.2c-4.1,3.9-9.1,7.3-14.8,9.2c-5.9,2.1-10.9,4.9-14.9,9.7
		c-1.4,1.7-3.3,2-4.9,1.2c-1.8-0.9-2.4-2.4-2.3-4.4c0.7-8.6,3.2-16.5,8-23.7c0.6-0.8,1.1-1.7,1.7-2.6c-0.4-0.1-0.6-0.2-0.8-0.2
		c-8,0.1-15.4-1.6-22.2-5.9c-0.4-0.3-1.5,0-2,0.3c-3.7,3.4-7.6,6.6-10.8,10.4c-15,17.8-20.6,38.3-15.1,61C26,157,41,173,62.3,183.4
		c10.7,5.2,22,7.8,34,8.3c10.2,0.4,20.1-0.7,29.8-3.7c21.5-6.8,38.2-19.6,48.5-39.9c7-13.8,8.9-28.4,5.9-43.5
		c-3.8-18.8-14.1-33.3-29.4-44.6c-1-0.7-1.8-0.8-2.8-0.2c-4,2.2-8.4,3.5-12.9,4C132.8,64,130.2,63.8,127.1,63.8L127.1,63.8z
		 M151.3,47.8c-4.2-1.3-8.4-2.5-12.4-3.9c-4.7-1.7-9.5-2.9-14.4-2.9c-5.8,0-11.5,0.5-17.3,0.7c-4.1,0.1-4.9-0.5-6.4-4.2
		c-3.3-8-7.1-15.8-12.5-22.6c-1.9-2.4-4.3-4.5-6.8-6.2c-1.9-1.3-3.2-0.3-3,2c0.2,2.3,0.8,4.6,1.7,6.7c1.1,2.5,2.9,4.6,4.1,7
		c4,8,7.9,16,11.7,24.1c1.2,2.5,0,5-2.3,5.7c-2.1,0.6-3.9-0.3-5-2.6c-1.3-2.9-2.6-5.8-3.8-8.7c-0.5-1.2-1.2-1.7-2.4-1.8
		c-6.2-0.4-12.4-0.3-18.6,1.3c-6.4,1.7-12.2,5.4-19.3,4.8c0.2,0.5,0.2,0.7,0.3,0.8c6.2,7.7,14,12,24.1,11.7c3.7-0.1,7.4-1,11.1-1.6
		c1.8-0.3,3.4,0.1,4.5,1.7c1,1.5,0.9,3.1-0.1,4.6c-0.9,1.3-1.8,2.5-2.8,3.7c-3.5,4.1-6.6,8.5-8.8,13.5c-0.3,0.8-0.6,1.6-0.8,2.4
		c2.7-1.1,5-2.1,7.5-2.9c4.4-1.6,8.4-3.8,11.9-6.8c1.5-1.3,2.7-3.1,3.5-4.9c1-2.3,2-3.5,4.1-3.5c2,0,3.2,1.3,4,3.6
		c0.5,1.4,1.4,3,2.6,3.9c3.4,2.6,7.3,4,11.7,4.3c2.6,0.2,5.2,0.9,7.8,1.3c0.3,0.1,0.7,0.1,1.3,0.1c-0.4-1.1-0.7-1.9-1.1-2.7
		c-2-4.7-5.2-8.5-8.7-12.1c-1.3-1.3-2.6-2.6-3.5-4.2c-1.6-2.7,0.4-5.9,3.5-5.8c1.1,0,2.2,0.4,3.2,0.6c6.9,1.6,13.7,2,20.5-0.3
		C144.6,53,148.3,50.7,151.3,47.8L151.3,47.8z"/>
	<g>
		
			<linearGradient id="SVGID_00000062188123027846547150000006925165298522794173_" gradientUnits="userSpaceOnUse" x1="56.9393" y1="5.4225" x2="193.2294" y2="141.7225" gradientTransform="matrix(1 0 0 -1 -2.620045e-03 201.9998)">
			<stop  offset="0" style="stop-color:#BFCC60"/>
			<stop  offset="0.29" style="stop-color:#798D5C"/>
			<stop  offset="0.69" style="stop-color:#6B6052"/>
			<stop  offset="1" style="stop-color:#3D3535"/>
		</linearGradient>
		<circle style="fill:url(#SVGID_00000062188123027846547150000006925165298522794173_);" cx="123.7" cy="129.8" r="5.9"/>
		
			<linearGradient id="SVGID_00000061457429565805932710000014419861778564829096_" gradientUnits="userSpaceOnUse" x1="75.2117" y1="-12.8485" x2="211.5017" y2="123.4515" gradientTransform="matrix(1 0 0 -1 -2.715505e-03 201.9988)">
			<stop  offset="0" style="stop-color:#BFCC60"/>
			<stop  offset="0.29" style="stop-color:#798D5C"/>
			<stop  offset="0.69" style="stop-color:#6B6052"/>
			<stop  offset="1" style="stop-color:#3D3535"/>
		</linearGradient>
		<circle style="fill:url(#SVGID_00000061457429565805932710000014419861778564829096_);" cx="143.5" cy="146.6" r="5.9"/>
		
			<linearGradient id="SVGID_00000082365727482104969170000003847258830726845871_" gradientUnits="userSpaceOnUse" x1="65.9732" y1="-3.6106" x2="202.2632" y2="132.6894" gradientTransform="matrix(1 0 0 -1 0 202)">
			<stop  offset="0" style="stop-color:#BFCC60"/>
			<stop  offset="0.29" style="stop-color:#798D5C"/>
			<stop  offset="0.69" style="stop-color:#6B6052"/>
			<stop  offset="1" style="stop-color:#3D3535"/>
		</linearGradient>
		<path style="fill:url(#SVGID_00000082365727482104969170000003847258830726845871_);" d="M121.9,149.7c-2.3-2.3-6.1-2.3-8.3,0
			s-2.3,6.1,0,8.4s6.1,2.3,8.3,0S124.2,152,121.9,149.7z"/>
	</g>
</g>
</svg>
