<?xml version="1.0" encoding="UTF-8"?>
<svg id="Capa_1" data-name="Capa 1" xmlns="http://www.w3.org/2000/svg" xmlns:xlink="http://www.w3.org/1999/xlink" viewBox="0 0 200 200">
  <defs>
    <style>
      .cls-1 {
        fill: url(#Degradado_sin_nombre_24);
        stroke-width: 0px;
      }
    </style>
    <linearGradient id="Degradado_sin_nombre_24" data-name="Degradado sin nombre 24" x1="0" y1="100" x2="200" y2="100" gradientUnits="userSpaceOnUse">
      <stop offset="0" stop-color="#bfcc60"/>
      <stop offset=".29" stop-color="#798d5c"/>
      <stop offset=".69" stop-color="#6b6052"/>
      <stop offset="1" stop-color="#3d3535"/>
    </linearGradient>
  </defs>
  <path class="cls-1" d="m0,114.69c0-3.55.32-7.09,1.08-10.56,0-.02,0-.04.01-.06,5.19-23.34,19-39.25,41.28-47.84,4.57-1.76,9.43-2.39,14.17-3.5,13.38-3.14,24.5-9.88,32.93-20.85,7.1-9.24,16.01-16.09,26.88-20.34,5.11-2,10.39-3.24,15.86-3.81,10.17-1.06,20.04.15,29.4,4.21,19.49,8.46,31.78,23.12,36.84,43.78,1.82,7.41,1.75,14.93,1.2,22.49-.8,11.16-3.09,21.99-6.88,32.5-7.13,19.8-18.64,36.66-34.33,50.66-13.55,12.1-29.03,20.77-46.4,26.04-7.28,2.21-14.72,3.71-22.31,4.5-5.06.53-10.11.81-15.19.71-12.52-.25-24.3-3.37-35.21-9.5-16.26-9.13-27.8-22.44-34.54-39.86-2.43-6.27-3.95-12.77-4.53-19.48,0,0,0,0,0-.01C.15,122.48,0,121.2,0,119.9v-5.22Zm76.57,70.01c1.95-.11,3.89-.27,5.84-.33,6.39-.22,12.68-1.15,18.9-2.55,39.28-8.79,71.62-37.89,84.54-76.01,2.78-8.21,4.65-16.62,5.48-25.26.62-6.48,1-12.95-.03-19.44-1.73-10.84-6.19-20.37-13.68-28.36-11.79-12.58-26.32-18.37-43.59-17.07-7.1.53-13.78,2.49-20.09,5.75-7.41,3.83-13.44,9.27-18.5,15.88-7.65,10-17.67,16.73-29.4,21.07-4.65,1.72-9.53,2.5-14.35,3.56-25.17,5.51-43.3,27.12-43.76,53.75-.1,5.87.66,11.67,2.1,17.36,7.32,29.04,33.61,51.5,66.54,51.64Z"/>
  <path class="cls-1" d="m165.63,68.7c.02,3.5-2.77,6.35-6.24,6.4-3.55.05-6.45-2.84-6.43-6.4.02-3.52,2.79-6.27,6.33-6.27,3.52,0,6.32,2.77,6.34,6.27Z"/>
  <path class="cls-1" d="m113.09,119.6c-3.06,0-5.57-2.48-5.61-5.55-.04-3.03,2.49-5.55,5.58-5.55,3.08,0,5.62,2.49,5.63,5.52.01,3-2.58,5.58-5.6,5.58Z"/>
  <path class="cls-1" d="m55.52,93.66c.03,3.07-2.44,5.6-5.48,5.64-3.05.03-5.59-2.45-5.61-5.5-.03-3.12,2.38-5.57,5.48-5.59,3.13-.02,5.58,2.36,5.61,5.46Z"/>
  <path class="cls-1" d="m95.35,122.2c-.03,2.62-2.34,4.85-4.91,4.75-2.54-.1-4.63-2.28-4.63-4.83,0-2.66,2.2-4.86,4.81-4.83,2.64.03,4.76,2.24,4.72,4.92Z"/>
  <path class="cls-1" d="m149.85,110.87c-.02-2.69,2.09-4.84,4.76-4.84,2.69,0,4.79,2.12,4.77,4.82-.01,2.54-2.13,4.72-4.66,4.78-2.58.07-4.85-2.16-4.87-4.77Z"/>
  <path class="cls-1" d="m88.02,168.48c-2.69-.03-4.77-2.19-4.69-4.88.07-2.58,2.21-4.67,4.77-4.67,2.58,0,4.87,2.3,4.84,4.85-.03,2.65-2.21,4.74-4.91,4.71Z"/>
  <path class="cls-1" d="m130.6,40.91c2.7.02,4.78,2.16,4.71,4.86-.06,2.57-2.2,4.69-4.74,4.7-2.56.01-4.87-2.28-4.86-4.83.01-2.64,2.19-4.75,4.89-4.73Z"/>
  <path class="cls-1" d="m95.27,108.67c-2.65,0-4.79-2.17-4.77-4.83.02-2.69,2.13-4.74,4.86-4.7,2.63.04,4.65,2.07,4.67,4.69.03,2.66-2.11,4.84-4.76,4.84Z"/>
  <path class="cls-1" d="m46.15,140.66c-.03,2.64-2.25,4.77-4.89,4.71-2.56-.06-4.63-2.19-4.64-4.77,0-2.7,2.08-4.78,4.8-4.77,2.71.01,4.77,2.11,4.73,4.83Z"/>
</svg>