<?xml version="1.0" encoding="utf-8"?>
<!-- Generator: Adobe Illustrator 28.0.0, SVG Export Plug-In . SVG Version: 6.00 Build 0)  -->
<svg version="1.1" id="Capa_1" xmlns="http://www.w3.org/2000/svg" xmlns:xlink="http://www.w3.org/1999/xlink" x="0px" y="0px"
	 viewBox="0 0 200 200" style="enable-background:new 0 0 200 200;" xml:space="preserve">
<style type="text/css">
	.st0{fill:url(#SVGID_1_);}
	.st1{fill:url(#SVGID_00000157274270628094952230000003657935995001467268_);}
	.st2{fill:url(#SVGID_00000163755497984725609950000015676081217321467577_);}
	.st3{fill:url(#SVGID_00000013165253207555973260000010497459244855740297_);}
</style>
<g>
	
		<linearGradient id="SVGID_1_" gradientUnits="userSpaceOnUse" x1="33.7415" y1="32.5815" x2="172.36" y2="171.2" gradientTransform="matrix(1 0 0 -1 0 202)">
		<stop  offset="0" style="stop-color:#BFCC60"/>
		<stop  offset="0.29" style="stop-color:#798D5C"/>
		<stop  offset="0.69" style="stop-color:#6B6052"/>
		<stop  offset="1" style="stop-color:#3D3535"/>
	</linearGradient>
	<path class="st0" d="M194.2,99.4l-0.3-2.9l-2.8-0.8c-12.6-3.4-23.9-4.6-33.6-3.6c-1.6,0.2-3,0.4-4.2,0.6
		C157.9,58.1,143.6,7.3,143,5l-1.4-5l-4.6,2.3C96.6,22.6,75.1,48.6,67.3,59.4c-14-16.6-29.8-27.8-30.6-28.3l-4-2.8l-2.3,4.3
		c-22.6,43.5-16.9,72.8-13.8,82.5c-7,5.1-10.1,11.1-10.3,11.3l-0.8,1.6l0.6,1.7c6.2,17.1,18.9,38.8,44.3,45.3c7.8,2,14.9,2.1,20,1.6
		c-1.7,5.3-3.3,11.4-4.5,18.1c-0.4,2.3,1.1,4.6,3.4,5c0.3,0.1,0.5,0.1,0.8,0.1c2,0,3.8-1.4,4.2-3.5c1.3-6.8,2.9-12.8,4.7-18.1
		c15,12.3,31.8,15.7,45.8,15.7c16.3,0,28.6-4.6,29.6-5l2.7-1l0-2.9c0.1-10.1-1.3-16.4-2.7-20.1c22.1-12.7,31.7-29.2,35.9-41
		C195.4,110.4,194.3,99.8,194.2,99.4z M146.8,159.6l-6,2.7l4.9,4c0.4,0.7,2.8,4.7,3,15.7c-9.5,2.8-41.7,10-66.4-12.2
		c4.5-10.9,8.8-16.9,8.9-17.1c1.4-1.9,1-4.6-0.9-6c-1.9-1.4-4.6-1-6,0.9c-0.3,0.4-5.4,7.4-10.4,20.2c-4,0.7-12,1.5-21.1-0.9
		c-17-4.4-29.6-17.1-37.7-38c1.4-2,4.3-5.6,9.1-8.4l3.3-2l-1.6-3.5c-0.1-0.3-12.3-27.9,10-73.9C42,46,54.3,56.3,64.3,69.2l3.9,5
		l3.2-5.5c0.1-0.1,5.1-8.6,16.2-20.1c9.6-9.9,25.5-24,48.5-36.3c3.8,14.9,13.8,58.9,7.6,85.4l-2.2,9.2l8.3-4.3
		c0.1-0.1,11.4-5.4,36.1,0.6C185.8,112.4,182.6,140.8,146.8,159.6L146.8,159.6z"/>
	
		<linearGradient id="SVGID_00000044151863088598015520000005633581820237354943_" gradientUnits="userSpaceOnUse" x1="13.3268" y1="52.9932" x2="151.9468" y2="191.6132" gradientTransform="matrix(1 0 0 -1 -1.856833e-03 201.9955)">
		<stop  offset="0" style="stop-color:#BFCC60"/>
		<stop  offset="0.29" style="stop-color:#798D5C"/>
		<stop  offset="0.69" style="stop-color:#6B6052"/>
		<stop  offset="1" style="stop-color:#3D3535"/>
	</linearGradient>
	<circle style="fill:url(#SVGID_00000044151863088598015520000005633581820237354943_);" cx="60.5" cy="101.9" r="6.1"/>
	
		<linearGradient id="SVGID_00000121266104001642101320000017702342954616627347_" gradientUnits="userSpaceOnUse" x1="31.4607" y1="34.8593" x2="170.0807" y2="173.4793" gradientTransform="matrix(1 0 0 -1 -2.215454e-03 201.9938)">
		<stop  offset="0" style="stop-color:#BFCC60"/>
		<stop  offset="0.29" style="stop-color:#798D5C"/>
		<stop  offset="0.69" style="stop-color:#6B6052"/>
		<stop  offset="1" style="stop-color:#3D3535"/>
	</linearGradient>
	<circle style="fill:url(#SVGID_00000121266104001642101320000017702342954616627347_);" cx="84.3" cy="114.3" r="6.1"/>
	
		<linearGradient id="SVGID_00000081611725410893781050000013436986392925467571_" gradientUnits="userSpaceOnUse" x1="25.8599" y1="40.4601" x2="164.4799" y2="179.0801" gradientTransform="matrix(1 0 0 -1 0 202)">
		<stop  offset="0" style="stop-color:#BFCC60"/>
		<stop  offset="0.29" style="stop-color:#798D5C"/>
		<stop  offset="0.69" style="stop-color:#6B6052"/>
		<stop  offset="1" style="stop-color:#3D3535"/>
	</linearGradient>
	<path style="fill:url(#SVGID_00000081611725410893781050000013436986392925467571_);" d="M63.2,122.4c-2.9-1.8-6.6-1-8.5,1.9
		c-1.8,2.9-1,6.6,1.9,8.4s6.6,1,8.5-1.9C66.9,128,66,124.2,63.2,122.4z"/>
</g>
</svg>
