<?xml version="1.0" encoding="UTF-8"?>
<svg id="Capa_1" data-name="Capa 1" xmlns="http://www.w3.org/2000/svg" xmlns:xlink="http://www.w3.org/1999/xlink" viewBox="0 0 200 200">
  <defs>
    <style>
      .cls-1 {
        fill: url(#Degradado_sin_nombre_126);
        stroke-width: 0px;
      }
    </style>
    <linearGradient id="Degradado_sin_nombre_126" data-name="Degradado sin nombre 126" x1="-463.1" y1="-123.93" x2="-283.58" y2="-123.93" gradientTransform="translate(454.39 260.11) rotate(5.73)" gradientUnits="userSpaceOnUse">
      <stop offset="0" stop-color="#bfcc31"/>
      <stop offset=".29" stop-color="#696"/>
      <stop offset=".69" stop-color="#666"/>
      <stop offset="1" stop-color="#333"/>
    </linearGradient>
  </defs>
  <path class="cls-1" d="m194.68,2.81C194.06,1.14,192.47.02,190.68,0,23.09-.02,4.99,73.11,4.99,104.53c0,17.93,5.71,33.26,15.83,44.83-10.26,19.54-15.83,36.52-15.83,46.06-.07,2.45,1.86,4.5,4.31,4.57h.01c2.44-.07,4.38-2.1,4.32-4.54,0-7.32,4.63-22.08,13.59-39.77,12.74,10.86,30.33,17,51.19,17,55.46,0,67.08-55.54,73.32-85.37,8.39-40.16,26.87-63.62,42-79.57,1.24-1.33,1.61-3.25.95-4.94Zm-51.4,82.57c-7.92,37.84-20.11,78.23-64.88,78.23-19.31,0-35.45-5.9-46.8-16.18,3.39-6.08,6.9-11.9,11.2-18.31.7-1.42.63-3.63-.25-4.5-1.25-1.44-2.69-1.38-3.25-1.41-2.43-.13-3.9,1.79-4.31,2.35-3.56,5.34-6.54,10.14-9.51,15.31-7.61-9.69-11.86-22.06-11.86-36.33.01-28.07,16.52-92.55,166.88-95.34-14.28,16.53-29.62,39.88-37.21,76.19Zm-55.35,4.19c-2.8-2.19-6.84-1.7-9.03,1.09-2.19,2.8-1.7,6.84,1.09,9.03s6.84,1.7,9.03-1.09c2.19-2.8,1.7-6.84-1.09-9.03Zm23.58,15.52c-2.8-2.19-6.84-1.7-9.03,1.09-2.19,2.8-1.7,6.84,1.09,9.03,2.8,2.19,6.84,1.7,9.03-1.09s1.7-6.84-1.09-9.03Zm-26.9,11.25c-2.8-2.19-6.84-1.7-9.03,1.09-2.19,2.8-1.7,6.84,1.09,9.03,2.8,2.19,6.84,1.7,9.03-1.09,2.19-2.8,1.7-6.84-1.09-9.03Z"/>
</svg>