<?xml version="1.0" encoding="utf-8"?>
<!-- Generator: Adobe Illustrator 28.0.0, SVG Export Plug-In . SVG Version: 6.00 Build 0)  -->
<svg version="1.1" id="Capa_1" xmlns="http://www.w3.org/2000/svg" xmlns:xlink="http://www.w3.org/1999/xlink" x="0px" y="0px"
	 viewBox="0 0 200 200" style="enable-background:new 0 0 200 200;" xml:space="preserve">
<style type="text/css">
	.st0{fill:url(#SVGID_1_);}
	.st1{fill:url(#SVGID_00000124861268991530847180000015634864362246009775_);}
	.st2{fill:url(#SVGID_00000039833910936708967800000008225126549938915988_);}
	.st3{fill:url(#SVGID_00000130621619874346232010000010778050505794000534_);}
</style>
<g>
	
		<linearGradient id="SVGID_1_" gradientUnits="userSpaceOnUse" x1="6.88" y1="109.0665" x2="193.12" y2="109.0665" gradientTransform="matrix(1 0 0 -1 8.706119e-03 202.0024)">
		<stop  offset="0" style="stop-color:#BFCC60"/>
		<stop  offset="0.29" style="stop-color:#798D5C"/>
		<stop  offset="0.69" style="stop-color:#6B6052"/>
		<stop  offset="1" style="stop-color:#3D3535"/>
	</linearGradient>
	<circle class="st0" cx="92.7" cy="92.9" r="6.3"/>
	
		<linearGradient id="SVGID_00000003783175458796182330000001282184039026976947_" gradientUnits="userSpaceOnUse" x1="6.88" y1="93.8284" x2="193.12" y2="93.8284" gradientTransform="matrix(1 0 0 -1 3.622718e-03 201.9975)">
		<stop  offset="0" style="stop-color:#BFCC60"/>
		<stop  offset="0.29" style="stop-color:#798D5C"/>
		<stop  offset="0.69" style="stop-color:#6B6052"/>
		<stop  offset="1" style="stop-color:#3D3535"/>
	</linearGradient>
	<circle style="fill:url(#SVGID_00000003783175458796182330000001282184039026976947_);" cx="115.9" cy="108.2" r="6.3"/>
	
		<linearGradient id="SVGID_00000154397889812138056990000015683432650283526816_" gradientUnits="userSpaceOnUse" x1="6.88" y1="82.795" x2="193.12" y2="82.795" gradientTransform="matrix(1 0 0 -1 0 202)">
		<stop  offset="0" style="stop-color:#BFCC60"/>
		<stop  offset="0.29" style="stop-color:#798D5C"/>
		<stop  offset="0.69" style="stop-color:#6B6052"/>
		<stop  offset="1" style="stop-color:#3D3535"/>
	</linearGradient>
	<path style="fill:url(#SVGID_00000154397889812138056990000015683432650283526816_);" d="M93.4,114.2c-2.7-2.2-6.7-1.7-8.9,1.1
		s-1.7,6.7,1.1,8.9s6.7,1.7,8.9-1.1S96.1,116.4,93.4,114.2z"/>
	
		<linearGradient id="SVGID_00000103979735893929429150000007135544717072532397_" gradientUnits="userSpaceOnUse" x1="6.8802" y1="102.005" x2="193.1412" y2="102.005" gradientTransform="matrix(1 0 0 -1 0 202)">
		<stop  offset="0" style="stop-color:#BFCC60"/>
		<stop  offset="0.29" style="stop-color:#798D5C"/>
		<stop  offset="0.69" style="stop-color:#6B6052"/>
		<stop  offset="1" style="stop-color:#3D3535"/>
	</linearGradient>
	<path style="fill:url(#SVGID_00000103979735893929429150000007135544717072532397_);" d="M188.7,0h-0.6l-0.5,0.1
		c-7.7,2-15.7,3.4-24.2,5c-27.4,5-58.1,10.6-78.8,36.6c-4.4-4.5-9-4.6-11.7-4.2c-7.8,1.3-14.7,10.1-18.4,22.9c-4-1.9-8.6-1.8-13,0.4
		C33.7,64.7,26.9,75.3,27.8,87c-10,3.1-19.4,8.8-20.8,23.7c-1,10.1,5.2,22,14.7,28.3c5.1,3.4,10.6,5,16.4,5
		c-9,12.5-18.4,29.2-23.9,49.8c-0.7,2.6,0.9,5.3,3.5,6c0.4,0.1,0.9,0.2,1.3,0.2c2.2,0,4.1-1.4,4.7-3.6c4.6-17.1,12.1-31.4,19.8-42.7
		c0,0.2,0,0.4,0,0.6c0,0.5,0.1,1,0.1,1.5c0,0.2,0,0.5,0.1,0.8c0.1,0.5,0.1,1,0.2,1.5c0,0.2,0.1,0.5,0.1,0.7c0.1,0.5,0.2,1,0.3,1.5
		c0,0.2,0.1,0.5,0.2,0.7c0.1,0.5,0.2,0.9,0.4,1.4c0.1,0.2,0.1,0.4,0.2,0.7c0.2,0.5,0.3,0.9,0.5,1.4c0.1,0.2,0.2,0.4,0.3,0.6
		c0.2,0.4,0.4,0.9,0.6,1.3c0.1,0.2,0.2,0.4,0.3,0.6c0.2,0.4,0.4,0.8,0.7,1.2l0.3,0.6c0.2,0.4,0.5,0.8,0.7,1.2
		c0.1,0.2,0.2,0.3,0.3,0.5l0.1,0.1c0.3,0.4,0.5,0.8,0.8,1.1c0.2,0.2,0.3,0.4,0.5,0.7c0.3,0.4,0.6,0.7,0.9,1l0.3,0.3
		c0.3,0.3,0.6,0.7,0.9,1c0.1,0.1,0.2,0.2,0.4,0.4l0.1,0.1c0.3,0.3,0.7,0.6,1,0.9c0.1,0.1,0.3,0.2,0.4,0.4l0.1,0.1
		c0.3,0.3,0.7,0.6,1,0.9c0.1,0.1,0.3,0.2,0.4,0.3l0.1,0.1c0.4,0.3,0.7,0.5,1.1,0.8c0.1,0.1,0.2,0.2,0.4,0.2l0.1,0.1
		c0.4,0.2,0.8,0.5,1.2,0.7c0.1,0.1,0.3,0.2,0.4,0.2l0.1,0.1c0.4,0.2,0.8,0.5,1.2,0.7l0.5,0.2c0.4,0.2,0.8,0.4,1.3,0.6
		c0.1,0.1,0.2,0.1,0.4,0.2l0.1,0c0.4,0.2,0.9,0.4,1.4,0.6l0.4,0.1c0.5,0.2,0.9,0.4,1.4,0.5l0.3,0.1c0.5,0.2,1,0.3,1.5,0.4
		c0.1,0,0.2,0.1,0.3,0.1c0.5,0.1,1.1,0.3,1.6,0.4l0.3,0.1c2.3,0.5,4.7,0.7,7,0.7c0.1,0,0.3,0,0.4,0c5.3-0.1,10.5-2.4,15.1-6.6
		c4.1-3.8,7.6-9.2,9.8-15c5.8,0.6,11.8-0.7,17.1-3.6c6.1-3.4,10.2-8.6,11.2-14.1l0.1-0.4c0.1-0.5,0.1-0.9,0.1-1.4
		c0.1-1.8-0.1-4.1-1.1-6.5c10.1-2.6,17.8-7.2,21.4-12.9c2.1-3.3,2.7-6.9,1.8-10.3c-0.1-0.5-0.3-0.9-0.4-1.3l-0.1-0.2
		c-0.8-2-2.2-3.9-4.1-5.7c11-12.9,15.5-25.6,18.8-37.5c0.9-3.3,1.7-6.7,2.5-9.9c2.2-9,4.5-18.4,8.7-28.1c3.7-8.5,8.4-16.3,14.4-24
		C194.5,4.3,192.4,0,188.7,0L188.7,0z M169.6,27.6c-4.5,10.4-6.9,20.1-9.2,29.5c-0.8,3.3-1.6,6.5-2.5,9.7
		c-3.7,13.8-8.6,25.4-20,37.4l0,0c-1.6,2.4-0.9,5.6,1.5,7.2c2.6,1.6,3.6,3.1,4.1,4.1l0.1,0.2c0.1,0.1,0.1,0.3,0.1,0.4
		c0.1,0.4,0.4,1.5-0.7,3.3c-2.1,3.2-8.6,7.8-20.1,9.9c-0.7,0.1-1.4,0.2-2.2,0.4l0,0c-3.9,0-5.7,4.9-2.7,7.4c2.3,1.9,3.4,3.9,3.3,5.9
		c0,0.2,0,0.4-0.1,0.6l0,0.1c-0.5,2.8-3.1,5.8-6.8,7.9c-4.6,2.6-9.9,3.3-14.6,2.1l0,0c-2.4,0-5,1.9-5.7,4.1
		c-1.7,5.4-4.7,10.3-8.3,13.7c-2.1,1.9-5.3,4.2-9.2,4.2c-1.9,0-3.8-0.2-5.6-0.6l-0.3-0.1c-0.4-0.1-0.7-0.2-1-0.2l-0.2-0.1
		c-0.4-0.1-0.8-0.2-1.1-0.3l-0.3-0.1c-0.3-0.1-0.7-0.2-1.1-0.4l-0.3-0.1c-0.3-0.1-0.7-0.3-1-0.4l-0.3-0.1c-0.3-0.1-0.6-0.3-0.9-0.5
		l-0.3-0.2c-0.3-0.2-0.6-0.3-0.9-0.5l-0.3-0.2c-0.3-0.2-0.6-0.4-0.8-0.5l-0.4-0.2c-0.3-0.2-0.5-0.4-0.8-0.6l-0.3-0.3
		c-0.2-0.2-0.5-0.4-0.8-0.6l-0.3-0.3c-0.2-0.2-0.5-0.4-0.7-0.7l-0.3-0.3c-0.2-0.2-0.5-0.5-0.7-0.7l-0.3-0.4
		c-0.2-0.2-0.4-0.5-0.7-0.8l-0.2-0.3c-0.2-0.3-0.4-0.5-0.6-0.8l-0.3-0.4c-0.2-0.3-0.3-0.6-0.5-0.8L55,164c-0.2-0.3-0.3-0.6-0.5-0.9
		l-0.2-0.4c-0.1-0.3-0.3-0.6-0.4-0.9c-0.1-0.2-0.1-0.3-0.2-0.5c-0.1-0.3-0.2-0.6-0.3-0.9c0-0.2-0.1-0.3-0.2-0.5
		c-0.1-0.3-0.2-0.7-0.3-1l-0.1-0.5c-0.1-0.3-0.2-0.7-0.2-1.1c0-0.2-0.1-0.4-0.1-0.5c-0.1-0.4-0.1-0.7-0.2-1.1c0-0.2,0-0.4,0-0.6
		c0-0.4-0.1-0.8-0.1-1.1c0-0.2,0-0.3,0-0.6c0-0.4,0-0.8,0-1.2c0-0.2,0-0.4,0-0.7c0-0.4,0-0.8,0.1-1.2c0-0.2,0-0.3,0-0.5l0-0.2
		c0-0.4,0.1-0.9,0.2-1.3c0-0.2,0.1-0.4,0.1-0.6l0-0.2c0.1-0.4,0.2-0.9,0.3-1.4c0-0.2,0.1-0.3,0.1-0.5l0-0.2c0.1-0.5,0.2-0.9,0.3-1.4
		c0-0.2,0.1-0.3,0.1-0.5l0.1-0.3c0.1-0.5,0.3-1,0.5-1.5c0-0.2,0.1-0.3,0.2-0.5l0.1-0.3c0.2-0.5,0.3-0.9,0.5-1.4l0.2-0.4
		c0.2-0.5,0.4-1,0.6-1.6c7-7.8,12.1-12.1,12.3-12.2c2.1-1.7,2.5-4.8,0.8-6.9s-4.8-2.5-6.9-0.8c-0.5,0.4-5.1,4.1-11.4,10.8
		c-6,6.4-15.8,8-23.3,3.4c-0.2-0.1-0.5-0.3-0.7-0.5c-7.8-5.2-11.4-14.2-10.8-20.1c1-10.8,7.4-14.4,18.1-17.1
		c2.3-0.6,3.8-2.9,3.2-5.3l0,0c-2-8.6,2.8-17.7,8.3-20.4c3.2-1.6,5.9-0.8,8.4,2.2l0,0c3.9,0,7.8-3.1,8.8-6.8
		c2.8-10.9,7.9-17.3,11.7-17.9c2.7-0.5,4.9,2.5,6.4,5.1l3.5,6.2l4-5.9C106.7,24.4,136.3,19,165,13.8c4.4-0.8,8.9-1.6,13.4-2.5
		C174.9,16.5,172.1,21.9,169.6,27.6L169.6,27.6z"/>
</g>
</svg>
