<?xml version="1.0" encoding="utf-8"?>
<!-- Generator: Adobe Illustrator 28.0.0, SVG Export Plug-In . SVG Version: 6.00 Build 0)  -->
<svg version="1.1" id="Capa_1" xmlns="http://www.w3.org/2000/svg" xmlns:xlink="http://www.w3.org/1999/xlink" x="0px" y="0px"
	 viewBox="0 0 200 200" style="enable-background:new 0 0 200 200;" xml:space="preserve">
<style type="text/css">
	.st0{fill:url(#SVGID_1_);}
	.st1{fill:url(#SVGID_00000128459033899742198820000010613437831550572686_);}
	.st2{fill:url(#SVGID_00000091708719159469601360000017771316299166816170_);}
	.st3{fill:url(#SVGID_00000093158236018844090610000007390428107176179125_);}
</style>
<g>
	<g>
		
			<linearGradient id="SVGID_1_" gradientUnits="userSpaceOnUse" x1="5.63" y1="102" x2="194.3678" y2="102" gradientTransform="matrix(1 0 0 -1 0 202)">
			<stop  offset="0" style="stop-color:#BFCC60"/>
			<stop  offset="0.29" style="stop-color:#798D5C"/>
			<stop  offset="0.69" style="stop-color:#6B6052"/>
			<stop  offset="1" style="stop-color:#3D3535"/>
		</linearGradient>
		<path class="st0" d="M194.2,99.4l-0.3-2.9l-2.8-0.8c-12.6-3.4-23.9-4.6-33.6-3.6c-1.6,0.2-3,0.4-4.2,0.6
			C157.9,58.1,143.6,7.3,143,5l-1.4-5l-4.6,2.3C96.6,22.6,75.1,48.6,67.3,59.4c-14-16.6-29.8-27.8-30.6-28.3l-4-2.8l-2.3,4.3
			c-22.6,43.5-16.9,72.8-13.8,82.5c-7,5.1-10.1,11.1-10.3,11.3l-0.8,1.6l0.6,1.7c6.2,17.1,18.9,38.8,44.3,45.3
			c7.8,2,14.9,2.1,20,1.6c-1.7,5.3-3.3,11.4-4.5,18.1c-0.4,2.3,1.1,4.6,3.4,5c0.3,0.1,0.5,0.1,0.8,0.1c2,0,3.8-1.4,4.2-3.5
			c1.3-6.8,2.9-12.8,4.7-18.1c15,12.3,31.8,15.7,45.8,15.7c16.3,0,28.6-4.6,29.6-5l2.7-1l0-2.9c0.1-10.1-1.3-16.4-2.7-20.1
			c22.1-12.7,31.7-29.2,35.9-41C195.4,110.4,194.3,99.8,194.2,99.4z M146.8,159.6l-6,2.7l4.9,4c0.4,0.7,2.8,4.7,3,15.7
			c-9.5,2.8-41.7,10-66.4-12.2c4.5-10.9,8.8-16.9,8.9-17.1c1.4-1.9,1-4.6-0.9-6c-1.9-1.4-4.6-1-6,0.9c-0.3,0.4-5.4,7.4-10.4,20.2
			c-4,0.7-12,1.5-21.1-0.9c-17-4.4-29.6-17.1-37.7-38c1.4-2,4.3-5.6,9.1-8.4l3.3-2l-1.6-3.5c-0.1-0.3-12.3-27.9,10-73.9
			C42,46,54.3,56.3,64.3,69.2l3.9,5l3.2-5.5c0.1-0.1,5.1-8.6,16.2-20.1c9.6-9.9,25.5-24,48.5-36.3c3.8,14.9,13.8,58.9,7.6,85.4
			l-2.2,9.2l8.3-4.3c0.1-0.1,11.4-5.4,36.1,0.6C185.8,112.4,182.6,140.8,146.8,159.6L146.8,159.6z"/>
		
			<linearGradient id="SVGID_00000171702337002788898810000004308824449114124709_" gradientUnits="userSpaceOnUse" x1="5.63" y1="102" x2="194.3678" y2="102" gradientTransform="matrix(1 0 0 -1 0 202)">
			<stop  offset="0" style="stop-color:#BFCC60"/>
			<stop  offset="0.29" style="stop-color:#798D5C"/>
			<stop  offset="0.69" style="stop-color:#6B6052"/>
			<stop  offset="1" style="stop-color:#3D3535"/>
		</linearGradient>
		<path style="fill:url(#SVGID_00000171702337002788898810000004308824449114124709_);" d="M194.2,99.4l-0.3-2.9l-2.8-0.8
			c-12.6-3.4-23.9-4.6-33.6-3.6c-1.6,0.2-3,0.4-4.2,0.6C157.9,58.1,143.6,7.3,143,5l-1.4-5l-4.6,2.3C96.6,22.6,75.1,48.6,67.3,59.4
			c-14-16.6-29.8-27.8-30.6-28.3l-4-2.8l-2.3,4.3c-22.6,43.5-16.9,72.8-13.8,82.5c-7,5.1-10.1,11.1-10.3,11.3l-0.8,1.6l0.6,1.7
			c6.2,17.1,18.9,38.8,44.3,45.3c7.8,2,14.9,2.1,20,1.6c-1.7,5.3-3.3,11.4-4.5,18.1c-0.4,2.3,1.1,4.6,3.4,5c0.3,0.1,0.5,0.1,0.8,0.1
			c2,0,3.8-1.4,4.2-3.5c1.3-6.8,2.9-12.8,4.7-18.1c15,12.3,31.8,15.7,45.8,15.7c16.3,0,28.6-4.6,29.6-5l2.7-1l0-2.9
			c0.1-10.1-1.3-16.4-2.7-20.1c22.1-12.7,31.7-29.2,35.9-41C195.4,110.4,194.3,99.8,194.2,99.4z M146.8,159.6l-6,2.7l4.9,4
			c0.4,0.7,2.8,4.7,3,15.7c-9.5,2.8-41.7,10-66.4-12.2c4.5-10.9,8.8-16.9,8.9-17.1c1.4-1.9,1-4.6-0.9-6c-1.9-1.4-4.6-1-6,0.9
			c-0.3,0.4-5.4,7.4-10.4,20.2c-4,0.7-12,1.5-21.1-0.9c-17-4.4-29.6-17.1-37.7-38c1.4-2,4.3-5.6,9.1-8.4l3.3-2l-1.6-3.5
			c-0.1-0.3-12.3-27.9,10-73.9C42,46,54.3,56.3,64.3,69.2l3.9,5l3.2-5.5c0.1-0.1,5.1-8.6,16.2-20.1c9.6-9.9,25.5-24,48.5-36.3
			c3.8,14.9,13.8,58.9,7.6,85.4l-2.2,9.2l8.3-4.3c0.1-0.1,11.4-5.4,36.1,0.6C185.8,112.4,182.6,140.8,146.8,159.6L146.8,159.6z"/>
		
			<linearGradient id="SVGID_00000126305593183977003390000010583836884033698184_" gradientUnits="userSpaceOnUse" x1="5.63" y1="102" x2="194.3678" y2="102" gradientTransform="matrix(1 0 0 -1 0 202)">
			<stop  offset="0" style="stop-color:#BFCC60"/>
			<stop  offset="0.29" style="stop-color:#798D5C"/>
			<stop  offset="0.69" style="stop-color:#6B6052"/>
			<stop  offset="1" style="stop-color:#3D3535"/>
		</linearGradient>
		<path style="fill:url(#SVGID_00000126305593183977003390000010583836884033698184_);" d="M194.2,99.4l-0.3-2.9l-2.8-0.8
			c-12.6-3.4-23.9-4.6-33.6-3.6c-1.6,0.2-3,0.4-4.2,0.6C157.9,58.1,143.6,7.3,143,5l-1.4-5l-4.6,2.3C96.6,22.6,75.1,48.6,67.3,59.4
			c-14-16.6-29.8-27.8-30.6-28.3l-4-2.8l-2.3,4.3c-22.6,43.5-16.9,72.8-13.8,82.5c-7,5.1-10.1,11.1-10.3,11.3l-0.8,1.6l0.6,1.7
			c6.2,17.1,18.9,38.8,44.3,45.3c7.8,2,14.9,2.1,20,1.6c-1.7,5.3-3.3,11.4-4.5,18.1c-0.4,2.3,1.1,4.6,3.4,5c0.3,0.1,0.5,0.1,0.8,0.1
			c2,0,3.8-1.4,4.2-3.5c1.3-6.8,2.9-12.8,4.7-18.1c15,12.3,31.8,15.7,45.8,15.7c16.3,0,28.6-4.6,29.6-5l2.7-1l0-2.9
			c0.1-10.1-1.3-16.4-2.7-20.1c22.1-12.7,31.7-29.2,35.9-41C195.4,110.4,194.3,99.8,194.2,99.4z M146.8,159.6l-6,2.7l4.9,4
			c0.4,0.7,2.8,4.7,3,15.7c-9.5,2.8-41.7,10-66.4-12.2c4.5-10.9,8.8-16.9,8.9-17.1c1.4-1.9,1-4.6-0.9-6c-1.9-1.4-4.6-1-6,0.9
			c-0.3,0.4-5.4,7.4-10.4,20.2c-4,0.7-12,1.5-21.1-0.9c-17-4.4-29.6-17.1-37.7-38c1.4-2,4.3-5.6,9.1-8.4l3.3-2l-1.6-3.5
			c-0.1-0.3-12.3-27.9,10-73.9C42,46,54.3,56.3,64.3,69.2l3.9,5l3.2-5.5c0.1-0.1,5.1-8.6,16.2-20.1c9.6-9.9,25.5-24,48.5-36.3
			c3.8,14.9,13.8,58.9,7.6,85.4l-2.2,9.2l8.3-4.3c0.1-0.1,11.4-5.4,36.1,0.6C185.8,112.4,182.6,140.8,146.8,159.6L146.8,159.6z"/>
	</g>
	
		<linearGradient id="SVGID_00000152971820696916123360000008455895086805033609_" gradientUnits="userSpaceOnUse" x1="5.63" y1="94.1313" x2="194.37" y2="94.1313" gradientTransform="matrix(1 0 0 -1 0 202)">
		<stop  offset="0" style="stop-color:#BFCC60"/>
		<stop  offset="0.29" style="stop-color:#798D5C"/>
		<stop  offset="0.69" style="stop-color:#6B6052"/>
		<stop  offset="1" style="stop-color:#3D3535"/>
	</linearGradient>
	<path style="fill:url(#SVGID_00000152971820696916123360000008455895086805033609_);" d="M97.9,94.3c-2.4-1.2-2.8-3-3.3-5.9
		c-0.1-0.6-0.2-1.1-0.3-1.6c-0.8-3.7-4-7.9-10.5-7.8c-3.1,0-5.4,2.4-7.7,4.7c-1.1,1.1-2.3,2.3-3,2.7c-0.5,0.3-0.6,0.3-2.2-0.6
		c-1-0.6-2.3-1.2-4-1.6c-5-1-9.9,2-11.7,7.2c-0.4,1-1.3,1.8-2.3,2.3c-1,0.5-2,0.9-2.5,1l-0.2,0l-0.2,0.1c-5.6,1.8-9.5,5.7-10.5,10.3
		c-0.8,3.7,0.4,7.3,3.1,9.7c0.8,0.7,1.8,1.4,2.7,2.1c3.4,2.4,5.4,4.2,5.6,7.5c0.1,3.3,0.4,11,9,12c2.5,0.3,4.9-0.8,7-1.7
		c1.1-0.4,2.6-1.1,3.2-1.1c1.4,0.1,2.5,0.5,3.8,1c1.8,0.7,3.8,1.4,6.4,1.2c0.8-0.1,1.5-0.2,2.2-0.4c8.1-2.2,10-11.4,10.7-14.7
		c0.4-1.9,1.1-2.9,2.5-3.7c5.1-2.9,8.1-7.8,7.9-13.2C103.5,99.7,101.3,96,97.9,94.3L97.9,94.3z M92.4,111.4c-3.2,1.8-5,4.4-5.8,8.2
		c-1.3,6.5-3.4,9.4-6.9,9.7c-1,0.1-1.9-0.2-3.4-0.8c-1.5-0.6-3.5-1.3-5.9-1.4c-0.9,0-1.8,0.1-2.6,0.3c-1.2,0.3-2.4,0.8-3.6,1.3
		c-1.2,0.5-2.9,1.3-3.6,1.2c-2.1-0.2-2.9-0.8-3.1-5.6c-0.3-6.9-5.1-10.4-8.3-12.7c-0.8-0.6-1.6-1.1-2.2-1.6c-0.9-0.8-1.3-2-1-3.4
		c0.5-2.3,2.6-4.2,5.8-5.3c1.4-0.3,7.6-2,9.6-7.6c0.7-2,2.4-3.2,4.1-2.9c0.7,0.1,1.4,0.5,2.2,0.9c1.8,1,4.6,2.5,8.3,0.6
		c1.8-0.9,3.3-2.4,4.8-3.9c0.9-0.9,2.5-2.5,3.2-2.8c2.2,0,3.4,0.8,3.8,2.5c0.1,0.4,0.1,0.8,0.2,1.2c0.5,3,1.2,8.1,7,10.9
		c1.1,0.5,1.9,2.1,1.9,3.9C96.9,105.6,96.6,109.1,92.4,111.4L92.4,111.4z"/>
</g>
</svg>
