<?xml version="1.0" encoding="utf-8"?>
<!-- Generator: Adobe Illustrator 28.0.0, SVG Export Plug-In . SVG Version: 6.00 Build 0)  -->
<svg version="1.1" id="Pruebas" xmlns="http://www.w3.org/2000/svg" xmlns:xlink="http://www.w3.org/1999/xlink" x="0px" y="0px"
	 viewBox="0 0 200 200" style="enable-background:new 0 0 200 200;" xml:space="preserve">
<style type="text/css">
	.st0{fill:url(#SVGID_1_);}
</style>
<linearGradient id="SVGID_1_" gradientUnits="userSpaceOnUse" x1="17.8783" y1="101.9952" x2="182.1567" y2="101.9952" gradientTransform="matrix(1 0 0 -1 0 202)">
	<stop  offset="0" style="stop-color:#BFCC60"/>
	<stop  offset="0.29" style="stop-color:#798D5C"/>
	<stop  offset="0.69" style="stop-color:#6B6052"/>
	<stop  offset="1" style="stop-color:#3D3535"/>
</linearGradient>
<path class="st0" d="M177.7,74.3c-3.6-8.6-9.1-15.6-17.2-20.3c-0.8-0.5-1.4-1.3-1.9-2.1c-2.7-4.3-6-8-10.1-11
	c-8.2-6-17.1-7.8-26.9-5c-2.2,0.7-4.3,1.6-6.7,2.5c1.7-3.6,4.1-6.4,7-8.7c5.1-4.2,11.2-5.9,17.7-6.2c4.8-0.2,8.3-2.7,10.2-7.1
	c1.9-4.4,1.2-8.5-1.8-12.3c-0.9-1.1-1.9-1.9-3.1-2.6c-1.9-1.1-4.2-1.6-6.4-1.5c-2.6,0.1-5.2,0.2-5.9,0.3c-3.9,0.4-7.8,1.5-11.5,2.9
	c-16.5,6.5-27,18.4-31.5,35.6c-0.1,0.5-0.3,1.1-0.6,1.8c-0.6-0.3-1.2-0.5-1.7-0.8c-1.7-0.9-3.4-1.9-5.2-2.6
	c-9.8-4.1-19.2-3.6-28.3,2c-4.8,3-8.8,7-11.8,11.7c-1.1,1.7-2.3,3-4,4c-3.3,1.9-6.1,4.5-8.5,7.5c-10,12.4-13.1,26.6-10.9,42.1
	c0.9,6.4,2.3,12.6,3.7,18.9c3.1,14.8,7.1,29.3,12.9,43.3c3.5,8.4,7.7,16.5,13.7,23.5c4.3,4.9,9.4,8.3,16,9.3
	c6,0.9,11.8,0.9,17.4-1.8c2.2-1.1,4.2-2.5,6.4-3.8c8.9,4.6,17.4,4,25.3-2.1c2.8,1.8,5.2,3.8,7.9,5.3c7.7,4.2,15.3,4,22.7-0.9
	c4.7-3.1,8.2-7.4,11.3-12c5.1-7.6,8.8-15.8,11.8-24.3c6.4-17.6,10.8-35.8,13.8-54.3C183.1,94.8,182,84.4,177.7,74.3L177.7,74.3z
	 M126.5,42.9c6.7-1.2,12.6,0.7,17.9,4.8c0.8,0.6,1.4,1.3,2.4,2.1c-2.8,0.4-5.3,0.6-7.7,1.2c-5.2,1.1-9.9,3.6-14.3,6.5
	c-1.2,0.8-2.1,0.8-3.3,0.2c-2.5-1.2-5.2-2.2-7.8-2.9c-1.5-0.4-2-1.1-1.8-2.5c0.1-0.6-0.1-1.2,0.1-1.8c0.1-0.4,0.3-0.9,0.6-1.1
	C116.8,46.5,121.2,43.9,126.5,42.9L126.5,42.9z M130.6,8.7c2.6-0.6,5.3-0.7,7.9-0.8c2.4-0.1,4.2,1.6,4.2,3.7c0.1,2-1.5,3.6-3.9,3.9
	c-0.3,0-0.5,0-0.8,0c-4.1,0.1-8.2,0.8-12,2.4c-12.3,5.2-19.7,14.4-22,27.7c-0.2,1.2-0.3,2.5-0.4,3.7c-0.1,1.2,0,2.3,0,3.7h-7.4
	c-0.1-0.4-0.2-0.8-0.2-1.1C96,30.3,110.4,13,130.6,8.7L130.6,8.7z M79.2,44.7c2.6,1.2,5,2.8,7.5,4.1c1.1,0.6,1.6,1.3,1.5,2.6
	c-0.1,0.9,0,1.8,0,2.5c-3.9,1.5-7.7,2.9-11.5,4.3c-11.7-7.2-15.2-7.7-23.3-8.3C60.3,42.6,69.9,40.4,79.2,44.7L79.2,44.7z
	 M75.2,191.6c-8.9,1.4-16.4-1.1-22-8.5c-4-5.4-7.2-11.3-9.8-17.4c-5.5-12.9-9.4-26.3-12.4-39.9c-1.7-7.5-3.4-15.1-4.5-22.7
	c-1.8-12.9,0.6-24.9,9-35.2c5.1-6.3,11.7-9.9,20-9.5c5.2,0.3,9.6,2.5,14.1,5.2c-1.4,1.7-2.7,3.2-3.8,4.8c-4.3,6.2-5.7,13.2-5.2,20.6
	c0.4,6.3,0.8,12.6,1.4,18.9c0.8,8,1.5,15.9,2.6,23.8c1.1,8.1,2.4,16.2,4,24.2c1.8,9.1,4.4,17.9,9,26.1c1.3,2.2,2.8,4.4,4.3,6.6
	C80,190.2,77.7,191.2,75.2,191.6L75.2,191.6z M172.2,111.3c-2.4,11.9-5,23.8-8.6,35.4c-3,9.6-6.5,19.1-11.4,27.9
	c-2.7,4.9-5.7,9.5-10,13.1c-1.4,1.2-3.1,2.2-4.7,3c-2.7,1.4-5.6,1.4-8.5,0.5c-3.6-1.1-6.6-3.2-9.5-5.7c0.9-1.4,1.7-2.8,2.4-4.1
	c0.9-1.6,1.7-3.3,2.5-5c0.9-2.1-0.1-4.5-2.2-5.3l-0.1,0c-2-0.8-4.2,0.2-5.1,2.1c-1,2.3-2.2,4.5-3.6,6.6c-2.3,3.6-5,6.7-9.1,8.2
	c-5.4,1.9-10.3,0.7-14.4-3.2c-4.3-3.9-6.7-9.1-8.7-14.4c-3.5-9.2-5.6-18.8-7-28.5c-1.1-7.4-2.2-14.8-3-22.2
	c-0.7-6.5-1.2-12.9-1.7-19.4c-0.3-4.2-0.6-8.4-0.8-12.7c-0.3-5.6,0.8-10.9,4.2-15.5c2.6-3.4,5.8-6,9.7-7.6c11.6-4.9,23.2-4.9,34.7,0
	c8.8,3.7,14.2,12.7,13.8,22.3c0,0.7-0.1,1.3-0.1,2c-0.1,2.4,1.8,4.3,4.1,4.3c0,0,0.1,0,0.1,0c2.1,0,3.9-1.7,4-3.8c0-0.2,0-0.5,0-0.7
	c0.5-9.2-1.8-17.4-8.3-24.1c-0.2-0.2-0.4-0.5-0.7-0.9c4.5-2.9,9.1-5,14.3-5.3c7.4-0.4,13.2,2.7,18.2,7.9c5.9,6.2,9,13.8,10.5,22.2
	C174.7,96.1,173.7,103.7,172.2,111.3L172.2,111.3z M154.3,118.2c-2.4-1.2-2.8-3-3.2-5.8c-0.1-0.6-0.2-1.1-0.3-1.6
	c-0.8-3.6-3.9-7.8-10.4-7.7c-3,0-5.4,2.4-7.6,4.7c-1.1,1.1-2.2,2.3-3,2.6c-0.5,0.2-0.6,0.3-2.2-0.5c-1-0.5-2.3-1.2-3.9-1.6
	c-4.9-1-9.8,2-11.5,7.1c-0.3,1-1.3,1.8-2.2,2.3c-1,0.5-2,0.8-2.5,1l-0.2,0l-0.2,0.1c-5.5,1.8-9.3,5.6-10.3,10.2
	c-0.8,3.6,0.4,7.2,3.1,9.6c0.8,0.7,1.7,1.4,2.6,2c3.3,2.4,5.4,4.1,5.5,7.4c0.1,3.3,0.4,10.9,8.9,11.9c2.4,0.3,4.8-0.8,6.9-1.7
	c1-0.4,2.6-1.1,3.2-1.1c1.4,0.1,2.5,0.5,3.8,1c1.8,0.6,3.7,1.4,6.3,1.1c0.8-0.1,1.5-0.2,2.1-0.4c8-2.1,9.9-11.3,10.5-14.4
	c0.4-1.9,1-2.8,2.5-3.6c5.1-2.8,8-7.7,7.8-12.9C159.8,123.6,157.6,119.9,154.3,118.2L154.3,118.2z M148.9,135
	c-3.1,1.8-4.9,4.3-5.7,8.1c-1.3,6.4-3.4,9.3-6.8,9.6c-1,0.1-1.9-0.2-3.4-0.8c-1.5-0.6-3.4-1.3-5.8-1.4c-0.9,0-1.7,0.1-2.6,0.3
	c-1.2,0.3-2.3,0.8-3.5,1.3s-2.9,1.2-3.5,1.2c-2-0.2-2.9-0.8-3.1-5.6c-0.2-6.8-5-10.2-8.2-12.5c-0.8-0.6-1.5-1.1-2.1-1.6
	c-0.9-0.8-1.3-2-1-3.3c0.5-2.2,2.6-4.2,5.7-5.2c1.4-0.3,7.5-2,9.4-7.5c0.7-2,2.3-3.2,4-2.8c0.7,0.1,1.4,0.5,2.2,0.9
	c1.8,1,4.6,2.4,8.2,0.6c1.7-0.8,3.3-2.4,4.7-3.9c0.9-0.9,2.5-2.5,3.1-2.7c2.1,0,3.4,0.8,3.7,2.4c0.1,0.4,0.1,0.8,0.2,1.2
	c0.5,3,1.2,8,6.9,10.7c1.1,0.5,1.9,2.1,1.9,3.8C153.3,129.3,153,132.7,148.9,135L148.9,135z"/>
</svg>
