<?xml version="1.0" encoding="UTF-8"?>
<svg id="Capa_1" data-name="Capa 1" xmlns="http://www.w3.org/2000/svg" xmlns:xlink="http://www.w3.org/1999/xlink" viewBox="0 0 200 200">
  <defs>
    <style>
      .cls-1 {
        fill: url(#Degradado_sin_nombre_5);
        stroke-width: 0px;
      }
    </style>
    <linearGradient id="Degradado_sin_nombre_5" data-name="Degradado sin nombre 5" x1="22.02" y1="192.8" x2="177.7" y2="45.85" gradientUnits="userSpaceOnUse">
      <stop offset="0" stop-color="#d5c11a"/>
      <stop offset="1" stop-color="#ad581e"/>
    </linearGradient>
  </defs>
  <g id="Trazado_1072" data-name="Trazado 1072">
    <path class="cls-1" d="m189.6,115.07h-29.98v-23.16c0-1.6-.1-3.11-.2-4.61,12.84-11.53,13.94-27.28,13.94-43.62,0-2.51-2.01-4.51-4.51-4.51s-4.51,2.01-4.51,4.51c0,15.04-1.2,25.17-7.12,32.89-3.21-9.43-9.93-17.35-18.85-22.06.3-1.3.4-2.61.5-4.01,0-12.13-5.72-23.56-15.34-30.88.1-2.81,1.2-5.41,3.21-7.42l4.11-4.11c1.8-1.8,1.8-4.61,0-6.42s-4.61-1.8-6.42,0l-4.21,4.01c-2.51,2.51-4.21,5.62-5.21,8.92-4.81-2.01-10.03-3.11-15.34-3.11-4.91,0-9.83,1-14.34,2.81-.9-3.31-2.71-6.32-5.11-8.72l-4.31-4.21c-1.8-1.8-4.61-1.8-6.42,0-1.8,1.8-1.8,4.61,0,6.42l4.11,4.11c1.8,1.91,2.91,4.31,3.11,6.92-10.03,7.42-16.04,19.25-16.04,31.79.1,1.5.3,3.01.6,4.41-8.32,4.71-14.84,12.13-18.55,21.16-6.22-7.52-7.52-17.25-7.52-32.59.1-2.51-1.8-4.61-4.31-4.71-2.51-.1-4.61,1.8-4.71,4.31v.3c0,16.55,1.1,31.39,14.14,42.92-.2,1.8-.3,3.61-.3,5.41v23.26H9.71c-2.51.2-4.41,2.31-4.21,4.81.2,2.41,2.21,4.21,4.51,4.21h30.08v9.23c0,8.22,1.7,16.24,5.01,23.87-12.03,9.02-19.15,23.36-18.85,38.31,0,2.51,2.01,4.51,4.51,4.51h0c2.51,0,4.51-2.01,4.51-4.51-.3-11.73,4.91-22.96,14.14-30.18,10.93,17.15,29.98,27.68,50.34,27.78h.1c20.46,0,39.41-10.43,50.34-27.78,9.23,7.22,14.44,18.45,14.14,30.18,0,2.51,2.01,4.51,4.51,4.51h0c2.51,0,4.51-2.01,4.51-4.51.3-15.04-6.72-29.38-18.85-38.31,3.31-7.52,5.01-15.64,5.01-23.87v-9.23h30.68c2.51-.1,4.41-2.21,4.31-4.71-.1-2.41-2.11-4.41-4.51-4.31h-.4ZM69.77,50.39c0-16.55,13.34-30.08,29.98-30.08s30.08,13.34,30.08,29.98v.3c-9.63-3.21-19.85-4.71-29.98-4.51-10.23-.2-20.36,1.5-29.98,5.01,0-.4-.1-.5-.1-.7h0Zm34.6,133.47v-99.77c0-2.51-2.01-4.51-4.51-4.51s-4.51,2.01-4.51,4.51v99.77c-16.95-1.5-32.19-11.43-40.21-26.57-.1-.6-.4-1.2-.8-1.7-3.41-6.92-5.21-14.44-5.21-22.26v-12.53c.1-.4.2-.8.2-1.3,0-.3-.1-.7-.2-1v-26.47c0-27.28,26.27-36.9,50.64-36.9s50.64,6.42,50.64,36.9v41.41c0,7.62-1.7,15.14-5.11,22.16,0,.1-.1.1-.1.1-.4.5-.7,1.2-.8,1.8-8.02,14.94-23.06,24.87-40.01,26.37h0Z"/>
  </g>
</svg>