<?xml version="1.0" encoding="UTF-8"?>
<svg id="Pruebas" xmlns="http://www.w3.org/2000/svg" xmlns:xlink="http://www.w3.org/1999/xlink" viewBox="0 0 200 200">
  <defs>
    <style>
      .cls-1 {
        fill: url(#Degradado_sin_nombre_31);
      }

      .cls-1, .cls-2 {
        stroke-width: 0px;
      }

      .cls-2 {
        fill: none;
      }

      .cls-3 {
        clip-path: url(#clippath-1);
      }
    </style>
    <linearGradient id="Degradado_sin_nombre_31" data-name="Degradado sin nombre 31" x1="100" y1="0" x2="100" y2="200" gradientUnits="userSpaceOnUse">
      <stop offset="0" stop-color="#60c5f1"/>
      <stop offset=".23" stop-color="#47b5e7"/>
      <stop offset=".75" stop-color="#1495d3"/>
      <stop offset="1" stop-color="#0089cb"/>
    </linearGradient>
    <clipPath id="clippath-1">
      <path class="cls-2" d="m146.19,123.82c16.44,0,29.82,13.38,29.82,29.82s-13.38,29.82-29.82,29.82-29.82-13.38-29.82-29.82,13.38-29.82,29.82-29.82m0-6.83c-20.24,0-36.64,16.41-36.64,36.64s16.41,36.64,36.64,36.64,36.64-16.41,36.64-36.64-16.41-36.64-36.64-36.64h0Z"/>
    </clipPath>
  </defs>
  <g>
    <path class="cls-1" d="m179.63,87.28c-2.16-19.85-21.71-33.58-41.08-28.86-3.92.95-7.63,2.77-11.62,4.27-3.58-5.47-8.66-9.77-15.14-12.69.72-1.76,1.34-3.42,2.09-5.02,5.1-10.83,12.77-19.38,23.06-25.51,3.36-2,5.51-4.75,5.71-8.7.2-4-1.47-7.24-4.94-9.34-3.31-2-7.5-1.82-10.82.15-11.09,6.57-20.08,15.31-26.99,26.2-.37.58-.75,1.17-1.35,2.07-.34-1.07-.54-1.74-.76-2.39-2.83-8.22-7.82-14.52-16.11-17.75-9.28-3.6-18.86-3.65-28.51-2-2.91.49-4.78,2.82-5.13,5.83-.69,5.89-.48,11.74.46,17.59,2.36,14.54,10.24,22.9,24.56,26.04.34.07.66.25,1.05.41-1.5,1.91-2.88,3.66-4.3,5.47-.68-.38-1.31-.72-1.93-1.08-6.67-3.79-13.83-5.18-21.41-4.18-14.02,1.87-25.6,12.6-28.52,26.24-3.03,14.18,2.86,28.39,15.07,36.02,1.51.95,1.81,1.81,1.56,3.43-2.74,18.14,8.54,34.51,26.43,38.47,1.21.27,2.42.49,3.65.74,0,.62.01,1.08,0,1.53-.36,14.21,5.62,24.92,18.02,31.79,3.28,1.82,6.38,2.78,10.47,3.57.47.13,1.12.16,1.62.21,1.78.17,2.56.2,4.54.21.66,0,.81-.05,1.83-.1,1.61-.09,1.19-.06,3.09-.36,6.42-1.17,12.18-3.91,16.84-8.07-2-1.32-3.89-2.81-5.64-4.43-4.39,3.54-9.94,5.73-16.07,5.96-15.73.57-28.81-13.03-27.73-28.8.07-1.08.37-1.72,1.53-1.9,11.26-1.82,19.51-7.9,25.04-17.8.06-.1.17-.18.47-.47.74,1.41,1.56,2.75,2.43,4,.44-3.57,1.3-7.02,2.53-10.29-2.41-6.83-2.05-14.58,1.5-21.39.68-1.31,1.57-2.04,3.01-2.54,3.1-1.08,6.1-2.45,9.32-3.79,1.59,1.9,3.12,3.61,4.63,5.12,2-1.26,4.11-2.36,6.32-3.3-2.15-1.86-4.02-4.12-5.51-6.72,9.41-10.41,11.85-22.27,7.63-35.54,9.78-7.71,27.28-7.26,37.05,5.74,8.53,11.35,6.57,27.35-3.8,36.43,2.24.95,4.4,2.06,6.44,3.33,7.37-7.27,10.64-16.55,9.42-27.81Zm-79.83-43.71c6.04-15.35,16.13-27.28,30.27-35.78,1.34-.79,2.67-1.21,4.08-.34,2.2,1.34,2.04,4.12-.29,5.7-2.72,1.86-5.55,3.59-8.12,5.65-9.06,7.25-15.7,16.35-19.84,27.2-.6,1.59-1.36,1.98-2.9,1.67-1.4-.27-2.84-.32-4.51-.49.46-1.3.85-2.47,1.3-3.62Zm-28.37,5.97c-9.88-2.69-14.5-9.92-15.93-19.42-.69-4.66-.43-9.47-.61-14.21-.03-.99.29-1.6,1.42-1.72,6.01-.64,12-.85,17.95.47,10.07,2.21,16.02,8.47,17.88,18.79.4,2.27.58,4.58.84,6.87.04.36-.04.73-.08,1.48-.65-.75-1.08-1.22-1.48-1.7-6.41-7.84-14.15-14.03-23.2-18.57-.58-.29-1.18-.58-1.79-.83-2.14-.89-4-.28-4.89,1.56-.84,1.76-.18,3.54,1.76,4.66,2.34,1.35,4.77,2.58,7.06,3.99,6.3,3.89,11.94,8.52,16.38,14.51.7.95,1.33,1.96,2.08,3.08-3.3,1.76-6.51,3.08-10.21,2.41-2.4-.43-4.84-.74-7.18-1.38Zm-46.37,48.64c-2.9-10.94,1.69-22.95,11.16-29.16,9.38-6.15,22.24-5.96,30.41.52-4.23,13.31-1.79,25.1,7.5,35.44-3.16,7.94-14.61,14.07-25.05,13.41-11.23-.69-21.02-8.93-24.02-20.22Zm47.33,57.26c-13.82,2-27.81-6.78-30.67-21.29-.62-3.17-.44-6.5-.65-10.03,16.54,3.65,29.19-1.18,38.57-14,3.61,1.4,7.17,2.75,10.7,4.18.48.2.87.76,1.18,1.25,9.54,15.62-1.01,37.27-19.13,39.9Zm26.11-47.21c-14.96-.01-26.87-12-26.86-27.05,0-14.75,12.19-26.92,26.92-26.87,14.93.04,26.98,12.12,26.96,27.04-.02,14.97-11.99,26.89-27.02,26.88Z"/>
    <path class="cls-1" d="m78.23,80.22c.32-10.28,9.23-19.11,19.49-19.33,2.57-.06,4.23,1.22,4.34,3.32.11,2-1.33,3.36-3.84,3.64-7.96.89-12.44,5.45-13.08,13.34-.18,2.21-1.72,3.71-3.69,3.6-2.17-.12-3.31-1.74-3.23-4.57Z"/>
    <path class="cls-1" d="m30.7,90.81c.2-10.62,9.35-19.64,19.97-19.7,2.36-.01,3.84,1.21,3.93,3.26.09,2.11-1.35,3.53-3.77,3.7-7.42.51-12.3,5.26-13.02,12.68-.02.2-.03.4-.06.59-.33,2.34-1.73,3.72-3.69,3.61-2.04-.11-3.39-1.78-3.35-4.14Z"/>
  </g>
  <g>
    <g class="cls-3">
      <rect class="cls-1" x="109.54" y="116.99" width="73.29" height="1.5"/>
      <rect class="cls-1" x="109.54" y="118.49" width="73.29" height="1.5"/>
      <rect class="cls-1" x="109.54" y="119.98" width="73.29" height="1.5"/>
      <rect class="cls-1" x="109.54" y="121.48" width="73.29" height="1.5"/>
      <rect class="cls-1" x="109.54" y="122.97" width="73.29" height="1.5"/>
      <rect class="cls-1" x="109.54" y="124.47" width="73.29" height="1.5"/>
      <rect class="cls-1" x="109.54" y="125.97" width="73.29" height="1.5"/>
      <rect class="cls-1" x="109.54" y="127.46" width="73.29" height="1.5"/>
      <rect class="cls-1" x="109.54" y="128.96" width="73.29" height="1.5"/>
      <rect class="cls-1" x="109.54" y="130.45" width="73.29" height="1.5"/>
      <rect class="cls-1" x="109.54" y="131.95" width="73.29" height="1.5"/>
      <rect class="cls-1" x="109.54" y="133.44" width="73.29" height="1.5"/>
      <rect class="cls-1" x="109.54" y="134.94" width="73.29" height="1.5"/>
      <rect class="cls-1" x="109.54" y="136.44" width="73.29" height="1.5"/>
      <rect class="cls-1" x="109.54" y="137.93" width="73.29" height="1.5"/>
      <rect class="cls-1" x="109.54" y="139.43" width="73.29" height="1.5"/>
      <rect class="cls-1" x="109.54" y="140.92" width="73.29" height="1.5"/>
      <rect class="cls-1" x="109.54" y="142.42" width="73.29" height="1.5"/>
      <rect class="cls-1" x="109.54" y="143.91" width="73.29" height="1.5"/>
      <rect class="cls-1" x="109.54" y="145.41" width="73.29" height="1.5"/>
      <rect class="cls-1" x="109.54" y="146.91" width="73.29" height="1.5"/>
      <rect class="cls-1" x="109.54" y="148.4" width="73.29" height="1.5"/>
      <rect class="cls-1" x="109.54" y="149.9" width="73.29" height="1.5"/>
      <rect class="cls-1" x="109.54" y="151.39" width="73.29" height="1.5"/>
      <rect class="cls-1" x="109.54" y="152.89" width="73.29" height="1.5"/>
      <rect class="cls-1" x="109.54" y="154.38" width="73.29" height="1.5"/>
      <rect class="cls-1" x="109.54" y="155.88" width="73.29" height="1.5"/>
      <rect class="cls-1" x="109.54" y="157.38" width="73.29" height="1.5"/>
      <rect class="cls-1" x="109.54" y="158.87" width="73.29" height="1.5"/>
      <rect class="cls-1" x="109.54" y="160.37" width="73.29" height="1.5"/>
      <rect class="cls-1" x="109.54" y="161.86" width="73.29" height="1.5"/>
      <rect class="cls-1" x="109.54" y="163.36" width="73.29" height="1.5"/>
      <rect class="cls-1" x="109.54" y="164.85" width="73.29" height="1.5"/>
      <rect class="cls-1" x="109.54" y="166.35" width="73.29" height="1.5"/>
      <rect class="cls-1" x="109.54" y="167.85" width="73.29" height="1.5"/>
      <rect class="cls-1" x="109.54" y="169.34" width="73.29" height="1.5"/>
      <rect class="cls-1" x="109.54" y="170.84" width="73.29" height="1.5"/>
      <rect class="cls-1" x="109.54" y="172.33" width="73.29" height="1.5"/>
      <rect class="cls-1" x="109.54" y="173.83" width="73.29" height="1.5"/>
      <rect class="cls-1" x="109.54" y="175.32" width="73.29" height="1.5"/>
      <rect class="cls-1" x="109.54" y="176.82" width="73.29" height="1.5"/>
      <rect class="cls-1" x="109.54" y="178.32" width="73.29" height="1.5"/>
      <rect class="cls-1" x="109.54" y="179.81" width="73.29" height="1.5"/>
      <rect class="cls-1" x="109.54" y="181.31" width="73.29" height="1.5"/>
      <rect class="cls-1" x="109.54" y="182.8" width="73.29" height="1.5"/>
      <rect class="cls-1" x="109.54" y="184.3" width="73.29" height="1.5"/>
      <rect class="cls-1" x="109.54" y="185.79" width="73.29" height="1.5"/>
      <rect class="cls-1" x="109.54" y="187.29" width="73.29" height="1.5"/>
      <rect class="cls-1" x="109.54" y="188.79" width="73.29" height="1.5"/>
      <rect class="cls-1" x="116.37" y="123.82" width="59.63" height=".65"/>
      <rect class="cls-1" x="116.37" y="124.47" width="59.63" height="1.5"/>
      <rect class="cls-1" x="116.37" y="125.97" width="59.63" height="1.5"/>
      <rect class="cls-1" x="116.37" y="127.46" width="59.63" height="1.5"/>
      <rect class="cls-1" x="116.37" y="128.96" width="59.63" height="1.5"/>
      <rect class="cls-1" x="116.37" y="130.45" width="59.63" height="1.5"/>
      <rect class="cls-1" x="116.37" y="131.95" width="59.63" height="1.5"/>
      <rect class="cls-1" x="116.37" y="133.44" width="59.63" height="1.5"/>
      <rect class="cls-1" x="116.37" y="134.94" width="59.63" height="1.5"/>
      <rect class="cls-1" x="116.37" y="136.44" width="59.63" height="1.5"/>
      <rect class="cls-1" x="116.37" y="137.93" width="59.63" height="1.5"/>
      <rect class="cls-1" x="116.37" y="139.43" width="59.63" height="1.5"/>
      <rect class="cls-1" x="116.37" y="140.92" width="59.63" height="1.5"/>
      <rect class="cls-1" x="116.37" y="142.42" width="59.63" height="1.5"/>
      <rect class="cls-1" x="116.37" y="143.91" width="59.63" height="1.5"/>
      <rect class="cls-1" x="116.37" y="145.41" width="59.63" height="1.5"/>
      <rect class="cls-1" x="116.37" y="146.91" width="59.63" height="1.5"/>
      <rect class="cls-1" x="116.37" y="148.4" width="59.63" height="1.5"/>
      <rect class="cls-1" x="116.37" y="149.9" width="59.63" height="1.5"/>
      <rect class="cls-1" x="116.37" y="151.39" width="59.63" height="1.5"/>
      <rect class="cls-1" x="116.37" y="152.89" width="59.63" height="1.5"/>
      <rect class="cls-1" x="116.37" y="154.38" width="59.63" height="1.5"/>
      <rect class="cls-1" x="116.37" y="155.88" width="59.63" height="1.5"/>
      <rect class="cls-1" x="116.37" y="157.38" width="59.63" height="1.5"/>
      <rect class="cls-1" x="116.37" y="158.87" width="59.63" height="1.5"/>
      <rect class="cls-1" x="116.37" y="160.37" width="59.63" height="1.5"/>
      <rect class="cls-1" x="116.37" y="161.86" width="59.63" height="1.5"/>
      <rect class="cls-1" x="116.37" y="163.36" width="59.63" height="1.5"/>
      <rect class="cls-1" x="116.37" y="164.85" width="59.63" height="1.5"/>
      <rect class="cls-1" x="116.37" y="166.35" width="59.63" height="1.5"/>
      <rect class="cls-1" x="116.37" y="167.85" width="59.63" height="1.5"/>
      <rect class="cls-1" x="116.37" y="169.34" width="59.63" height="1.5"/>
      <rect class="cls-1" x="116.37" y="170.84" width="59.63" height="1.5"/>
      <rect class="cls-1" x="116.37" y="172.33" width="59.63" height="1.5"/>
      <rect class="cls-1" x="116.37" y="173.83" width="59.63" height="1.5"/>
      <rect class="cls-1" x="116.37" y="175.32" width="59.63" height="1.5"/>
      <rect class="cls-1" x="116.37" y="176.82" width="59.63" height="1.5"/>
      <rect class="cls-1" x="116.37" y="178.32" width="59.63" height="1.5"/>
      <rect class="cls-1" x="116.37" y="179.81" width="59.63" height="1.5"/>
      <rect class="cls-1" x="116.37" y="181.31" width="59.63" height="1.5"/>
      <rect class="cls-1" x="116.37" y="182.8" width="59.63" height=".65"/>
    </g>
    <path class="cls-1" d="m148.7,137.05s-.09-.11-.22-.27c-.57-.68-1.48-.91-2.32-.91-.78.01-1.53.3-2.11.83l-.05.05-.05.05-.04.04-.05.05-.08.08-.07.09-.04.04c-.92,1.11-3.29,4.04-5.57,7.41-3.77,5.58-5.6,9.8-5.6,12.9-.06,3.65,1.34,7.15,3.92,9.81,2.57,2.64,6.02,4.13,9.73,4.19h.04s.04,0,.04,0c3.7-.06,7.16-1.54,9.73-4.19,2.58-2.65,3.97-6.14,3.92-9.82,0-2.12-1.1-8.29-11.17-20.34Zm4.66,20.36c.05,4.04-3.16,7.35-7.16,7.42-4.01-.08-7.22-3.38-7.16-7.39,0-2.22,2.86-7.35,7.16-13.02.76,1,1.64,2.2,2.53,3.51,4.3,6.32,4.63,8.85,4.63,9.48Z"/>
  </g>
</svg>