<?xml version="1.0" encoding="UTF-8"?>
<svg id="Capa_1" data-name="Capa 1" xmlns="http://www.w3.org/2000/svg" xmlns:xlink="http://www.w3.org/1999/xlink" viewBox="0 0 200 200">
  <defs>
    <style>
      .cls-1 {
        fill: url(#Degradado_sin_nombre_31);
        stroke-width: 0px;
      }
    </style>
    <linearGradient id="Degradado_sin_nombre_31" data-name="Degradado sin nombre 31" x1="100" y1=".07" x2="100" y2="199.93" gradientUnits="userSpaceOnUse">
      <stop offset="0" stop-color="#60c5f1"/>
      <stop offset=".23" stop-color="#47b5e7"/>
      <stop offset=".75" stop-color="#1495d3"/>
      <stop offset="1" stop-color="#0089cb"/>
    </linearGradient>
  </defs>
  <path class="cls-1" d="m156.26,44.28c-1.61,0-3.21.09-4.78.26C147.77,19.37,126.1.07,99.91.07s-47.85,19.29-51.57,44.44c-1.51-.16-3.06-.24-4.61-.24C19.58,44.28,0,63.86,0,88.02s19.58,43.74,43.74,43.74h112.52c24.16,0,43.74-19.58,43.74-43.74s-19.58-43.74-43.74-43.74Zm-.67,79.47H44.41c-19.51,0-35.93-15.37-36.39-34.87-.47-20.09,15.73-36.59,35.72-36.59.72,0,6.91.07,10.13.1,1.08.01,1.96-.83,2.01-1.9.07-1.41.18-3.27.34-4.4,2.98-21.45,21.44-38,43.69-38s40.74,16.58,43.69,38.05c.16,1.11.27,2.95.34,4.35.05,1.07.94,1.91,2.01,1.9,3.26-.03,9.58-.1,10.3-.1,19.99,0,36.19,16.49,35.72,36.59-.46,19.51-16.88,34.87-36.39,34.87Z"/>
  <path class="cls-1" d="m41.28,145.08c-2.06-1.4-4.86-.87-6.26,1.19l-8.33,12.24c-1.4,2.06-.87,4.86,1.19,6.26.74.5,1.57.75,2.4.78,1.49.04,2.96-.65,3.86-1.97l8.33-12.24c1.4-2.06.87-4.86-1.19-6.26Z"/>
  <path class="cls-1" d="m38.01,179.45c-2.06-1.4-4.86-.87-6.26,1.19l-8.33,12.24c-1.4,2.06-.87,4.86,1.19,6.26.74.5,1.57.75,2.4.78,1.49.04,2.96-.65,3.86-1.97l8.33-12.24c1.4-2.06.87-4.86-1.19-6.26Z"/>
  <path class="cls-1" d="m66.11,157.42c-2.06-1.4-4.86-.87-6.26,1.19l-8.33,12.24c-1.4,2.06-.87,4.86,1.19,6.26.74.5,1.57.75,2.4.78,1.49.04,2.96-.65,3.86-1.97l8.33-12.24c1.4-2.06.87-4.86-1.19-6.26Z"/>
  <path class="cls-1" d="m94.15,179.45c-2.06-1.4-4.86-.87-6.26,1.19l-8.33,12.24c-1.4,2.06-.87,4.86,1.19,6.26.74.5,1.57.75,2.4.78,1.49.04,2.96-.65,3.86-1.97l8.33-12.24c1.4-2.06.87-4.86-1.19-6.26Z"/>
  <path class="cls-1" d="m97.37,145.08c-2.06-1.4-4.86-.87-6.26,1.19l-8.33,12.24c-1.4,2.06-.87,4.86,1.19,6.26.74.5,1.57.75,2.4.78,1.49.04,2.96-.65,3.86-1.97l8.33-12.24c1.4-2.06.87-4.86-1.19-6.26Z"/>
  <path class="cls-1" d="m122.14,157.42c-2.06-1.4-4.86-.87-6.26,1.19l-8.33,12.24c-1.4,2.06-.87,4.86,1.19,6.26.74.5,1.57.75,2.4.78,1.49.04,2.96-.65,3.86-1.97l8.33-12.24c1.4-2.06.87-4.86-1.19-6.26Z"/>
  <path class="cls-1" d="m150.28,179.45c-2.06-1.4-4.86-.87-6.26,1.19l-8.33,12.24c-1.4,2.06-.87,4.86,1.19,6.26.74.5,1.57.75,2.4.78,1.49.04,2.96-.65,3.86-1.97l8.33-12.24c1.4-2.06.87-4.86-1.19-6.26Z"/>
  <path class="cls-1" d="m153.45,145.08c-2.06-1.4-4.86-.87-6.26,1.19l-8.33,12.24c-1.4,2.06-.87,4.86,1.19,6.26.74.5,1.57.75,2.4.78,1.49.04,2.96-.65,3.86-1.97l8.33-12.24c1.4-2.06.87-4.86-1.19-6.26Z"/>
</svg>