<?xml version="1.0" encoding="utf-8"?>
<!-- Generator: Adobe Illustrator 28.0.0, SVG Export Plug-In . SVG Version: 6.00 Build 0)  -->
<svg version="1.1" id="Capa_1" xmlns="http://www.w3.org/2000/svg" xmlns:xlink="http://www.w3.org/1999/xlink" x="0px" y="0px"
	 viewBox="0 0 200 200" style="enable-background:new 0 0 200 200;" xml:space="preserve">
<style type="text/css">
	.st0{fill:url(#_Compound_Path_-2_00000124861334233854060570000000319511962785316233_);}
	.st1{fill:url(#_Compound_Path_2-2_00000173855038413677255610000007263463269413795200_);}
	.st2{fill:url(#_Path_-2_00000079463145274563555300000015450324829355821987_);}
	.st3{fill:url(#_Path_2-2_00000021099944508529551710000004956432955692625817_);}
	.st4{fill:url(#_Path_3-2_00000157291487958753097230000018039647986468042391_);}
	.st5{fill:url(#_Path_4-2_00000117670437614549779230000003162190859251124669_);}
	.st6{fill:url(#_Path_5-2_00000065052325500659906850000007251631565947782069_);}
	.st7{fill:url(#_Path_6-2_00000090980910815461894560000013223211975870018971_);}
	.st8{fill:url(#_Path_7-2_00000038383742369099983460000012634649721799497125_);}
</style>
<g>
	
		<linearGradient id="_Compound_Path_-2_00000152942885721204059790000004518785626260888482_" gradientUnits="userSpaceOnUse" x1="100" y1="202" x2="100" y2="2" gradientTransform="matrix(1 0 0 -1 0 202)">
		<stop  offset="0" style="stop-color:#60C5F1"/>
		<stop  offset="0.23" style="stop-color:#47B5E7"/>
		<stop  offset="0.75" style="stop-color:#1495D3"/>
		<stop  offset="1" style="stop-color:#0089CB"/>
	</linearGradient>
	<path id="_Compound_Path_-2" style="fill:url(#_Compound_Path_-2_00000152942885721204059790000004518785626260888482_);" d="
		M100,0C44.8,0,0,44.8,0,100s44.8,100,100,100s100-44.8,100-100C199.9,44.8,155.2,0.1,100,0z M100,191.6
		c-41-0.1-76.9-27.2-88.1-66.6h59.3c6.9,10.5,17.5,16.6,28.9,16.6S122,135.4,129,125h59.3C177,164.3,141,191.6,100,191.6z
		 M190.1,116.6h-63.5c-1.5,0-2.8,0.8-3.6,2.1c-5.3,9.1-13.9,14.6-22.9,14.6s-17.6-5.4-22.9-14.6c-0.7-1.3-2.1-2.1-3.6-2.1H9.9
		C0.7,66.9,33.5,19,83.3,9.8s97.6,23.5,106.8,73.3C192.2,94.2,192.2,105.6,190.1,116.6L190.1,116.6L190.1,116.6z"/>
	
		<linearGradient id="_Compound_Path_2-2_00000131345787438465656800000007299790898629596804_" gradientUnits="userSpaceOnUse" x1="110.1468" y1="202" x2="110.1468" y2="2" gradientTransform="matrix(1 0 0 -1 0 202)">
		<stop  offset="0" style="stop-color:#60C5F1"/>
		<stop  offset="0.23" style="stop-color:#47B5E7"/>
		<stop  offset="0.75" style="stop-color:#1495D3"/>
		<stop  offset="1" style="stop-color:#0089CB"/>
	</linearGradient>
	<path id="_Compound_Path_2-2" style="fill:url(#_Compound_Path_2-2_00000131345787438465656800000007299790898629596804_);" d="
		M130.4,59.6l-24.8,24.7c-1.8-0.7-3.7-1-5.6-1c-9.3-0.1-16.9,7.3-17,16.6s7.3,16.9,16.6,17s16.9-7.3,17-16.6c0-4.1-1.4-8.1-4.1-11.2
		l23.7-23.8c1.5-1.7,1.4-4.3-0.3-5.9C134.4,58.1,132,58.1,130.4,59.6L130.4,59.6L130.4,59.6z M100,108.3c-4.6,0-8.3-3.7-8.3-8.3
		s3.7-8.3,8.3-8.3s8.3,3.7,8.3,8.3S104.6,108.3,100,108.3L100,108.3z"/>
	
		<linearGradient id="_Path_-2_00000001639213548512422830000014755614538740754854_" gradientUnits="userSpaceOnUse" x1="62.8653" y1="202" x2="62.8653" y2="2" gradientTransform="matrix(1 0 0 -1 0 202)">
		<stop  offset="0" style="stop-color:#60C5F1"/>
		<stop  offset="0.23" style="stop-color:#47B5E7"/>
		<stop  offset="0.75" style="stop-color:#1495D3"/>
		<stop  offset="1" style="stop-color:#0089CB"/>
	</linearGradient>
	<path id="_Path_-2" style="fill:url(#_Path_-2_00000001639213548512422830000014755614538740754854_);" d="M69.9,39.6l-7.1-12.3
		c-1.2-2-3.8-2.6-5.7-1.4s-2.6,3.6-1.5,5.5l7.1,12.3c1,2,3.5,2.9,5.6,1.8c2.1-1.1,2.9-3.5,1.8-5.6C70,39.9,69.9,39.7,69.9,39.6
		C69.9,39.6,69.9,39.6,69.9,39.6z"/>
	
		<linearGradient id="_Path_2-2_00000033349260292745076890000004709472994063576235_" gradientUnits="userSpaceOnUse" x1="174.847" y1="202" x2="174.847" y2="2" gradientTransform="matrix(1 0 0 -1 0 202)">
		<stop  offset="0" style="stop-color:#60C5F1"/>
		<stop  offset="0.23" style="stop-color:#47B5E7"/>
		<stop  offset="0.75" style="stop-color:#1495D3"/>
		<stop  offset="1" style="stop-color:#0089CB"/>
	</linearGradient>
	<path id="_Path_2-2" style="fill:url(#_Path_2-2_00000033349260292745076890000004709472994063576235_);" d="M162.4,100
		c0,2.3,1.9,4.2,4.2,4.2h16.6c2.3-0.1,4.1-2.1,4-4.4c-0.1-2.1-1.8-3.8-4-4h-16.6C164.3,95.9,162.4,97.7,162.4,100z"/>
	
		<linearGradient id="_Path_3-2_00000116941360681296740320000016189835539083466408_" gradientUnits="userSpaceOnUse" x1="137.1819" y1="202" x2="137.1819" y2="2" gradientTransform="matrix(1 0 0 -1 0 202)">
		<stop  offset="0" style="stop-color:#60C5F1"/>
		<stop  offset="0.23" style="stop-color:#47B5E7"/>
		<stop  offset="0.75" style="stop-color:#1495D3"/>
		<stop  offset="1" style="stop-color:#0089CB"/>
	</linearGradient>
	<path id="_Path_3-2" style="fill:url(#_Path_3-2_00000116941360681296740320000016189835539083466408_);" d="M142.8,25.8
		c-2-1.1-4.5-0.4-5.6,1.5l-7.1,12.3c-1.2,2-0.6,4.5,1.4,5.7s4.5,0.6,5.7-1.4c0-0.1,0.1-0.1,0.1-0.2l7.1-12.3
		C145.5,29.5,144.8,26.8,142.8,25.8z"/>
	
		<linearGradient id="_Path_4-2_00000172435007464589576210000013580573879112680065_" gradientUnits="userSpaceOnUse" x1="24.855" y1="202" x2="24.855" y2="2" gradientTransform="matrix(1 0 0 -1 0 202)">
		<stop  offset="0" style="stop-color:#60C5F1"/>
		<stop  offset="0.23" style="stop-color:#47B5E7"/>
		<stop  offset="0.75" style="stop-color:#1495D3"/>
		<stop  offset="1" style="stop-color:#0089CB"/>
	</linearGradient>
	<path id="_Path_4-2" style="fill:url(#_Path_4-2_00000172435007464589576210000013580573879112680065_);" d="M33.4,95.8H16.7
		c-2.3-0.1-4.2,1.7-4.4,4c-0.1,2.3,1.7,4.2,4,4.4h17c2.3-0.1,4.1-2.1,4-4.4C37.2,97.7,35.5,95.9,33.4,95.8z"/>
	
		<linearGradient id="_Path_5-2_00000119813289842606559070000015577556477038217393_" gradientUnits="userSpaceOnUse" x1="35.5471" y1="202" x2="35.5471" y2="2" gradientTransform="matrix(1 0 0 -1 0 202)">
		<stop  offset="0" style="stop-color:#60C5F1"/>
		<stop  offset="0.23" style="stop-color:#47B5E7"/>
		<stop  offset="0.75" style="stop-color:#1495D3"/>
		<stop  offset="1" style="stop-color:#0089CB"/>
	</linearGradient>
	<path id="_Path_5-2" style="fill:url(#_Path_5-2_00000119813289842606559070000015577556477038217393_);" d="M43.8,62.7L43.8,62.7
		l-12.3-7.1c-1.9-1.2-4.5-0.7-5.8,1.2c-1.2,1.9-0.7,4.5,1.2,5.8c0.1,0.1,0.2,0.1,0.3,0.2l0,0l12.4,7.1c1.9,1.2,4.5,0.7,5.8-1.2
		s0.7-4.5-1.2-5.8C44,62.8,43.9,62.7,43.8,62.7z"/>
	
		<linearGradient id="_Path_6-2_00000178178681468275151200000015202409375086878137_" gradientUnits="userSpaceOnUse" x1="100.002" y1="202" x2="100.002" y2="2" gradientTransform="matrix(1 0 0 -1 0 202)">
		<stop  offset="0" style="stop-color:#60C5F1"/>
		<stop  offset="0.23" style="stop-color:#47B5E7"/>
		<stop  offset="0.75" style="stop-color:#1495D3"/>
		<stop  offset="1" style="stop-color:#0089CB"/>
	</linearGradient>
	<path id="_Path_6-2" style="fill:url(#_Path_6-2_00000178178681468275151200000015202409375086878137_);" d="M100,37.6
		c2.3,0,4.2-1.9,4.2-4.2V16.7c0.1-2.3-1.7-4.2-4-4.4c-2.3-0.1-4.2,1.7-4.4,4v17C95.9,35.7,97.7,37.6,100,37.6z"/>
	
		<linearGradient id="_Path_7-2_00000098919758204553482360000003973178619042867603_" gradientUnits="userSpaceOnUse" x1="164.6678" y1="202" x2="164.6678" y2="2" gradientTransform="matrix(1 0 0 -1 0 202)">
		<stop  offset="0" style="stop-color:#60C5F1"/>
		<stop  offset="0.23" style="stop-color:#47B5E7"/>
		<stop  offset="0.75" style="stop-color:#1495D3"/>
		<stop  offset="1" style="stop-color:#0089CB"/>
	</linearGradient>
	<path id="_Path_7-2" style="fill:url(#_Path_7-2_00000098919758204553482360000003973178619042867603_);" d="M154.8,68.3
		c1.2,2,3.7,2.7,5.7,1.5l12.3-7.1c2-1,2.9-3.5,1.8-5.6c-1-2-3.5-2.9-5.6-1.8c-0.1,0.1-0.2,0.1-0.4,0.2l0,0l-12.3,7.1
		C154.3,63.8,153.6,66.3,154.8,68.3C154.7,68.3,154.8,68.3,154.8,68.3z"/>
</g>
</svg>
