<?xml version="1.0" encoding="UTF-8"?>
<svg id="Capa_1" data-name="Capa 1" xmlns="http://www.w3.org/2000/svg" xmlns:xlink="http://www.w3.org/1999/xlink" viewBox="0 0 200 200">
  <defs>
    <style>
      .cls-1 {
        fill: url(#Degradado_sin_nombre_31);
        stroke-width: 0px;
      }
    </style>
    <linearGradient id="Degradado_sin_nombre_31" data-name="Degradado sin nombre 31" x1="100" y1="0" x2="100" y2="200" gradientUnits="userSpaceOnUse">
      <stop offset="0" stop-color="#60c5f1"/>
      <stop offset=".23" stop-color="#47b5e7"/>
      <stop offset=".75" stop-color="#1495d3"/>
      <stop offset="1" stop-color="#0089cb"/>
    </linearGradient>
  </defs>
  <path class="cls-1" d="m156.3,44.23c-1.61,0-3.21.09-4.78.26C147.81,19.32,126.12,0,99.91,0s-47.88,19.31-51.6,44.48c-1.51-.16-3.06-.24-4.61-.24C19.52,44.23-.07,63.83-.07,88.01s19.6,43.77,43.77,43.77h112.6c24.18,0,43.77-19.6,43.77-43.77s-19.6-43.77-43.77-43.77Zm-.67,79.53H44.37c-19.53,0-35.96-15.38-36.41-34.9-.47-20.11,15.74-36.61,35.74-36.61.72,0,6.91.07,10.13.1,1.08.01,1.96-.83,2.02-1.9.07-1.41.18-3.28.34-4.4,2.99-21.46,21.45-38.03,43.72-38.03s40.77,16.59,43.72,38.08c.16,1.11.27,2.95.34,4.35.05,1.07.94,1.91,2.01,1.9,3.26-.03,9.58-.1,10.31-.1,20,0,36.22,16.51,35.74,36.61-.46,19.52-16.89,34.9-36.41,34.9Z"/>
  <path class="cls-1" d="m41.24,145.12c-2.06-1.4-4.87-.87-6.27,1.19l-8.34,12.25c-1.4,2.06-.87,4.87,1.19,6.27.74.5,1.57.76,2.4.78,1.49.04,2.97-.65,3.87-1.97l8.34-12.25c1.4-2.06.87-4.87-1.19-6.27Z"/>
  <path class="cls-1" d="m37.97,179.51c-2.06-1.4-4.87-.87-6.27,1.19l-8.34,12.25c-1.4,2.06-.87,4.87,1.19,6.27.74.5,1.57.76,2.4.78,1.49.04,2.97-.65,3.87-1.97l8.34-12.25c1.4-2.06.87-4.87-1.19-6.27Z"/>
  <path class="cls-1" d="m66.08,157.46c-2.06-1.4-4.87-.87-6.27,1.19l-8.34,12.25c-1.4,2.06-.87,4.87,1.19,6.27.74.5,1.57.76,2.4.78,1.49.04,2.97-.65,3.87-1.97l8.34-12.25c1.4-2.06.87-4.87-1.19-6.27Z"/>
  <path class="cls-1" d="m94.14,179.51c-2.06-1.4-4.87-.87-6.27,1.19l-8.34,12.25c-1.4,2.06-.87,4.87,1.19,6.27.74.5,1.57.76,2.4.78,1.49.04,2.97-.65,3.87-1.97l8.34-12.25c1.4-2.06.87-4.87-1.19-6.27Z"/>
  <path class="cls-1" d="m97.36,145.12c-2.06-1.4-4.87-.87-6.27,1.19l-8.34,12.25c-1.4,2.06-.87,4.87,1.19,6.27.74.5,1.57.76,2.4.78,1.49.04,2.97-.65,3.87-1.97l8.34-12.25c1.4-2.06.87-4.87-1.19-6.27Z"/>
  <path class="cls-1" d="m122.16,157.46c-2.06-1.4-4.87-.87-6.27,1.19l-8.34,12.25c-1.4,2.06-.87,4.87,1.19,6.27.74.5,1.57.76,2.4.78,1.49.04,2.97-.65,3.87-1.97l8.34-12.25c1.4-2.06.87-4.87-1.19-6.27Z"/>
  <path class="cls-1" d="m150.32,179.51c-2.06-1.4-4.87-.87-6.27,1.19l-8.34,12.25c-1.4,2.06-.87,4.87,1.19,6.27.74.5,1.57.76,2.4.78,1.49.04,2.97-.65,3.87-1.97l8.34-12.25c1.4-2.06.87-4.87-1.19-6.27Z"/>
  <path class="cls-1" d="m153.49,145.12c-2.06-1.4-4.87-.87-6.27,1.19l-8.34,12.25c-1.4,2.06-.87,4.87,1.19,6.27.74.5,1.57.76,2.4.78,1.49.04,2.97-.65,3.87-1.97l8.34-12.25c1.4-2.06.87-4.87-1.19-6.27Z"/>
</svg>