<?xml version="1.0" encoding="UTF-8"?>
<svg id="Capa_1" data-name="Capa 1" xmlns="http://www.w3.org/2000/svg" xmlns:xlink="http://www.w3.org/1999/xlink" viewBox="0 0 200 200">
  <defs>
    <style>
      .cls-1 {
        fill: url(#Degradado_sin_nombre_31);
        stroke-width: 0px;
      }
    </style>
    <linearGradient id="Degradado_sin_nombre_31" data-name="Degradado sin nombre 31" x1="100" y1="0" x2="100" y2="200" gradientUnits="userSpaceOnUse">
      <stop offset="0" stop-color="#60c5f1"/>
      <stop offset=".23" stop-color="#47b5e7"/>
      <stop offset=".75" stop-color="#1495d3"/>
      <stop offset="1" stop-color="#0089cb"/>
    </linearGradient>
  </defs>
  <g>
    <path class="cls-1" d="m123.38,173.54c-1.02,0-2.05-.39-2.83-1.17-1.56-1.56-1.56-4.1,0-5.66l45.26-45.26c1.56-1.56,4.1-1.56,5.66,0,1.56,1.56,1.56,4.1,0,5.66l-45.26,45.26c-.78.78-1.81,1.17-2.83,1.17Z"/>
    <path class="cls-1" d="m127.97,125.51c2.52,0,4.57,2.05,4.57,4.57s-2.05,4.57-4.57,4.57-4.57-2.05-4.57-4.57,2.05-4.57,4.57-4.57m0-7.29c-6.54,0-11.86,5.32-11.86,11.86s5.32,11.86,11.86,11.86,11.86-5.32,11.86-11.86-5.32-11.86-11.86-11.86h0Z"/>
    <path class="cls-1" d="m163.72,159.1c2.52,0,4.57,2.05,4.57,4.57s-2.05,4.57-4.57,4.57-4.57-2.05-4.57-4.57,2.05-4.57,4.57-4.57m0-7.29c-6.54,0-11.86,5.32-11.86,11.86s5.32,11.86,11.86,11.86,11.86-5.32,11.86-11.86-5.32-11.86-11.86-11.86h0Z"/>
  </g>
  <path class="cls-1" d="m197.08,130.42c-.13-.43-.26-.85-.41-1.26-.28-.82-.58-1.64-.9-2.45h0c-.38-.98-.8-1.93-1.23-2.87h0c-1.32-2.82-2.86-5.52-4.63-8.04-1.59-2.29-3.36-4.46-5.28-6.47-5.48-5.71-12.16-10.21-19.68-13.11-.5-.19-1-.37-1.51-.55-.55-.19-1.09-.37-1.64-.54h-.02c-.83-.27-1.67-.5-2.52-.72-4.29-1.1-8.78-1.69-13.41-1.69s-9.12.59-13.41,1.69c-.85.22-1.69.45-2.52.72h-.02c-.45.14-.9.29-1.35.44-.88.3-1.76.62-2.63.98h0c-.39.16-.79.32-1.18.49-12.07,5.22-21.88,14.72-27.45,26.57-.13.27-.25.54-.37.82-.15.32-.29.64-.43.96-.19.43-.37.86-.54,1.3h0c-.32.82-.62,1.64-.9,2.46-.15.41-.28.83-.41,1.26-.12.4-.24.8-.35,1.2-.13.44-.25.88-.37,1.33-1.1,4.28-1.69,8.78-1.69,13.41,0,4.2.48,8.3,1.4,12.22h0c.09.4.19.79.29,1.18.22.85.46,1.69.72,2.53.13.43.26.85.41,1.26.17.48.34.94.5,1.41h0c.13.36.26.7.39,1.04h0c.44,1.13.92,2.24,1.44,3.32,1.56,3.26,3.42,6.34,5.58,9.2,1.28,1.7,2.66,3.32,4.12,4.86,5.47,5.71,12.15,10.21,19.67,13.11.5.19,1,.37,1.51.55.55.19,1.09.37,1.64.54h.02c.83.27,1.67.5,2.52.72,4.29,1.1,8.78,1.69,13.41,1.69s9.12-.59,13.41-1.69c.85-.22,1.69-.45,2.52-.72h.02c1.94-.6,3.83-1.31,5.68-2.13.92-.41,1.82-.84,2.71-1.29h0c1.12-.57,2.21-1.18,3.27-1.82,1.06-.65,2.11-1.33,3.12-2.04,0,0,0,.01,0,0,6.1-4.3,11.27-9.82,15.16-16.2,1.55-2.56,2.89-5.27,4-8.08h0c.32-.82.62-1.64.9-2.46.15-.41.28-.83.41-1.26.26-.84.5-1.68.72-2.53,1.1-4.28,1.69-8.78,1.69-13.41s-.59-9.12-1.69-13.41c-.22-.85-.46-1.69-.72-2.53Zm-51.23,61.95c-25.37,0-46.01-20.64-46.01-46.01s20.64-46.01,46.01-46.01,46.01,20.64,46.01,46.01-20.64,46.01-46.01,46.01Z"/>
  <path class="cls-1" d="m8.07,88.76c-.48-20.08,15.72-36.57,35.7-36.57.72,0,6.9.07,10.12.1,1.07.01,1.95-.82,2.01-1.9.06-1.41.18-3.27.34-4.4,2.98-21.43,21.42-37.98,43.67-37.98s40.72,16.57,43.67,38.03c.15,1.12.27,2.95.33,4.36.06,1.07.94,1.9,2.01,1.89,3.26-.03,9.57-.1,10.3-.1,19.97,0,36.17,16.49,35.7,36.57-.11,4.81-1.19,9.36-3.06,13.5,2.08,2.02,4.03,4.19,5.8,6.5,3.37-6.2,5.29-13.31,5.29-20.85,0-24.15-19.57-43.72-43.72-43.72-1.61,0-3.2.09-4.78.26C147.75,19.29,126.08,0,99.91,0s-47.83,19.28-51.54,44.42c-1.51-.16-3.05-.24-4.61-.24C19.62,44.18.05,63.75.05,87.9s19.57,43.72,43.72,43.72h42.21c.67-2.74,1.53-5.43,2.57-8.01h-44.12c-19.5,0-35.91-15.36-36.36-34.85Z"/>
  <path class="cls-1" d="m52.27,144.94c-2.06-1.4-4.86-.87-6.26,1.19l-8.33,12.24c-1.4,2.06-.87,4.86,1.19,6.26.74.5,1.57.75,2.4.78,1.49.04,2.96-.65,3.86-1.97l8.33-12.24c1.4-2.06.87-4.86-1.19-6.26Z"/>
  <path class="cls-1" d="m49,179.29c-2.06-1.4-4.86-.87-6.26,1.19l-8.33,12.24c-1.4,2.06-.87,4.86,1.19,6.26.74.5,1.57.75,2.4.78,1.49.04,2.96-.65,3.86-1.97l8.33-12.24c1.4-2.06.87-4.86-1.19-6.26Z"/>
  <path class="cls-1" d="m77.08,157.27c-2.06-1.4-4.86-.87-6.26,1.19l-8.33,12.24c-1.4,2.06-.87,4.86,1.19,6.26.74.5,1.57.75,2.4.78,1.49.04,2.96-.65,3.86-1.97l8.33-12.24c1.4-2.06.87-4.86-1.19-6.26Z"/>
  <path class="cls-1" d="m90.52,192.72c-1.4,2.05-.87,4.86,1.19,6.26.73.5,1.57.75,2.39.78,1.49.04,2.96-.65,3.86-1.97l4.93-7.24c-2.23-2.17-4.29-4.5-6.16-6.97l-6.22,9.14Z"/>
</svg>