<?xml version="1.0" encoding="UTF-8"?>
<svg id="Capa_1" data-name="Capa 1" xmlns="http://www.w3.org/2000/svg" xmlns:xlink="http://www.w3.org/1999/xlink" viewBox="0 0 200 200">
  <defs>
    <style>
      .cls-1 {
        fill: url(#Degradado_sin_nombre_31);
        stroke-width: 0px;
      }
    </style>
    <linearGradient id="Degradado_sin_nombre_31" data-name="Degradado sin nombre 31" x1="100" y1="0" x2="100" y2="200" gradientUnits="userSpaceOnUse">
      <stop offset="0" stop-color="#60c5f1"/>
      <stop offset=".23" stop-color="#47b5e7"/>
      <stop offset=".75" stop-color="#1495d3"/>
      <stop offset="1" stop-color="#0089cb"/>
    </linearGradient>
  </defs>
  <path id="thermometer" class="cls-1" d="m132.54,102.59h12.83c2.19,0,3.96,1.77,3.96,3.96h0c0,2.19-1.77,3.96-3.96,3.96h-12.83c-2.19,0-3.96-1.77-3.96-3.96h0c0-2.19,1.77-3.96,3.96-3.96Zm0-12.83h12.83c2.19,0,3.96,1.77,3.96,3.96h0c0,2.19-1.77,3.96-3.96,3.96h-12.83c-2.19,0-3.96-1.77-3.96-3.96h0c0-2.19,1.77-3.96,3.96-3.96Zm0-12.83h12.83c2.19,0,3.96,1.77,3.96,3.96h0c0,2.19-1.77,3.96-3.96,3.96h-12.83c-2.19,0-3.96-1.77-3.96-3.96h0c0-2.19,1.77-3.96,3.96-3.96Zm0-12.83h12.83c2.19,0,3.96,1.77,3.96,3.96h0c0,2.19-1.77,3.96-3.96,3.96h-12.83c-2.19,0-3.96-1.77-3.96-3.96h0c0-2.19,1.77-3.96,3.96-3.96Zm0-12.73h12.83c2.19,0,3.96,1.77,3.96,3.96h0c0,2.19-1.77,3.96-3.96,3.96h-12.83c-2.19,0-3.96-1.77-3.96-3.96h0c0-2.19,1.77-3.96,3.96-3.96Zm11.68,135.82c7.52-7.92,11.63-18.34,11.63-29.17-.1-14.33-7.32-27.67-19.25-35.58v-3.11c0-2.21-1.8-4.01-4.01-4.01h0c-2.21,0-4.01,1.8-4.01,4.01v7.32l2.1,1.2c10.63,6.11,17.14,17.34,17.34,29.57,0,8.92-3.51,17.54-9.82,23.86-.4.5-.8.9-1.3,1.3-6.82,6.52-15.94,10.02-25.26,9.62-18.04-.9-32.38-15.34-33.08-33.38-.2-9.42,3.51-18.44,10.22-25.06,2.21-2.31,4.81-4.31,7.62-5.91l1.6-.9V23.41c0-4.11,1.7-8.02,4.71-10.83,5.71-6.11,15.34-6.31,21.45-.6,3.01,2.81,4.71,6.82,4.71,10.93v19.35c0,2.21,1.8,4.01,4.01,4.01h0c2.21,0,4.01-1.8,4.01-4.01v-18.84c-.1-11.13-7.92-20.75-18.74-22.95-3.21-.6-6.42-.6-9.62,0-4.51.9-8.62,3.21-11.93,6.42-4.11,4.31-6.42,10.02-6.42,16.04v99.24c-.2.1-.5.3-.5.3-12.23,7.82-19.45,21.55-18.94,36.09.7,18.84,13.53,35.18,31.78,40.2,7.32,1.7,15.04,1.7,22.35,0,6.92-1.9,13.33-5.41,18.44-10.42.2-.3.6-.7.9-1.1Zm-25.36-50.42l-1.7-.4V44.51c0-2.19-1.77-3.96-3.96-3.96h0c-2.19,0-3.96,1.77-3.96,3.96v91.97l-1.2.3c-11.53,3.01-18.34,14.73-15.44,26.16,2.91,11.43,14.73,18.34,26.16,15.44,11.53-3.01,18.34-14.73,15.44-26.16-1.9-7.52-7.82-13.43-15.34-15.44h0Z"/>
  <path class="cls-1" d="m59.15,1.1s-.09-.11-.21-.25c-.52-.63-1.37-.84-2.15-.85-.72,0-1.42.28-1.95.76l-.05.04-.04.04-.04.04-.05.05-.08.08-.07.08-.03.04c-.85,1.02-3.05,3.74-5.15,6.86-3.49,5.17-5.18,9.07-5.18,11.94-.05,3.38,1.24,6.62,3.63,9.08,2.38,2.45,5.58,3.82,9,3.87h.04s.04,0,.04,0c3.43-.05,6.63-1.43,9-3.87,2.39-2.46,3.68-5.68,3.63-9.09,0-1.96-1.02-7.67-10.34-18.83Zm4.32,18.84c.04,3.74-2.93,6.8-6.63,6.87-3.71-.07-6.68-3.13-6.63-6.84,0-2.05,2.65-6.81,6.63-12.06.7.92,1.51,2.04,2.35,3.25,3.98,5.85,4.29,8.19,4.29,8.77Z"/>
  <path class="cls-1" d="m59.15,45.2s-.09-.11-.21-.25c-.52-.63-1.37-.84-2.15-.85-.72,0-1.42.28-1.95.76l-.05.04-.04.04-.04.04-.05.05-.08.08-.07.08-.03.04c-.85,1.02-3.05,3.74-5.15,6.86-3.49,5.17-5.18,9.07-5.18,11.94-.05,3.38,1.24,6.62,3.63,9.08,2.38,2.45,5.58,3.82,9,3.87h.04s.04,0,.04,0c3.43-.05,6.63-1.43,9-3.87,2.39-2.46,3.68-5.68,3.63-9.09,0-1.96-1.02-7.67-10.34-18.83Zm4.32,18.84c.04,3.74-2.93,6.8-6.63,6.87-3.71-.07-6.68-3.13-6.63-6.84,0-2.05,2.65-6.81,6.63-12.06.7.92,1.51,2.04,2.35,3.25,3.98,5.85,4.29,8.19,4.29,8.77Z"/>
  <path class="cls-1" d="m59.15,89.3s-.09-.11-.21-.25c-.52-.63-1.37-.84-2.15-.85-.72,0-1.42.28-1.95.76l-.05.04-.04.04-.04.04-.05.05-.08.08-.07.08-.03.04c-.85,1.02-3.05,3.74-5.15,6.86-3.49,5.17-5.18,9.07-5.18,11.94-.05,3.38,1.24,6.62,3.63,9.08,2.38,2.45,5.58,3.82,9,3.87h.04s.04,0,.04,0c3.43-.05,6.63-1.43,9-3.87,2.39-2.46,3.68-5.68,3.63-9.09,0-1.96-1.02-7.67-10.34-18.83Zm4.32,18.84c.04,3.74-2.93,6.8-6.63,6.87-3.71-.07-6.68-3.13-6.63-6.84,0-2.05,2.65-6.81,6.63-12.06.7.92,1.51,2.04,2.35,3.25,3.98,5.85,4.29,8.19,4.29,8.77Z"/>
</svg>