<?xml version="1.0" encoding="UTF-8"?>
<svg id="Pruebas" xmlns="http://www.w3.org/2000/svg" xmlns:xlink="http://www.w3.org/1999/xlink" viewBox="0 0 200 200">
  <defs>
    <style>
      .cls-1 {
        fill: url(#Degradado_sin_nombre_31);
        stroke-width: 0px;
      }
    </style>
    <linearGradient id="Degradado_sin_nombre_31" data-name="Degradado sin nombre 31" x1="100" y1="4.8" x2="100" y2="195.2" gradientUnits="userSpaceOnUse">
      <stop offset="0" stop-color="#60c5f1"/>
      <stop offset=".23" stop-color="#47b5e7"/>
      <stop offset=".75" stop-color="#1495d3"/>
      <stop offset="1" stop-color="#0089cb"/>
    </linearGradient>
  </defs>
  <path class="cls-1" d="m1.99,21.38c1.53,1.46,3.13,2.86,4.79,4.17,7.44,5.9,17.11,6.58,24.99.84,3.69-2.68,7.04-5.82,10.63-8.62,2.05-1.6,4.45-2.77,6.9-.96,3.07,2.28,6.09,4.67,8.86,7.3,7.29,6.95,17.89,8.39,26.28,2.53,3.11-2.17,5.84-4.88,8.71-7.38,4.13-3.61,7.34-3.94,11.62-.67,2.67,2.04,4.89,4.65,7.53,6.74,6.75,5.34,14.32,6.89,22.05,2.76,4.32-2.31,7.95-5.89,11.87-8.94,4.12-3.21,6.1-3.75,9.6-1.91,1.69.89,3.14,2.31,4.55,3.66,4.2,4.04,8.34,8.03,14.5,9.08,4.01.69,8.06.59,11.47-1.16,3.91-2,7.27-5.12,10.79-7.85,1.89-1.46,2.92-3.23,2.87-5.33-.04-1.51-.77-2.92-1.91-3.92l-.02-.02c-1.43-1.26-3.42-1.77-5.24-1.19-1.34.42-2.61,1.32-3.78,2.64-1.09,1.22-2.32,2.33-3.56,3.4-4.12,3.58-10.15,3.44-13.87-.23-2.21-2.18-4.35-4.48-6.78-6.39-7.23-5.68-14.44-7.13-22.55-1.35-3.87,2.76-7.28,6.14-11.06,9.04-3.06,2.35-7.37,2.61-11.01-.32-3.56-2.87-6.71-6.3-10.42-8.95-5.73-4.1-12.17-4.89-18.32-1.16-4.09,2.48-7.69,5.82-11.33,8.99-3.33,2.9-8.67,4.47-12.95.92-2.86-2.36-5.57-4.91-8.48-7.21-6.29-4.98-13.25-6.7-20.45-2.46-4.12,2.42-7.67,5.83-11.38,8.91-3,2.49-6.29,3.84-9.98,2.19-2.17-.97-4.13-2.58-5.9-4.22-2.98-2.74-5.59-3.88-8.21-2.29C.67,13.32-.43,15.89.16,18.29c.28,1.15.88,2.18,1.84,3.09Z"/>
  <path class="cls-1" d="m1.99,61.23c1.53,1.46,3.13,2.86,4.79,4.17,7.44,5.9,17.11,6.58,24.99.84,3.69-2.68,7.04-5.82,10.63-8.62,2.05-1.6,4.45-2.77,6.9-.96,3.07,2.28,6.09,4.67,8.86,7.3,7.29,6.95,17.89,8.39,26.28,2.53,3.11-2.17,5.84-4.88,8.71-7.38,4.13-3.61,7.34-3.94,11.62-.67,2.67,2.04,4.89,4.65,7.53,6.74,6.75,5.34,14.32,6.89,22.05,2.76,4.32-2.31,7.95-5.89,11.87-8.94,4.12-3.21,6.1-3.75,9.6-1.91,1.69.89,3.14,2.31,4.55,3.66,4.2,4.04,8.34,8.03,14.5,9.08,4.01.69,8.06.59,11.47-1.16,3.91-2,7.27-5.12,10.79-7.85,1.89-1.46,2.92-3.23,2.87-5.33-.04-1.51-.77-2.92-1.91-3.92,0,0-.02-.01-.02-.02-1.43-1.26-3.42-1.77-5.24-1.19-1.34.42-2.61,1.32-3.78,2.64-1.09,1.22-2.32,2.33-3.56,3.4-4.12,3.58-10.15,3.44-13.87-.23-2.21-2.18-4.35-4.48-6.78-6.39-7.23-5.68-14.44-7.13-22.55-1.35-3.87,2.76-7.28,6.14-11.06,9.04-3.06,2.35-7.37,2.61-11.01-.32-3.56-2.87-6.71-6.3-10.42-8.95-5.73-4.1-12.17-4.89-18.32-1.16-4.09,2.48-7.69,5.82-11.33,8.99-3.33,2.9-8.67,4.47-12.95.92-2.86-2.36-5.57-4.91-8.48-7.21-6.29-4.98-13.25-6.7-20.45-2.46-4.12,2.42-7.67,5.83-11.38,8.91-3,2.49-6.29,3.84-9.98,2.19-2.17-.97-4.13-2.58-5.9-4.22-2.98-2.74-5.59-3.88-8.21-2.29-2.12,1.28-3.22,3.85-2.63,6.26.28,1.15.88,2.18,1.84,3.09Z"/>
  <path class="cls-1" d="m198.09,91.43s-.02-.01-.03-.02c-1.43-1.25-3.42-1.76-5.24-1.19-1.33.42-2.6,1.32-3.78,2.64-1.08,1.23-2.32,2.33-3.56,3.41-4.12,3.58-10.15,3.43-13.87-.24-2.22-2.18-4.35-4.48-6.79-6.39-7.22-5.68-14.44-7.13-22.55-1.35-3.87,2.75-7.28,6.14-11.06,9.03-3.06,2.35-7.37,2.61-11-.31-3.57-2.88-6.71-6.3-10.42-8.95-5.73-4.1-12.17-4.89-18.32-1.17-4.09,2.48-7.69,5.82-11.33,8.99-3.32,2.9-8.66,4.47-12.95.93-2.86-2.37-5.57-4.91-8.48-7.21-6.29-4.98-13.24-6.7-20.45-2.46-4.12,2.43-7.67,5.83-11.38,8.91-3,2.49-6.3,3.84-9.98,2.19-2.17-.97-4.13-2.58-5.91-4.22-2.98-2.74-5.58-3.87-8.2-2.28-2.12,1.28-3.22,3.84-2.63,6.25.28,1.15.87,2.18,1.83,3.09,1.54,1.46,3.13,2.86,4.79,4.17,7.44,5.91,17.11,6.58,24.99.85,3.68-2.68,7.03-5.82,10.63-8.63,2.05-1.59,4.46-2.76,6.9-.95,3.07,2.27,6.09,4.67,8.86,7.3,7.29,6.95,17.89,8.39,26.28,2.53,3.11-2.17,5.84-4.87,8.71-7.38,4.13-3.61,7.34-3.94,11.62-.67,2.67,2.04,4.89,4.65,7.53,6.74,2.85,2.25,5.85,3.83,8.93,4.59,6.94-5.23,15.2-8.8,24.18-10.13.26-.22.53-.43.8-.64,4.13-3.21,6.1-3.75,9.61-1.92,1.11.59,2.12,1.41,3.08,2.29,9.59,1.01,18.42,4.57,25.8,9.99.56-.19,1.1-.42,1.63-.69,3.92-2,7.27-5.12,10.79-7.85,1.89-1.46,2.93-3.22,2.88-5.33-.04-1.51-.78-2.92-1.91-3.92Z"/>
  <path class="cls-1" d="m6.78,145.1c7.44,5.9,17.11,6.58,24.99.84,3.68-2.68,7.03-5.81,10.63-8.62,2.05-1.6,4.46-2.77,6.9-.96,3.07,2.28,6.09,4.67,8.86,7.31,7.29,6.95,17.89,8.39,26.28,2.53,3.11-2.17,5.84-4.88,8.71-7.38,3.3-2.89,6.01-3.68,9.16-2.2,1.12-3.69,2.64-7.21,4.5-10.51-4.93-2.44-10.24-2.46-15.34.63-4.09,2.48-7.69,5.82-11.33,8.99-3.32,2.9-8.66,4.47-12.95.93-2.86-2.37-5.57-4.91-8.48-7.22-6.29-4.98-13.24-6.7-20.45-2.45-4.12,2.42-7.67,5.82-11.38,8.91-3,2.49-6.3,3.84-9.98,2.19-2.17-.98-4.13-2.59-5.91-4.22-2.98-2.74-5.58-3.88-8.2-2.29-2.12,1.29-3.22,3.85-2.63,6.26.28,1.14.87,2.17,1.83,3.09,1.54,1.45,3.13,2.85,4.79,4.17Z"/>
  <path class="cls-1" d="m91.47,166.59c-4.09,2.48-7.69,5.82-11.33,8.99-3.32,2.9-8.66,4.47-12.95.92-2.86-2.36-5.57-4.91-8.48-7.21-6.29-4.98-13.24-6.7-20.45-2.45-4.12,2.42-7.67,5.82-11.38,8.9-3,2.5-6.3,3.85-9.98,2.19-2.17-.97-4.13-2.58-5.91-4.21-2.98-2.75-5.58-3.88-8.2-2.29-2.12,1.28-3.22,3.85-2.63,6.25.28,1.15.87,2.18,1.83,3.09,1.54,1.46,3.13,2.86,4.79,4.18,7.44,5.9,17.11,6.57,24.99.84,3.68-2.68,7.03-5.82,10.63-8.62,2.05-1.6,4.46-2.77,6.9-.96,3.07,2.28,6.09,4.67,8.86,7.31,7.29,6.95,17.89,8.38,26.28,2.53,3.11-2.17,5.84-4.88,8.71-7.38,4.13-3.62,7.34-3.94,11.62-.68,1.49,1.13,2.83,2.45,4.19,3.75-3.5-5.23-6.1-11.11-7.57-17.43-3.29-.4-6.65.3-9.92,2.28Z"/>
  <path class="cls-1" d="m152.54,154.85c-.75,0-1.29.22-1.63.66-.34.44-.62,1.01-.85,1.71-.54,1.48-1.34,2.6-2.41,3.36-1.06.77-2.37,1.15-3.91,1.15-1.42,0-2.66-.34-3.72-1.01-1.06-.67-1.88-1.69-2.45-3.06-.58-1.37-.87-3.08-.87-5.14,0-3.08.65-5.46,1.96-7.13,1.3-1.67,3.06-2.51,5.26-2.51,1.39,0,2.55.32,3.5.97.94.65,1.76,1.64,2.46,2.95.42.79.8,1.35,1.15,1.68.34.32.85.48,1.54.48.62,0,1.14-.23,1.57-.7.43-.47.65-1.01.65-1.63,0-1.11-.44-2.3-1.33-3.56-.89-1.26-2.18-2.32-3.85-3.17-1.07-.55-2.24-.92-3.51-1.11-.71-.12-1.44-.17-2.21-.17-1.76,0-3.42.31-4.97.94-1.55.62-2.91,1.53-4.06,2.73-1.16,1.2-2.05,2.64-2.67,4.33-.26.71-.47,1.47-.62,2.27-.21,1.07-.31,2.23-.31,3.45,0,1.31.13,2.55.37,3.72.25,1.17.62,2.27,1.12,3.3.49,1.02,1.08,1.96,1.78,2.79.78.91,1.64,1.65,2.58,2.21.93.56,1.97.97,3.11,1.23,1.14.27,2.41.4,3.81.4.61,0,1.19-.03,1.75-.09t.02-.01c1.13-.13,2.15-.39,3.07-.78.43-.18.84-.39,1.22-.61.85-.48,1.58-1.05,2.19-1.7.89-.94,1.55-1.9,1.96-2.88.42-.99.62-1.9.62-2.74,0-.66-.22-1.22-.68-1.66-.46-.45-1.01-.67-1.64-.67Z"/>
  <path class="cls-1" d="m176.62,161.86c-.49-.39-1.21-.58-2.15-.58h-9.42c.3-.46.59-.85.88-1.17.68-.82,1.92-1.97,3.73-3.45,1.81-1.48,3.1-2.57,3.88-3.26.77-.69,1.52-1.65,2.26-2.87.16-.26.29-.52.41-.79.47-1.01.7-2.1.7-3.29,0-.95-.18-1.86-.53-2.75-.36-.88-.85-1.66-1.49-2.34-.64-.67-1.38-1.2-2.22-1.59-1.3-.57-2.87-.86-4.71-.86-1.53,0-2.87.22-4,.67-1.1.44-2.01,1.01-2.73,1.7-.03.02-.06.05-.09.08-.74.74-1.3,1.56-1.67,2.46-.37.9-.56,1.77-.56,2.6,0,.68.2,1.23.59,1.62s.9.6,1.5.6c.69,0,1.21-.22,1.57-.65.35-.43.67-1.05.95-1.86.29-.81.49-1.3.61-1.48.1-.15.2-.3.31-.43.87-1.1,2-1.65,3.41-1.65.74,0,1.43.17,2.06.51.64.33,1.14.81,1.5,1.42.37.6.55,1.29.55,2.06,0,.67-.15,1.35-.46,2.05-.01.04-.03.09-.05.13-.34.74-.84,1.46-1.5,2.17-.66.7-1.48,1.4-2.46,2.1-.56.37-1.48,1.15-2.77,2.34-1.28,1.18-2.73,2.61-4.33,4.27-.39.41-.74.97-1.07,1.69-.32.71-.48,1.29-.48,1.72,0,.67.25,1.26.76,1.76.5.5,1.2.75,2.11.75h13.29c.79,0,1.38-.2,1.78-.61.39-.41.58-.91.58-1.5,0-.66-.24-1.19-.74-1.57Z"/>
  <path class="cls-1" d="m195.99,141.42c-.99-3.83-2.49-7.46-4.43-10.8-7.44-12.83-21.33-21.47-37.25-21.47-16.86,0-31.47,9.7-38.51,23.83-1.81,3.61-3.13,7.51-3.86,11.61-.43,2.46-.66,5-.66,7.58,0,8.08,2.23,15.63,6.1,22.09,3.52,5.88,8.41,10.85,14.23,14.46,6.59,4.11,14.37,6.48,22.7,6.48,7.79,0,15.09-2.07,21.4-5.69,7.87-4.51,14.17-11.44,17.9-19.78,2.4-5.36,3.73-11.31,3.73-17.56,0-3.71-.47-7.31-1.35-10.74h0Zm-6.64,10.75c0,10.49-4.63,19.91-11.96,26.33-3.33,2.93-7.22,5.24-11.49,6.74-3.63,1.28-7.53,1.97-11.59,1.97-5.25,0-10.24-1.16-14.71-3.25-3.45-1.6-6.59-3.74-9.32-6.32-6.77-6.39-11-15.44-11-25.47,0-1.09.05-2.17.15-3.23.35-3.82,1.31-7.46,2.8-10.82,5.42-12.34,17.76-20.98,32.08-20.98,13.54,0,25.31,7.72,31.14,18.99,1.71,3.3,2.91,6.9,3.5,10.7h0c.26,1.75.4,3.53.4,5.34Z"/>
</svg>