<?xml version="1.0" encoding="utf-8"?>
<!-- Generator: Adobe Illustrator 28.0.0, SVG Export Plug-In . SVG Version: 6.00 Build 0)  -->
<svg version="1.1" id="Pruebas" xmlns="http://www.w3.org/2000/svg" xmlns:xlink="http://www.w3.org/1999/xlink" x="0px" y="0px"
	 viewBox="0 0 200 200" style="enable-background:new 0 0 200 200;" xml:space="preserve">
<style type="text/css">
	.st0{fill:url(#SVGID_1_);}
	.st1{fill:url(#SVGID_00000030458122866543850380000015986117127657336707_);}
	.st2{fill:url(#SVGID_00000059275639891760903000000012969349682685779891_);}
	.st3{fill:url(#SVGID_00000091728448838905881400000000529060097796713904_);}
	.st4{fill:url(#SVGID_00000096060609252846567470000012791014865904377994_);}
	.st5{fill:url(#SVGID_00000071518738249261603570000014340855977263942298_);}
	.st6{fill:url(#SVGID_00000163053844161893323520000015497191192448138394_);}
	.st7{fill:url(#SVGID_00000148636527581004560350000001684462607293858948_);}
</style>
<linearGradient id="SVGID_1_" gradientUnits="userSpaceOnUse" x1="100.0017" y1="196.8115" x2="100.0017" y2="6.4115" gradientTransform="matrix(1 0 0 -1 0 201.6)">
	<stop  offset="0" style="stop-color:#60C5F1"/>
	<stop  offset="0.23" style="stop-color:#47B5E7"/>
	<stop  offset="0.75" style="stop-color:#1495D3"/>
	<stop  offset="1" style="stop-color:#0089CB"/>
</linearGradient>
<path class="st0" d="M2,21.4c1.5,1.5,3.1,2.9,4.8,4.2c7.4,5.9,17.1,6.6,25,0.8c3.7-2.7,7-5.8,10.6-8.6c2-1.6,4.5-2.8,6.9-1
	c3.1,2.3,6.1,4.7,8.9,7.3c7.3,7,17.9,8.4,26.3,2.5c3.1-2.2,5.8-4.9,8.7-7.4c4.1-3.6,7.3-3.9,11.6-0.7c2.7,2,4.9,4.7,7.5,6.7
	c6.8,5.3,14.3,6.9,22.1,2.8c4.3-2.3,7.9-5.9,11.9-8.9c4.1-3.2,6.1-3.7,9.6-1.9c1.7,0.9,3.1,2.3,4.6,3.7c4.2,4,8.3,8,14.5,9.1
	c4,0.7,8.1,0.6,11.5-1.2c3.9-2,7.3-5.1,10.8-7.9c1.9-1.5,2.9-3.2,2.9-5.3c0-1.5-0.8-2.9-1.9-3.9l0,0c-1.4-1.3-3.4-1.8-5.2-1.2
	c-1.3,0.4-2.6,1.3-3.8,2.6c-1.1,1.2-2.3,2.3-3.6,3.4c-4.1,3.6-10.1,3.4-13.9-0.2c-2.2-2.2-4.4-4.5-6.8-6.4
	c-7.2-5.7-14.4-7.1-22.6-1.4c-3.9,2.8-7.3,6.1-11.1,9c-3.1,2.4-7.4,2.6-11-0.3c-3.6-2.9-6.7-6.3-10.4-8.9
	c-5.7-4.1-12.2-4.9-18.3-1.2c-4.1,2.5-7.7,5.8-11.3,9c-3.3,2.9-8.7,4.5-12.9,0.9c-2.9-2.4-5.6-4.9-8.5-7.2c-6.3-5-13.2-6.7-20.5-2.5
	c-4.1,2.4-7.7,5.8-11.4,8.9c-3,2.5-6.3,3.8-10,2.2c-2.2-1-4.1-2.6-5.9-4.2c-3-2.7-5.6-3.9-8.2-2.3c-2.1,1.3-3.2,3.9-2.6,6.3
	C0.4,19.4,1,20.5,2,21.4L2,21.4z"/>
<linearGradient id="SVGID_00000087388469774600334720000015881651308901817526_" gradientUnits="userSpaceOnUse" x1="100.0067" y1="196.8" x2="100.0067" y2="6.4" gradientTransform="matrix(1 0 0 -1 0 201.6)">
	<stop  offset="0" style="stop-color:#60C5F1"/>
	<stop  offset="0.23" style="stop-color:#47B5E7"/>
	<stop  offset="0.75" style="stop-color:#1495D3"/>
	<stop  offset="1" style="stop-color:#0089CB"/>
</linearGradient>
<path style="fill:url(#SVGID_00000087388469774600334720000015881651308901817526_);" d="M2,61.2c1.5,1.5,3.1,2.9,4.8,4.2
	c7.4,5.9,17.1,6.6,25,0.8c3.7-2.7,7-5.8,10.6-8.6c2-1.6,4.5-2.8,6.9-1c3.1,2.3,6.1,4.7,8.9,7.3c7.3,7,17.9,8.4,26.3,2.5
	c3.1-2.2,5.8-4.9,8.7-7.4c4.1-3.6,7.3-3.9,11.6-0.7c2.7,2,4.9,4.7,7.5,6.7c6.8,5.3,14.3,6.9,22.1,2.8c4.3-2.3,7.9-5.9,11.9-8.9
	c4.1-3.2,6.1-3.8,9.6-1.9c1.7,0.9,3.1,2.3,4.6,3.7c4.2,4,8.3,8,14.5,9.1c4,0.7,8.1,0.6,11.5-1.2c3.9-2,7.3-5.1,10.8-7.8
	c1.9-1.5,2.9-3.2,2.9-5.3c0-1.5-0.8-2.9-1.9-3.9c0,0,0,0,0,0c-1.4-1.3-3.4-1.8-5.2-1.2c-1.3,0.4-2.6,1.3-3.8,2.6
	c-1.1,1.2-2.3,2.3-3.6,3.4c-4.1,3.6-10.1,3.4-13.9-0.2c-2.2-2.2-4.4-4.5-6.8-6.4c-7.2-5.7-14.4-7.1-22.6-1.3
	c-3.9,2.8-7.3,6.1-11.1,9c-3.1,2.3-7.4,2.6-11-0.3c-3.6-2.9-6.7-6.3-10.4-9c-5.7-4.1-12.2-4.9-18.3-1.2c-4.1,2.5-7.7,5.8-11.3,9
	c-3.3,2.9-8.7,4.5-12.9,0.9c-2.9-2.4-5.6-4.9-8.5-7.2c-6.3-5-13.2-6.7-20.5-2.5c-4.1,2.4-7.7,5.8-11.4,8.9c-3,2.5-6.3,3.8-10,2.2
	c-2.2-1-4.1-2.6-5.9-4.2c-3-2.7-5.6-3.9-8.2-2.3c-2.1,1.3-3.2,3.8-2.6,6.3C0.4,59.3,1,60.3,2,61.2L2,61.2z"/>
<linearGradient id="SVGID_00000159432548206237537760000012126990005378196883_" gradientUnits="userSpaceOnUse" x1="100" y1="196.8" x2="100" y2="6.4" gradientTransform="matrix(1 0 0 -1 0 201.6)">
	<stop  offset="0" style="stop-color:#60C5F1"/>
	<stop  offset="0.23" style="stop-color:#47B5E7"/>
	<stop  offset="0.75" style="stop-color:#1495D3"/>
	<stop  offset="1" style="stop-color:#0089CB"/>
</linearGradient>
<path style="fill:url(#SVGID_00000159432548206237537760000012126990005378196883_);" d="M198.1,91.4
	C198.1,91.4,198.1,91.4,198.1,91.4c-1.5-1.3-3.4-1.8-5.3-1.2c-1.3,0.4-2.6,1.3-3.8,2.6c-1.1,1.2-2.3,2.3-3.6,3.4
	c-4.1,3.6-10.1,3.4-13.9-0.2c-2.2-2.2-4.4-4.5-6.8-6.4c-7.2-5.7-14.4-7.1-22.6-1.3c-3.9,2.8-7.3,6.1-11.1,9c-3.1,2.3-7.4,2.6-11-0.3
	c-3.6-2.9-6.7-6.3-10.4-8.9c-5.7-4.1-12.2-4.9-18.3-1.2c-4.1,2.5-7.7,5.8-11.3,9c-3.3,2.9-8.7,4.5-12.9,0.9
	c-2.9-2.4-5.6-4.9-8.5-7.2c-6.3-5-13.2-6.7-20.5-2.5c-4.1,2.4-7.7,5.8-11.4,8.9c-3,2.5-6.3,3.8-10,2.2c-2.2-1-4.1-2.6-5.9-4.2
	c-3-2.7-5.6-3.9-8.2-2.3C1,92.8,0,94.7,0,96.7c0,0.4,0.1,0.9,0.2,1.3c0.3,1.2,0.9,2.2,1.8,3.1c1.5,1.4,3.1,2.9,4.8,4.2
	c7.4,5.9,17.1,6.6,25,0.8c3.7-2.7,7-5.8,10.6-8.6c2-1.6,4.5-2.8,6.9-0.9c3.1,2.3,6.1,4.7,8.9,7.3c7.3,6.9,17.9,8.4,26.3,2.5
	c3.1-2.2,5.8-4.9,8.7-7.4c4.1-3.6,7.3-3.9,11.6-0.7c2.7,2,4.9,4.7,7.5,6.7c2.8,2.2,5.8,3.8,8.9,4.6c6.9-5.2,15.2-8.8,24.2-10.1
	c0.3-0.2,0.5-0.4,0.8-0.6c4.1-3.2,6.1-3.8,9.6-1.9c1.1,0.6,2.1,1.4,3.1,2.3c9.6,1,18.4,4.6,25.8,10c0.6-0.2,1.1-0.4,1.6-0.7
	c3.9-2,7.3-5.1,10.8-7.8c1.9-1.4,2.9-3.2,2.9-5.2v-0.1C200,93.8,199.2,92.4,198.1,91.4L198.1,91.4z"/>
<linearGradient id="SVGID_00000049914706569916472060000006195968283584318654_" gradientUnits="userSpaceOnUse" x1="53.405" y1="196.8" x2="53.405" y2="6.4" gradientTransform="matrix(1 0 0 -1 0 201.6)">
	<stop  offset="0" style="stop-color:#60C5F1"/>
	<stop  offset="0.23" style="stop-color:#47B5E7"/>
	<stop  offset="0.75" style="stop-color:#1495D3"/>
	<stop  offset="1" style="stop-color:#0089CB"/>
</linearGradient>
<path style="fill:url(#SVGID_00000049914706569916472060000006195968283584318654_);" d="M6.8,145.1c7.4,5.9,17.1,6.6,25,0.8
	c3.7-2.7,7-5.8,10.6-8.6c2-1.6,4.5-2.8,6.9-1c3.1,2.3,6.1,4.7,8.9,7.3c7.3,6.9,17.9,8.4,26.3,2.5c3.1-2.2,5.8-4.9,8.7-7.4
	c3.3-2.9,6-3.7,9.2-2.2c1.1-3.7,2.6-7.2,4.5-10.5c-4.9-2.4-10.2-2.5-15.3,0.6c-4.1,2.5-7.7,5.8-11.3,9c-3.3,2.9-8.7,4.5-12.9,0.9
	c-2.9-2.4-5.6-4.9-8.5-7.2c-6.3-5-13.2-6.7-20.5-2.5c-4.1,2.4-7.7,5.8-11.4,8.9c-3,2.5-6.3,3.8-10,2.2c-2.2-1-4.1-2.6-5.9-4.2
	c-3-2.7-5.6-3.9-8.2-2.3c-1.7,1.1-2.8,3-2.8,4.9c0,0.4,0.1,0.9,0.2,1.3C0.4,139,1,140,2,140.9C3.5,142.4,5.1,143.8,6.8,145.1z"/>
<linearGradient id="SVGID_00000132061203003709409060000003137700451483909506_" gradientUnits="userSpaceOnUse" x1="54.48" y1="196.8" x2="54.48" y2="6.4" gradientTransform="matrix(1 0 0 -1 0 201.6)">
	<stop  offset="0" style="stop-color:#60C5F1"/>
	<stop  offset="0.23" style="stop-color:#47B5E7"/>
	<stop  offset="0.75" style="stop-color:#1495D3"/>
	<stop  offset="1" style="stop-color:#0089CB"/>
</linearGradient>
<path style="fill:url(#SVGID_00000132061203003709409060000003137700451483909506_);" d="M91.5,166.6c-4.1,2.5-7.7,5.8-11.3,9
	c-3.3,2.9-8.7,4.5-12.9,0.9c-2.9-2.4-5.6-4.9-8.5-7.2c-6.3-5-13.2-6.7-20.5-2.5c-4.1,2.4-7.7,5.8-11.4,8.9c-3,2.5-6.3,3.8-10,2.2
	c-2.2-1-4.1-2.6-5.9-4.2c-3-2.8-5.6-3.9-8.2-2.3c-1.7,1.1-2.8,3-2.8,4.9c0,0.4,0.1,0.9,0.2,1.3c0.3,1.1,0.9,2.2,1.8,3.1
	c1.5,1.5,3.1,2.9,4.8,4.2c7.4,5.9,17.1,6.6,25,0.8c3.7-2.7,7-5.8,10.6-8.6c2-1.6,4.5-2.8,6.9-1c3.1,2.3,6.1,4.7,8.9,7.3
	c7.3,7,17.9,8.4,26.3,2.5c3.1-2.2,5.8-4.9,8.7-7.4c4.1-3.6,7.3-3.9,11.6-0.7c1.5,1.1,2.8,2.4,4.2,3.8c-3.5-5.2-6.1-11.1-7.6-17.4
	C98.1,163.9,94.8,164.6,91.5,166.6L91.5,166.6z"/>
<linearGradient id="SVGID_00000073696675871780691650000010561554640542252966_" gradientUnits="userSpaceOnUse" x1="154.31" y1="196.8" x2="154.31" y2="6.4" gradientTransform="matrix(1 0 0 -1 0 201.6)">
	<stop  offset="0" style="stop-color:#60C5F1"/>
	<stop  offset="0.23" style="stop-color:#47B5E7"/>
	<stop  offset="0.75" style="stop-color:#1495D3"/>
	<stop  offset="1" style="stop-color:#0089CB"/>
</linearGradient>
<path style="fill:url(#SVGID_00000073696675871780691650000010561554640542252966_);" d="M196,141.4c-1-3.8-2.5-7.5-4.4-10.8
	c-7.4-12.8-21.3-21.5-37.2-21.5c-16.9,0-31.5,9.7-38.5,23.8c-1.8,3.6-3.1,7.5-3.9,11.6c-0.4,2.5-0.7,5-0.7,7.6
	c0,8.1,2.2,15.6,6.1,22.1l0,0c3.5,5.9,8.4,10.9,14.2,14.5c6.6,4.1,14.4,6.5,22.7,6.5c7.8,0,15.1-2.1,21.4-5.7
	c7.9-4.5,14.2-11.4,17.9-19.8c2.4-5.4,3.7-11.3,3.7-17.6C197.3,148.5,196.9,144.9,196,141.4L196,141.4L196,141.4z M189.4,152.2
	c0,10.5-4.6,19.9-12,26.3c-3.3,2.9-7.2,5.2-11.5,6.7c-3.6,1.3-7.5,2-11.6,2c-5.3,0-10.2-1.2-14.7-3.2c-3.4-1.6-6.6-3.7-9.3-6.3
	c-6.8-6.4-11-15.4-11-25.5c0-1.1,0.1-2.2,0.2-3.2c0.3-3.8,1.3-7.5,2.8-10.8c5.4-12.3,17.8-21,32.1-21c13.5,0,25.3,7.7,31.1,19
	c1.7,3.3,2.9,6.9,3.5,10.7l0,0C189.2,148.6,189.3,150.4,189.4,152.2L189.4,152.2z"/>
<linearGradient id="SVGID_00000128474146266081041950000014270267702675308937_" gradientUnits="userSpaceOnUse" x1="145.675" y1="196.8" x2="145.675" y2="6.4" gradientTransform="matrix(1 0 0 -1 0 201.6)">
	<stop  offset="0" style="stop-color:#60C5F1"/>
	<stop  offset="0.23" style="stop-color:#47B5E7"/>
	<stop  offset="0.75" style="stop-color:#1495D3"/>
	<stop  offset="1" style="stop-color:#0089CB"/>
</linearGradient>
<path style="fill:url(#SVGID_00000128474146266081041950000014270267702675308937_);" d="M155.1,154.7c-0.7,0-1.3,0.2-1.6,0.7
	s-0.6,1-0.9,1.7c-0.5,1.5-1.3,2.6-2.4,3.4c-1.1,0.8-2.4,1.1-3.9,1.1c-1.4,0-2.7-0.3-3.7-1c-1.1-0.7-1.9-1.7-2.4-3.1
	c-0.6-1.4-0.9-3.1-0.9-5.1c0-3.1,0.6-5.5,2-7.1c1.3-1.7,3.1-2.5,5.3-2.5c1.4,0,2.6,0.3,3.5,1c0.9,0.6,1.8,1.6,2.5,2.9
	c0.4,0.8,0.8,1.4,1.1,1.7c0.3,0.3,0.9,0.5,1.5,0.5c0.6,0,1.1-0.2,1.6-0.7c0.4-0.5,0.6-1,0.6-1.6c0-1.1-0.4-2.3-1.3-3.6
	c-0.9-1.3-2.2-2.3-3.9-3.2c-1.7-0.9-3.6-1.3-5.7-1.3l0,0c-1.8,0-3.4,0.3-4.9,0.9c-1.6,0.6-2.9,1.5-4.1,2.7c-1.2,1.2-2.1,2.6-2.7,4.3
	c-0.1,0.4-0.2,0.7-0.4,1.1c-0.4,1.4-0.6,2.9-0.6,4.6c0,1.3,0.1,2.6,0.4,3.7c0.2,1.2,0.6,2.3,1.1,3.3c0.5,1,1.1,1.9,1.8,2.8
	c0.8,0.9,1.6,1.7,2.6,2.2c0.9,0.6,2,1,3.1,1.2c0.9,0.2,2,0.4,3.1,0.4h0c0.2,0,0.5,0,0.7,0c1.8,0,3.4-0.3,4.8-0.9
	c0.5-0.2,0.9-0.4,1.3-0.7l0,0c0.8-0.5,1.5-1,2.1-1.6c0.9-0.9,1.6-1.9,2-2.9c0.4-1,0.6-1.9,0.6-2.7c0-0.7-0.2-1.2-0.7-1.7
	C156.3,154.9,155.8,154.7,155.1,154.7z"/>
<linearGradient id="SVGID_00000053509494339631272130000008609005145541351325_" gradientUnits="userSpaceOnUse" x1="168.24" y1="196.8" x2="168.24" y2="6.4" gradientTransform="matrix(1 0 0 -1 0 201.6)">
	<stop  offset="0" style="stop-color:#60C5F1"/>
	<stop  offset="0.23" style="stop-color:#47B5E7"/>
	<stop  offset="0.75" style="stop-color:#1495D3"/>
	<stop  offset="1" style="stop-color:#0089CB"/>
</linearGradient>
<path style="fill:url(#SVGID_00000053509494339631272130000008609005145541351325_);" d="M172.6,138.8c-0.6,0-0.9,0.1-1.1,0.3
	c-0.2,0.2-0.6,0.8-1.3,1.7c-0.7,0.9-1.4,1.8-2.3,2.5c-0.6,0.6-1.5,1.1-2.4,1.6c-0.3,0.2-0.7,0.4-1.1,0.5c-1,0.5-1.6,0.8-2,1.1
	c-0.4,0.3-0.6,0.7-0.6,1.4c0,0.5,0.2,1,0.6,1.4s0.8,0.6,1.4,0.6c0.9,0,2.6-0.9,5.1-2.7c0.3-0.2,0.7-0.5,1.1-0.8v16.4
	c0,1,0.2,1.7,0.7,2.2c0.4,0.5,1,0.7,1.8,0.7c1.6,0,2.5-1.2,2.5-3.6v-20.7c0-0.9-0.2-1.6-0.6-2C173.8,139,173.3,138.8,172.6,138.8z"
	/>
</svg>
