<?xml version="1.0" encoding="utf-8"?>
<!-- Generator: Adobe Illustrator 28.0.0, SVG Export Plug-In . SVG Version: 6.00 Build 0)  -->
<svg version="1.1" id="Capa_1" xmlns="http://www.w3.org/2000/svg" xmlns:xlink="http://www.w3.org/1999/xlink" x="0px" y="0px"
	 viewBox="0 0 200 200" style="enable-background:new 0 0 200 200;" xml:space="preserve">
<style type="text/css">
	.st0{fill:url(#SVGID_1_);}
	.st1{fill:url(#SVGID_00000077291629845543504900000007120322699868548502_);}
	.st2{fill:url(#SVGID_00000005265521807227454100000008792900894911585161_);}
	.st3{fill:url(#SVGID_00000096744841042964378290000010964437425360172932_);}
	.st4{fill:url(#SVGID_00000110433404745092940030000004615971836703967140_);}
	.st5{fill:url(#SVGID_00000021101263956012370510000002224336404970177412_);}
	.st6{fill:url(#SVGID_00000148663410195189294760000015325844647428028857_);}
	.st7{fill:url(#SVGID_00000098926038375092858740000002595048950428259745_);}
	.st8{fill:url(#SVGID_00000134945119194171988860000001835000609203097261_);}
</style>
<g>
	
		<linearGradient id="SVGID_1_" gradientUnits="userSpaceOnUse" x1="90.27" y1="202" x2="90.27" y2="2" gradientTransform="matrix(1 0 0 -1 0 202)">
		<stop  offset="0" style="stop-color:#FF6839"/>
		<stop  offset="1" style="stop-color:#F3375B"/>
	</linearGradient>
	<path class="st0" d="M85.2,103.8c-0.7,0.7-1.2,1.7-1.2,2.8c0,2.1,1.7,3.8,3.8,3.9c2.6-2.9,5.4-5.6,8.6-7.9H88
		C87,102.6,86,103,85.2,103.8z"/>
	
		<linearGradient id="SVGID_00000181071157115197786590000002002072102341161115_" gradientUnits="userSpaceOnUse" x1="94.465" y1="202" x2="94.465" y2="2" gradientTransform="matrix(1 0 0 -1 0 202)">
		<stop  offset="0" style="stop-color:#FF6839"/>
		<stop  offset="1" style="stop-color:#F3375B"/>
	</linearGradient>
	<path style="fill:url(#SVGID_00000181071157115197786590000002002072102341161115_);" d="M100.9,76.9H88c-1.1,0-2.1,0.4-2.8,1.2
		c-0.7,0.7-1.2,1.7-1.2,2.8c0,2.2,1.8,4,4,4h12.8c1.1,0,2.1-0.4,2.8-1.2c0.7-0.7,1.2-1.7,1.2-2.8C104.8,78.7,103.1,76.9,100.9,76.9z
		"/>
	
		<linearGradient id="SVGID_00000098941086992629700590000002788631075065394359_" gradientUnits="userSpaceOnUse" x1="94.465" y1="202" x2="94.465" y2="2" gradientTransform="matrix(1 0 0 -1 0 202)">
		<stop  offset="0" style="stop-color:#FF6839"/>
		<stop  offset="1" style="stop-color:#F3375B"/>
	</linearGradient>
	<path style="fill:url(#SVGID_00000098941086992629700590000002788631075065394359_);" d="M103.7,96.5c0.7-0.7,1.2-1.7,1.2-2.8
		c0-2.2-1.8-4-4-4H88.1c-1.1,0-2.1,0.4-2.8,1.2c-0.7,0.7-1.2,1.7-1.2,2.8c0,2.2,1.8,4,4,4h12.8C102,97.7,103,97.2,103.7,96.5z"/>
	
		<linearGradient id="SVGID_00000159464577981209901840000014024553181643021243_" gradientUnits="userSpaceOnUse" x1="94.465" y1="202" x2="94.465" y2="2" gradientTransform="matrix(1 0 0 -1 0 202)">
		<stop  offset="0" style="stop-color:#FF6839"/>
		<stop  offset="1" style="stop-color:#F3375B"/>
	</linearGradient>
	<path style="fill:url(#SVGID_00000159464577981209901840000014024553181643021243_);" d="M85.2,52.5c-0.7,0.7-1.2,1.7-1.2,2.8
		c0,2.2,1.8,4,4,4h12.8c1.1,0,2.1-0.4,2.8-1.2c0.7-0.7,1.2-1.7,1.2-2.8c0-2.2-1.8-4-4-4H88.1C87,51.4,86,51.8,85.2,52.5z"/>
	
		<linearGradient id="SVGID_00000134228226784596097480000013126563834010891404_" gradientUnits="userSpaceOnUse" x1="64.9464" y1="202" x2="64.9464" y2="2" gradientTransform="matrix(1 0 0 -1 0 202)">
		<stop  offset="0" style="stop-color:#FF6839"/>
		<stop  offset="1" style="stop-color:#F3375B"/>
	</linearGradient>
	<path style="fill:url(#SVGID_00000134228226784596097480000013126563834010891404_);" d="M68.7,40.5c-1.1,0-2.1,0.4-2.8,1.2
		c-0.7,0.7-1.2,1.7-1.2,2.8v92l-1.2,0.3c-11.5,3-18.3,14.7-15.4,26.2c2.9,11.4,14.7,18.3,26.2,15.4c3.1-0.8,5.9-2.3,8.2-4.2
		c-5.1-8.2-8-17.9-8-28.2c0-3.1,0.2-6.1,0.8-9c-0.3-0.1-0.6-0.2-0.9-0.3l-1.7-0.4V44.5C72.7,42.3,70.9,40.5,68.7,40.5z"/>
	
		<linearGradient id="SVGID_00000173136786157026110500000005254506562709329797_" gradientUnits="userSpaceOnUse" x1="94.465" y1="202" x2="94.465" y2="2" gradientTransform="matrix(1 0 0 -1 0 202)">
		<stop  offset="0" style="stop-color:#FF6839"/>
		<stop  offset="1" style="stop-color:#F3375B"/>
	</linearGradient>
	<path style="fill:url(#SVGID_00000173136786157026110500000005254506562709329797_);" d="M100.9,64.1H88c-1.1,0-2.1,0.4-2.8,1.2
		c-0.7,0.7-1.2,1.7-1.2,2.8c0,2.2,1.8,4,4,4h12.8c1.1,0,2.1-0.4,2.8-1.2c0.7-0.7,1.2-1.7,1.2-2.8C104.8,65.9,103.1,64.1,100.9,64.1z
		"/>
	
		<linearGradient id="SVGID_00000052106481639539123700000008744796847344694935_" gradientUnits="userSpaceOnUse" x1="61.6723" y1="201.99" x2="61.6723" y2="1.975" gradientTransform="matrix(1 0 0 -1 0 202)">
		<stop  offset="0" style="stop-color:#FF6839"/>
		<stop  offset="1" style="stop-color:#F3375B"/>
	</linearGradient>
	<path style="fill:url(#SVGID_00000052106481639539123700000008744796847344694935_);" d="M67.2,192.2c-18-0.9-32.4-15.3-33.1-33.4
		c-0.2-9.4,3.5-18.4,10.2-25.1c2.2-2.3,4.8-4.3,7.6-5.9l1.6-0.9V23.4c0-4.1,1.7-8,4.7-10.8c5.7-6.1,15.3-6.3,21.5-0.6
		c3,2.8,4.7,6.8,4.7,10.9v19.4c0,2.2,1.8,4,4,4c1.1,0,2.1-0.5,2.8-1.2c0.7-0.7,1.2-1.7,1.2-2.8V23.4c-0.1-11.1-7.9-20.8-18.7-23
		c-3.2-0.6-6.4-0.6-9.6,0c-4.5,0.9-8.6,3.2-11.9,6.4c-4.1,4.3-6.4,10-6.4,16v99.2c-0.2,0.1-0.5,0.3-0.5,0.3
		C33,130.3,25.7,144,26.2,158.6c0.7,18.8,13.5,35.2,31.8,40.2c7.3,1.7,15,1.7,22.4,0c6.2-1.7,11.9-4.7,16.7-8.9
		c-2.4-1.7-4.6-3.6-6.6-5.6C83.9,189.7,75.6,192.6,67.2,192.2L67.2,192.2z"/>
</g>
<g>
	
		<linearGradient id="SVGID_00000027586631797168500350000018052683941963498388_" gradientUnits="userSpaceOnUse" x1="140.1382" y1="202" x2="140.1382" y2="2" gradientTransform="matrix(1 0 0 -1 0 202)">
		<stop  offset="0" style="stop-color:#FF6839"/>
		<stop  offset="1" style="stop-color:#F3375B"/>
	</linearGradient>
	<path style="fill:url(#SVGID_00000027586631797168500350000018052683941963498388_);" d="M173.8,163.1c-0.4,1.1-1.2,1.9-2.3,2.5
		c-3.5,2-6.9,4-10.4,6c-0.9,0.5-1.8,0.8-2.9,0.5c-1.5-0.4-2.5-1.6-2.6-3.3c-0.1-2.8-0.3-5.6-0.4-8.3c-0.1-1.4-0.1-2.9-0.2-4.4
		c0-1.9,1-3.3,2.6-3.7c1.8-0.4,3.2,0.5,4,2.3c0,0.1,0.1,0.1,0.2,0.4c0.2-1.1,0.5-2,0.6-2.9c2.9-15.6-5.2-31.5-19.6-38.5
		c-5.8-2.8-11.9-4-18.3-3.5c-4.5,0.3-8.7,1.5-12.8,3.5c-0.5,0.3-1.1,0.5-1.7,0.6c-1.7,0.2-3.1-0.7-3.6-2.3c-0.5-1.6,0.1-3.2,1.6-4
		c1.5-0.8,3.1-1.5,4.7-2.1c5.3-1.9,10.9-2.9,16.6-2.5c16.9,1.3,29.2,9.7,36.6,25c2.9,6.1,4.1,12.7,3.8,19.4c-0.2,3.8-0.9,7.5-2,11.1
		c-0.1,0.2-0.1,0.4-0.2,0.7c0,0.1,0,0.1,0.1,0.3c0.3-0.1,0.6-0.3,0.8-0.4c2.1-1.2,4.1-0.6,5.1,1.6c0,0.1,0.1,0.1,0.1,0.2
		L173.8,163.1L173.8,163.1z"/>
	
		<linearGradient id="SVGID_00000037655887157472921910000000549272625998680239_" gradientUnits="userSpaceOnUse" x1="116.0072" y1="202" x2="116.0072" y2="2" gradientTransform="matrix(1 0 0 -1 0 202)">
		<stop  offset="0" style="stop-color:#FF6839"/>
		<stop  offset="1" style="stop-color:#F3375B"/>
	</linearGradient>
	<path style="fill:url(#SVGID_00000037655887157472921910000000549272625998680239_);" d="M88,129.6c-0.6,0.2-1.1,0.4-1.6,0.4
		c-1.7,0.2-3.1-0.8-3.6-2.3c-0.5-1.5,0.1-3.1,1.5-3.9c1.2-0.7,2.4-1.4,3.6-2.1c2.6-1.5,5.2-3,7.8-4.5c1.9-1.1,4.1-0.3,4.8,1.6
		c0.2,0.6,0.3,1.2,0.3,1.8c0,4,0,8.1,0,12.1c0,0.4,0,0.8-0.1,1.2c-0.3,1.5-1.6,2.6-3.1,2.7c-1.5,0.1-2.9-0.9-3.4-2.4
		c-0.1-0.3-0.1-0.7-0.2-1.3c-0.4,1.1-0.8,2.1-1,3.1c-5.4,18.8,5.4,38.6,24.2,44.1c9.2,2.7,18.2,1.8,26.7-2.6
		c0.9-0.4,1.8-0.8,2.8-0.6c1.4,0.3,2.4,1.4,2.6,2.7c0.2,1.5-0.3,2.9-1.7,3.5c-2.4,1.1-4.8,2.2-7.2,3.1c-5.1,1.8-10.5,2.4-15.9,2
		c-19.7-1.4-35-15.8-38.7-33.9c-1.7-8.3-1-16.4,2.1-24.2C87.9,130,87.9,129.8,88,129.6L88,129.6z"/>
</g>
</svg>
