<?xml version="1.0" encoding="utf-8"?>
<!-- Generator: Adobe Illustrator 28.0.0, SVG Export Plug-In . SVG Version: 6.00 Build 0)  -->
<svg version="1.1" id="Capa_1" xmlns="http://www.w3.org/2000/svg" xmlns:xlink="http://www.w3.org/1999/xlink" x="0px" y="0px"
	 viewBox="0 0 200 200" style="enable-background:new 0 0 200 200;" xml:space="preserve">
<style type="text/css">
	.st0{fill:url(#SVGID_1_);}
	.st1{fill:url(#thermometer_00000145051560119667661720000009151206642340384647_);}
	.st2{fill:url(#SVGID_00000042006341957510812210000007577023245154811298_);}
	.st3{fill:url(#SVGID_00000035498186079416956320000010553986537449529007_);}
</style>
<g>
	<g>
		<linearGradient id="SVGID_1_" gradientUnits="userSpaceOnUse" x1="43.4695" y1="18.8605" x2="185.676" y2="161.0671">
			<stop  offset="0" style="stop-color:#FCC865"/>
			<stop  offset="1" style="stop-color:#BE563C"/>
		</linearGradient>
		<path class="st0" d="M47,77.2c0,1.9,1.6,3.5,3.5,3.5s3.5-1.6,3.5-3.5V24.4L65.6,36c1.4,1.4,3.6,1.4,5,0s1.4-3.6,0-5L54.1,14.6
			c-1.8-1.8-4.6-1.8-6.4,0L30.1,32.3c-1.4,1.4-1.4,3.6,0,5c0.7,0.7,1.6,1,2.5,1s1.8-0.3,2.5-1l12-12C47,25.2,47,77.2,47,77.2z"/>
		
			<linearGradient id="thermometer_00000001624603759756215940000000472910420769972871_" gradientUnits="userSpaceOnUse" x1="43.4695" y1="18.8605" x2="185.676" y2="161.0671">
			<stop  offset="0" style="stop-color:#FCC865"/>
			<stop  offset="1" style="stop-color:#BE563C"/>
		</linearGradient>
		
			<path id="thermometer_00000153691841178434280080000009903241338736251576_" style="fill:url(#thermometer_00000001624603759756215940000000472910420769972871_);" d="
			M147.7,102.6h12.8c2.2,0,4,1.8,4,4v0c0,2.2-1.8,4-4,4h-12.8c-2.2,0-4-1.8-4-4v0C143.7,104.4,145.5,102.6,147.7,102.6z M147.7,89.8
			h12.8c2.2,0,4,1.8,4,4v0c0,2.2-1.8,4-4,4h-12.8c-2.2,0-4-1.8-4-4v0C143.7,91.5,145.5,89.8,147.7,89.8z M147.7,76.9h12.8
			c2.2,0,4,1.8,4,4v0c0,2.2-1.8,4-4,4h-12.8c-2.2,0-4-1.8-4-4v0C143.7,78.7,145.5,76.9,147.7,76.9z M147.7,64.1h12.8
			c2.2,0,4,1.8,4,4v0c0,2.2-1.8,4-4,4h-12.8c-2.2,0-4-1.8-4-4v0C143.7,65.9,145.5,64.1,147.7,64.1z M147.7,51.4h12.8
			c2.2,0,4,1.8,4,4v0c0,2.2-1.8,4-4,4h-12.8c-2.2,0-4-1.8-4-4v0C143.7,53.1,145.5,51.4,147.7,51.4z M159.3,187.2
			c7.5-7.9,11.6-18.3,11.6-29.2c-0.1-14.3-7.3-27.7-19.2-35.6v-3.1c0-2.2-1.8-4-4-4l0,0c-2.2,0-4,1.8-4,4v7.3l2.1,1.2
			c10.6,6.1,17.1,17.3,17.3,29.6c0,8.9-3.5,17.5-9.8,23.9c-0.4,0.5-0.8,0.9-1.3,1.3c-6.8,6.5-15.9,10-25.3,9.6
			c-18-0.9-32.4-15.3-33.1-33.4c-0.2-9.4,3.5-18.4,10.2-25.1c2.2-2.3,4.8-4.3,7.6-5.9l1.6-0.9V23.4c0-4.1,1.7-8,4.7-10.8
			c5.7-6.1,15.3-6.3,21.5-0.6c3,2.8,4.7,6.8,4.7,10.9v19.3c0,2.2,1.8,4,4,4h0c2.2,0,4-1.8,4-4V23.4c-0.1-11.1-7.9-20.7-18.7-23
			c-3.2-0.6-6.4-0.6-9.6,0c-4.5,0.9-8.6,3.2-11.9,6.4c-4.1,4.3-6.4,10-6.4,16v99.2c-0.2,0.1-0.5,0.3-0.5,0.3
			c-12.2,7.8-19.4,21.6-18.9,36.1c0.7,18.8,13.5,35.2,31.8,40.2c7.3,1.7,15,1.7,22.4,0c6.9-1.9,13.3-5.4,18.4-10.4
			C158.6,188,159,187.6,159.3,187.2z M134,136.8l-1.7-0.4V44.5c0-2.2-1.8-4-4-4l0,0c-2.2,0-4,1.8-4,4v92l-1.2,0.3
			c-11.5,3-18.3,14.7-15.4,26.2s14.7,18.3,26.2,15.4c11.5-3,18.3-14.7,15.4-26.2C147.4,144.7,141.5,138.8,134,136.8L134,136.8z"/>
		
			<linearGradient id="SVGID_00000060722876057693785280000017930596372121657259_" gradientUnits="userSpaceOnUse" x1="43.4695" y1="18.8605" x2="185.676" y2="161.0671">
			<stop  offset="0" style="stop-color:#FCC865"/>
			<stop  offset="1" style="stop-color:#BE563C"/>
		</linearGradient>
		<path style="fill:url(#SVGID_00000060722876057693785280000017930596372121657259_);" d="M88.4,98.6c-1.4-1.4-3.6-1.4-5,0l-12,12
			v-52c0-1.9-1.6-3.5-3.5-3.5s-3.5,1.6-3.5,3.5v52.8L52.8,99.8c-1.4-1.4-3.6-1.4-5,0s-1.4,3.6,0,5l16.5,16.5c0.9,0.9,2,1.3,3.2,1.3
			s2.3-0.4,3.2-1.3l17.7-17.7C89.8,102.2,89.8,100,88.4,98.6L88.4,98.6z"/>
	</g>
</g>
<linearGradient id="SVGID_00000160172518137722365920000008682520175769503159_" gradientUnits="userSpaceOnUse" x1="-172.7066" y1="-82.0526" x2="-42.9993" y2="47.6463">
	<stop  offset="0" style="stop-color:#FCC865"/>
	<stop  offset="1" style="stop-color:#BE563C"/>
</linearGradient>
<rect x="-151.6" y="-53.5" style="fill:url(#SVGID_00000160172518137722365920000008682520175769503159_);" width="37" height="22.1"/>
</svg>
