<?xml version="1.0" encoding="utf-8"?>
<!-- Generator: Adobe Illustrator 28.0.0, SVG Export Plug-In . SVG Version: 6.00 Build 0)  -->
<svg version="1.1" id="Capa_1" xmlns="http://www.w3.org/2000/svg" xmlns:xlink="http://www.w3.org/1999/xlink" x="0px" y="0px"
	 viewBox="0 0 197 189.3" style="enable-background:new 0 0 197 189.3;" xml:space="preserve">
<style type="text/css">
	.st0{fill:url(#SVGID_1_);}
	.st1{fill:url(#SVGID_00000002379659562304191020000007708077452335960203_);}
	.st2{fill:url(#SVGID_00000103960142437468889980000008583703064475871360_);}
</style>
<linearGradient id="SVGID_1_" gradientUnits="userSpaceOnUse" x1="0" y1="57.5997" x2="197" y2="57.5997" gradientTransform="matrix(1 0 0 -1 0 192)">
	<stop  offset="0" style="stop-color:#D5DC5D"/>
	<stop  offset="0.26" style="stop-color:#BCD462"/>
	<stop  offset="0.81" style="stop-color:#7DC06E"/>
	<stop  offset="1" style="stop-color:#65B872"/>
</linearGradient>
<path class="st0" d="M115.9,178.8c-1.3-5.9-2.9-11.2-3.5-16.6c-2.4-23.3,5.7-42.3,23.9-57c5.1-4.1,10.7-7.2,16.9-9.3
	c8.3-2.8,15.3-7.6,20.8-14.4c2.2-2.8,4.6-2.8,6.9-0.1c15.6,18.3,20.2,39.2,12.3,61.9c-7.9,23-24.5,36.8-48.5,41.4
	c-7,1.4-14.1,1.2-21.2,0.1c-1.1-0.2-2.3,0-3.3,0.3c-5.8,1.3-11.7,2.8-17.5,4c-2.4,0.5-4.3-0.9-4.7-3.1c-0.3-2.2,1-3.9,3.5-4.4
	C106.4,180.7,111.3,179.7,115.9,178.8L115.9,178.8z M136.5,177.7c8.4,0.1,16.2-2,23.4-5.9c10.9-5.8,18.9-14.4,24.1-25.6
	c9.8-20.9,4.2-44.2-6.8-56.6c-5.9,6.3-13.1,10.6-21.2,13.6c-25.9,9.5-40.4,34.9-35.6,62.1c0.6,3.5,1.9,6.9,3,11.1
	c5.4-3.4,10.3-6.4,15.2-9.3c2.1-1.3,2.4-2.8,1.9-5c-0.9-4.5-1.6-9.1-2.2-13.6c-0.3-2.2,1.1-3.9,3-4.2c2.2-0.4,3.8,0.8,4.4,3
	c0.1,0.5,0.2,1,0.3,1.5c0.6,3.3,1.1,6.6,1.7,10.2c0.6-0.6,1.1-0.9,1.4-1.3c3.6-4.9,7.5-9.6,10.7-14.7c3.9-6.1,6.4-12.9,8.1-20
	c0.1-0.4,0.2-0.9,0.4-1.3c0.7-2.1,2.6-3.2,4.7-2.7c2,0.5,3.3,2.5,2.6,4.6c-1.4,4.8-3.1,9.6-4.7,14.4c-0.2,0.6-0.5,1.2-0.8,2
	c1-0.3,1.7-0.6,2.4-0.8c2.7-0.9,4.8-0.1,5.5,2.1c0.8,2.2-0.4,4.2-3,5.1c-2.9,1-5.8,1.9-8.7,3c-1,0.4-2,1.1-2.6,2
	c-6.5,9.8-14.7,18-24.6,24.5C138.4,176.5,137.4,177.1,136.5,177.7L136.5,177.7z"/>
<linearGradient id="SVGID_00000104686354156919213620000016312085976064422542_" gradientUnits="userSpaceOnUse" x1="0" y1="154.812" x2="197" y2="154.812" gradientTransform="matrix(1 0 0 -1 0 192)">
	<stop  offset="0" style="stop-color:#D5DC5D"/>
	<stop  offset="0.26" style="stop-color:#BCD462"/>
	<stop  offset="0.81" style="stop-color:#7DC06E"/>
	<stop  offset="1" style="stop-color:#65B872"/>
</linearGradient>
<path style="fill:url(#SVGID_00000104686354156919213620000016312085976064422542_);" d="M93.2,22.9c-1-0.9-1.7-1.5-2.4-2.2
	c-1.5-1.6-1.7-3.8-0.3-5.4c1.4-1.6,3.6-1.8,5.3-0.4c2.7,2.2,5.2,4.6,7.8,6.8c0.6,0.5,1.4,0.9,2.2,1c12.8,0.7,24.9,4.1,36.2,10.2
	c0.2,0.1,0.5,0.2,0.8,0.3c0.1-0.1,0.2-0.2,0.4-0.4c-1.8-2.3-3.4-4.8-5.5-7C121.5,8.8,102,3.9,79.4,10.5c-0.6,0.2-1.2,0.4-1.8,0.6
	c-2.1,0.4-4-0.6-4.6-2.5c-0.6-2,0.3-4.2,2.4-4.8c3.9-1.2,7.8-2.4,11.8-3c26.7-4,52.1,8.6,64.8,32.2c1.1,2,2.2,4.1,2.9,6.2
	c0.8,2.4,2.3,4.1,4.1,5.8c3.8,3.8,7.3,7.8,10.9,11.8c1.2,1.4,1.3,3.1,0.3,4.6c-0.9,1.4-2.4,2.1-4,1.5c-1.1-0.4-2-1.3-2.8-2.1
	c-3.2-3.5-6.3-7.1-9.6-10.8c-0.8,0.9-1.3,1.5-1.8,2.1C137.8,68.3,120,75.7,98.8,74.2c-13-0.9-24.7-5.8-34.7-14.3
	c-6.8-5.8-14.3-9.7-23.2-11.1c-3.5-0.5-4.6-2.6-3.5-5.9c2-6,4.8-11.6,8.4-16.7c1.6-2.2,3.7-2.8,5.6-1.5c1.9,1.3,2.2,3.5,0.7,5.9
	c-2.2,3.6-4.3,7.3-6.4,10.8c4.6,2,9,3.4,13,5.6c3.6,2,7,4.5,10.2,7.1c23.2,19.4,58.5,16.1,77.6-7.3c0.3-0.3,0.5-0.7,1-1.3
	c-1.3-0.9-2.6-1.9-3.9-2.7c-4.1-2.2-8.4-4.4-12.5-6.6c-1.1-0.6-1.8-0.3-2.7,0.4c-3.8,3.2-7.7,6.3-11.6,9.5c-1.4,1.2-3,1.4-4.6,0.4
	c-1.5-0.9-2.1-2.3-1.7-3.9c0.3-1,1-1.9,1.8-2.6c2.7-2.4,5.6-4.6,8.4-6.9c0-0.2,0-0.4-0.1-0.6c-4.1-0.6-8.2-1.5-12.4-1.9
	c-9.8-0.9-19.5,0.1-29,2.9c-2.7,0.8-4.8-0.2-5.5-2.4c-0.7-2.3,0.6-4.4,3.4-5c4.8-1.1,9.6-1.9,14.4-2.9C92,23.1,92.4,23,93.2,22.9
	L93.2,22.9z"/>
<linearGradient id="SVGID_00000105415376149655033070000016213125182598462094_" gradientUnits="userSpaceOnUse" x1="8.566704e-04" y1="66.9601" x2="197.0009" y2="66.9601" gradientTransform="matrix(1 0 0 -1 0 192)">
	<stop  offset="0" style="stop-color:#D5DC5D"/>
	<stop  offset="0.26" style="stop-color:#BCD462"/>
	<stop  offset="0.81" style="stop-color:#7DC06E"/>
	<stop  offset="1" style="stop-color:#65B872"/>
</linearGradient>
<path style="fill:url(#SVGID_00000105415376149655033070000016213125182598462094_);" d="M23.9,81.5c5.7,1.9,11.1,3.1,16.1,5.3
	c21.3,9.7,33.7,26.2,37.3,49.4c1,6.4,0.8,12.9-0.5,19.2c-1.7,8.6-1.1,17,1.9,25.2c1.2,3.3,0.1,5.4-3.4,6c-23.7,4.2-44-2.3-59.7-20.5
	c-15.8-18.4-19.5-39.7-11.4-62.8c2.4-6.8,6-12.8,10.6-18.3c0.7-0.8,1.1-2,1.4-3c1.8-5.7,3.5-11.5,5.4-17.2c0.8-2.3,3-3.3,5-2.5
	s2.9,2.8,2,5.2C27,72.4,25.4,77.1,23.9,81.5L23.9,81.5z M14.5,99.9c-4.3,7.2-6.4,15-6.7,23.2c-0.4,12.4,3,23.6,10,33.8
	C31,175.9,54,182.8,70.2,179.5c-2.5-8.3-2.6-16.7-1.1-25.2c4.8-27.2-9.8-52.5-35.8-62c-3.4-1.2-6.9-1.9-11.1-3
	c0.2,6.4,0.4,12.1,0.4,17.8c0,2.5,1.2,3.5,3.4,4.2c4.4,1.5,8.6,3.2,12.9,4.9c2,0.8,2.8,2.9,2.1,4.7c-0.8,2-2.6,2.9-4.8,2.3
	c-0.5-0.1-1-0.3-1.5-0.5c-3.1-1.2-6.3-2.4-9.7-3.7c0.2,0.8,0.2,1.4,0.4,1.9c2.4,5.6,4.5,11.3,7.3,16.6c3.3,6.4,8,12,13.2,17.1
	c0.3,0.3,0.6,0.6,0.9,1c1.5,1.7,1.4,3.9,0,5.4c-1.4,1.4-3.8,1.6-5.3,0c-3.5-3.7-6.7-7.5-10.1-11.2c-0.4-0.5-0.8-1-1.4-1.7
	c-0.2,1.1-0.4,1.7-0.5,2.4c-0.6,2.8-2.3,4.1-4.6,3.7c-2.3-0.4-3.4-2.4-2.9-5.2c0.6-3,1.3-6,1.8-9c0.2-1,0-2.3-0.4-3.2
	c-5.2-10.6-8.2-21.8-8.8-33.5C14.6,102.2,14.6,101,14.5,99.9L14.5,99.9z"/>
</svg>
