<?xml version="1.0" encoding="UTF-8"?>
<svg id="Pruebas" xmlns="http://www.w3.org/2000/svg" xmlns:xlink="http://www.w3.org/1999/xlink" viewBox="0 0 200 200">
  <defs>
    <style>
      .cls-1 {
        fill: url(#Degradado_sin_nombre_32);
        stroke-width: 0px;
      }
    </style>
    <linearGradient id="Degradado_sin_nombre_32" data-name="Degradado sin nombre 32" x1="34.89" y1="158.54" x2="195.26" y2="65.95" gradientUnits="userSpaceOnUse">
      <stop offset="0" stop-color="#eb6840"/>
      <stop offset=".43" stop-color="#e63a5d"/>
      <stop offset="1" stop-color="#874592"/>
    </linearGradient>
  </defs>
  <path class="cls-1" d="m198.86,80.9v1.07c0,5.72-.73,11.16-2.18,16.18-.39,1.35-.8,2.53-1.25,3.59-5.99,14.16-16.83,23.19-32.21,26.85-.31.07-.63.11-.97.15v-10.07c10.63-2.85,18.42-9.08,23.14-18.54,3.56-7.13,4.57-14.62,3.01-22.28-1.93-9.5-7.76-17.95-15.98-23.16-9.05-5.75-19.13-6.77-31.64-3.2-2.17-15.47-9.14-26.63-21.29-34.1-7.86-4.83-16.85-7.01-26.01-6.27-12.53,1-22.96,6.49-31,16.32-7.28,8.9-10.46,19.71-9.7,33.02-.19-.03-.38-.05-.56-.08-1.17-.18-2.18-.33-3.17-.55-17.07-3.87-29.09,5.54-34.2,14.79-4.38,7.94-4.99,17.33-1.66,25.77,3.33,8.43,10.17,14.88,18.79,17.69.39.12.78.26,1.18.41v10.15c-6.05-1.17-11.42-3.63-16.38-7.5-8.28-6.47-13.67-15.64-15.18-25.84-1.79-12.14,1.68-23.83,9.76-32.92,7.93-8.92,19.04-13.86,30.52-13.5l.84.02.17-.82C48.65,20.51,64.38,4.93,89.64,1.79c27.46-3.42,47.29,9.11,59,37.23l.29.7.76-.09c4.78-.6,9.96-.2,15.39,1.2,17.87,4.59,31.02,19.39,33.5,37.7v.1c.04.19.07.37.1.56.09.6.18,1.16.18,1.71Z"/>
  <path class="cls-1" d="m168.68,188.96h22.78v9.81h-36.21c-.01-.45-.02-.89-.03-1.34-.03-1.71-.06-3.34.11-4.96.48-4.59,2.74-8.3,6.72-11.02,5.2-3.55,10.39-7.12,15.58-10.7,3.83-2.64,5.01-5.89,3.52-9.66-1.4-3.53-4.96-5.57-8.88-5.12-3.79.44-6.62,3.53-7.05,7.67-.09.86-.11,1.71-.14,2.6,0,.11-.01.22-.01.33h-9.8c-.45-6.75,1.61-12.04,6.27-16.16,7.03-6.21,17.87-5.88,24.67.74,6.68,6.51,7.32,17.02,1.46,23.92-1.35,1.57-3.11,2.9-4.67,4.02-2.57,1.86-5.21,3.65-8.01,5.55-1.18.81-2.4,1.64-3.65,2.5l-2.66,1.82Z"/>
  <path class="cls-1" d="m149.36,126.38v-2.77c.01-3.04.02-6.17-.32-9.18-1.35-11.97-11.51-20.59-23.94-20.59-.52,0-1.04,0-1.57.04-11.54.67-21.33,11.37-21.38,23.35-.02,3.58-.01,7.15-.01,10.72v4.09c.01,1.7,0,3.39,0,5.08,0,3.45-.02,7.01.02,10.5.14,11.89,10.33,22.31,22.24,22.74,6.72.25,12.98-2.09,17.66-6.57,4.67-4.48,7.26-10.64,7.3-17.34.05-6.69.05-13.44,0-20.07Zm-10.02,1.1c-.02,1.56-.03,3.12-.03,4.69l-.04,1c0,1.27.01,2.54.02,3.81.04,3.61.07,7.33-.07,11-.22,5.91-4.96,11.15-11.01,12.19-.83.14-1.65.21-2.47.21-3.25,0-6.38-1.09-8.86-3.13-3.02-2.5-4.72-6.06-4.8-10.03-.19-9.41-.19-19.3-.01-30.24.13-7.31,6.24-13.25,13.63-13.26,3.69,0,7.03,1.45,9.47,3.83,2.44,2.38,4,5.69,4.11,9.39.11,3.52.08,7.08.06,10.54Z"/>
  <path class="cls-1" d="m83.17,147.82h9.91c-.01.1-.01.21-.02.31-.05.99-.1,1.92-.27,2.82-2.11,11.6-12.41,19.77-24.38,19.42-11.06-.33-20.86-9.42-22.31-20.72-.12-.9-.11-1.82-.11-2.8v-7.13c-.02-7.35-.03-14.71,0-22.07.05-12.25,9.26-22.68,20.97-23.74.79-.08,1.56-.11,2.33-.11,11.41,0,21.07,7.73,23.43,19.11.19.95.27,1.95.36,3.01.02.17.03.35.05.53h-9.89c-.02-.1-.04-.2-.06-.3-.14-.8-.28-1.62-.51-2.41-1.77-6.44-8.03-10.71-14.51-9.96-6.89.8-12.16,6.43-12.25,13.09-.14,10.37-.14,20.61,0,30.42.1,7.09,5.94,12.87,13.29,13.17,6.86.27,13.07-5.14,13.88-12.08.03-.18.06-.37.09-.56Z"/>
</svg>