<?xml version="1.0" encoding="utf-8"?>
<!-- Generator: Adobe Illustrator 28.0.0, SVG Export Plug-In . SVG Version: 6.00 Build 0)  -->
<svg version="1.1" id="Capa_1" xmlns="http://www.w3.org/2000/svg" xmlns:xlink="http://www.w3.org/1999/xlink" x="0px" y="0px"
	 viewBox="0 0 196.8 182.2" style="enable-background:new 0 0 196.8 182.2;" xml:space="preserve">
<style type="text/css">
	.st0{fill:url(#SVGID_1_);}
	.st1{fill:url(#SVGID_00000095308119811042735790000010308861768206413728_);}
</style>
<g>
	
		<linearGradient id="SVGID_1_" gradientUnits="userSpaceOnUse" x1="0" y1="109.9586" x2="196.79" y2="109.9586" gradientTransform="matrix(1 0 0 -1 0 184)">
		<stop  offset="0" style="stop-color:#2DB6B6"/>
		<stop  offset="0.5" style="stop-color:#0099CC"/>
		<stop  offset="1" style="stop-color:#006699"/>
	</linearGradient>
	<path class="st0" d="M187.3,117.1c-4.8,2.1-9.5,4.4-14.8,5c-0.6,0.1-1.1,0.1-1.7,0.2c-0.4,0-0.8,0.1-1.4,0.1c-0.1,0-0.2,0-0.3,0V90
		c13-1,23.7-10.2,26.7-23.7l0.1-0.3c0.4-1.7,0.8-3.4,0.9-5.5c0-0.4,0-0.8,0-1.2v-0.4c0-2.3-1.9-4.1-4.2-4l0,0
		c-4.3,0.2-8.5,1.1-12.9,2.8c-4.3,1.7-7.8,4.1-10.6,7.3V35.1c13-1,23.7-10.2,26.7-23.7l0.1-0.3c0.4-1.7,0.8-3.4,0.9-5.5
		c0-0.4,0-0.8,0-1.2V4c0-2.3-1.9-4.1-4.2-4l0,0c-4.3,0.2-8.5,1.1-12.9,2.8c-6.8,2.6-11.7,7.2-14.7,13.9c-3-6.6-7.9-11.2-14.7-13.9
		c-4.4-1.7-8.6-2.6-12.9-2.8l0,0c-2.3-0.1-4.2,1.7-4.2,4v0.4c0,0.5,0,0.8,0,1.2c0.1,2.1,0.5,3.8,0.9,5.5l0.1,0.3
		c3,13.4,13.7,22.7,26.7,23.7V65c-2.8-3.2-6.3-5.7-10.6-7.3c-4.4-1.7-8.6-2.6-12.9-2.8l0,0c-2.3-0.1-4.2,1.7-4.2,4v0.4
		c0,0.5,0,0.8,0,1.2c0.1,2.1,0.5,3.8,0.9,5.5l0.1,0.3c3,13.4,13.7,22.7,26.7,23.7V122c-0.1,0-0.3-0.1-0.5-0.1
		c-3.9-0.5-7.3-1.7-10.6-3.3c-2.8-1.3-5.5-2.8-8.4-3.6c-8.4-2.3-16.5-1.4-24.2,2.8c-4.9,2.7-10.3,4.2-15.9,4.5
		c-8.2,0.5-15.8-1.5-23.1-5.2c-9.2-4.7-18.6-4.4-27.9,0c-3.3,1.6-6.7,2.8-10.1,4.1c-1,0.4-2.3,0.7-3.6,0.9c-0.2,0-0.4,0-0.6,0.1V90
		c13-1,23.7-10.2,26.7-23.7l0.1-0.3c0.4-1.7,0.8-3.4,0.9-5.5c0-0.4,0-0.8,0-1.2v-0.4c0-2.3-1.9-4.1-4.2-4l0,0
		C55,55,50.8,56,46.4,57.6c-4.3,1.7-7.8,4.1-10.6,7.3V35.1c13-1,23.7-10.2,26.7-23.7l0.1-0.3c0.4-1.7,0.8-3.4,0.9-5.5
		c0-0.4,0-0.8,0-1.2V4c0-2.3-1.9-4.1-4.2-4l0,0C55,0.2,50.8,1.1,46.4,2.8C39.6,5.4,34.7,10,31.7,16.6c-3-6.6-7.9-11.2-14.7-13.9
		C12.7,1.1,8.5,0.2,4.2,0l0,0C1.9-0.1,0,1.7,0,4v0.4c0,0.5,0,0.8,0,1.2c0.1,2.1,0.5,3.8,0.9,5.5l0.1,0.3c3,13.4,13.7,22.7,26.7,23.7
		V65c-2.8-3.2-6.3-5.7-10.6-7.3c-4.4-1.7-8.6-2.6-12.9-2.8l0,0c-2.3-0.1-4.2,1.7-4.2,4v0.5c0,0.5,0,0.8,0,1.2
		c0.1,2.1,0.5,3.8,0.9,5.5l0.1,0.3C4,79.8,14.7,89.1,27.6,90v32.3c-5.1-0.1-9.6-1.3-14-3.3c-2.4-1.1-4.8-2.4-7.3-3.3
		c-1.9-0.7-4.2-1.1-6-1.6c0,0.4,0,0.5,0,0.6c0,8-0.1,16,0,24c0,0.4,0.8,1.2,1.3,1.2c4.8,0.6,9.1,2.3,13.4,4.4c2.5,1.2,5,2.4,7.7,3
		c8.1,1.9,15.9,0.9,23.2-3.2c5.5-3,11.4-4.3,17.7-4.5c7.6-0.2,14.7,1.9,21.3,5.4c5.7,3.1,11.8,3.5,18.1,2.9
		c4.8-0.5,8.9-2.7,13.1-4.7c6.7-3.3,13.8-4,21.2-3.4c5.8,0.5,11,2.8,16.2,5.3c8.4,3.9,18.1,4,26.6,0.2c3.3-1.5,6.6-3,10.1-4.2
		c2.1-0.8,4.5-1,6.7-1.5v-25.3C193.6,115.1,190.3,115.8,187.3,117.1L187.3,117.1z M170.2,81.4c1.7-8.5,5.7-13.7,12.4-16.3
		c1.9-0.7,3.8-1.3,5.7-1.7c-0.1,0.3-0.1,0.5-0.2,0.8l-0.1,0.3c-2.1,9.5-9.1,16-17.9,17.3C170.1,81.7,170.2,81.6,170.2,81.4
		L170.2,81.4z M142,64.6l-0.1-0.3c-0.1-0.3-0.1-0.5-0.2-0.8c1.9,0.4,3.7,0.9,5.7,1.7c6.7,2.6,10.7,7.8,12.4,16.3
		c0,0.2,0.1,0.3,0.1,0.5C151.1,80.6,144.1,74.1,142,64.6L142,64.6z M37,81.4c1.7-8.5,5.7-13.7,12.4-16.3c1.9-0.7,3.8-1.3,5.7-1.7
		C55,63.7,55,64,54.9,64.3l-0.1,0.3c-2.1,9.5-9.1,16-17.9,17.3C36.9,81.7,37,81.6,37,81.4L37,81.4z M8.8,64.6l-0.1-0.3
		c-0.1-0.3-0.1-0.6-0.2-0.8c1.9,0.4,3.7,0.9,5.7,1.7c6.7,2.6,10.7,7.8,12.4,16.3c0,0.2,0.1,0.3,0.1,0.5
		C17.8,80.6,10.9,74.1,8.8,64.6z M37,26.5c1.7-8.5,5.7-13.7,12.4-16.3c1.9-0.7,3.8-1.3,5.7-1.7C55,8.8,55,9.1,54.9,9.4l-0.1,0.3
		c-2.1,9.5-9.1,16-17.9,17.3C36.9,26.9,37,26.7,37,26.5L37,26.5z M8.8,9.7L8.7,9.4C8.6,9.1,8.6,8.8,8.5,8.6c1.9,0.4,3.7,0.9,5.7,1.7
		c6.7,2.6,10.7,7.8,12.4,16.3c0,0.1,0.1,0.3,0.1,0.5C17.8,25.8,10.9,19.2,8.8,9.7z M27.2,139.5c-2.3,0-4.3-1.9-4.3-4.2
		c0-2.3,1.8-4.3,4.2-4.3c2.4,0,4.3,1.8,4.3,4.1C31.4,137.6,29.5,139.5,27.2,139.5z M62.6,131c-2.3-0.1-4.2-2.1-4.1-4.4
		c0.1-2.3,2.1-4.2,4.4-4.1c2.4,0.1,4.1,2.1,4.1,4.4C66.9,129.3,64.9,131.1,62.6,131L62.6,131z M98.5,139.5c-2.3,0-4.3-1.9-4.3-4.3
		c0-2.4,1.9-4.2,4.3-4.2c2.4,0,4.2,1.9,4.2,4.3C102.7,137.7,100.8,139.5,98.5,139.5z M134.2,131c-2.4,0-4.3-1.9-4.3-4.3
		c0-2.4,1.9-4.3,4.3-4.3c2.3,0,4.1,1.9,4.2,4.2C138.5,129,136.6,130.9,134.2,131z M170.2,26.5c1.7-8.5,5.7-13.7,12.4-16.3
		c1.9-0.7,3.8-1.3,5.7-1.7c-0.1,0.3-0.1,0.5-0.2,0.8L188,9.7c-2.1,9.5-9.1,16-17.9,17.3C170.2,26.9,170.2,26.7,170.2,26.5
		L170.2,26.5z M142,9.7l-0.1-0.3c-0.1-0.3-0.1-0.6-0.2-0.8c1.9,0.4,3.7,0.9,5.7,1.7c6.7,2.6,10.7,7.8,12.4,16.3
		c0,0.1,0.1,0.3,0.1,0.5C151.1,25.8,144.1,19.2,142,9.7z M165.3,139.5c-2.2,0-4.1-1.9-4.2-4.2c-0.1-2.3,1.9-4.3,4.2-4.3
		c2.4,0,4.2,1.8,4.2,4.2C169.6,137.7,167.7,139.6,165.3,139.5z"/>
	
		<linearGradient id="SVGID_00000031892162465648558230000007520378264191237295_" gradientUnits="userSpaceOnUse" x1="0" y1="18.8807" x2="196.8" y2="18.8807" gradientTransform="matrix(1 0 0 -1 0 184)">
		<stop  offset="0" style="stop-color:#2DB6B6"/>
		<stop  offset="0.5" style="stop-color:#0099CC"/>
		<stop  offset="1" style="stop-color:#006699"/>
	</linearGradient>
	<path style="fill:url(#SVGID_00000031892162465648558230000007520378264191237295_);" d="M177.5,155.2c-10.1,2.6-20,1.8-29.4-3.2
		c-10.2-5.4-20.4-5.3-30.7-0.2c-3.2,1.6-6.6,3-10,3.8c-9.7,2.1-19.1,1.1-27.9-3.7c-4.8-2.6-9.8-3.8-15.3-3.9c-5.8,0-11,1.8-16.1,4.3
		c-12,5.9-24,5.8-36,0c-2-0.9-3.9-1.9-5.9-2.7c-1.8-0.7-3.7-1-5.8-1.5v34c1.1,0,2,0,3,0c53.8,0,107.5,0,161.3,0
		c10.8,0,21.5,0,32.2,0v-33.8c-3.1,0.9-6.3,1.7-9.3,2.8C184.1,152.4,180.9,154.3,177.5,155.2L177.5,155.2z M27,173.7
		c-2.3,0-4.2-2-4.2-4.3c0-2.3,2-4.2,4.3-4.2c2.4,0,4.2,1.9,4.2,4.3C31.3,171.9,29.3,173.8,27,173.7L27,173.7z M62.7,169.5
		c-2.3,0-4.2-2-4.2-4.3c0-2.4,1.9-4.2,4.3-4.2c2.4,0,4.2,1.8,4.2,4.2C67,167.5,65.1,169.5,62.7,169.5L62.7,169.5z M94,173.7
		c-2.3,0-4.3-2-4.3-4.3c0-2.3,1.9-4.2,4.3-4.2c2.4,0,4.2,1.8,4.2,4.2C98.2,171.8,96.3,173.7,94,173.7L94,173.7z M134.1,169.4
		c-2.3,0-4.3-1.9-4.2-4.3c0-2.4,1.9-4.2,4.3-4.2c2.3,0,4.1,1.9,4.2,4.1C138.4,167.4,136.5,169.4,134.1,169.4L134.1,169.4z
		 M165.3,173.7c-2.2-0.1-4.1-2-4.2-4.2c0-2.3,1.9-4.3,4.2-4.3c2.4,0,4.2,1.8,4.2,4.2C169.5,171.9,167.6,173.8,165.3,173.7
		L165.3,173.7z"/>
</g>
</svg>
