<?xml version="1.0" encoding="utf-8"?>
<!-- Generator: Adobe Illustrator 28.0.0, SVG Export Plug-In . SVG Version: 6.00 Build 0)  -->
<svg version="1.1" id="Capa_1" xmlns="http://www.w3.org/2000/svg" xmlns:xlink="http://www.w3.org/1999/xlink" x="0px" y="0px"
	 viewBox="0 0 146.2 199.6" style="enable-background:new 0 0 146.2 199.6;" xml:space="preserve">
<style type="text/css">
	.st0{fill:url(#SVGID_1_);}
	.st1{fill:url(#SVGID_00000176724608480663436230000001034453205981826958_);}
</style>
<g>
	
		<linearGradient id="SVGID_1_" gradientUnits="userSpaceOnUse" x1="-8.664545e-03" y1="102.211" x2="146.2087" y2="102.211" gradientTransform="matrix(1 0 0 -1 0 202)">
		<stop  offset="0" style="stop-color:#74BAFF"/>
		<stop  offset="1" style="stop-color:#2771B9"/>
	</linearGradient>
	<path class="st0" d="M76.9,1.8l-0.7,0.6L76.9,1.8L76.9,1.8c-1.7-2.1-4.8-2.4-6.8-0.6c-0.2,0.2-0.4,0.4-0.6,0.6
		c-1.9,2.3-19.1,22.9-35.7,47.5C11.4,82.5,0,107.8,0,124.5c-0.3,19.8,7.2,38.5,21,52.7s32.3,22.1,52.1,22.4
		c19.8-0.3,38.3-8.2,52.1-22.4s21.3-32.9,21-52.7C146.4,85.7,84,10.3,76.9,1.8L76.9,1.8z M136.5,124.5c0.4,35.3-28,64.5-63.3,65l0,0
		c-35.3-0.5-63.8-29.7-63.3-65c0-31.6,51.2-96.7,63.3-111.6c6.5,8,18.3,23.1,30.1,40.3C125,85.1,136.5,109.7,136.5,124.5z"/>
	
		<linearGradient id="SVGID_00000017509234202269377200000011023762686754671502_" gradientUnits="userSpaceOnUse" x1="0" y1="78.195" x2="146.22" y2="78.195" gradientTransform="matrix(1 0 0 -1 0 202)">
		<stop  offset="0" style="stop-color:#74BAFF"/>
		<stop  offset="1" style="stop-color:#2771B9"/>
	</linearGradient>
	<path style="fill:url(#SVGID_00000017509234202269377200000011023762686754671502_);" d="M64.4,107.3c0,5.6-1.2,9.8-3.7,12.5
		c-2.5,2.7-5.8,4.1-10.1,4.1c-2.6,0-5-0.6-7.1-1.7c-2.1-1.2-3.7-3-4.9-5.4c-1.2-2.5-1.8-5.5-1.8-9c0-3.8,0.5-7,1.4-9.6
		s2.4-4.5,4.4-5.8c2-1.3,4.7-2,7.8-2c2.3,0,4.3,0.3,6,1.1s3.2,1.8,4.4,3.2c1.2,1.4,2.1,3.2,2.7,5.3
		C64.1,102.1,64.4,104.5,64.4,107.3L64.4,107.3z M56.1,106.9c0-3.8-0.4-6.6-1.2-8.4s-2.3-2.6-4.4-2.6c-1.4,0-2.5,0.4-3.4,1.2
		s-1.4,2.1-1.7,3.7s-0.5,3.7-0.5,6.2s0.2,4.7,0.5,6.4c0.3,1.6,0.9,2.9,1.7,3.7c0.8,0.8,2,1.2,3.4,1.2c2.2,0,3.7-0.9,4.4-2.8
		S56.2,110.9,56.1,106.9L56.1,106.9z M93.7,96.2l-36.7,59.1c-0.9,1.6-2,2.4-3.2,2.4c-0.7,0-1.3-0.3-2-0.8c-0.7-0.5-1-1.2-1-2
		c0-0.6,0.3-1.4,0.9-2.2l36.9-59.6c0.7-1.1,1.2-1.9,1.7-2.4c0.5-0.5,1.2-0.8,2.1-0.8s1.6,0.3,2.1,0.8c0.5,0.5,0.8,1.2,0.8,2.1
		C95.4,93.3,94.8,94.5,93.7,96.2z M109.5,139.2c0,5.6-1.2,9.8-3.7,12.5c-2.5,2.7-5.8,4.1-10.1,4.1c-2.7,0-5.1-0.6-7.2-1.8
		c-2.1-1.2-3.7-3-4.9-5.4s-1.8-5.4-1.8-9c0-5.7,1.1-10,3.3-12.9s5.7-4.3,10.4-4.3c2.3,0,4.3,0.3,6,1.1c1.7,0.7,3.2,1.8,4.4,3.2
		c1.2,1.4,2.1,3.2,2.7,5.3C109.2,133.9,109.5,136.3,109.5,139.2L109.5,139.2z M101.2,138.7c0-3.8-0.4-6.6-1.2-8.3s-2.3-2.6-4.4-2.6
		c-1.5,0-2.6,0.4-3.4,1.2s-1.4,2-1.7,3.6s-0.5,3.7-0.5,6.2c0,3.9,0.4,6.8,1.2,8.6c0.8,1.8,2.3,2.7,4.4,2.7s3.6-0.9,4.4-2.8
		S101.2,142.7,101.2,138.7L101.2,138.7z"/>
</g>
</svg>
