<?xml version="1.0" encoding="utf-8"?>
<!-- Generator: Adobe Illustrator 28.0.0, SVG Export Plug-In . SVG Version: 6.00 Build 0)  -->
<svg version="1.1" id="Capa_1" xmlns="http://www.w3.org/2000/svg" xmlns:xlink="http://www.w3.org/1999/xlink" x="0px" y="0px"
	 viewBox="0 0 202.1 199.5" style="enable-background:new 0 0 202.1 199.5;" xml:space="preserve">
<style type="text/css">
	.st0{fill:url(#thermometer-2_00000074422878164643286010000014609927608412969609_);}
	.st1{fill:url(#SVGID_1_);}
	.st2{fill:url(#SVGID_00000049186971966609682360000000292362039669661350_);}
	.st3{fill:url(#SVGID_00000150077319672853071610000015708684821445873807_);}
	.st4{fill:url(#SVGID_00000138565423138490880830000018295659692289842064_);}
</style>
<g>
	
		<linearGradient id="thermometer-2_00000070808370018626024870000013092012436735583138_" gradientUnits="userSpaceOnUse" x1="1.818989e-12" y1="102.2375" x2="202.05" y2="102.2375" gradientTransform="matrix(1 0 0 -1 0 202)">
		<stop  offset="0" style="stop-color:#FF6839"/>
		<stop  offset="1" style="stop-color:#F4375B"/>
	</linearGradient>
	<path id="thermometer-2" style="fill:url(#thermometer-2_00000070808370018626024870000013092012436735583138_);" d="M178.8,102.3
		h12.8c2.2,0,3.9,1.8,3.9,3.9l0,0c0,2.2-1.8,3.9-3.9,3.9h-12.8c-2.2,0-3.9-1.8-3.9-3.9l0,0C174.9,104.1,176.6,102.3,178.8,102.3z
		 M178.8,89.5h12.8c2.2,0,3.9,1.8,3.9,3.9l0,0c0,2.2-1.8,3.9-3.9,3.9h-12.8c-2.2,0-3.9-1.8-3.9-3.9l0,0
		C174.9,91.3,176.6,89.5,178.8,89.5z M178.8,76.7h12.8c2.2,0,3.9,1.8,3.9,3.9l0,0c0,2.2-1.8,3.9-3.9,3.9h-12.8
		c-2.2,0-3.9-1.8-3.9-3.9l0,0C174.9,78.5,176.6,76.7,178.8,76.7z M178.8,63.9h12.8c2.2,0,3.9,1.8,3.9,4l0,0c0,2.2-1.8,3.9-3.9,3.9
		h-12.8c-2.2,0-3.9-1.8-3.9-3.9l0,0C174.9,65.7,176.6,63.9,178.8,63.9z M178.8,51.2h12.8c2.2,0,3.9,1.8,3.9,4l0,0c0,2.2-1.8,4-3.9,4
		h-12.8c-2.2,0-3.9-1.8-3.9-4l0,0C174.9,53,176.6,51.2,178.8,51.2z M190.4,186.8c7.5-7.9,11.6-18.3,11.6-29.1
		c-0.1-14.3-7.3-27.6-19.2-35.5V119c0-2.2-1.8-4-4-4l0,0c-2.2,0-4,1.8-4,4v7.3l2.1,1.2c10.6,6.1,17.1,17.3,17.3,29.5
		c0,8.9-3.5,17.5-9.8,23.8c-0.4,0.5-0.8,0.9-1.3,1.3c-6.8,6.5-15.9,10-25.2,9.6c-18-0.9-32.3-15.3-33-33.3
		c-0.2-9.4,3.5-18.4,10.2-25c2.2-2.3,4.8-4.3,7.6-5.9l1.6-0.9V23.4c0-4.1,1.7-8,4.7-10.8c5.7-6.1,15.3-6.3,21.4-0.6
		c3,2.8,4.7,6.8,4.7,10.9v19.3c0,2.2,1.8,4,4,4l0,0c2.2,0,4-1.8,4-4V23.3c-0.1-11.1-7.9-20.7-18.7-22.9c-3.2-0.6-6.4-0.6-9.6,0
		c-4.5,0.9-8.6,3.2-11.9,6.4c-4.1,4.3-6.4,10-6.4,16v99c-0.2,0.1-0.5,0.3-0.5,0.3c-12.2,7.8-19.4,21.5-18.9,36
		c0.7,18.8,13.5,35.1,31.7,40.1c7.3,1.7,15,1.7,22.3,0c6.9-1.9,13.3-5.4,18.4-10.4C189.8,187.6,190.2,187.2,190.4,186.8L190.4,186.8
		z M165.1,136.4l-1.7-0.4V44.4c0-2.2-1.8-4-3.9-4l0,0c-2.2,0-3.9,1.8-3.9,4v91.7l-1.2,0.3c-11.5,3-18.3,14.7-15.4,26.1
		c2.9,11.4,14.7,18.3,26.1,15.4c11.5-3,18.3-14.7,15.4-26.1C178.6,144.3,172.7,138.4,165.1,136.4L165.1,136.4L165.1,136.4z"/>
	<g>
		
			<linearGradient id="SVGID_1_" gradientUnits="userSpaceOnUse" x1="-9.998560e-03" y1="149.18" x2="202.04" y2="149.18" gradientTransform="matrix(1 0 0 -1 0 202)">
			<stop  offset="0" style="stop-color:#FF6839"/>
			<stop  offset="1" style="stop-color:#F4375B"/>
		</linearGradient>
		<path class="st1" d="M2.1,32.9l6.8-3.4c1.6-0.8,2.7-1.3,4.3-1.3c2.4,0,3.7,1.8,3.7,3.6v41.5c0,2.2-1.8,4.1-4.1,4.1
			s-4.1-1.9-4.1-4.1V38c-0.1,0-3.7,1.7-3.8,1.7C4.6,39.9,4.1,40,3.7,40c-2,0-3.7-1.7-3.7-3.7C0,34.8,0.9,33.5,2.1,32.9L2.1,32.9z"/>
		
			<linearGradient id="SVGID_00000147925107966491161320000002166026674034183598_" gradientUnits="userSpaceOnUse" x1="0" y1="149.18" x2="202.05" y2="149.18" gradientTransform="matrix(1 0 0 -1 0 202)">
			<stop  offset="0" style="stop-color:#FF6839"/>
			<stop  offset="1" style="stop-color:#F4375B"/>
		</linearGradient>
		<path style="fill:url(#SVGID_00000147925107966491161320000002166026674034183598_);" d="M24.6,44.6c0-10.7,4.2-16.4,13.9-16.4
			S52.2,34,52.2,44.6v16.5c0,10.5-4.2,16.4-13.8,16.4s-13.8-5.8-13.8-16.4C24.6,61.1,24.6,44.6,24.6,44.6z M32.7,61.3
			c0,5.6,1,8.8,5.6,8.8S44,67,44,61.3v-17c0-6-1.3-8.8-5.6-8.8s-5.6,2.7-5.6,8.8C32.7,44.3,32.7,61.3,32.7,61.3z"/>
		
			<linearGradient id="SVGID_00000075132633635059121840000003771813418413179046_" gradientUnits="userSpaceOnUse" x1="0" y1="155.71" x2="202.05" y2="155.71" gradientTransform="matrix(1 0 0 -1 0 202)">
			<stop  offset="0" style="stop-color:#FF6839"/>
			<stop  offset="1" style="stop-color:#F4375B"/>
		</linearGradient>
		<path style="fill:url(#SVGID_00000075132633635059121840000003771813418413179046_);" d="M58.8,43.7v-4.2c0-7.5,4-11.2,10.9-11.2
			s11,3.9,11,11.2v4.2c0,7.2-3.8,11.3-11,11.3S58.8,51.2,58.8,43.7z M61.6,58.8h16.2c1.5,0,2.8,1.2,2.8,2.8s-1.3,2.8-2.8,2.8H61.6
			c-1.5,0-2.8-1.3-2.8-2.9S60.1,58.7,61.6,58.8L61.6,58.8z M69.7,50c2.9,0,4.4-1.7,4.4-5.8v-5.3c0-4.1-1.5-5.8-4.4-5.8
			s-4.4,1.8-4.4,5.8v5.3C65.3,48.2,66.7,50,69.7,50z"/>
		
			<linearGradient id="SVGID_00000137133713375774031450000018188986522570297276_" gradientUnits="userSpaceOnUse" x1="0" y1="149.19" x2="202.05" y2="149.19" gradientTransform="matrix(1 0 0 -1 0 202)">
			<stop  offset="0" style="stop-color:#FF6839"/>
			<stop  offset="1" style="stop-color:#F4375B"/>
		</linearGradient>
		<path style="fill:url(#SVGID_00000137133713375774031450000018188986522570297276_);" d="M110.9,68.9c0.5-0.1,1-0.1,1.4-0.1
			c1.8,0.1,3,1.6,3,3.4c0,1.3-0.8,2.5-1.9,3.2c-2.5,1.6-6.3,2-9.4,2c-10.6,0-17.1-6.3-17.1-18.7V47.2c0-12.4,6.6-19,17.3-19
			c2.4,0,5.9,0.3,8.5,1.6c1.6,0.8,2.7,1.8,2.7,3.7c0,1.8-1.4,3.2-3.2,3.4c-0.3,0-0.7,0-1-0.1c-1.6-0.4-3-1.3-6.2-1.3
			c-6.1,0-9.9,3.3-9.9,11v12.9c0,7.9,4,10.7,9.9,10.7C107.5,70.1,109.3,69.4,110.9,68.9L110.9,68.9z"/>
	</g>
</g>
</svg>
