<?xml version="1.0" encoding="utf-8"?>
<!-- Generator: Adobe Illustrator 28.0.0, SVG Export Plug-In . SVG Version: 6.00 Build 0)  -->
<svg version="1.1" id="Pruebas" xmlns="http://www.w3.org/2000/svg" xmlns:xlink="http://www.w3.org/1999/xlink" x="0px" y="0px"
	 viewBox="0 0 200 200" style="enable-background:new 0 0 200 200;" xml:space="preserve">
<style type="text/css">
	.st0{fill:url(#SVGID_1_);}
	.st1{fill:url(#SVGID_00000085941156472071634520000002318735193509415319_);}
	.st2{fill:url(#SVGID_00000048497425170535044400000000138358471337284487_);}
</style>
<linearGradient id="SVGID_1_" gradientUnits="userSpaceOnUse" x1="26.4747" y1="49.9058" x2="167.7656" y2="131.4764" gradientTransform="matrix(1 0 0 -1 0 202)">
	<stop  offset="0" style="stop-color:#EB6840"/>
	<stop  offset="0.43" style="stop-color:#E63A5D"/>
	<stop  offset="1" style="stop-color:#874592"/>
</linearGradient>
<path class="st0" d="M176,156c-0.6-1.1-1.2-2.2-1.8-3.3l-0.5-0.9l0.6-1.4c0.2-0.4,0.4-0.8,0.6-1.3c7.5-17.6,9.1-34.3,4.8-50.9
	c-3.2-12.5-9.2-24.7-18.8-38.4c-11.6-16.5-26.1-32.1-44.3-47.5c-0.9-0.8-1.8-1.6-2.7-2.4C109,6.6,105.9,4,102,2c0,0,0,0,0,0
	c-1.3-0.7-2.8-0.8-4.1-0.1c0,0-0.1,0-0.1,0c-0.5,0.2-1.1,0.6-1.8,1c-2.4,1.4-4.7,3.1-6.9,4.8c-8.7,6.9-17.3,14.8-26.2,23.9
	c-0.1,0.1-3,3.1-3,3.1l-2.4-2.8c-1.1-1.2-2.2-2.5-3.2-3.8c-2.4-2.9-4.9-5.8-7.5-8.6c-0.6-0.7-1.7-1.6-3-1.6c-1.1,0-2.2,0.5-3.3,1.6
	c-0.9,0.9-1.8,2-2.8,3.1c-6.3,7.1-12.8,14.9-17.2,24.1c-4.2,8.8-3.1,17.2,3.3,25.7c0.7,0.9,1.5,1.7,2.3,2.6c0.4,0.4,0.8,0.8,1.2,1.3
	l0.9,1l-0.6,1.2c-8,16.6-11.1,32.9-9.1,48.2c1.9,15.3,8.9,30.2,20.8,44.4c27.3,27.8,59,34,96.7,19l1.2-0.5l0.9,0.9
	c8.5,8.2,18.3,7.7,22.1,7.1c7.9-1.3,15-6.5,18.9-13.9c3.5-6.9,3.7-14.4,0.6-20.9C178.5,160.6,177.3,158.3,176,156L176,156z M25.9,58
	c-0.3-3.4,1-6.8,1.8-8.5c3.7-7.8,9.4-14.5,14.5-20.4l1.5-1.8l2.5,3c5.5,6.5,11.2,13.2,14.5,21.5c1.6,4,1.2,8.6-1,12.7
	c-2.5,4.7-7,8.1-12,9.2c-1.3,0.3-2.6,0.4-3.9,0.4c-3.9,0-7.7-1.2-10.8-3.6C28.8,67.6,26.3,63.1,25.9,58z M135.2,158.1
	c-3.1,5.4-5.1,10-4.6,15.4c0.2,1.7,0.5,3.4,0.9,5.2c0.2,0.8,0.3,1.7,0.5,2.5l0.3,1.5l-1.3,0.7c-8.6,4.3-19.4,6.9-30.8,6.9
	c-16.9,0-35.3-5.6-50.5-20c-24.8-23.3-30.7-58.7-14.7-88.1l0.7-1.3l1.5,0.3c11.5,2.4,20.7-0.8,27.4-9.6c6.7-9,6.9-18.6,0.6-28.7
	l-0.8-1.3l1.1-1.1C75.8,29.1,86.8,19.2,98.8,9.9l1.2-0.9l2.6,2c1,0.7,1.9,1.5,2.8,2.2c20.2,16.4,36,32.7,48.3,49.9
	c9.3,13,15.1,24.6,18.4,36.5c3.6,13.3,2.8,26.9-2.3,41.6c-0.2,0.6-1.4,3.7-1.4,3.7l-2.4-2.6c-0.7-0.8-1.4-1.5-2.1-2.3
	c-1.6-1.7-3-3.3-4.6-4.9c-1-1-2.1-1.6-3.1-1.6l0,0c-1,0-2.1,0.5-3.1,1.6C147.7,141,140.6,148.8,135.2,158.1L135.2,158.1z
	 M172.1,180.4c-2.6,4.8-7.2,8.3-12.2,9.4c-1.2,0.2-2.4,0.4-3.6,0.4c-4.2,0-8.3-1.5-11.7-4.4c-4.2-3.6-6.5-8.7-6.3-14.1
	c0.1-3,1.5-6,2.5-8c3.8-7.3,9.1-13.7,13.9-19.1l1.5-1.8l2.4,2.9c5.5,6.5,11.2,13.3,14.5,21.5C174.8,171.4,174.4,176.2,172.1,180.4
	L172.1,180.4z"/>
<linearGradient id="SVGID_00000024695753305566523670000011557495485683715749_" gradientUnits="userSpaceOnUse" x1="23.1704" y1="55.6326" x2="164.4604" y2="137.2026" gradientTransform="matrix(1 0 0 -1 0 202)">
	<stop  offset="0" style="stop-color:#EB6840"/>
	<stop  offset="0.43" style="stop-color:#E63A5D"/>
	<stop  offset="1" style="stop-color:#874592"/>
</linearGradient>
<path style="fill:url(#SVGID_00000024695753305566523670000011557495485683715749_);" d="M91.1,102.5c-4.7-6.1-11.6-7.7-20.5-4.7
	l-1.1,0.4l-0.9-0.7c-1.2-1-2.2-1.3-3-1.3c-0.7,0-1.3,0.2-1.8,0.5c-1.6,0.8-2.2,2.2-2.2,4.8c0.1,2.7,0,5.4,0,8.1c0,1.2,0,2.3,0,3.5
	v8.9c0,7.2,0,14.3,0,21.5c0,1.2,0.4,2.3,1.1,3.1c0.7,0.7,1.6,1.1,2.7,1.1h0c2.2,0,3.8-1.8,3.8-4.3c0-1,0-2.1,0-3.1v-13l2.5,0.6
	c9,2.2,15.7,0,19.9-6.4C95.6,115.5,95.3,108,91.1,102.5L91.1,102.5z M84.2,118.6c-1.6,1.5-3.7,2.5-6,2.5h-0.1
	c-2.3,0-4.5-0.9-6.1-2.6c-1.6-1.7-2.5-3.9-2.5-6.2c0.1-2.3,1-4.5,2.7-6.1c1.7-1.6,3.9-2.4,6.2-2.4c4.7,0.2,8.4,4.1,8.3,8.8
	C86.7,115,85.7,117.1,84.2,118.6z"/>
<linearGradient id="SVGID_00000115498746450355636240000004993064238268309642_" gradientUnits="userSpaceOnUse" x1="29.1019" y1="45.3586" x2="170.3919" y2="126.9286" gradientTransform="matrix(1 0 0 -1 0 202)">
	<stop  offset="0" style="stop-color:#EB6840"/>
	<stop  offset="0.43" style="stop-color:#E63A5D"/>
	<stop  offset="1" style="stop-color:#874592"/>
</linearGradient>
<path style="fill:url(#SVGID_00000115498746450355636240000004993064238268309642_);" d="M138.2,124.5v0.2c0,2.4-1.6,4.1-3.8,4.1h0
	c-2.2,0-3.8-1.7-3.9-4.1c0-2.1,0-4.3,0-6.4c0-1.8,0-3.7,0-5.5c0-2.6-1-5-2.7-6.7c-1.6-1.5-3.7-2.4-5.9-2.4h-0.1
	c-4.8,0.1-8.5,4-8.5,9.1c0,2,0,4,0,6c0,1.8,0,3.7,0,5.6c0,2.7-1.6,4.4-3.9,4.4h0c-2.3,0-3.8-1.8-3.8-4.5c0-14.2,0-28.4,0-42.6
	c0-1.4,0.4-2.6,1.2-3.4c0.7-0.7,1.6-1,2.6-1h0c2.3,0,3.8,1.8,3.8,4.5c0,3.1,0,6.1,0,9.2v7l2.6-0.9c6-2,11.2-1.2,15.8,2.2
	c4.2,3.1,6.4,7.4,6.5,12.7C138.3,116.2,138.3,120.4,138.2,124.5L138.2,124.5z"/>
</svg>
