<?xml version="1.0" encoding="UTF-8"?>
<svg id="Capa_1" data-name="Capa 1" xmlns="http://www.w3.org/2000/svg" xmlns:xlink="http://www.w3.org/1999/xlink" viewBox="0 0 200 200">
  <defs>
    <style>
      .cls-1 {
        fill: url(#Degradado_sin_nombre_31);
        stroke-width: 0px;
      }
    </style>
    <linearGradient id="Degradado_sin_nombre_31" data-name="Degradado sin nombre 31" x1="100" y1="0" x2="100" y2="200" gradientUnits="userSpaceOnUse">
      <stop offset="0" stop-color="#60c5f1"/>
      <stop offset=".23" stop-color="#47b5e7"/>
      <stop offset=".75" stop-color="#1495d3"/>
      <stop offset="1" stop-color="#0089cb"/>
    </linearGradient>
  </defs>
  <path class="cls-1" d="m106.34,189.59c-1.38.38-2.77.74-4.18,1.06-7.97,1.82-15.88,1.27-23.74-.77-10.63-2.75-20.34-7.43-29.19-13.91-8.48-6.23-15.63-13.68-21.07-22.73-5.41-8.98-8.72-18.67-10.1-29.05-1.07-7.97-.9-15.94-.11-23.93.93-9.43,3.06-18.57,6.59-27.37,2.85-7.09,6.55-13.71,11.07-19.87,8.84-12.01,20.01-21.45,32.61-29.25,7.36-4.54,14.8-8.94,22.2-13.39.55-.34,1.11-.67,1.7-1.02.31.1.45.12.55.19,10.34,6.38,20.89,12.44,30.96,19.24,11.85,8.01,21.73,18.15,29.33,30.37,5.75,9.25,9.64,19.26,11.88,29.91,1.21,5.76,1.99,11.56,2.27,17.39,2.91,1.13,5.71,2.51,8.34,4.11-.07-8.26-1.03-16.48-2.84-24.61-2.42-10.95-6.48-21.24-12.34-30.78-8.26-13.44-19.19-24.44-32.14-33.32-7.55-5.18-15.52-9.74-23.29-14.57-3.79-2.35-7.61-4.69-11.41-7.03,0,0-.33-.27-1.14-.27-.73,0-1.23.41-1.28.44-8.84,5.34-17.72,10.6-26.53,16-13.83,8.46-26.07,18.73-35.72,31.88-4.79,6.52-8.71,13.54-11.75,21.04-3.85,9.52-6.17,19.4-7.2,29.62-.89,8.89-1.06,17.77.15,26.65,1.52,11.21,5.11,21.72,10.94,31.42,5.98,9.94,13.73,18.24,23.09,25.1,10.13,7.42,21.21,12.79,33.4,15.86,5.13,1.28,10.34,2.07,15.63,1.98,5.94-.11,11.77-1.15,17.45-2.85.81-.24,1.61-.49,2.41-.76-2.37-2.06-4.56-4.33-6.54-6.79Z"/>
  <path class="cls-1" d="m158.55,103.94c.34-2.76.26-5.65-.26-8.67-1.69-9.85-7.43-16.8-15.85-21.15-.38-3.42-.43-6.58-1.1-9.59-2.59-11.63-12.02-20.31-23.72-22.16-2.86-.46-5.7-.4-8.54-.04-1.92.24-3.63-.12-4.87-1.78-.34-.47-.65-.96-.96-1.46-2.4-3.78-4.8-7.57-7.2-11.36-1.08-1.7-2.55-2.51-4.6-2.19-1.4.23-2.33,1.08-3.03,2.23-2.38,3.94-4.82,7.87-7.13,11.85-1.28,2.19-3.07,3.09-5.53,2.72-3.05-.46-6.08-.4-9.12.06-12.08,1.8-22.36,12.17-23.92,24.27-.3,2.37-.33,4.78-.51,7.37-8.6,4.46-14.36,11.41-16.03,21.27-1.67,9.84,1.32,18.33,8.11,25.42-1.28,14.29,4.53,24.52,17.04,31.02,2.14,9.11,7.15,16.03,15.51,20.22,8.38,4.2,16.9,4.05,25.28.26,1.84.86,3.69,1.52,5.56,1.97-2.03-5.63-3.13-11.69-3.13-18.02,0-4.97.68-9.77,1.95-14.34V44.53c.16-.11.32-.23.48-.34.12.29.2.62.38.88,3.18,4.5,7.63,6.06,12.94,5.34,3.36-.46,6.64-.18,9.78,1.01,13.19,4.97,18.24,20.7,9.4,32.43-.51.67-1.05,1.34-1.45,2.07-.93,1.71-.53,3.71.9,4.95,1.42,1.22,3.61,1.45,5,.12,1.48-1.42,2.7-3.13,3.88-4.83.81-1.16,1.36-2.49,2.11-3.9,7.82,4.39,11.47,12.74,10.43,20.67,2.79.13,5.53.47,8.19,1.01Zm-70.54,60.83c-10.44,5.64-27.82-1-29.35-18.4.4-2.06.93-4.8,1.45-7.53.44-2.33-.66-4.42-2.63-5.03-2.25-.69-4.42.43-5.24,2.83-.53,1.58-.86,3.23-1.36,5.16-.72-.55-1.35-.95-1.88-1.46-5.31-5.15-7.74-11.33-6.32-18.7.53-2.75-.16-4.65-2.21-6.54-10.16-9.4-8.19-25.75,4.04-32.84.31.53.64,1.04.92,1.59,3.66,7.26,9.38,12.16,17.05,14.79,2.72.93,5.57,1.32,8.43,1.43,2.54.11,4.41-1.53,4.54-3.82.12-2.31-1.32-3.97-3.85-4.27-3.1-.38-6.18-.71-9.04-2.14-6.59-3.29-10.48-8.58-11.7-15.78-2.29-13.45,9.84-25.7,23.35-23.66,5.53.83,10.13-.78,13.4-5.4.17,0,.25-.02.3,0,.05.03.09.11.09.17.04,39.4.07,78.8.1,118.2,0,.45-.06.89-.1,1.39Z"/>
  <path class="cls-1" d="m159.04,148.12c-1.91-3.15-4.58-6.92-8.28-11.36,0,0-.1-.1-.3-.3-.52-.59-1.2-.91-1.92-1.03-.26-.05-.52-.07-.78-.07-.9,0-1.8.4-2.5,1l-.6.6v.1c-1.1,1.3-3.9,4.81-6.51,8.71-1.16,1.74-2.17,3.36-3.02,4.88-2.39,4.22-3.58,7.59-3.58,10.24-.1,4.3,1.6,8.41,4.61,11.51.45.46.92.9,1.42,1.3,2.57,2.1,5.73,3.37,9.04,3.57.31.02.63.03.95.03,2.2-.05,4.3-.5,6.23-1.32,1.93-.83,3.68-2.03,5.19-3.58,3-3.1,4.7-7.21,4.6-11.51.08-.72.05-1.77-.27-3.2-.51-2.21-1.71-5.35-4.26-9.56Zm-15.25,20.15c-2.64-1.5-4.41-4.35-4.34-7.59,0-2.6,3.4-8.61,8.41-15.32.9,1.2,1.9,2.6,3,4.1,1.71,2.57,2.88,4.61,3.69,6.22,1.54,3.07,1.71,4.53,1.71,5,.1,4.71-3.7,8.61-8.41,8.71-1.47-.03-2.86-.44-4.06-1.12Z"/>
  <path class="cls-1" d="m174.91,122.68c-2.4-1.94-5.03-3.63-7.83-5.04-3.64-1.82-7.58-3.14-11.72-3.86-2.43-.43-4.95-.65-7.5-.65-.65,0-1.3.01-1.95.05-9.23.4-17.7,3.71-24.52,9.04-2.21,1.73-4.25,3.67-6.09,5.8-6.54,7.56-10.49,17.41-10.49,28.16,0,3.66.46,7.23,1.33,10.62.7,2.76,1.67,5.42,2.88,7.93,1.99,4.16,4.63,7.95,7.8,11.24,2.17,2.26,4.58,4.28,7.2,6.04,6.83,4.55,15.03,7.22,23.84,7.22,23.73,0,43.05-19.32,43.05-43.05,0-13.5-6.23-25.59-16-33.5Zm-27.05,68.53c-5.56,0-10.81-1.3-15.48-3.6-2.86-1.41-5.5-3.2-7.85-5.32-3.13-2.79-5.77-6.16-7.74-9.92-1.27-2.43-2.27-5.03-2.94-7.75-.67-2.71-1.03-5.54-1.03-8.45,0-8.73,3.2-16.72,8.5-22.85,1.79-2.08,3.82-3.94,6.06-5.56,4.23-3.06,9.17-5.21,14.53-6.12,1.93-.34,3.92-.51,5.96-.51.8,0,1.59.03,2.38.08,5.79.39,11.2,2.19,15.89,5.07,2.68,1.65,5.14,3.65,7.29,5.94,5.88,6.27,9.48,14.7,9.48,23.96,0,19.32-15.72,35.04-35.04,35.04Z"/>
</svg>