<?xml version="1.0" encoding="UTF-8"?>
<svg id="Capa_1" data-name="Capa 1" xmlns="http://www.w3.org/2000/svg" xmlns:xlink="http://www.w3.org/1999/xlink" viewBox="0 0 200 200">
  <defs>
    <style>
      .cls-1 {
        fill: url(#Degradado_sin_nombre_24);
        stroke-width: 0px;
      }
    </style>
    <linearGradient id="Degradado_sin_nombre_24" data-name="Degradado sin nombre 24" x1="13.02" y1="161.13" x2="211.12" y2="46.76" gradientUnits="userSpaceOnUse">
      <stop offset="0" stop-color="#bfcc60"/>
      <stop offset=".29" stop-color="#798d5c"/>
      <stop offset=".69" stop-color="#6b6052"/>
      <stop offset="1" stop-color="#3d3535"/>
    </linearGradient>
  </defs>
  <path class="cls-1" d="m172.45,54.04c-.19-.14-.41-.3-.65-.5l-1.65-1.31,4.55-2.39c8.59-4.47,16.48-10.39,23.46-17.58,1.31-1.35,3.12-4.02.51-6.74-11.91-12.39-24.53-20.15-38.6-23.75-12.84-3.28-25.49-1.56-38.67,5.28-3.08,1.6-6.08,3.56-8.99,5.45-1.33.87-2.67,1.74-4.01,2.59-.29.18-.58.39-.95.65l-2.93,2.04V6.69c0-.59.02-1.17,0-1.75-.09-2.7-1.98-4.68-4.48-4.71-1.19-.03-2.31.43-3.15,1.25-.9.88-1.4,2.12-1.41,3.49-.03,5.52-.02,11.04-.02,16.56v10.6s-1.36,0-1.36,0c-1.39,0-2.75-.02-4.09-.04-2.87-.03-5.57-.06-8.29.06-29.79,1.36-53.1,14.86-69.31,40.15C5.47,83.11,1.42,95.54.36,109.25c-.04.52-.16.99-.27,1.42-.03.11-.07.23-.09.34v10.04c.15,1.1.29,2.22.45,3.32.3,2.39.63,4.85,1.09,7.23,5.25,26.16,19.93,45.97,43.62,58.91,9.77,5.33,20.68,8.46,32.42,9.29.5.03,45.51.05,46.61-.1,2.39-.31,4.86-.65,7.25-1.08,33.14-6.07,59.85-32.03,66.46-64.58,6.19-30.49-2.13-57.2-24.73-79.4-.18-.18-.42-.35-.73-.6Zm-64.08-27.22c.6-.53,1.16-1.03,1.74-1.52,10.29-8.51,19.9-13.39,30.23-15.36,6.73-1.28,13.71-.77,20.78,1.51,9.29,2.99,17.83,8.14,26.84,16.18l1.17,1.04-1.2,1.02c-10.22,8.72-22.93,17.71-39.76,18.2-.35.01-.7.02-1.05.02-5.14,0-10.47-1.11-16.26-3.41-8.06-3.18-15.69-8.06-23.33-14.9l-1.15-1.02,1.99-1.77Zm76.55,118.45c-9.84,23.23-29.73,39.39-54.56,44.33-4.2.84-8.9,1.29-14.78,1.4-4.56.09-9.17.11-13.74.11-3.51,0-6.99-.01-10.43-.03-2.31-.01-4.62-.02-6.93-.02-36.2-.09-66.63-24.93-73.97-60.41-3.92-18.95-.14-38.58,10.64-55.25,10.79-16.69,27.15-28.19,46.06-32.35,4.8-1.05,9.95-1.7,15.31-1.91,5.64-.21,11.35-.17,16.88-.12,2.37.02,4.73.04,7.09.04h.46l.36.26c18.24,13.53,34.82,18.06,52.15,14.27l.61-.13.5.38c7.25,5.36,13.38,11.88,18.22,19.39,13.53,20.96,15.82,47.15,6.13,70.04Z"/>
  <path class="cls-1" d="m94.21,122.7c-2.38-1.15-2.8-2.95-3.24-5.78-.08-.56-.17-1.08-.26-1.55-.75-3.61-3.91-7.78-10.36-7.68-3.01.04-5.34,2.38-7.59,4.64-1.05,1.06-2.23,2.25-2.98,2.62-.51.25-.59.29-2.15-.55-1.02-.54-2.3-1.21-3.94-1.56-4.88-1-9.72,1.97-11.51,7.08-.35.99-1.28,1.75-2.24,2.29-.97.53-1.97.85-2.46.95l-.19.04-.18.06c-5.48,1.74-9.32,5.55-10.29,10.16-.76,3.64.39,7.21,3.08,9.57.8.72,1.71,1.38,2.6,2.02,3.32,2.4,5.34,4.09,5.46,7.4.12,3.25.41,10.85,8.85,11.82,2.41.28,4.79-.74,6.89-1.65,1.03-.45,2.59-1.13,3.2-1.1,1.35.05,2.46.46,3.75.96,1.75.64,3.73,1.39,6.29,1.14.75-.07,1.45-.19,2.12-.37,7.94-2.12,9.82-11.25,10.47-14.41.39-1.88,1.04-2.84,2.49-3.64,5.04-2.82,7.96-7.65,7.8-12.92-.12-4.26-2.28-7.92-5.61-9.54Zm-5.4,16.72c-3.12,1.74-4.94,4.31-5.71,8.06-1.31,6.38-3.34,9.24-6.78,9.57-1,.1-1.89-.22-3.36-.77-1.51-.56-3.39-1.27-5.82-1.37-.87-.02-1.72.11-2.57.33-1.18.31-2.34.82-3.48,1.31-1.14.49-2.86,1.24-3.53,1.16-2.02-.23-2.86-.8-3.04-5.55-.25-6.74-5.02-10.19-8.18-12.48-.79-.56-1.53-1.11-2.11-1.61-.89-.79-1.26-1.99-.98-3.3.47-2.24,2.59-4.17,5.71-5.21,1.41-.31,7.49-1.97,9.42-7.47.7-1.99,2.34-3.15,3.99-2.81.71.14,1.39.5,2.17.92,1.81.96,4.54,2.42,8.15.63,1.73-.85,3.25-2.38,4.72-3.86.93-.93,2.45-2.46,3.14-2.72,2.13,0,3.39.82,3.73,2.45.08.37.13.78.2,1.21.45,2.97,1.22,7.96,6.86,10.7,1.1.52,1.87,2.06,1.92,3.82.04,1.33-.31,4.69-4.45,6.99Z"/>
</svg>