<?xml version="1.0" encoding="UTF-8"?>
<svg id="Capa_1" data-name="Capa 1" xmlns="http://www.w3.org/2000/svg" xmlns:xlink="http://www.w3.org/1999/xlink" viewBox="0 0 200 200">
  <defs>
    <style>
      .cls-1 {
        fill: url(#Degradado_sin_nombre_32);
        stroke-width: 0px;
      }
    </style>
    <linearGradient id="Degradado_sin_nombre_32" data-name="Degradado sin nombre 32" x1="15.61" y1="201.31" x2="184.35" y2="32.57" gradientUnits="userSpaceOnUse">
      <stop offset="0" stop-color="#eb6840"/>
      <stop offset=".43" stop-color="#e63a5d"/>
      <stop offset="1" stop-color="#874592"/>
    </linearGradient>
  </defs>
  <path class="cls-1" d="m196.12,180.21h-38.38v-18.03s6.7-.04,7.89-.04c2.63-.01,5.13-.02,7.59-.34.81-.1,1.59-.26,2.36-.47,4.36-1.2,8.1-3.73,10.84-7.08.18-.23.37-.46.54-.69.35-.48.68-.96.99-1.46.11-.17.22-.36.34-.54.06-.12.12-.23.19-.35,1.4-2.56,2.29-5.42,2.48-8.42.11-1.69.16-3.42.17-5.15,0-.2.01-.41,0-.61v-3.97c-.01-1.11-.02-2.21-.02-3.32-.23,0-.45.01-.66.01-2.23-.01-4.29-.01-6.33-.01-3.22,0-6.41.01-10.22.04-4.64.03-7.99.24-11.19,2.08-2.24,1.29-4.97,3.8-4.97,3.8v-2.73c-.03-2.23-.26-15.54,0-19.44v-2.09l2.15-.58c.54-.15,1.05-.29,1.56-.42.05-.01.09-.02.13-.04,1.37-.44,2.65-.86,3.85-1.42,4.09-1.91,7.49-4.23,10.2-6.99.11-.11.22-.23.34-.36,1.95-2.12,3.57-4.51,4.82-7.08.12-.26.23-.51.36-.78.06-.13.11-.27.17-.41,1-2.43,1.68-5.07,2.06-7.93.02-.14.03-.29.04-.43.13-1.62.24-3.29.32-5.01.11-4.65.06-9.37,0-13.66-.02-.65-.05-1.31-.08-1.98-.01-.22-.02-.45-.04-.67-.01-.17-.04-.34-.06-.5-.75-5.13-4.03-9.42-8.77-11.48-.19-.08-.39-.16-.58-.23-.31-.12-.62-.23-.95-.33-.61-.19-1.24-.35-1.9-.47-.18-.03-.38-.06-.57-.09-.29-.04-.57-.07-.87-.11-.13-.01-.27-.03-.4-.04-.36-.03-.73-.06-1.11-.08-.4-.03-.81-.05-1.22-.09l-.8-.06-.16-.18h-.02l-.5-.53c-.65-.7-1.32-1.35-2-1.92-.23-.19-.46-.38-.69-.55-.23-.17-.47-.34-.7-.5-.23-.16-.47-.32-.71-.46-2.39-1.46-4.99-2.17-7.84-2.17h-.05c-.39,0-.78.02-1.16.05-.17.01-.36.02-.53.04-.32.04-.62.08-.94.13-.23.04-.46.08-.69.14-2.62.58-5.02,1.87-7.26,3.91-.45.42-.89.86-1.33,1.33l-.5.53h-.02l-.16.18-.8.06c-.42.04-.83.06-1.22.09-.39.02-.76.05-1.11.08-.13.01-.27.02-.4.04-.3.04-.59.07-.87.11-.19.02-.39.05-.57.09-.65.12-1.29.28-1.9.47-.53.16-1.04.35-1.53.56-4.73,2.06-8.01,6.35-8.77,11.48-.02.16-.04.34-.06.5-.02.22-.03.45-.04.67-.03.67-.06,1.33-.08,1.98-.06,4.3-.11,9.01,0,13.66.07,1.72.18,3.39.32,5.01,0,.09.02.17.03.27.37,2.92,1.05,5.61,2.07,8.09.06.14.11.28.17.41.12.27.23.52.36.78,1.24,2.57,2.87,4.96,4.83,7.08.1.12.2.24.34.36,2.7,2.76,6.09,5.08,10.19,6.99,1.19.56,2.48.98,3.85,1.42.04.02.09.03.13.04.51.13,1.02.27,1.56.42l2.15.58v2.09c.24,3.72.05,16,0,19.06v3.11s-2.72-2.51-4.97-3.8c-3.2-1.84-6.55-2.05-11.19-2.08-3.82-.03-7-.04-10.22-.04-2.04,0-4.09,0-6.33.01-.21,0-.43-.01-.66-.01,0,1.1-.01,2.2-.02,3.32-.01.21-.01.42,0,.63v3.95c.01,1.73.06,3.46.17,5.15.19,3,1.08,5.86,2.48,8.42.06.11.13.23.19.35.11.18.22.37.34.54.31.5.64.98.99,1.46.17.23.36.46.54.69,2.73,3.35,6.48,5.88,10.84,7.08.78.21,1.56.37,2.36.47,2.46.32,4.96.33,7.59.34,1.18,0,5.21.04,5.83.04h2.06v18.03H50.22v-18.03s6.7-.04,7.89-.04c2.63-.01,5.13-.02,7.59-.34.81-.1,1.59-.26,2.36-.47,4.36-1.2,8.1-3.73,10.84-7.08.18-.23.37-.46.54-.69.35-.48.68-.96.99-1.46.11-.17.22-.36.34-.54.06-.12.12-.23.19-.35,1.4-2.56,2.29-5.42,2.48-8.42.11-1.69.16-3.42.17-5.15,0-.2.01-.41,0-.61v-3.97c-.01-1.11-.02-2.21-.02-3.32-.23,0-.45.01-.66.01-2.23-.01-4.29-.01-6.33-.01-3.22,0-6.41.01-10.22.04-4.64.03-7.99.24-11.19,2.08-2.24,1.29-4.97,3.8-4.97,3.8v-2.73c-.03-2.23-.26-15.54,0-19.44v-2.09l2.15-.58c.54-.15,1.05-.29,1.56-.42.05-.01.09-.02.13-.04,1.37-.44,2.65-.86,3.85-1.42,4.09-1.91,7.49-4.23,10.2-6.99.11-.11.22-.23.34-.36,1.95-2.12,3.57-4.51,4.82-7.08.12-.26.23-.51.36-.78.06-.13.11-.27.17-.41,1-2.43,1.68-5.07,2.06-7.93.02-.14.03-.29.04-.43.13-1.62.24-3.29.32-5.01.11-4.65.06-9.37,0-13.66-.02-.65-.05-1.31-.08-1.98-.01-.22-.02-.45-.04-.67-.01-.17-.04-.34-.06-.5-.75-5.13-4.03-9.42-8.77-11.48-.19-.08-.39-.16-.58-.23-.31-.12-.62-.23-.95-.33-.61-.19-1.24-.35-1.9-.47-.18-.03-.38-.06-.57-.09-.29-.04-.57-.07-.87-.11-.13-.01-.27-.03-.4-.04-.36-.03-.73-.06-1.11-.08-.4-.03-.81-.05-1.22-.09l-.8-.06-.16-.18h-.02l-.5-.53c-.65-.7-1.32-1.35-2-1.92-.23-.19-.46-.38-.69-.55-.23-.17-.47-.34-.7-.5-.23-.16-.47-.32-.71-.46-2.39-1.46-4.99-2.17-7.84-2.17h-.05c-.39,0-.78.02-1.16.05-.17.01-.36.02-.53.04-.32.04-.62.08-.94.13-.23.04-.46.08-.69.14-2.62.58-5.02,1.87-7.26,3.91-.45.42-.89.86-1.33,1.33l-.5.53h-.02l-.16.18-.8.06c-.42.04-.83.06-1.22.09-.39.02-.76.05-1.11.08-.13.01-.27.02-.4.04-.3.04-.59.07-.87.11-.19.02-.39.05-.57.09-.65.12-1.29.28-1.9.47-.53.16-1.04.35-1.53.56-4.73,2.06-8.01,6.35-8.77,11.48-.02.16-.04.34-.06.5-.02.22-.03.45-.04.67-.03.67-.06,1.33-.08,1.98-.06,4.3-.11,9.01,0,13.66.07,1.72.18,3.39.32,5.01,0,.09.02.17.03.27.37,2.92,1.05,5.61,2.07,8.09.06.14.11.28.17.41.12.27.23.52.36.78,1.24,2.57,2.87,4.96,4.83,7.08.1.12.2.24.34.36,2.7,2.76,6.09,5.08,10.19,6.99,1.19.56,2.48.98,3.85,1.42.04.02.09.03.13.04.51.13,1.02.27,1.56.42l2.15.58v2.09c.24,3.72.05,16,0,19.06v3.11s-2.72-2.51-4.97-3.8c-3.2-1.84-6.55-2.05-11.19-2.08-3.82-.03-7-.04-10.22-.04-2.04,0-4.09,0-6.33.01-.21,0-.43-.01-.66-.01,0,1.1-.01,2.2-.02,3.32-.01.21-.01.42,0,.63v3.95c.01,1.73.06,3.46.17,5.15.19,3,1.08,5.86,2.48,8.42.06.11.13.23.19.35.11.18.22.37.34.54.31.5.64.98.99,1.46.17.23.36.46.54.69,2.73,3.35,6.48,5.88,10.84,7.08.78.21,1.56.37,2.36.47,2.46.32,4.96.33,7.59.34,1.18,0,5.21.04,5.83.04h2.06v18.03H3.88c-2.14,0-3.88,1.74-3.88,3.88s1.74,3.88,3.88,3.88h192.23c2.14,0,3.88-1.74,3.88-3.88s-1.74-3.88-3.88-3.88Zm-38.4-27.64c0-.13,0-.28.01-.41v-.05c0-6.99,3.8-12.66,10.2-14.15.46-.11.92-.19,1.4-.26.67-.11,1.34-.16,2-.17h.29c1.8-.08,3.59-.06,5.35-.02h6.43s-.03,3.15-.06,3.59c-.06.98-.12,1.99-.36,3-.89,3.74-3.33,6.81-6.54,8.58-.19.11-.4.21-.6.32-1.71.85-3.62,1.33-5.63,1.37-.18,0-12.47.04-12.47.04v-.02h-.01v-1.82Zm-15.24-51.95c-.86-.47-1.67-1.01-2.45-1.6-.22-.16-.45-.34-.66-.52-1.92-1.58-3.53-3.49-4.77-5.65-.16-.26-.3-.52-.43-.79-.35-.64-.64-1.31-.9-2-.13-.32-.26-.64-.36-.97-.06-.18-.12-.37-.17-.56-.65-2.04-1.04-4.31-1.14-6.79-.06-1.76-.09-3.51-.1-5.26,0-.49-.02-.99,0-1.48-.03-2.48,0-4.95.05-7.38l.03-2.07v-.48s.01-.26.01-.26c.02-1.98.95-3.84,2.53-5.09.99-.78,2.18-1.29,3.44-1.48.2-.03.41-.06.61-.07.78-.06,1.56-.01,2.33.16.05.01.11.02.16.04.74.17,1.49.36,2.24.54.01,0,.03.01.04.01h.01l.91-.85c1.54-1.44,3.06-2.86,4.58-4.29.98-.92,2.02-1.54,3.14-1.87.19-.07.38-.12.58-.15.09-.03.19-.04.29-.05.1-.03.21-.05.32-.05.12-.03.26-.04.38-.04.03-.01.07-.01.1-.01.1-.01.2-.01.31-.01.12-.01.26-.01.38,0,.1,0,.2,0,.31.01.03,0,.07,0,.1.01.12,0,.26.01.38.04.1,0,.21.02.32.05.09.01.19.02.29.05.2.03.39.08.58.15,1.12.33,2.16.95,3.14,1.87,1.52,1.43,3.04,2.85,4.58,4.29l.91.85h.01s.03-.01.04-.01c.78-.19,1.5-.37,2.24-.54.05-.02.11-.03.16-.04.77-.17,1.55-.22,2.33-.16.21.02.41.05.61.07,1.26.19,2.45.7,3.44,1.48,1.58,1.26,2.51,3.11,2.53,5.09v.26c0,.14,0,.29,0,.44v.04l.03,2.07c.04,2.43.08,4.9.05,7.38,0,.57,0,1.14-.02,1.72,0,1.66-.03,3.34-.09,5.01-.1,2.55-.52,4.87-1.19,6.95-.05.19-.11.38-.18.56-.09.28-.18.54-.3.81-.12.35-.27.68-.43,1.02-.14.33-.3.66-.47.98-.13.27-.28.53-.43.79-1.29,2.24-2.91,4.13-4.77,5.65-.21.18-.44.36-.66.52-.78.59-1.59,1.13-2.45,1.6-2.95,1.67-6.36,2.68-10.01,2.86-.39.02-.78.03-1.17.03h-.15c-.4,0-.79-.01-1.17-.03-3.65-.17-7.06-1.18-10.01-2.86Zm-4.64,53.76c-.19,0-.38-.01-.56-.01-2-.04-3.92-.52-5.63-1.37-.2-.1-.41-.2-.6-.32-3.21-1.78-5.65-4.84-6.54-8.58-.23-1.01-.3-2.02-.36-3-.03-.44-.06-3.59-.06-3.59h6.46c1.71-.04,3.47-.06,5.22.01.14.01.27.01.38.01.66.01,1.33.06,2,.17.46.06.93.14,1.39.26h.01c6.41,1.49,10.2,7.2,10.2,14.15v.05c.01.13.01.28.01.41v1.82h-.01v.02s-11.07,0-11.91-.03Zm-87.62-1.81c0-.13,0-.28.01-.41v-.05c0-6.99,3.8-12.66,10.2-14.15.46-.11.92-.19,1.4-.26.67-.11,1.34-.16,2-.17h.29c1.8-.08,3.59-.06,5.35-.02h6.43s-.03,3.15-.06,3.59c-.06.98-.12,1.99-.36,3-.89,3.74-3.33,6.81-6.54,8.58-.19.11-.4.21-.6.32-1.71.85-3.62,1.33-5.63,1.37-.18,0-12.47.04-12.47.04v-.02h-.01v-1.82Zm-15.24-51.95c-.86-.47-1.67-1.01-2.45-1.6-.22-.16-.45-.34-.66-.52-1.92-1.58-3.53-3.49-4.77-5.65-.16-.26-.3-.52-.43-.79-.35-.64-.64-1.31-.9-2-.13-.32-.26-.64-.36-.97-.06-.18-.12-.37-.17-.56-.65-2.04-1.04-4.31-1.14-6.79-.06-1.76-.09-3.51-.1-5.26,0-.49-.02-.99,0-1.48-.03-2.48,0-4.95.05-7.38l.03-2.07v-.48s.01-.26.01-.26c.02-1.98.95-3.84,2.53-5.09.99-.78,2.18-1.29,3.44-1.48.2-.03.41-.06.61-.07.78-.06,1.56-.01,2.33.16.05.01.11.02.16.04.74.17,1.49.36,2.24.54.01,0,.03.01.04.01h.01l.91-.85c1.54-1.44,3.06-2.86,4.58-4.29.98-.92,2.02-1.54,3.14-1.87.19-.07.38-.12.58-.15.09-.03.19-.04.29-.05.1-.03.21-.05.32-.05.12-.03.26-.04.38-.04.03-.01.07-.01.1-.01.1-.01.2-.01.31-.01.12-.01.26-.01.38,0,.1,0,.2,0,.31.01.03,0,.07,0,.1.01.12,0,.26.01.38.04.1,0,.21.02.32.05.09.01.19.02.29.05.2.03.39.08.58.15,1.12.33,2.16.95,3.14,1.87,1.52,1.43,3.04,2.85,4.58,4.29l.91.85h.01s.03-.01.04-.01c.78-.19,1.5-.37,2.24-.54.05-.02.11-.03.16-.04.77-.17,1.55-.22,2.33-.16.21.02.41.05.61.07,1.26.19,2.45.7,3.44,1.48,1.58,1.26,2.51,3.11,2.53,5.09v.26c0,.14,0,.29,0,.44v.04l.03,2.07c.04,2.43.08,4.9.05,7.38,0,.57,0,1.14-.02,1.72,0,1.66-.03,3.34-.09,5.01-.1,2.55-.52,4.87-1.19,6.95-.05.19-.11.38-.18.56-.09.28-.18.54-.3.81-.12.35-.27.68-.43,1.02-.14.33-.3.66-.47.98-.13.27-.28.53-.43.79-1.29,2.24-2.91,4.13-4.77,5.65-.21.18-.44.36-.66.52-.78.59-1.59,1.13-2.45,1.6-2.95,1.67-6.36,2.68-10.01,2.86-.39.02-.78.03-1.17.03h-.15c-.4,0-.79-.01-1.17-.03-3.65-.17-7.06-1.18-10.01-2.86Zm-4.64,53.76c-.19,0-.38-.01-.56-.01-2-.04-3.92-.52-5.63-1.37-.2-.1-.41-.2-.6-.32-3.21-1.78-5.65-4.84-6.54-8.58-.23-1.01-.3-2.02-.36-3-.03-.44-.06-3.59-.06-3.59h6.46c1.71-.04,3.47-.06,5.22.01.14.01.27.01.38.01.66.01,1.33.06,2,.17.46.06.93.14,1.39.26h.01c6.41,1.49,10.2,7.2,10.2,14.15v.05c.01.13.01.28.01.41v1.82h-.01v.02s-11.07,0-11.91-.03Z"/>
  <path class="cls-1" d="m26.28,34.43c2.87,0,5.21-2.33,5.21-5.21s-2.33-5.21-5.21-5.21-5.21,2.33-5.21,5.21,2.33,5.21,5.21,5.21Z"/>
  <path class="cls-1" d="m46.14,22.43c2.87,0,5.21-2.33,5.21-5.21s-2.33-5.21-5.21-5.21-5.21,2.33-5.21,5.21,2.33,5.21,5.21,5.21Z"/>
  <path class="cls-1" d="m66.11,34.43c2.87,0,5.21-2.33,5.21-5.21s-2.33-5.21-5.21-5.21-5.21,2.33-5.21,5.21,2.33,5.21,5.21,5.21Z"/>
  <path class="cls-1" d="m133.82,34.43c2.87,0,5.21-2.33,5.21-5.21s-2.33-5.21-5.21-5.21-5.21,2.33-5.21,5.21,2.33,5.21,5.21,5.21Z"/>
  <path class="cls-1" d="m153.68,22.43c2.87,0,5.21-2.33,5.21-5.21s-2.33-5.21-5.21-5.21-5.21,2.33-5.21,5.21,2.33,5.21,5.21,5.21Z"/>
  <path class="cls-1" d="m173.65,34.43c2.87,0,5.21-2.33,5.21-5.21s-2.33-5.21-5.21-5.21-5.21,2.33-5.21,5.21,2.33,5.21,5.21,5.21Z"/>
</svg>