<?xml version="1.0" encoding="UTF-8"?>
<svg id="Pruebas" xmlns="http://www.w3.org/2000/svg" xmlns:xlink="http://www.w3.org/1999/xlink" viewBox="0 0 200 200">
  <defs>
    <style>
      .cls-1 {
        fill: url(#Degradado_sin_nombre_32);
        stroke-width: 0px;
      }
    </style>
    <linearGradient id="Degradado_sin_nombre_32" data-name="Degradado sin nombre 32" x1="15.58" y1="148.74" x2="184.47" y2="51.23" gradientUnits="userSpaceOnUse">
      <stop offset="0" stop-color="#eb6840"/>
      <stop offset=".43" stop-color="#e63a5d"/>
      <stop offset="1" stop-color="#874592"/>
    </linearGradient>
  </defs>
  <path class="cls-1" d="m190.07,62.58c-4.85-11.7-12-22.43-21.23-31.62C150.41,12.61,125.84,2.5,99.65,2.5h-.08c-25.71.02-50.03,10.17-68.48,28.59C12.65,49.51,2.49,73.78,2.5,99.44c.01,26.33,10.13,50.99,28.51,69.44,18.37,18.46,42.91,28.62,69.11,28.62s50.41-10.17,68.85-28.64c18.43-18.45,28.56-42.89,28.53-68.82-.02-13.09-2.57-25.76-7.43-37.46Zm-27.32,100.76c-16.9,16.66-39.42,25.82-63.43,25.82h-.24c-23.44-.06-45.58-9.42-62.33-26.36-16.75-16.93-25.95-39.25-25.92-62.84.04-23.82,9.34-46.21,26.2-63.07,16.81-16.81,39.09-26.06,62.76-26.06h.2c23.92.06,46.37,9.38,63.19,26.27,16.82,16.88,26.05,39.34,25.98,63.24-.07,23.9-9.45,46.27-26.41,63Z"/>
  <path class="cls-1" d="m104.19,99.25c0,1.75-.5,3-1.69,4.18-6.08,6.06-12.15,12.14-18.22,18.21-4.78,4.77-9.55,9.55-14.33,14.32-1.65,1.64-3.32,2.02-5.1,1.14-1.4-.68-2.64-2.23-2.31-3.88.25-1.19.95-2.52,1.79-3.37,7.73-7.85,15.68-15.77,23.37-23.43l5.75-5.72c.32-.33.67-.63,1.01-.91.18-.16.36-.31.53-.46l.84-.74v-9.26c0-9.42,0-18.75,0-28.07v-.29c0-.7,0-1.36.11-1.87.42-1.91,2.13-3.27,4.06-3.27.11,0,.23.01.34.01,2.06.18,3.72,1.9,3.78,3.92.08,2.37.06,4.81.05,7.16-.01.99-.02,1.98-.02,2.96v8.43c0,6.98,0,13.96.03,20.94Z"/>
</svg>