<?xml version="1.0" encoding="UTF-8"?>
<svg id="Pruebas" xmlns="http://www.w3.org/2000/svg" xmlns:xlink="http://www.w3.org/1999/xlink" viewBox="0 0 200 200">
  <defs>
    <style>
      .cls-1 {
        fill: url(#Degradado_sin_nombre_32);
        stroke-width: 0px;
      }
    </style>
    <linearGradient id="Degradado_sin_nombre_32" data-name="Degradado sin nombre 32" x1="13.42" y1="149.99" x2="186.54" y2="50.04" gradientUnits="userSpaceOnUse">
      <stop offset="0" stop-color="#eb6840"/>
      <stop offset=".43" stop-color="#e63a5d"/>
      <stop offset="1" stop-color="#874592"/>
    </linearGradient>
  </defs>
  <path class="cls-1" d="m.05,95.61c.13-1.34.27-2.68.37-4.03.62-7.9,2.21-15.61,4.73-23.12,4.71-14.05,12.15-26.47,22.37-37.2,13.79-14.47,30.43-24.02,49.88-28.64,5.74-1.37,11.58-2.15,17.48-2.44,17.14-.83,33.47,2.38,48.86,9.96,19.67,9.68,34.62,24.29,44.89,43.65,4.88,9.2,8.14,18.96,9.89,29.23.84,4.93,1.3,9.89,1.41,14.89.33,15.93-2.95,31.07-9.85,45.43-4.66,9.69-10.76,18.38-18.23,26.11-7.64,7.9-16.33,14.37-26.09,19.42-9.66,5-19.87,8.3-30.62,9.96-4.2.65-8.44,1.03-12.7,1.09-.28,0-4.62,0-4.87,0-6.88-.13-13.68-.99-20.37-2.59-19.73-4.69-36.52-14.5-50.36-29.29-10.17-10.86-17.51-23.43-22.06-37.61-2.29-7.14-3.76-14.45-4.36-21.93-.11-1.34-.25-2.68-.38-4.02,0-2.97,0-5.93,0-8.9ZM100.02,6.38c-51.41-.03-93.27,41.69-93.65,92.91-.38,51.49,40.99,93.71,92.38,94.37,52.19.67,94.34-41.22,94.91-92.52.59-52.67-42.14-94.81-93.63-94.76Z"/>
  <path class="cls-1" d="m99.94,187.16c-47.48.17-87.52-38.81-87.1-87.93C13.26,51.25,52.6,12.25,101.14,12.85c47.88.58,86.69,40.06,86.03,88.44-.65,47.47-39.72,86.07-87.23,85.87ZM19.32,103.16c.41,20.91,11.08,49.32,39.34,66.31,26.66,16.03,60.69,15.12,86.34-2.3,13.04-8.85,22.79-20.49,29.13-34.92,4.05-9.22,6.25-18.89,6.64-29.09h-1.36c-12.09,0-24.18,0-36.26,0-.32,0-.65,0-.97,0-2.11-.08-3.56-1.63-3.66-3.72-.1-1.96-.22-3.93-.53-5.86-2.41-14.73-13.5-26.95-27.87-30.77-.26-.07-.53-.08-.88-.14.07.44.12.76.18,1.07.42,2.08.84,4.16,1.26,6.25,1.65,8.14,3.28,16.28,4.97,24.41.49,2.35.81,4.68.48,7.09-1.23,9.01-9.82,15.34-18.79,13.81-9.11-1.55-15.18-10.31-13.29-19.33,2.17-10.36,4.44-20.7,6.66-31.06.16-.77.3-1.54.47-2.39-.3.05-.46.07-.61.11-13.82,3.91-23.03,12.65-27.49,26.32-1.07,3.29-1.59,6.7-1.56,10.17.02,2-1.04,3.45-2.81,3.91-.52.13-1.08.14-1.63.14-12.15,0-24.31,0-36.46,0h-1.32Zm161.37-6.43c-.59-12.93-3.93-24.9-10.18-36.05-6.67-11.9-15.8-21.45-27.34-28.91-6,10.38-11.94,20.65-17.9,30.96.31.24.53.42.77.58,5.21,3.73,9.47,8.33,12.73,13.85,3.35,5.65,5.33,11.76,6,18.3.13,1.26.09,1.27,1.34,1.27,11.09,0,22.17,0,33.26,0,.38,0,.76,0,1.32,0Zm-105.94-34c-5.95-10.29-11.89-20.56-17.86-30.9-.32.18-.58.3-.81.46-8.23,5.38-15.28,12.02-21.1,19.95-7.28,9.92-12.05,20.94-14.32,33.04-.63,3.38-1.05,6.8-1.2,10.24-.05,1.16,0,1.17,1.19,1.17,11.12.01,22.24.03,33.35.04.34,0,.69-.03,1.09-.05,1.37-14.28,7.93-25.5,19.64-33.95Zm5.63-3.23c.76-.33,1.44-.61,2.11-.9,3.03-1.3,6.18-2.23,9.42-2.81.54-.1.77-.31.86-.83.13-.79.33-1.57.5-2.36.57-2.64,1.08-5.3,1.74-7.92.58-2.3,2.56-3.79,4.94-3.95,2.3-.16,4.5,1.17,5.4,3.33.24.59.38,1.23.51,1.86.61,2.96,1.2,5.93,1.79,8.9.12.62.36.99,1.06,1.12,3.47.62,6.79,1.73,10,3.19.28.13.58.23.94.38,5.97-10.35,11.9-20.63,17.88-31-14.5-7.5-29.72-10.47-45.82-8.84-10.28,1.04-19.99,4.01-29.2,8.87,6,10.4,11.92,20.66,17.88,30.98Zm20.01-8.83c-.05,0-.1,0-.15,0-.06.14-.14.27-.18.41-1.04,4.84-2.08,9.68-3.11,14.52-1.97,9.2-3.94,18.39-5.9,27.59-.38,1.79-.91,3.58-1.03,5.39-.38,6.05,4.4,10.53,9.72,10.64,4.52.1,8.53-2.73,9.81-7.08.61-2.06.44-4.11.01-6.19-1.34-6.51-2.62-13.03-3.94-19.55-1.4-6.93-2.81-13.85-4.22-20.77-.34-1.65-.68-3.3-1.01-4.95Z"/>
  <path class="cls-1" d="m87.41,161.7c-3.58,0-7.16-.09-10.73.03-3.01.09-4.97-1.8-3.63-5.15,3.04-7.55,5.97-15.14,8.97-22.71.45-1.13.91-2.27,1.49-3.34,1.43-2.68,5.36-2.56,6.81-1.07.74.76,1.32,1.74,1.76,2.72,1.01,2.29,1.89,4.65,2.83,6.97,2.18,5.4,4.38,10.79,6.55,16.19.31.77.59,1.57.8,2.37.5,1.96-.67,3.64-2.67,3.9-.45.06-.9.07-1.35.07-3.61,0-7.22,0-10.83,0Zm7.18-6.51c-2.41-6.59-4.79-13.08-7.17-19.57h-.22c-2.32,6.48-4.64,12.98-7,19.57h14.38Z"/>
  <path class="cls-1" d="m110.52,134.3c-2.47,0-4.79,0-7.1,0-.48,0-.97-.03-1.43-.16-1.24-.34-1.93-1.33-1.87-2.59.06-1.27.82-2.2,2.07-2.44.53-.11,1.09-.16,1.63-.16,6.64-.01,13.27,0,19.91,0,.45,0,.9.04,1.34.11,1.53.24,2.43,1.25,2.39,2.67-.05,1.43-1.08,2.47-2.63,2.55-1.03.06-2.06.02-3.09.02-1.51,0-3.02,0-4.65,0-.02.46-.06.86-.06,1.26,0,7.28,0,14.56-.02,21.84,0,.73-.1,1.48-.3,2.18-.38,1.33-1.41,2.01-2.83,2.04-1.49.03-2.58-.63-3.01-1.93-.22-.66-.32-1.38-.33-2.08-.02-7.35-.01-14.69-.01-22.04v-1.27Z"/>
</svg>