<?xml version="1.0" encoding="utf-8"?>
<!-- Generator: Adobe Illustrator 28.0.0, SVG Export Plug-In . SVG Version: 6.00 Build 0)  -->
<svg version="1.1" id="Capa_1" xmlns="http://www.w3.org/2000/svg" xmlns:xlink="http://www.w3.org/1999/xlink" x="0px" y="0px"
	 viewBox="0 0 200 200" style="enable-background:new 0 0 200 200;" xml:space="preserve">
<style type="text/css">
	.st0{fill:url(#SVGID_1_);}
</style>
<linearGradient id="SVGID_1_" gradientUnits="userSpaceOnUse" x1="28.9611" y1="194.3126" x2="153.8024" y2="-21.8996" gradientTransform="matrix(1 0 0 -1 0 202)">
	<stop  offset="0" style="stop-color:#BFCC60"/>
	<stop  offset="0.29" style="stop-color:#798D5C"/>
	<stop  offset="0.69" style="stop-color:#6B6052"/>
	<stop  offset="1" style="stop-color:#3D3535"/>
</linearGradient>
<path class="st0" d="M194.3,199.8H5.7c-2.7,0-4.9-2.2-4.9-4.9S3,190,5.7,190h188.6c2.7,0,4.9,2.2,4.9,4.9S197,199.8,194.3,199.8z
	 M199.2,175.5c0-2.7-2.2-4.9-4.9-4.9H5.7c-2.7,0-4.9,2.2-4.9,4.9s2.2,4.9,4.9,4.9h188.6C197,180.4,199.2,178.2,199.2,175.5
	L199.2,175.5z M64.6,32.4c1.4,2.3,0.6,5.3-1.8,6.7c-0.7,0.4-1.6,0.7-2.5,0.7H48v16.6c0,9.1-4.4,17.6-11.9,22.7
	c-0.3,0.2-0.6,0.4-0.9,0.6c-8.9,4.3-12.5,15-8.2,23.9c1.3,2.7,3.4,5.1,5.9,6.8c9.2,4.7,15,14,15.1,24.3v21.4c0,2.7-2.2,4.9-4.9,4.9
	l0,0c-2.7,0-4.9-2.2-4.9-4.9v-21c0-6.7-3.8-12.9-9.8-15.9c-0.2-0.1-0.4-0.2-0.6-0.4c-12.7-8.5-16.1-25.7-7.7-38.4
	c2.6-3.9,6.2-7.1,10.4-9.3c4.8-3.3,7.7-8.8,7.7-14.6V40H26c-2.7,0-4.9-2.2-4.9-4.9c0-0.9,0.2-1.7,0.7-2.5L38.9,2.7
	c1.4-2.3,4.4-3.1,6.7-1.8c0.7,0.4,1.4,1,1.8,1.8C47.4,2.7,64.6,32.4,64.6,32.4z M51.8,30l-8.7-15l-8.7,15C34.4,30,51.8,30,51.8,30z
	 M122,32.4c1.4,2.3,0.6,5.3-1.8,6.7c-0.7,0.4-1.6,0.7-2.5,0.7h-12.3v16.6c0,9.1-4.4,17.6-11.9,22.7c-0.3,0.2-0.6,0.4-0.9,0.6
	c-8.9,4.3-12.5,15-8.2,23.9c1.3,2.7,3.4,5.1,5.9,6.8c9.2,4.7,15,14,15.1,24.3V156c0,2.7-2.2,4.9-4.9,4.9l0,0c-2.7,0-4.9-2.2-4.9-4.9
	v-21c0-6.7-3.8-12.9-9.8-15.9c-0.2-0.1-0.4-0.2-0.6-0.4c-12.7-8.5-16.1-25.7-7.7-38.4c2.6-3.9,6.2-7.1,10.4-9.3
	c4.8-3.3,7.7-8.8,7.7-14.6V39.9H83.4c-2.7,0-4.9-2.2-4.9-4.9c0-0.9,0.2-1.8,0.7-2.5L96.3,2.7c1.4-2.3,4.4-3.1,6.7-1.8
	c0.7,0.4,1.4,1,1.8,1.8L122,32.4z M109.2,30l-8.7-15l-8.7,15C91.8,30,109.2,30,109.2,30z M180.1,37.4c-0.9,1.5-2.5,2.5-4.3,2.5
	h-12.2v16.5c0,9.1-4.4,17.6-11.9,22.7c-0.3,0.2-0.6,0.4-0.9,0.6c-8.9,4.3-12.5,15-8.2,23.9c1.3,2.7,3.4,5.1,5.9,6.8
	c9.2,4.7,15,14,15.1,24.3v21.4c0,2.7-2.2,4.9-4.9,4.9l0,0c-2.7,0-4.9-2.2-4.9-4.9v-21c0-6.7-3.8-12.9-9.8-15.9
	c-0.2-0.1-0.4-0.2-0.6-0.4c-12.7-8.5-16.1-25.7-7.7-38.4c2.6-3.9,6.2-7.1,10.4-9.3c4.8-3.3,7.7-8.8,7.7-14.6V40h-12.2
	c-2.7,0-4.9-2.2-4.9-4.9c0-0.9,0.2-1.7,0.7-2.5l17.2-29.8c1.4-2.3,4.4-3.1,6.7-1.8c0.7,0.4,1.4,1,1.8,1.8l17.1,29.7
	C181.1,33.9,181.1,35.8,180.1,37.4L180.1,37.4L180.1,37.4z M167.4,30l-8.7-15L150,30H167.4z"/>
</svg>
