<?xml version="1.0" encoding="utf-8"?>
<!-- Generator: Adobe Illustrator 28.0.0, SVG Export Plug-In . SVG Version: 6.00 Build 0)  -->
<svg version="1.1" id="Pruebas" xmlns="http://www.w3.org/2000/svg" xmlns:xlink="http://www.w3.org/1999/xlink" x="0px" y="0px"
	 viewBox="0 0 200 200" style="enable-background:new 0 0 200 200;" xml:space="preserve">
<style type="text/css">
	.st0{fill:url(#SVGID_1_);}
	.st1{fill:url(#SVGID_00000111890985358075710450000014136010863257844891_);}
	.st2{fill:url(#SVGID_00000178173398963693771890000007127062605714086846_);}
	.st3{fill:url(#SVGID_00000124860223117418304550000006071094942564385470_);}
</style>
<linearGradient id="SVGID_1_" gradientUnits="userSpaceOnUse" x1="89.6262" y1="878.7" x2="89.6262" y2="1077.64" gradientTransform="matrix(1 0 0 1 0 -878)">
	<stop  offset="0" style="stop-color:#60C5F1"/>
	<stop  offset="0.23" style="stop-color:#47B5E7"/>
	<stop  offset="0.75" style="stop-color:#1495D3"/>
	<stop  offset="1" style="stop-color:#0089CB"/>
</linearGradient>
<path class="st0" d="M121.6,102.4l-0.1-0.6c-0.4-5.8-0.9-11.6-1.7-17.2v-0.1v-0.1c-0.3-2.6-0.7-5.2-1.1-7.8c0,0,0-0.1,0-0.2
	c-0.9-5.6-2-11.4-3.3-17.1c-0.1-0.6-0.3-1.2-0.5-1.8c-0.7-1.5-2.3-2.3-3.9-2c-1.8,0.4-2.9,1.8-2.8,3.5c0,0.5,0.1,0.9,0.1,1.3
	c0.2,1.5,0.5,3,0.8,4.4l0.2,0.8c2,9.7,3.5,20,4.6,31.4c0.8,9.3,1.2,18.8,1.2,28.2c2.3-1.4,4.8-2.7,7.3-3.7
	C122.3,115.6,122,109.3,121.6,102.4z M150.4,91.8c-0.1-0.5-0.1-0.9-0.1-1.3v-0.2c-0.9-3.8-1.8-7.6-2.9-11.2l-0.2-0.7
	c-0.1-0.5-0.3-0.9-0.5-1.3c-0.6-1.5-1.1-3.1-1.7-4.6c-1.1-3.2-2.4-6.6-3.7-9.8c-10.4-23.8-25.9-43.6-45.9-58.8
	c-2.9-2.2-4.4-3.2-5.7-3.2c-1.3,0-2.8,1.1-5.7,3.2C63.8,19,48.3,38.7,37.9,62.5c-1.4,3.3-2.7,6.7-3.8,10c-0.5,1.5-1.1,3-1.6,4.4
	l-0.1,0.2c-0.5,1.2-0.9,2.6-1.3,4.1c-1.1,4.1-2.3,9.9-2.5,10.5c-3.2,15.2-4.1,29.4-3,43.4c1.3,16.3,5.7,29.5,13.5,40.4
	c0.2,0.3,0.4,0.7,0.6,1c2.2,2.9,4.7,5.6,7.4,8l0.2,0.1c0.2,0.1,0.4,0.3,0.6,0.4c9.1,7.8,20.1,12.2,33.5,13.6
	c2.9,0.3,5.6,0.4,8.2,0.5c2.6,0,5.3-0.2,8.2-0.5c4-0.4,7.7-1.1,11.2-2c-3.2-2.9-6-6.2-8.3-9.9c-0.8,0.8-1.6,1.5-2.5,2.2
	c-2.5,1.9-5.4,2.9-8.1,3c-0.2,0-0.4,0-0.6,0c-3,0-5.9-1-8.6-3c-4-2.9-6.4-7-8-10.2c-2.9-5.8-5-12.4-6.4-20.8
	c-0.1-0.7-0.3-1.5-0.4-2.2c-0.3-1.8-0.5-3.6-0.8-5.6c-0.2-1.8-0.4-3.3-0.7-4.7c-0.3-1.7-1.8-2.8-3.5-2.7c-1,0.1-1.9,0.5-2.6,1.3
	c-0.7,0.8-0.9,1.8-0.8,2.9c0.3,2.8,0.6,5.5,1,8.1c1.9,13.5,5.1,23.2,10.2,31.5c0.2,0.3,1.3,2.5,1.3,2.5l-2.3-0.6
	c-0.5-0.2-0.9-0.3-1.4-0.5c-0.1,0-0.2-0.1-0.2-0.1l-0.2-0.1c0,0-0.1,0-0.2-0.1c-7.2-2.9-13.1-7-18.1-12.6
	c-7-7.9-11.5-17.8-13.8-30.3c-1.7-9.2-2.1-19.1-1.3-30.3c0-0.1,0-0.2,0-0.3c0.1-2.2,0.3-4.2,0.5-6.2c0-0.1,0-0.3,0-0.4
	c2.1-19.3,8-37.7,17.4-54.6l0.3-0.5c0.1-0.2,0.3-0.5,0.4-0.7c0.3-0.6,0.7-1.1,1-1.7l0.5-0.8c0.1-0.2,0.2-0.4,0.3-0.5l0.1-0.1
	c0-0.1,0.1-0.2,0.2-0.2c0.2-0.3,0.5-0.7,0.7-1.1c0.1-0.1,0.2-0.2,0.2-0.4l0.1-0.1c0.1-0.1,0.1-0.2,0.2-0.3c0.2-0.4,0.5-0.8,0.8-1.3
	l0.4-0.7c0.1-0.1,0.1-0.2,0.2-0.3l0.1-0.1c0.2-0.3,0.4-0.5,0.5-0.8c0.2-0.3,0.5-0.7,0.7-1.1c0.2-0.3,0.5-0.7,0.8-1.1
	c0.2-0.3,0.5-0.7,0.8-1.1l0.2-0.3c0.2-0.3,0.4-0.6,0.6-0.9C67.2,28.3,76,19.1,85.8,11.2c0.5-0.4,1.1-0.9,1.6-1.2
	c0.2-0.2,0.4-0.3,0.7-0.5l1.5-0.8l0.5,0.4c0.3,0.2,0.5,0.3,0.7,0.5c0.2,0.1,0.4,0.3,0.6,0.4c0.6,0.4,1.1,0.8,1.6,1.2
	c9.9,7.9,18.6,17.1,26.1,27.5c0.2,0.2,0.4,0.5,0.6,0.8l0.3,0.4c2.7,3.8,5.2,7.8,7.6,11.8l1.1,2c0.1,0.1,0.1,0.2,0.2,0.3
	c9.1,16.6,14.8,34.6,16.9,53.6c0,0.1,0,0.2,0.1,0.3c0.1,1.3,0.3,2.6,0.4,3.9l0.2,2.3c0.1,1.6,0.2,3.2,0.3,4.8
	c2.5,0.4,4.9,1.1,7.3,1.9C153.7,111.5,152.5,101.8,150.4,91.8L150.4,91.8z"/>
<linearGradient id="SVGID_00000132049736256911779470000006210036045372348309_" gradientUnits="userSpaceOnUse" x1="67.6038" y1="878.53" x2="67.6038" y2="1077.47" gradientTransform="matrix(1 0 0 1 0 -878)">
	<stop  offset="0" style="stop-color:#60C5F1"/>
	<stop  offset="0.23" style="stop-color:#47B5E7"/>
	<stop  offset="0.75" style="stop-color:#1495D3"/>
	<stop  offset="1" style="stop-color:#0089CB"/>
</linearGradient>
<path style="fill:url(#SVGID_00000132049736256911779470000006210036045372348309_);" d="M77.7,35.7L77.7,35.7c0,0.6-0.2,1.2-0.4,2
	C71.7,54,67.9,71.3,66,89.2c-0.2,1.8-0.4,3.7-0.5,5.6c-0.1,1.6-0.3,3.2-0.5,4.8c-0.1,0.7-0.2,1.6-0.3,2.4c-0.4,2.2-1.9,3.4-3.9,3.2
	c-1.9-0.2-3.3-1.7-3.3-3.8c0-0.2,0-0.3,0-0.5v-0.4c0.1-2,2.5-21.9,4.2-31.9c1.8-10.5,8.6-32.9,8.6-32.9c0.3-0.7,0.5-1.4,0.8-2
	c0.9-1.5,2.5-2.2,4.2-1.7C76.9,32.6,77.8,34,77.7,35.7L77.7,35.7z"/>
<linearGradient id="SVGID_00000087377435913113954150000008565293060660803003_" gradientUnits="userSpaceOnUse" x1="138.9475" y1="878.53" x2="138.9475" y2="1077.47" gradientTransform="matrix(1 0 0 1 0 -878)">
	<stop  offset="0" style="stop-color:#60C5F1"/>
	<stop  offset="0.23" style="stop-color:#47B5E7"/>
	<stop  offset="0.75" style="stop-color:#1495D3"/>
	<stop  offset="1" style="stop-color:#0089CB"/>
</linearGradient>
<path style="fill:url(#SVGID_00000087377435913113954150000008565293060660803003_);" d="M149.1,157.6c-1.2-2.1-2.9-4.6-5.2-7.6
	c-0.8-1-1.6-2-2.5-3.1c0,0-0.1-0.1-0.2-0.3c-0.6-0.7-1.5-0.9-2.3-0.9s-1.5,0.3-2.1,0.8h-0.1l-0.2,0.2l-0.1,0.1l0,0
	c-0.9,1.1-3.2,4-5.5,7.3c-3.7,5.5-5.5,9.7-5.5,12.7c-0.1,3.6,1.3,7.1,3.9,9.7c0.1,0.1,0.1,0.1,0.2,0.2c1.8,1.8,4,3,6.4,3.6
	c1,0.2,1.9,0.4,3,0.4h0.1c3.6-0.1,7.1-1.5,9.6-4.1c2.6-2.6,3.9-6.1,3.9-9.7C152.5,165.7,152,162.7,149.1,157.6z M141,174
	c-0.6,0.2-1.4,0.3-2.1,0.4c-2.1,0-3.9-0.9-5.2-2.4c-1.2-1.3-1.9-3-1.9-4.9c0-2.2,2.8-7.3,7.1-12.9c0.8,1,1.6,2.2,2.5,3.5
	c0,0,0,0.1,0.1,0.1c2.8,4.1,3.9,6.6,4.3,7.9c0.2,0.7,0.3,1.1,0.3,1.3C146.1,170.3,144,173,141,174L141,174z"/>
<linearGradient id="SVGID_00000078750677077556454760000012267762969611395498_" gradientUnits="userSpaceOnUse" x1="138.6" y1="878.53" x2="138.6" y2="1077.47" gradientTransform="matrix(1 0 0 1 0 -878)">
	<stop  offset="0" style="stop-color:#60C5F1"/>
	<stop  offset="0.23" style="stop-color:#47B5E7"/>
	<stop  offset="0.75" style="stop-color:#1495D3"/>
	<stop  offset="1" style="stop-color:#0089CB"/>
</linearGradient>
<path style="fill:url(#SVGID_00000078750677077556454760000012267762969611395498_);" d="M138.6,134.1c16.1,0,29.2,13.1,29.2,29.2
	s-13.1,29.2-29.2,29.2s-29.2-13.1-29.2-29.2S122.5,134.1,138.6,134.1 M138.6,127.1c-20,0-36.2,16.2-36.2,36.2s16.2,36.2,36.2,36.2
	s36.2-16.2,36.2-36.2S158.6,127.1,138.6,127.1L138.6,127.1z"/>
</svg>
