<?xml version="1.0" encoding="UTF-8"?>
<svg id="Pruebas" xmlns="http://www.w3.org/2000/svg" xmlns:xlink="http://www.w3.org/1999/xlink" viewBox="0 0 200 200">
  <defs>
    <style>
      .cls-1 {
        fill: url(#Degradado_sin_nombre_32);
        stroke-width: 0px;
      }
    </style>
    <linearGradient id="Degradado_sin_nombre_32" data-name="Degradado sin nombre 32" x1="13.39" y1="150" x2="186.49" y2="50.06" gradientUnits="userSpaceOnUse">
      <stop offset="0" stop-color="#eb6840"/>
      <stop offset=".43" stop-color="#e63a5d"/>
      <stop offset="1" stop-color="#874592"/>
    </linearGradient>
  </defs>
  <path class="cls-1" d="m96.84,199.93c-9.16-.28-18.12-1.77-26.86-4.54-15.22-4.83-28.54-12.83-39.94-24.01-11.38-11.15-19.64-24.28-24.79-39.36-2.2-6.45-3.68-13.06-4.5-19.83-.63-5.19-.86-10.4-.68-15.62.47-13.42,3.5-26.25,9.14-38.44,4.6-9.93,10.67-18.88,18.22-26.81,12.59-13.22,27.65-22.39,45.19-27.45,6.2-1.79,12.53-2.91,18.97-3.45,5.96-.5,11.91-.48,17.85.09,12.01,1.14,23.47,4.3,34.29,9.66,19.61,9.71,34.56,24.27,44.82,43.59,4.88,9.19,8.15,18.96,9.91,29.22.85,4.93,1.35,9.89,1.41,14.89,0,.22.09.43.13.64v3.09c-.05.28-.13.56-.13.84-.09,5.81-.75,11.57-1.9,17.26-1.83,9.11-4.88,17.8-9.15,26.06-5.2,10.05-11.9,18.98-20.11,26.76-10.98,10.39-23.66,17.96-38.04,22.63-9,2.92-18.24,4.5-27.7,4.77-.48.01-5.66.01-6.13,0Zm3.12-193.54c-51.41-.03-93.26,41.69-93.64,92.91-.38,51.48,40.99,93.7,92.38,94.36,52.18.67,94.33-41.22,94.9-92.52.58-52.67-42.14-94.8-93.63-94.75Z"/>
  <path class="cls-1" d="m99.9,187.16c-47.49.18-87.52-38.81-87.11-87.92C13.2,51.27,52.54,12.27,101.07,12.85c47.88.58,86.7,40.04,86.04,88.42-.64,47.48-39.7,86.07-87.21,85.88Zm9.31-124.55c.05.44.07.72.12,1,2.1,10.38,4.19,20.76,6.33,31.13.46,2.23.73,4.43.41,6.71-1.25,9.06-9.71,15.33-18.75,13.86-9.11-1.48-15.24-10.36-13.32-19.39,2.07-9.76,4.18-19.51,6.28-29.26.29-1.34.56-2.68.86-4.13-.35.07-.56.1-.77.15-12.37,3.44-21.12,11.06-26.15,22.86-1.85,4.33-2.78,8.9-2.75,13.64,0,1.7-.72,3.02-2.32,3.67-.63.26-1.38.31-2.08.31-12.18.02-24.37.01-36.55.01h-1.34c.45,11.23,3.04,21.81,7.9,31.81,7.07,14.56,17.54,26.06,31.4,34.42,27.98,16.88,63.5,15.08,89.72-4.56,13.17-9.86,22.52-22.6,28.03-38.12,2.69-7.59,4.18-15.41,4.47-23.55h-1.41c-10.12,0-20.24,0-30.36,0-2.22,0-4.45.02-6.67,0-2.23-.03-3.68-1.57-3.8-3.78-.12-2.15-.2-4.33-.63-6.43-2.66-12.96-10.01-22.3-21.93-28.02-2.09-1-4.27-1.77-6.69-2.32Zm33.9-30.82c-6,10.37-11.94,20.65-17.89,30.94.29.23.48.39.69.54,6.32,4.51,11.19,10.24,14.58,17.22,2.32,4.77,3.71,9.8,4.23,15.07.11,1.16.08,1.17,1.24,1.17,11.18,0,22.37,0,33.55,0,.34,0,.68-.04,1.11-.06-.22-6.14-1.15-12.07-2.74-17.89-2.87-10.48-7.67-19.99-14.37-28.54-5.7-7.27-12.47-13.36-20.39-18.45Zm-86.29.02c-.38.23-.63.38-.87.53-5.51,3.58-10.5,7.79-14.97,12.6-10.16,10.95-16.82,23.73-19.96,38.34-.87,4.03-1.42,8.11-1.6,12.23-.05,1.16,0,1.18,1.18,1.18,11.12.02,22.23.03,33.35.04.34,0,.69-.03,1.09-.05,1.38-14.33,7.99-25.6,19.64-33.96-5.97-10.32-11.89-20.57-17.87-30.91Zm5.64-3.3c5.99,10.38,11.92,20.66,17.86,30.96.35-.13.6-.2.83-.31,3.37-1.57,6.89-2.7,10.56-3.34.73-.13.95-.47,1.08-1.09.65-3.12,1.33-6.23,1.98-9.35.6-2.84,2.74-4.68,5.46-4.68,2.71,0,4.85,1.77,5.45,4.57.66,3.12,1.27,6.24,1.9,9.37.22,1.09.21,1.08,1.31,1.3,3.36.67,6.6,1.73,9.72,3.14.31.14.63.26,1,.4,5.98-10.37,11.9-20.64,17.87-30.99-13.77-7.15-28.23-10.17-43.53-9.06-11.08.81-21.55,3.84-31.48,9.07Zm37.83,21.93c-.16.36-.25.49-.28.63-1.04,4.84-2.08,9.68-3.11,14.52-1.97,9.2-3.94,18.39-5.9,27.59-.38,1.79-.9,3.58-1.03,5.39-.39,5.77,4.03,10.49,9.81,10.64,4.49.11,8.44-2.76,9.71-7.07.61-2.06.44-4.11.01-6.19-1.34-6.51-2.62-13.03-3.94-19.55-1.4-6.93-2.81-13.85-4.22-20.77-.34-1.65-.68-3.3-1.06-5.19Z"/>
  <path class="cls-1" d="m114.05,128.47c1.84-.05,3.24.72,4.05,2.32.75,1.49,1.35,3.06,1.97,4.6,2.7,6.64,5.39,13.29,8.07,19.94.35.86.67,1.75.84,2.66.31,1.62-.56,3.04-2.01,3.51-1.6.52-3.03-.04-3.76-1.64-.8-1.75-1.46-3.57-2.2-5.35-.49-1.18-.18-1.06-1.58-1.06-3.67,0-7.34.02-11.02-.02-.66,0-.96.2-1.18.82-.51,1.49-1.09,2.95-1.66,4.42-.19.48-.43.94-.64,1.4-.76,1.68-2.23,1.81-3.57,1.41-1.46-.43-2.39-1.94-2.01-3.41.38-1.45.94-2.87,1.49-4.27,2.79-7.12,5.61-14.24,8.42-21.36.21-.54.45-1.07.72-1.58.87-1.63,2.21-2.47,4.05-2.41Zm.08,7.17c-.07-.03-.14-.06-.2-.09-1.54,4.31-3.09,8.62-4.66,12.99h9.57c-1.59-4.37-3.15-8.64-4.71-12.91Z"/>
  <path class="cls-1" d="m85.11,153.95c.65-1.92,1.29-3.84,1.94-5.75,1.87-5.55,3.74-11.1,5.61-16.65.13-.4.27-.79.43-1.18.64-1.57,2.08-2.27,3.7-1.81,1.53.44,2.49,1.94,2.1,3.53-.34,1.37-.83,2.7-1.32,4.03-2.6,7.07-5.21,14.13-7.83,21.19-.3.81-.67,1.61-1.1,2.36-1.54,2.68-5.91,2.66-7.44.13-.56-.93-1.01-1.94-1.38-2.97-2.82-7.64-5.61-15.28-8.41-22.93-.22-.6-.4-1.23-.52-1.85-.29-1.5.56-3,2.03-3.41,1.54-.44,3.06-.15,3.73,1.33.38.85.76,1.71,1.06,2.59,2.34,6.89,4.66,13.78,6.98,20.67.08.24.17.48.26.72.06,0,.12.02.17.02Z"/>
</svg>