<?xml version="1.0" encoding="utf-8"?>
<!-- Generator: Adobe Illustrator 28.0.0, SVG Export Plug-In . SVG Version: 6.00 Build 0)  -->
<svg version="1.1" id="Pruebas" xmlns="http://www.w3.org/2000/svg" xmlns:xlink="http://www.w3.org/1999/xlink" x="0px" y="0px"
	 viewBox="0 0 200 200" style="enable-background:new 0 0 200 200;" xml:space="preserve">
<style type="text/css">
	.st0{fill:url(#SVGID_1_);}
	.st1{fill:url(#SVGID_00000049191939107923827360000007103494754815605669_);}
	.st2{fill:url(#SVGID_00000080910989439765921510000014094601944307781040_);}
	.st3{fill:url(#SVGID_00000053533487377343058470000012512736466750006431_);}
	.st4{fill:url(#SVGID_00000046323202270316109770000007088070257399735486_);}
	.st5{fill:url(#SVGID_00000111886175537207439930000008211380260993720972_);}
	.st6{fill:url(#SVGID_00000025436919588693147800000008312289844508066958_);}
	.st7{fill:url(#SVGID_00000164498009602488002420000003035079630944150458_);}
	.st8{fill:url(#SVGID_00000137093224071323478350000008403586967595777665_);}
	.st9{fill:url(#SVGID_00000084488425887973251570000017474748484597631144_);}
	.st10{fill:url(#SVGID_00000029763546254032185090000000631239185323371667_);}
	.st11{fill:url(#SVGID_00000136369543454038853960000015042874521421937327_);}
	.st12{fill:url(#SVGID_00000070812146543665966250000013136543886480584881_);}
</style>
<linearGradient id="SVGID_1_" gradientUnits="userSpaceOnUse" x1="100.0099" y1="202" x2="100.0099" y2="2" gradientTransform="matrix(1 0 0 -1 0 202)">
	<stop  offset="0" style="stop-color:#60C5F1"/>
	<stop  offset="0.23" style="stop-color:#47B5E7"/>
	<stop  offset="0.75" style="stop-color:#1495D3"/>
	<stop  offset="1" style="stop-color:#0089CB"/>
</linearGradient>
<path class="st0" d="M116.5,167.3c1.4,0.5,2.6,0.8,3.8,1.4c4.4,2.3,6.7,6,7,10.9c0.1,2.3,0,4.7,0,7c0,0.7,0,1.5,0,2.4h2.7
	c11.3,0,22.6,0,33.8,0c0.8,0,1.5,0,2.3,0.1c2.8,0.3,4.8,2.7,4.8,5.4c0,2.6-2,4.9-4.6,5.4c-0.7,0.1-1.5,0.1-2.3,0.1
	c-42.6,0-85.2,0-127.8,0c-0.7,0-1.4,0-2-0.1c-2.8-0.3-4.9-2.6-4.9-5.4c0-2.8,2.1-5.2,5-5.5c0.7-0.1,1.4,0,2,0c11.3,0,22.5,0,33.8,0
	h2.7c0-3.3-0.1-6.3,0-9.4c0.1-5.2,3.4-9.7,8.2-11.5c0.8-0.3,1.6-0.5,2.5-0.8v-61.9c-1.8,0-3.7,0.1-5.5,0c-3.9-0.3-6.3-4.3-4.7-7.7
	c0.9-1.8,2.4-2.9,4.4-3.1c0.6-0.1,1.2,0,1.8,0c13.6,0,27.2,0,40.9,0c0.5,0,1.1,0,1.6,0c3,0.2,5.3,2.6,5.2,5.5c0,2.8-2.2,5.2-5.2,5.3
	c-1.8,0.1-3.6,0-5.6,0L116.5,167.3L116.5,167.3z M105.3,167.2v-61.6H94.7v61.6H105.3z M116.3,180.2c0-1.1-0.9-2-2-2c0,0,0,0,0,0
	c-9.4,0-18.8,0-28.2,0c-0.2,0-0.5,0-0.7,0c-1,0.1-1.8,0.7-1.8,1.7c-0.1,3,0,6,0,9h32.7c0-3,0.1-5.8,0-8.5
	C116.3,180.3,116.3,180.2,116.3,180.2z"/>
<linearGradient id="SVGID_00000165232654460141433870000017114533251268697993_" gradientUnits="userSpaceOnUse" x1="61.1898" y1="202" x2="61.1898" y2="2" gradientTransform="matrix(1 0 0 -1 0 202)">
	<stop  offset="0" style="stop-color:#60C5F1"/>
	<stop  offset="0.23" style="stop-color:#47B5E7"/>
	<stop  offset="0.75" style="stop-color:#1495D3"/>
	<stop  offset="1" style="stop-color:#0089CB"/>
</linearGradient>
<path style="fill:url(#SVGID_00000165232654460141433870000017114533251268697993_);" d="M55.6,26.5c1.8,0,3.3,0.6,4.3,1.9
	c3.7,4.5,7.4,9,10.9,13.6c1.9,2.4,1.4,5.7-0.9,7.5c-2.2,1.8-5.6,1.6-7.5-0.7c-3.7-4.5-7.4-9-11-13.6c-1.4-1.8-1.5-3.8-0.5-5.8
	C52,27.5,53.6,26.6,55.6,26.5L55.6,26.5z"/>
<linearGradient id="SVGID_00000083803380145828978330000002206627359651693227_" gradientUnits="userSpaceOnUse" x1="138.809" y1="202" x2="138.809" y2="2" gradientTransform="matrix(1 0 0 -1 0 202)">
	<stop  offset="0" style="stop-color:#60C5F1"/>
	<stop  offset="0.23" style="stop-color:#47B5E7"/>
	<stop  offset="0.75" style="stop-color:#1495D3"/>
	<stop  offset="1" style="stop-color:#0089CB"/>
</linearGradient>
<path style="fill:url(#SVGID_00000083803380145828978330000002206627359651693227_);" d="M134.3,50.7c-5,0-7.7-4.4-5.6-8
	c0.2-0.5,0.6-0.9,0.9-1.3c3.3-4.1,6.5-8.1,9.8-12.2c0.4-0.5,0.9-1,1.4-1.5c2-1.6,4.7-1.6,6.7-0.1c2,1.5,2.6,4.2,1.6,6.5
	c-0.3,0.6-0.7,1.2-1.1,1.7c-3.3,4.1-6.6,8.2-9.9,12.4C136.9,49.7,135.5,50.7,134.3,50.7L134.3,50.7z"/>
<linearGradient id="SVGID_00000011715498679877998500000013294061554130978728_" gradientUnits="userSpaceOnUse" x1="37.7543" y1="202" x2="37.7543" y2="2" gradientTransform="matrix(1 0 0 -1 0 202)">
	<stop  offset="0" style="stop-color:#60C5F1"/>
	<stop  offset="0.23" style="stop-color:#47B5E7"/>
	<stop  offset="0.75" style="stop-color:#1495D3"/>
	<stop  offset="1" style="stop-color:#0089CB"/>
</linearGradient>
<path style="fill:url(#SVGID_00000011715498679877998500000013294061554130978728_);" d="M28.8,48.9c1.5-0.8,3.4-0.8,4.9-0.1
	c0.2,0.1,0.5,0.2,0.7,0.4c4.4,3.1,8.7,6.2,13,9.5c2.2,1.6,2.7,4.2,1.6,6.5c-1.2,2.6-4.2,3.9-7.2,2.6c-0.4-0.2-0.8-0.4-1.2-0.7
	c-4.1-2.9-8.2-5.9-12.3-9c-3.1-2.3-3.4-6.3-0.6-8.6C28.1,49.3,28.4,49.1,28.8,48.9z"/>
<linearGradient id="SVGID_00000132773997431137644490000008133480476550538407_" gradientUnits="userSpaceOnUse" x1="162.2266" y1="202" x2="162.2266" y2="2" gradientTransform="matrix(1 0 0 -1 0 202)">
	<stop  offset="0" style="stop-color:#60C5F1"/>
	<stop  offset="0.23" style="stop-color:#47B5E7"/>
	<stop  offset="0.75" style="stop-color:#1495D3"/>
	<stop  offset="1" style="stop-color:#0089CB"/>
</linearGradient>
<path style="fill:url(#SVGID_00000132773997431137644490000008133480476550538407_);" d="M174.1,53.1c0,2.2-0.7,3.7-2.1,4.8
	c-4.3,3.2-8.6,6.4-13,9.5c-2.6,1.8-5.8,1.2-7.5-1.2c-1.8-2.4-1.4-5.6,1.1-7.5c4.3-3.3,8.7-6.5,13.2-9.6c1.8-1.2,3.7-1.2,5.6-0.2
	C173.1,49.8,174,51.5,174.1,53.1L174.1,53.1z"/>
<linearGradient id="SVGID_00000145754143125015577330000000492216755860348053_" gradientUnits="userSpaceOnUse" x1="84.3351" y1="202" x2="84.3351" y2="2" gradientTransform="matrix(1 0 0 -1 0 202)">
	<stop  offset="0" style="stop-color:#60C5F1"/>
	<stop  offset="0.23" style="stop-color:#47B5E7"/>
	<stop  offset="0.75" style="stop-color:#1495D3"/>
	<stop  offset="1" style="stop-color:#0089CB"/>
</linearGradient>
<path style="fill:url(#SVGID_00000145754143125015577330000000492216755860348053_);" d="M93.3,71.2c0,2.9-1.1,4.6-3.2,5.6
	c-2.1,1-4.3,0.7-5.8-1c-2.8-3.2-5.6-6.6-8.1-10.1c-1.6-2.2-0.8-5.2,1.3-6.9c2.1-1.6,5.3-1.7,7,0.3c2.8,3.2,5.5,6.6,8.1,10
	C93.1,69.8,93.2,70.8,93.3,71.2L93.3,71.2z"/>
<linearGradient id="SVGID_00000018925982163714920880000016119051706672788123_" gradientUnits="userSpaceOnUse" x1="37.9742" y1="202" x2="37.9742" y2="2" gradientTransform="matrix(1 0 0 -1 0 202)">
	<stop  offset="0" style="stop-color:#60C5F1"/>
	<stop  offset="0.23" style="stop-color:#47B5E7"/>
	<stop  offset="0.75" style="stop-color:#1495D3"/>
	<stop  offset="1" style="stop-color:#0089CB"/>
</linearGradient>
<path style="fill:url(#SVGID_00000018925982163714920880000016119051706672788123_);" d="M35,0.1c1.2,0,2.5,0.6,3.5,1.8
	c2.5,3,4.9,5.9,7.2,9c1.9,2.5,1.4,5.7-0.9,7.5c-2.3,1.9-5.5,1.6-7.5-0.8c-2.5-2.9-4.9-6-7.2-9c-1.4-1.8-1.4-3.8-0.4-5.8
	C30.7,1,32.4,0,35,0.1z"/>
<linearGradient id="SVGID_00000037691705877927383470000013001729562582561694_" gradientUnits="userSpaceOnUse" x1="162.0001" y1="201.9989" x2="162.0001" y2="1.9989" gradientTransform="matrix(1 0 0 -1 0 202)">
	<stop  offset="0" style="stop-color:#60C5F1"/>
	<stop  offset="0.23" style="stop-color:#47B5E7"/>
	<stop  offset="0.75" style="stop-color:#1495D3"/>
	<stop  offset="1" style="stop-color:#0089CB"/>
</linearGradient>
<path style="fill:url(#SVGID_00000037691705877927383470000013001729562582561694_);" d="M169,1.3c2,1.6,2.4,4.5,1.1,6.8
	c-0.1,0.2-0.2,0.3-0.3,0.5c-2.3,3.1-4.7,6.1-7.2,9c-2,2.4-5.2,2.5-7.5,0.7c-2.3-1.9-2.7-5-0.8-7.5c2.3-3,4.7-5.9,7.1-8.8
	c1.6-1.9,3.9-2.4,6-1.6C168,0.6,168.6,0.9,169,1.3L169,1.3z"/>
<linearGradient id="SVGID_00000029004113347354649520000015034948160965703099_" gradientUnits="userSpaceOnUse" x1="115.7846" y1="202" x2="115.7846" y2="2" gradientTransform="matrix(1 0 0 -1 0 202)">
	<stop  offset="0" style="stop-color:#60C5F1"/>
	<stop  offset="0.23" style="stop-color:#47B5E7"/>
	<stop  offset="0.75" style="stop-color:#1495D3"/>
	<stop  offset="1" style="stop-color:#0089CB"/>
</linearGradient>
<path style="fill:url(#SVGID_00000029004113347354649520000015034948160965703099_);" d="M124.8,63.1c-0.5,1.1-0.8,2.3-1.4,3.2
	c-2.2,3-4.6,5.8-6.9,8.7c-2,2.4-5.4,2.7-7.7,0.8c-2.2-1.9-2.7-5.1-0.8-7.5c2.3-3,4.7-5.9,7.1-8.8c1.6-1.8,4.1-2.3,6.2-1.4
	C123.2,58.9,124.5,60.8,124.8,63.1z"/>
<linearGradient id="SVGID_00000041267963752231274870000014419474820467098523_" gradientUnits="userSpaceOnUse" x1="190.09" y1="202" x2="190.09" y2="2" gradientTransform="matrix(1 0 0 -1 0 202)">
	<stop  offset="0" style="stop-color:#60C5F1"/>
	<stop  offset="0.23" style="stop-color:#47B5E7"/>
	<stop  offset="0.75" style="stop-color:#1495D3"/>
	<stop  offset="1" style="stop-color:#0089CB"/>
</linearGradient>
<path style="fill:url(#SVGID_00000041267963752231274870000014419474820467098523_);" d="M186.5,46.5c-3-0.1-4.7-1.1-5.7-3.2
	c-0.9-2-0.6-4.6,1.2-6c3.2-2.6,6.6-5.1,10-7.4c2.3-1.5,5.2-0.7,6.9,1.5c1.6,2.1,1.5,5.1-0.5,7c-0.8,0.8-1.8,1.4-2.6,2.1
	c-2.1,1.6-4.2,3.2-6.4,4.7C188.3,45.9,187,46.3,186.5,46.5L186.5,46.5z"/>
<linearGradient id="SVGID_00000162326062914289140070000007542662690165362367_" gradientUnits="userSpaceOnUse" x1="134.4056" y1="202" x2="134.4056" y2="2" gradientTransform="matrix(1 0 0 -1 0 202)">
	<stop  offset="0" style="stop-color:#60C5F1"/>
	<stop  offset="0.23" style="stop-color:#47B5E7"/>
	<stop  offset="0.75" style="stop-color:#1495D3"/>
	<stop  offset="1" style="stop-color:#0089CB"/>
</linearGradient>
<path style="fill:url(#SVGID_00000162326062914289140070000007542662690165362367_);" d="M136.4,70.7c2.1-1,4.6-0.7,6.3,0.9
	c0.6,0.6,1,1.2,1.3,2c0.8,2.1,0.2,4.5-1.5,6c-1.7,1.4-3.6,2.7-5.4,4.1c-1.3,0.9-2.5,1.9-3.9,2.8c-2.6,1.7-5.7,1.1-7.4-1.3
	c-1.8-2.4-1.4-5.5,1.1-7.5c3-2.3,6-4.5,9.1-6.7C136,70.8,136.2,70.7,136.4,70.7L136.4,70.7z"/>
<linearGradient id="SVGID_00000170278178732922457340000009754948112032421311_" gradientUnits="userSpaceOnUse" x1="9.9118" y1="202" x2="9.9118" y2="2" gradientTransform="matrix(1 0 0 -1 0 202)">
	<stop  offset="0" style="stop-color:#60C5F1"/>
	<stop  offset="0.23" style="stop-color:#47B5E7"/>
	<stop  offset="0.75" style="stop-color:#1495D3"/>
	<stop  offset="1" style="stop-color:#0089CB"/>
</linearGradient>
<path style="fill:url(#SVGID_00000170278178732922457340000009754948112032421311_);" d="M0.6,32.3c1.4-2.9,5.1-3.8,7.9-2.1
	c0.1,0.1,0.2,0.1,0.3,0.2c2.9,2,5.8,4.1,8.6,6.3c2.5,2,3,5.2,1.3,7.6c-1.7,2.4-5,3-7.6,1.2c-3-2.1-6-4.3-8.9-6.6
	c-2-1.6-2.5-3.9-1.7-6.1C0.5,32.6,0.6,32.5,0.6,32.3z"/>
<linearGradient id="SVGID_00000113347345280621268210000003642387219483279517_" gradientUnits="userSpaceOnUse" x1="65.6031" y1="202" x2="65.6031" y2="2" gradientTransform="matrix(1 0 0 -1 0 202)">
	<stop  offset="0" style="stop-color:#60C5F1"/>
	<stop  offset="0.23" style="stop-color:#47B5E7"/>
	<stop  offset="0.75" style="stop-color:#1495D3"/>
	<stop  offset="1" style="stop-color:#0089CB"/>
</linearGradient>
<path style="fill:url(#SVGID_00000113347345280621268210000003642387219483279517_);" d="M55.8,75.5c0-2.1,0.9-3.7,2.6-4.7
	c1.8-1.1,3.8-1.1,5.6,0.1c1.8,1.1,3.5,2.4,5.2,3.7c1.3,1,2.7,1.9,4,3c2.5,2.1,3,5.2,1.2,7.6c-1.8,2.4-4.9,2.9-7.6,1.1
	c-3-2.1-5.9-4.2-8.8-6.4C56.5,78.7,55.8,77.2,55.8,75.5L55.8,75.5z"/>
</svg>
