<?xml version="1.0" encoding="utf-8"?>
<!-- Generator: Adobe Illustrator 28.0.0, SVG Export Plug-In . SVG Version: 6.00 Build 0)  -->
<svg version="1.1" id="Capa_1" xmlns="http://www.w3.org/2000/svg" xmlns:xlink="http://www.w3.org/1999/xlink" x="0px" y="0px"
	 viewBox="0 0 200 200" style="enable-background:new 0 0 200 200;" xml:space="preserve">
<style type="text/css">
	.st0{fill:url(#SVGID_1_);}
</style>
<linearGradient id="SVGID_1_" gradientUnits="userSpaceOnUse" x1="0.3636" y1="-775.85" x2="199.7" y2="-775.85" gradientTransform="matrix(1 0 0 -1 0 -676)">
	<stop  offset="0" style="stop-color:#BFCC60"/>
	<stop  offset="0.29" style="stop-color:#798D5C"/>
	<stop  offset="0.69" style="stop-color:#6B6052"/>
	<stop  offset="1" style="stop-color:#3D3535"/>
</linearGradient>
<path class="st0" d="M194.6,176.6L194.6,176.6c-6.2,0-12.2,0-18.4,0h-10c0,0,0.1-1.8,0.2-2.4c0.1-1.2,0.3-2.4,0.5-3.5
	c1.2-6.7,3.8-13.3,8.1-20.9c2.5-4.4,5.4-8.9,8.8-13.3c3.4-4.4,7.2-8.9,11.5-13.5c1-1.1,2-2.2,2.9-3.4l0.6-0.8
	c0.6-0.7,0.9-1.4,0.9-2.2c0-0.3-0.1-0.6-0.2-0.9c-1.2-2-2.9-2.6-5.6-2c-9.2,2.1-17.9,5.7-25.7,10.5c-9.6,6-17.2,13.6-22.6,22.7
	c-0.5,0.9-1,1.7-1.5,2.6l-1.5,2.6l-0.2-1.5c-0.1-0.7,0.1-1.3,0.2-1.8c3.8-11.1,9.2-22.2,16.7-34c8.1-12.9,17.7-25.1,29.1-37.5
	c1.5-1.6,3-3.2,4.4-4.7c1.1-1.2,2.2-2.3,3.3-3.5l0.1-0.1c1.1-1.2,2.2-2.3,1.4-4.2c-0.6-1.5-2.3-2.5-4-2.3c-1.1,0.1-2.1,0.3-3.2,0.5
	l-1,0.2c-13.3,2.5-26.1,7.2-38.1,14c-11.2,6.3-21.2,14.2-29.9,23.4c-0.2,0.3-2,1.8-2,1.8s-0.2-1.3-0.2-1.6c-0.3-3-0.6-6.1-0.8-9.1
	c-0.6-6.5-1.2-13.2-1.9-19.8c-1.4-11.9-2.8-22.4-4.4-32.2c-0.8-5.3-2.3-10.6-3.8-15.7l-0.1-0.3c-0.5-1.7-1.5-3.6-2.8-5.3
	c-1.1-1.4-2.7-2.2-4.2-2.3c-1.6,0-3.1,0.7-4.2,2.1c-1.2,1.4-2.1,3-2.6,4.5c-1.1,3.3-2.3,7.1-3.1,11c-3.1,14.9-4.8,30-6.2,44.2
	c-0.9,9.1-1.7,17.5-2.2,25.6c-0.2,2.9-0.5,5.6-0.8,8.7l-0.4,4l-1.4-1.6c-0.3-0.4-0.6-0.7-0.8-1c-4-4.8-7.7-8.8-11.4-12
	C53.1,88.3,35,78.7,14.4,73c-2.7-0.7-5.5-1.2-8.1-1.7c-1.4-0.2-2.8,0.3-3.5,1.4c-0.9,1.5-0.8,3,0.3,4.2C4,78.5,5.3,79.8,6.4,81
	l1.3,1.3c12.6,13.4,22.8,26.3,31,39.5c1.6,2.6,3.1,5.2,4.6,7.8c0.7,1.2,1.3,2.4,2,3.6l0.4,0.6l-0.7,0.1c-0.5,0.1-0.9,0-1.2-0.3
	c-8.1-7.8-17.8-13.5-29.6-17.5c-2.6-0.9-5.5-1.6-9.2-2.4c-1.9-0.4-3.3,0.2-4.2,1.7c-0.8,1.4-0.5,2.9,0.9,4.4
	c0.7,0.8,1.4,1.5,2.1,2.3l0.7,0.7c8.5,9,15.1,17.7,20.2,26.6c4.4,7.7,7,14.4,8.3,21.3c0.2,1.1,0.4,2.3,0.5,3.5
	c0.1,0.6,0.1,1.2,0.2,1.8l0.1,0.6H4.1c-1.9,0-3.4,1.4-3.7,3.2v0.1v0.1v0.1v0.1v0.3c0,0.1,0,0.1,0,0.2c0.3,1.7,1.8,2.9,3.5,2.9h18.6
	c0.1,0,0.2,0,0.2,0c36.6,0,73.1,0,109.7,0H155c4.2,0,8.4,0,12.7,0c8.7,0,17.5,0,26.2,0l0,0c1.9,0,3.4-0.2,4.5-1.2
	c0.6-0.6,0.9-1.4,1-2.3l0,0c0-0.8-0.3-1.7-0.9-2.3C197.7,177,196.4,176.6,194.6,176.6L194.6,176.6z M40.9,176.5l-0.2-1.8
	c-0.1-1.1-0.3-2.1-0.4-3.2c-1-6.9-3.4-14-7.6-22.2c-3.9-7.6-8.9-14.9-15.1-22.4c-0.1-0.2-0.3-0.3-0.4-0.6l-1-1.3l1.3,0.3
	c5.7,1.2,19.9,10.1,27,19.4c6.8,8.9,10.8,19.1,12.2,31.2l0.1,0.6H40.9z M96.2,176.4H64.5c0,0-0.1-1.9-0.1-2.3
	c-0.1-7.5-1.6-15.5-4.8-25c-4.9-14.6-12.3-28.6-22.8-42.7c-3.8-5.2-8-10.3-12.1-15.2c-2.2-2.7-4.5-5.4-6.6-8.2l-0.2-0.3l0.4-0.6
	l0.3,0.1c6.4,1.7,12.9,4.3,19.9,8c9.2,4.8,17.2,10.2,24.2,16.5c13.8,12.3,23.5,27.5,28.9,45.4c2.3,7.6,3.5,15.4,4.3,21.4
	C96,174.1,96.2,176.4,96.2,176.4z M96.1,140.6l-0.4,1l-0.9-1.6c-0.2-0.4-0.4-0.7-0.5-1l-1.4-2.9c-1.4-2.7-2.8-5.5-4.1-8.3
	c-0.5-1.1-0.8-2.2-0.7-3.2c0.6-8.2,1.4-19.1,2.3-29.9l0.1-1.3c0.7-8.1,1.4-16.5,2.4-24.7l0.1-1.1c1.4-12.3,2.9-25.1,6.1-37.4
	c0.2-0.9,1.5-5,1.9-5c0.5,0,1.2,3.5,1.5,4.6c0.6,2.3,1.2,4.7,1.6,7.2c1.5,9.4,3.1,19.5,4.4,29.7c1,7.7,1.7,15.5,2.4,23.1
	c0.2,2.1,0.4,4.2,0.6,6.2c0.4,4.5,0.8,9.1,1.1,13.8c0.1,1-0.6,2-1,2.6c-4.7,6.5-8.7,13.1-11.8,19.8c-0.8,1.8-1.7,3.7-2.5,5.6
	C97,138.6,96.6,139.6,96.1,140.6L96.1,140.6z M130.7,173.2c0,0.6-0.1,1.2-0.1,1.9c0,0.3-0.1,1.4-0.1,1.4H123c-3.3,0-5.9,0.1-8.1,0.1
	c-3.4,0-5.6,0-7.4-0.1c-1.2,0-2.3,0-3.4,0h-0.5l0-0.4c-0.1-0.8-0.2-1.6-0.3-2.4c-0.2-1.7-0.5-3.5-0.8-5.2c-0.4-2.5-0.9-5-1.4-7.5
	c-0.4-2-0.8-4.1-1.2-6.1c-0.2-0.9-0.2-1.7,0-2.3c4.1-14.7,11.2-28.3,21.2-40.5c10.7-13.2,24-23.8,39.5-31.5
	c7.1-3.6,14.2-6.2,21.8-8.3l1.6-0.4l-1.9,2.2c-0.5,0.6-0.9,1-1.3,1.5c-10.6,11.7-19.3,23-26.7,34.7c-10.6,16.5-17.2,31.2-20.9,46.4
	C131.5,162.7,130.8,168.2,130.7,173.2z M143.4,176.5l0.1-0.5c1.8-22.8,16.4-41.8,38.9-50.6l1.8-0.7l-1.2,1.5
	c-6.5,7.9-11.6,15.6-15.7,23.4c-5,9.7-7.6,18.1-8,26.6l0,0.3H143.4z"/>
</svg>
