<?xml version="1.0" encoding="UTF-8"?>
<svg id="Pruebas" xmlns="http://www.w3.org/2000/svg" xmlns:xlink="http://www.w3.org/1999/xlink" viewBox="0 0 200 200">
  <defs>
    <style>
      .cls-1 {
        fill: url(#Degradado_sin_nombre_31);
      }

      .cls-1, .cls-2 {
        stroke-width: 0px;
      }

      .cls-2 {
        fill: none;
      }

      .cls-3 {
        clip-path: url(#clippath-1);
      }
    </style>
    <linearGradient id="Degradado_sin_nombre_31" data-name="Degradado sin nombre 31" x1="100" y1=".61" x2="100" y2="199.39" gradientUnits="userSpaceOnUse">
      <stop offset="0" stop-color="#60c5f1"/>
      <stop offset=".23" stop-color="#47b5e7"/>
      <stop offset=".75" stop-color="#1495d3"/>
      <stop offset="1" stop-color="#0089cb"/>
    </linearGradient>
    <clipPath id="clippath-1">
      <path class="cls-2" d="m145.91,123.68c16.34,0,29.63,13.29,29.63,29.63s-13.29,29.63-29.63,29.63-29.64-13.29-29.64-29.63,13.29-29.63,29.64-29.63m0-6.79c-20.12,0-36.42,16.31-36.42,36.42s16.31,36.42,36.42,36.42,36.42-16.31,36.42-36.42-16.31-36.42-36.42-36.42h0Z"/>
    </clipPath>
  </defs>
  <g>
    <path class="cls-1" d="m179.15,87.35c-2.15-19.73-21.58-33.38-40.83-28.69-3.9.94-7.58,2.75-11.55,4.24-3.56-5.44-8.61-9.71-15.05-12.61.72-1.75,1.33-3.4,2.08-4.99,5.07-10.76,12.69-19.26,22.92-25.36,3.34-1.99,5.48-4.72,5.68-8.65.2-3.98-1.46-7.2-4.91-9.28-3.29-1.99-7.45-1.81-10.75.15-11.02,6.53-19.96,15.22-26.83,26.04-.37.58-.75,1.16-1.34,2.06-.34-1.06-.54-1.73-.76-2.38-2.81-8.17-7.77-14.43-16.01-17.64-9.22-3.58-18.75-3.63-28.34-1.99-2.89.49-4.75,2.8-5.1,5.79-.69,5.85-.48,11.67.46,17.48,2.35,14.45,10.18,22.76,24.41,25.88.34.07.66.25,1.04.41-1.49,1.9-2.86,3.64-4.27,5.44-.68-.38-1.3-.72-1.92-1.07-6.63-3.77-13.75-5.15-21.28-4.15-13.93,1.86-25.45,12.52-28.35,26.08-3.01,14.09,2.84,28.22,14.98,35.8,1.5.94,1.8,1.8,1.55,3.41-2.72,18.03,8.49,34.3,26.27,38.24,1.2.27,2.41.49,3.63.74,0,.62.01,1.07,0,1.52-.36,14.12,5.59,24.77,17.91,31.6,3.26,1.81,6.34,2.76,10.41,3.55.47.13,1.11.16,1.61.21,1.77.17,2.54.2,4.51.21.66,0,.81-.05,1.82-.1,1.6-.09,1.18-.06,3.07-.36,6.38-1.16,12.11-3.89,16.74-8.02-1.99-1.31-3.87-2.79-5.61-4.4-4.36,3.52-9.88,5.7-15.97,5.92-15.64.57-28.64-12.95-27.56-28.63.07-1.07.37-1.71,1.52-1.89,11.19-1.81,19.39-7.85,24.89-17.69.06-.1.17-.18.47-.47.74,1.4,1.55,2.73,2.42,3.98.44-3.55,1.29-6.98,2.51-10.23-2.4-6.79-2.04-14.49,1.49-21.26.68-1.3,1.56-2.03,2.99-2.52,3.08-1.07,6.06-2.44,9.26-3.77,1.58,1.89,3.1,3.59,4.6,5.09,1.99-1.25,4.09-2.35,6.28-3.28-2.14-1.85-4-4.09-5.48-6.68,9.35-10.35,11.78-22.14,7.58-35.32,9.72-7.66,27.11-7.22,36.83,5.71,8.48,11.28,6.53,27.18-3.78,36.21,2.23.94,4.37,2.05,6.4,3.31,7.33-7.23,10.58-16.45,9.36-27.64Zm-79.35-43.45c6-15.26,16.03-27.11,30.09-35.56,1.33-.79,2.65-1.2,4.06-.34,2.19,1.33,2.03,4.09-.29,5.67-2.7,1.85-5.52,3.57-8.07,5.62-9.01,7.21-15.6,16.25-19.72,27.04-.6,1.58-1.35,1.97-2.88,1.66-1.39-.27-2.82-.32-4.48-.49.46-1.29.84-2.46,1.29-3.6Zm-28.2,5.93c-9.82-2.67-14.41-9.86-15.83-19.3-.69-4.63-.43-9.41-.61-14.12-.03-.98.29-1.59,1.41-1.71,5.97-.64,11.93-.84,17.84.47,10.01,2.2,15.92,8.42,17.77,18.68.4,2.26.58,4.55.84,6.83.04.36-.04.73-.08,1.47-.65-.75-1.07-1.21-1.47-1.69-6.37-7.79-14.06-13.95-23.06-18.46-.58-.29-1.17-.58-1.78-.83-2.13-.88-3.98-.28-4.86,1.55-.83,1.75-.18,3.52,1.75,4.63,2.33,1.34,4.74,2.56,7.02,3.97,6.26,3.87,11.87,8.47,16.28,14.42.7.94,1.32,1.95,2.07,3.06-3.28,1.75-6.47,3.06-10.15,2.4-2.39-.43-4.81-.74-7.14-1.37Zm-46.09,48.35c-2.88-10.87,1.68-22.81,11.09-28.98,9.32-6.11,22.11-5.92,30.23.52-4.2,13.23-1.78,24.95,7.45,35.23-3.14,7.89-14.52,13.98-24.9,13.33-11.16-.69-20.89-8.88-23.87-20.1Zm47.04,56.91c-13.74,1.99-27.64-6.74-30.48-21.16-.62-3.15-.44-6.46-.65-9.97,16.44,3.63,29.01-1.17,38.34-13.92,3.59,1.39,7.13,2.73,10.63,4.15.48.2.87.76,1.17,1.24,9.48,15.53-1,37.04-19.01,39.66Zm25.95-46.92c-14.87-.01-26.71-11.93-26.7-26.89,0-14.66,12.12-26.76,26.76-26.71,14.84.04,26.82,12.05,26.8,26.88-.02,14.88-11.92,26.73-26.86,26.72Z"/>
    <path class="cls-1" d="m78.36,80.34c.32-10.22,9.17-19,19.38-19.22,2.55-.06,4.2,1.21,4.32,3.3.11,1.99-1.32,3.34-3.82,3.62-7.92.89-12.36,5.42-13.01,13.26-.18,2.2-1.71,3.69-3.66,3.57-2.16-.12-3.29-1.73-3.21-4.54Z"/>
    <path class="cls-1" d="m31.12,90.86c.2-10.55,9.3-19.52,19.85-19.58,2.34-.01,3.81,1.21,3.9,3.24.09,2.1-1.34,3.51-3.75,3.67-7.38.51-12.22,5.22-12.95,12.6-.02.2-.03.39-.06.59-.33,2.33-1.72,3.69-3.67,3.59-2.03-.11-3.37-1.77-3.33-4.12Z"/>
  </g>
  <g>
    <g class="cls-3">
      <rect class="cls-1" x="109.49" y="116.89" width="72.85" height="1.49"/>
      <rect class="cls-1" x="109.49" y="118.38" width="72.85" height="1.49"/>
      <rect class="cls-1" x="109.49" y="119.86" width="72.85" height="1.49"/>
      <rect class="cls-1" x="109.49" y="121.35" width="72.85" height="1.49"/>
      <rect class="cls-1" x="109.49" y="122.84" width="72.85" height="1.49"/>
      <rect class="cls-1" x="109.49" y="124.32" width="72.85" height="1.49"/>
      <rect class="cls-1" x="109.49" y="125.81" width="72.85" height="1.49"/>
      <rect class="cls-1" x="109.49" y="127.3" width="72.85" height="1.49"/>
      <rect class="cls-1" x="109.49" y="128.78" width="72.85" height="1.49"/>
      <rect class="cls-1" x="109.49" y="130.27" width="72.85" height="1.49"/>
      <rect class="cls-1" x="109.49" y="131.76" width="72.85" height="1.49"/>
      <rect class="cls-1" x="109.49" y="133.24" width="72.85" height="1.49"/>
      <rect class="cls-1" x="109.49" y="134.73" width="72.85" height="1.49"/>
      <rect class="cls-1" x="109.49" y="136.22" width="72.85" height="1.49"/>
      <rect class="cls-1" x="109.49" y="137.7" width="72.85" height="1.49"/>
      <rect class="cls-1" x="109.49" y="139.19" width="72.85" height="1.49"/>
      <rect class="cls-1" x="109.49" y="140.68" width="72.85" height="1.49"/>
      <rect class="cls-1" x="109.49" y="142.16" width="72.85" height="1.49"/>
      <rect class="cls-1" x="109.49" y="143.65" width="72.85" height="1.49"/>
      <rect class="cls-1" x="109.49" y="145.13" width="72.85" height="1.49"/>
      <rect class="cls-1" x="109.49" y="146.62" width="72.85" height="1.49"/>
      <rect class="cls-1" x="109.49" y="148.11" width="72.85" height="1.49"/>
      <rect class="cls-1" x="109.49" y="149.59" width="72.85" height="1.49"/>
      <rect class="cls-1" x="109.49" y="151.08" width="72.85" height="1.49"/>
      <rect class="cls-1" x="109.49" y="152.57" width="72.85" height="1.49"/>
      <rect class="cls-1" x="109.49" y="154.05" width="72.85" height="1.49"/>
      <rect class="cls-1" x="109.49" y="155.54" width="72.85" height="1.49"/>
      <rect class="cls-1" x="109.49" y="157.03" width="72.85" height="1.49"/>
      <rect class="cls-1" x="109.49" y="158.51" width="72.85" height="1.49"/>
      <rect class="cls-1" x="109.49" y="160" width="72.85" height="1.49"/>
      <rect class="cls-1" x="109.49" y="161.49" width="72.85" height="1.49"/>
      <rect class="cls-1" x="109.49" y="162.97" width="72.85" height="1.49"/>
      <rect class="cls-1" x="109.49" y="164.46" width="72.85" height="1.49"/>
      <rect class="cls-1" x="109.49" y="165.95" width="72.85" height="1.49"/>
      <rect class="cls-1" x="109.49" y="167.43" width="72.85" height="1.49"/>
      <rect class="cls-1" x="109.49" y="168.92" width="72.85" height="1.49"/>
      <rect class="cls-1" x="109.49" y="170.41" width="72.85" height="1.49"/>
      <rect class="cls-1" x="109.49" y="171.89" width="72.85" height="1.49"/>
      <rect class="cls-1" x="109.49" y="173.38" width="72.85" height="1.49"/>
      <rect class="cls-1" x="109.49" y="174.87" width="72.85" height="1.49"/>
      <rect class="cls-1" x="109.49" y="176.35" width="72.85" height="1.49"/>
      <rect class="cls-1" x="109.49" y="177.84" width="72.85" height="1.49"/>
      <rect class="cls-1" x="109.49" y="179.33" width="72.85" height="1.49"/>
      <rect class="cls-1" x="109.49" y="180.81" width="72.85" height="1.49"/>
      <rect class="cls-1" x="109.49" y="182.3" width="72.85" height="1.49"/>
      <rect class="cls-1" x="109.49" y="183.79" width="72.85" height="1.49"/>
      <rect class="cls-1" x="109.49" y="185.27" width="72.85" height="1.49"/>
      <rect class="cls-1" x="109.49" y="186.76" width="72.85" height="1.49"/>
      <rect class="cls-1" x="109.49" y="188.25" width="72.85" height="1.49"/>
      <rect class="cls-1" x="116.27" y="123.68" width="59.27" height=".65"/>
      <rect class="cls-1" x="116.27" y="124.32" width="59.27" height="1.49"/>
      <rect class="cls-1" x="116.27" y="125.81" width="59.27" height="1.49"/>
      <rect class="cls-1" x="116.27" y="127.3" width="59.27" height="1.49"/>
      <rect class="cls-1" x="116.27" y="128.78" width="59.27" height="1.49"/>
      <rect class="cls-1" x="116.27" y="130.27" width="59.27" height="1.49"/>
      <rect class="cls-1" x="116.27" y="131.76" width="59.27" height="1.49"/>
      <rect class="cls-1" x="116.27" y="133.24" width="59.27" height="1.49"/>
      <rect class="cls-1" x="116.27" y="134.73" width="59.27" height="1.49"/>
      <rect class="cls-1" x="116.27" y="136.22" width="59.27" height="1.49"/>
      <rect class="cls-1" x="116.27" y="137.7" width="59.27" height="1.49"/>
      <rect class="cls-1" x="116.27" y="139.19" width="59.27" height="1.49"/>
      <rect class="cls-1" x="116.27" y="140.68" width="59.27" height="1.49"/>
      <rect class="cls-1" x="116.27" y="142.16" width="59.27" height="1.49"/>
      <rect class="cls-1" x="116.27" y="143.65" width="59.27" height="1.49"/>
      <rect class="cls-1" x="116.27" y="145.13" width="59.27" height="1.49"/>
      <rect class="cls-1" x="116.27" y="146.62" width="59.27" height="1.49"/>
      <rect class="cls-1" x="116.27" y="148.11" width="59.27" height="1.49"/>
      <rect class="cls-1" x="116.27" y="149.59" width="59.27" height="1.49"/>
      <rect class="cls-1" x="116.27" y="151.08" width="59.27" height="1.49"/>
      <rect class="cls-1" x="116.27" y="152.57" width="59.27" height="1.49"/>
      <rect class="cls-1" x="116.27" y="154.05" width="59.27" height="1.49"/>
      <rect class="cls-1" x="116.27" y="155.54" width="59.27" height="1.49"/>
      <rect class="cls-1" x="116.27" y="157.03" width="59.27" height="1.49"/>
      <rect class="cls-1" x="116.27" y="158.51" width="59.27" height="1.49"/>
      <rect class="cls-1" x="116.27" y="160" width="59.27" height="1.49"/>
      <rect class="cls-1" x="116.27" y="161.49" width="59.27" height="1.49"/>
      <rect class="cls-1" x="116.27" y="162.97" width="59.27" height="1.49"/>
      <rect class="cls-1" x="116.27" y="164.46" width="59.27" height="1.49"/>
      <rect class="cls-1" x="116.27" y="165.95" width="59.27" height="1.49"/>
      <rect class="cls-1" x="116.27" y="167.43" width="59.27" height="1.49"/>
      <rect class="cls-1" x="116.27" y="168.92" width="59.27" height="1.49"/>
      <rect class="cls-1" x="116.27" y="170.41" width="59.27" height="1.49"/>
      <rect class="cls-1" x="116.27" y="171.89" width="59.27" height="1.49"/>
      <rect class="cls-1" x="116.27" y="173.38" width="59.27" height="1.49"/>
      <rect class="cls-1" x="116.27" y="174.87" width="59.27" height="1.49"/>
      <rect class="cls-1" x="116.27" y="176.35" width="59.27" height="1.49"/>
      <rect class="cls-1" x="116.27" y="177.84" width="59.27" height="1.49"/>
      <rect class="cls-1" x="116.27" y="179.33" width="59.27" height="1.49"/>
      <rect class="cls-1" x="116.27" y="180.81" width="59.27" height="1.49"/>
      <rect class="cls-1" x="116.27" y="182.3" width="59.27" height=".65"/>
    </g>
    <path class="cls-1" d="m148.41,136.83s-.09-.11-.22-.27c-.56-.68-1.47-.91-2.31-.91-.78.01-1.52.3-2.1.82l-.05.04-.05.05-.04.04-.05.05-.08.08-.07.09-.04.04c-.91,1.1-3.27,4.02-5.53,7.37-3.74,5.55-5.56,9.74-5.56,12.82-.06,3.63,1.33,7.1,3.9,9.75,2.55,2.63,5.99,4.1,9.67,4.16h.04s.04,0,.04,0c3.68-.06,7.12-1.53,9.67-4.16,2.56-2.64,3.95-6.1,3.9-9.76,0-2.1-1.09-8.23-11.1-20.22Zm4.63,20.23c.05,4.01-3.15,7.3-7.12,7.38-3.99-.08-7.18-3.36-7.12-7.34,0-2.2,2.84-7.31,7.12-12.94.75.99,1.63,2.19,2.52,3.49,4.27,6.28,4.61,8.8,4.61,9.42Z"/>
  </g>
</svg>