<?xml version="1.0" encoding="UTF-8"?>
<svg id="Pruebas" xmlns="http://www.w3.org/2000/svg" xmlns:xlink="http://www.w3.org/1999/xlink" viewBox="0 0 200 200">
  <defs>
    <style>
      .cls-1 {
        fill: url(#Degradado_sin_nombre_32);
        stroke-width: 0px;
      }
    </style>
    <linearGradient id="Degradado_sin_nombre_32" data-name="Degradado sin nombre 32" x1="18.64" y1="158.71" x2="191.03" y2="59.18" gradientUnits="userSpaceOnUse">
      <stop offset="0" stop-color="#eb6840"/>
      <stop offset=".43" stop-color="#e63a5d"/>
      <stop offset="1" stop-color="#874592"/>
    </linearGradient>
  </defs>
  <g>
    <path class="cls-1" d="m191.46,61.6c-4.95-11.94-12.25-22.9-21.67-32.28C150.98,10.59,125.9.27,99.17.27h-.08c-26.24.02-51.07,10.38-69.9,29.18C10.36,48.26-.01,73.03,0,99.23c0,26.88,10.34,52.05,29.1,70.88,18.75,18.84,43.8,29.21,70.54,29.21,6.86,0,13.63-.69,20.2-2.06-2.65-2.25-5.08-4.74-7.27-7.45-4.51.66-9.11,1-13.75,1h-.24c-23.93-.06-46.53-9.62-63.62-26.91-17.1-17.28-26.49-40.06-26.46-64.14.04-24.31,9.53-47.17,26.74-64.38,17.16-17.16,39.9-26.6,64.06-26.6h.2c24.42.06,47.33,9.57,64.5,26.82,17.17,17.23,26.59,40.16,26.52,64.55-.02,4.61-.37,9.18-1.05,13.66,2.66,2.19,5.11,4.63,7.31,7.28,1.5-6.9,2.27-14.01,2.26-21.24-.02-13.36-2.62-26.29-7.58-38.24Z"/>
    <path class="cls-1" d="m103.8,99.03c0,1.79-.51,3.06-1.73,4.27-6.21,6.19-12.4,12.39-18.6,18.59-4.88,4.87-9.75,9.75-14.63,14.62-1.68,1.67-3.39,2.06-5.21,1.16-1.43-.69-2.69-2.28-2.36-3.96.26-1.21.97-2.57,1.83-3.44,7.89-8.01,16.01-16.1,23.85-23.92l5.87-5.84c.33-.34.68-.64,1.03-.93.18-.16.37-.32.54-.47l.86-.76v-9.45c0-9.62,0-19.14,0-28.65v-.3c0-.71,0-1.39.11-1.91.43-1.95,2.17-3.34,4.14-3.34.11,0,.23.01.35.01,2.1.18,3.8,1.94,3.86,4,.08,2.42.06,4.91.05,7.31-.01,1.01-.02,2.02-.02,3.02v8.6c0,7.12,0,14.25.03,21.37Z"/>
  </g>
  <path class="cls-1" d="m156.05,120c19.73,0,35.78,16.05,35.78,35.78s-16.05,35.78-35.78,35.78-35.78-16.05-35.78-35.78,16.05-35.78,35.78-35.78m0-8.17c-24.27,0-43.95,19.68-43.95,43.95s19.68,43.95,43.95,43.95,43.95-19.68,43.95-43.95-19.68-43.95-43.95-43.95h0Z"/>
  <path class="cls-1" d="m159.28,160.76c0,.86-.21,1.79-.64,2.79-.42,1-1.09,1.99-2,2.95-.91.97-2.07,1.75-3.49,2.35-1.41.6-3.06.9-4.94.9-1.43,0-2.72-.13-3.89-.4-1.17-.27-2.23-.69-3.18-1.26-.95-.57-1.83-1.32-2.63-2.26-.71-.85-1.32-1.8-1.83-2.85-.5-1.05-.88-2.17-1.13-3.37-.25-1.19-.38-2.46-.38-3.8,0-2.18.32-4.12.95-5.85.63-1.72,1.54-3.19,2.72-4.42,1.18-1.22,2.56-2.15,4.15-2.79,1.59-.64,3.28-.96,5.07-.96,2.19,0,4.14.44,5.85,1.31s3.02,1.95,3.93,3.24c.91,1.28,1.36,2.5,1.36,3.64,0,.63-.22,1.18-.66,1.66-.44.48-.98.72-1.6.72-.7,0-1.23-.17-1.58-.5-.35-.33-.74-.9-1.17-1.72-.71-1.34-1.55-2.34-2.52-3.01s-2.15-1-3.57-1c-2.25,0-4.04.86-5.38,2.56-1.33,1.71-2,4.14-2,7.28,0,2.1.3,3.85.89,5.25s1.43,2.44,2.51,3.13c1.08.69,2.35,1.03,3.8,1.03,1.57,0,2.9-.39,3.99-1.17,1.09-.78,1.91-1.93,2.46-3.44.23-.71.52-1.29.87-1.74.34-.45.9-.67,1.66-.67.65,0,1.21.23,1.68.68.47.46.7,1.02.7,1.7Z"/>
  <path class="cls-1" d="m171.91,166.77v-16.78c-3.12,2.4-5.23,3.6-6.31,3.6-.52,0-.97-.21-1.37-.62-.4-.41-.6-.89-.6-1.43,0-.63.2-1.09.59-1.38.39-.3,1.09-.68,2.08-1.14,1.49-.7,2.68-1.44,3.57-2.21.89-.77,1.68-1.64,2.37-2.6s1.14-1.55,1.35-1.77c.21-.22.6-.33,1.18-.33.65,0,1.17.25,1.57.76s.59,1.2.59,2.08v21.11c0,2.47-.84,3.71-2.53,3.71-.75,0-1.35-.25-1.81-.76-.46-.5-.68-1.25-.68-2.23Z"/>
</svg>