<?xml version="1.0" encoding="UTF-8"?>
<svg id="Pruebas" xmlns="http://www.w3.org/2000/svg" xmlns:xlink="http://www.w3.org/1999/xlink" viewBox="0 0 200 200">
  <defs>
    <style>
      .cls-1 {
        fill: url(#Degradado_sin_nombre_31);
        stroke-width: 0px;
      }
    </style>
    <linearGradient id="Degradado_sin_nombre_31" data-name="Degradado sin nombre 31" x1="21.58" y1="100" x2="178.42" y2="100" gradientUnits="userSpaceOnUse">
      <stop offset="0" stop-color="#60c5f1"/>
      <stop offset=".23" stop-color="#47b5e7"/>
      <stop offset=".75" stop-color="#1495d3"/>
      <stop offset="1" stop-color="#0089cb"/>
    </linearGradient>
  </defs>
  <path class="cls-1" d="m172.1,71.54c-5.28-7.82-10.55-15.64-15.82-23.47-3.02-4.48-6-8.98-9.05-13.43-2.06-3.01-5.07-3.01-7.14-.06-.41.59-.8,1.19-1.2,1.78-2.94,4.36-5.88,8.72-8.91,13.21-.49-.68-.87-1.19-1.22-1.71-1.78-2.64-3.56-5.29-5.34-7.93-2.8-4.15-5.59-8.3-8.38-12.45-.43-.62-.85-1.25-1.27-1.88-5-7.42-10.01-14.83-15.02-22.24-.4-.58-.76-1.17-1.19-1.72-1.71-1.96-3.9-2.1-5.69-.45l-.06.06c-.07.06-.14.13-.2.2-.51.52-1.03,1.12-1.46,1.79-3.13,4.63-6.26,9.27-9.39,13.91-1.58,2.35-3.17,4.71-4.75,7.06-13.61,20.21-27.19,40.43-40.91,60.55-10.9,15.99-15.4,33.32-12.81,52.28.09.73.2,1.46.32,2.19.4,2.43.91,4.81,1.55,7.14,1.04,3.88,2.39,7.6,4.02,11.16,1.45,3.17,3.12,6.2,4.99,9.08,15.36,23.75,44.07,37.43,73.65,32.26,34.64-6.06,59.94-35.76,60.37-70.9.04-3.5.01-7,.01-10.5-.22-.3.03-.5.26-.72,12.68-12.34,14.54-30.56,4.64-45.21Zm-12.84,59.71c-2.14,29.54-22.73,53.23-51.66,59.53-24.44,5.33-49.16-4.69-64.05-23.17-2.06-2.56-3.94-5.29-5.6-8.16-2.76-4.78-4.92-9.96-6.36-15.46-.21-.81-.41-1.63-.59-2.45-.22-1.01-.42-2.03-.59-3.06-2.98-17.94.89-34.25,11.15-49.28,6.11-8.96,12.19-17.95,18.26-26.94,11.11-16.46,22.16-32.95,33.26-49.42.39-.58.81-1.14,1.35-1.9.04.06.09.13.13.19,7.63,11.33,15.21,22.58,22.82,33.87,2.61,3.87,5.22,7.75,7.84,11.64-1.35,2.01-2.68,4.01-4.02,6-1.13,1.68-2.26,3.35-3.4,5.02-2.84,4.14-5.73,8.25-7.24,13.08-.16.49-.3,1-.42,1.51-.71,2.93-1.12,5.78-1.22,8.54-.13,3.44.21,6.74,1.04,9.88,1.1,4.19,3.07,8.1,5.93,11.71,1.36,1.73,2.93,3.38,4.7,4.96,10.67,9.49,23.06,11.27,36.41,6.2.66-.25,1.31-.53,2.29-.92,0,3,.17,5.83-.03,8.63Zm6.42-24.34c-6.46,9.21-17.79,13.41-28.72,10.65-9.1-2.3-16.32-9.3-19.06-18.17-.49-1.6-.84-3.26-1.03-4.97-.67-6.14.52-11.99,3.94-17.17,2.61-3.94,5.24-7.86,7.88-11.78,4.81-7.15,9.65-14.27,14.47-21.41.11-.16.26-.29.55-.62,3.69,5.46,7.25,10.74,10.81,16.02,3.78,5.61,7.56,11.22,11.34,16.83,6.35,9.41,6.27,21.42-.18,30.62Z"/>
  <path class="cls-1" d="m37.86,130.04c.16-13.18,3.37-23.58,9.98-32.89,1.72-2.41,4.02-3.03,5.97-1.63,1.99,1.42,2.14,3.66.4,6.18-15.58,22.59-8.97,52.82,14.57,66.31,2.85,1.64,6.02,2.75,9.07,4.02,2.83,1.18,3.81,4.12,1.97,6.28-1.25,1.46-2.84,1.72-4.6,1.09-19.37-6.88-31.56-20.24-36.16-40.31-.81-3.53-.97-7.2-1.21-9.04Z"/>
  <path class="cls-1" d="m88.97,182.87c-2.26.02-3.91-1.64-3.91-3.92,0-2.14,1.69-3.84,3.8-3.84,2.18,0,4.03,1.83,3.99,3.93-.04,2.06-1.81,3.8-3.89,3.82Z"/>
  <path class="cls-1" d="m123.46,98.02c-1.58-4.38-1.59-9.17-.36-13.66.18-.66.38-1.33.6-1.99.8-2.4,3.03-3.33,5.13-2.49,2.04.81,3.03,2.92,2.12,5.16-2.67,6.52-.11,13.28,4.78,16.64,2.08,1.43,2.35,3.83.97,5.63-1.37,1.78-3.63,2.04-5.71.53-3.6-2.6-6.08-5.8-7.53-9.82Z"/>
  <path class="cls-1" d="m147.65,108.59c-.04,2.14-1.93,3.92-4.08,3.84-2.07-.08-3.75-1.9-3.7-4,.05-2.14,1.75-3.81,3.87-3.8,2.22.01,3.95,1.77,3.91,3.97Z"/>
</svg>