<?xml version="1.0" encoding="UTF-8"?>
<svg id="Pruebas" xmlns="http://www.w3.org/2000/svg" xmlns:xlink="http://www.w3.org/1999/xlink" viewBox="0 0 200 200">
  <defs>
    <style>
      .cls-1 {
        fill: url(#Degradado_sin_nombre_31);
        stroke-width: 0px;
      }
    </style>
    <linearGradient id="Degradado_sin_nombre_31" data-name="Degradado sin nombre 31" x1="100" y1=".53" x2="100" y2="199.47" gradientUnits="userSpaceOnUse">
      <stop offset="0" stop-color="#60c5f1"/>
      <stop offset=".23" stop-color="#47b5e7"/>
      <stop offset=".75" stop-color="#1495d3"/>
      <stop offset="1" stop-color="#0089cb"/>
    </linearGradient>
  </defs>
  <path class="cls-1" d="m121.58,102.42l-.05-.58c-.39-5.84-.95-11.61-1.66-17.18v-.12s-.02-.05-.03-.1c-.35-2.6-.72-5.21-1.11-7.8,0,0-.02-.07-.03-.17-.87-5.6-1.99-11.37-3.3-17.14-.12-.58-.26-1.23-.52-1.75-.7-1.47-2.34-2.33-3.89-2.02-1.75.38-2.93,1.83-2.8,3.46.04.48.08.92.14,1.35.2,1.49.52,2.98.82,4.42l.18.85c2.02,9.74,3.52,20.02,4.55,31.43.83,9.32,1.23,18.76,1.19,28.19,2.3-1.45,4.75-2.7,7.31-3.72-.08-5.95-.35-12.28-.8-19.12Zm28.86-10.67c-.11-.5-.15-.93-.15-1.33v-.22c-.85-3.82-1.84-7.61-2.94-11.24l-.25-.7c-.15-.46-.3-.88-.46-1.3-.58-1.54-1.13-3.1-1.68-4.64-1.15-3.25-2.35-6.59-3.74-9.79-10.43-23.81-25.89-43.58-45.95-58.75-2.89-2.2-4.39-3.23-5.72-3.25-1.29.02-2.8,1.06-5.69,3.25-20.07,15.18-35.52,34.94-45.94,58.75-1.42,3.26-2.65,6.67-3.82,9.98-.53,1.48-1.06,2.97-1.6,4.45l-.08.18c-.45,1.25-.86,2.58-1.26,4.08-1.08,4.09-2.34,9.9-2.47,10.53-3.16,15.17-4.15,29.36-3.03,43.37,1.32,16.28,5.73,29.5,13.48,40.4.25.33.44.69.56,1.03,2.21,2.94,4.68,5.65,7.37,8.04l.19.14c.18.13.38.28.58.45,9.12,7.77,20.08,12.22,33.51,13.59,2.88.3,5.64.45,8.23.47,2.56-.02,5.33-.17,8.2-.47,3.96-.4,7.7-1.07,11.25-2.03-3.21-2.87-6.01-6.2-8.28-9.88-.76.78-1.6,1.52-2.52,2.19-2.54,1.86-5.36,2.88-8.14,2.98-.17.01-.37.01-.57.01-2.96,0-5.94-1.03-8.61-2.99-4.01-2.9-6.38-6.98-8.01-10.21-2.9-5.77-4.96-12.37-6.45-20.76-.14-.73-.26-1.49-.37-2.24-.29-1.75-.54-3.63-.77-5.58-.22-1.75-.45-3.29-.71-4.67-.31-1.68-1.77-2.81-3.53-2.72-1.7.08-3.1,1.33-3.45,3.05.29,3.1.65,6.17,1.07,9.12,1.92,13.47,5.06,23.18,10.21,31.51.18.28.18.55.14.77l.73,1.77-1.82-.65c-.47-.17-.93-.33-1.37-.51-.09-.04-.17-.07-.24-.1l-.17-.06s-.12-.04-.2-.09c-7.17-2.86-13.09-7-18.08-12.64-6.98-7.92-11.49-17.82-13.79-30.27-1.68-9.18-2.09-19.1-1.27-30.32,0-.06,0-.17.02-.29.14-2.21.33-4.25.55-6.21.02-.13.03-.26.05-.39,2.1-19.32,7.97-37.71,17.44-54.58l.31-.54c.14-.24.28-.49.41-.74.33-.57.66-1.14.99-1.69l.48-.82c.1-.18.21-.36.32-.54l.07-.11c.05-.08.1-.16.15-.24.2-.34.45-.74.69-1.12.06-.11.15-.25.24-.38l.06-.09c.06-.09.12-.18.18-.27.24-.39.52-.84.81-1.28l.42-.67c.06-.09.13-.2.21-.3l.09-.14c.18-.27.36-.55.55-.82.21-.34.47-.72.74-1.1.22-.35.49-.74.77-1.13.24-.35.5-.73.77-1.1l.25-.35c.22-.29.43-.58.64-.87,7.49-10.37,16.27-19.62,26.1-27.48.54-.43,1.09-.85,1.63-1.25.21-.16.42-.3.68-.48l.55-.37.57-.41.54.39c.26.18.48.33.67.46.21.15.4.27.57.41.56.4,1.11.82,1.63,1.25,9.86,7.88,18.64,17.13,26.11,27.47.18.25.37.51.56.78l.32.44c2.7,3.8,5.24,7.76,7.55,11.8l1.1,1.96c.06.11.12.22.18.34,9.14,16.57,14.83,34.62,16.88,53.64.02.09.03.22.05.35.15,1.31.28,2.63.39,3.95l.18,2.32c.12,1.62.22,3.22.28,4.78,2.51.43,4.95,1.06,7.29,1.89-.2-9.46-1.33-19.11-3.43-29.17Z"/>
  <path class="cls-1" d="m77.73,35.68h0c-.03.57-.17,1.22-.44,1.98-5.61,16.32-9.42,33.68-11.32,51.57-.19,1.85-.36,3.7-.54,5.55-.14,1.6-.29,3.2-.46,4.8-.06.67-.16,1.55-.33,2.43-.41,2.15-1.88,3.42-3.86,3.24-1.92-.15-3.26-1.7-3.33-3.85-.01-.16,0-.31,0-.47v-.41c.12-1.98,2.53-21.86,4.22-31.87,1.77-10.55,4.61-21.46,8.42-32.45l.15-.43c.26-.72.49-1.4.83-2.01.86-1.53,2.53-2.18,4.24-1.66,1.57.48,2.53,1.88,2.42,3.59Z"/>
  <path class="cls-1" d="m149.07,157.56c-1.23-2.14-2.91-4.65-5.17-7.58-.76-.98-1.58-2.01-2.48-3.08,0,0-.09-.11-.22-.27-.56-.67-1.46-.9-2.29-.9-.77.01-1.51.3-2.08.82l-.05.04-.22.22-.08.09-.03.04c-.91,1.1-3.25,4-5.5,7.32-3.72,5.52-5.53,9.68-5.53,12.74-.05,3.61,1.32,7.06,3.87,9.69.07.07.14.15.22.21,1.8,1.78,4.01,2.99,6.43,3.55.96.23,1.95.35,2.96.37h.08c3.65-.05,7.07-1.52,9.6-4.13,2.55-2.62,3.92-6.07,3.87-9.7.01-1.34-.44-4.32-3.38-9.43Zm-8.04,16.43c-.65.21-1.35.34-2.08.35-2.06-.04-3.91-.95-5.2-2.37-1.19-1.3-1.9-3.04-1.87-4.93,0-2.19,2.82-7.26,7.07-12.86.75.99,1.62,2.17,2.5,3.46.02.03.04.05.05.08,2.78,4.09,3.86,6.56,4.27,7.94.22.71.26,1.13.26,1.34.03,3.26-2.07,6.04-5,6.99Z"/>
  <path class="cls-1" d="m138.6,134.1c16.09,0,29.19,13.09,29.19,29.19s-13.09,29.19-29.19,29.19-29.19-13.09-29.19-29.19,13.09-29.19,29.19-29.19m0-7c-19.99,0-36.19,16.2-36.19,36.19s16.2,36.19,36.19,36.19,36.19-16.2,36.19-36.19-16.2-36.19-36.19-36.19h0Z"/>
</svg>