<?xml version="1.0" encoding="UTF-8"?>
<svg id="Pruebas" xmlns="http://www.w3.org/2000/svg" xmlns:xlink="http://www.w3.org/1999/xlink" viewBox="0 0 200 200">
  <defs>
    <style>
      .cls-1 {
        fill: url(#Degradado_sin_nombre_24);
        stroke-width: 0px;
      }
    </style>
    <linearGradient id="Degradado_sin_nombre_24" data-name="Degradado sin nombre 24" x1="10.87" y1="100" x2="189.13" y2="100" gradientUnits="userSpaceOnUse">
      <stop offset="0" stop-color="#bfcc60"/>
      <stop offset=".29" stop-color="#798d5c"/>
      <stop offset=".69" stop-color="#6b6052"/>
      <stop offset="1" stop-color="#3d3535"/>
    </linearGradient>
  </defs>
  <path class="cls-1" d="m148.73,127.51c-2.38-1.15-2.8-2.95-3.24-5.78-.08-.56-.17-1.08-.26-1.55-.75-3.61-3.91-7.78-10.36-7.68-3.01.04-5.34,2.38-7.59,4.64-1.05,1.06-2.23,2.25-2.98,2.62-.51.25-.59.29-2.15-.55-1.02-.54-2.3-1.21-3.94-1.56-4.88-1-9.72,1.97-11.51,7.08-.35.99-1.28,1.75-2.24,2.29-.97.53-1.97.85-2.46.95l-.19.04-.18.06c-5.48,1.74-9.32,5.55-10.29,10.16-.76,3.64.39,7.21,3.08,9.57.8.72,1.71,1.38,2.6,2.02,3.32,2.4,5.34,4.09,5.46,7.4.12,3.25.41,10.85,8.85,11.82,2.41.28,4.79-.74,6.89-1.65,1.03-.45,2.59-1.13,3.2-1.1,1.35.05,2.46.46,3.75.96,1.75.64,3.73,1.39,6.29,1.14.75-.07,1.45-.19,2.12-.37,7.94-2.12,9.82-11.25,10.47-14.41.39-1.88,1.04-2.84,2.49-3.64,5.04-2.82,7.96-7.65,7.8-12.92-.12-4.26-2.28-7.92-5.61-9.54Zm-5.4,16.72c-3.12,1.74-4.94,4.31-5.71,8.06-1.31,6.38-3.34,9.24-6.78,9.57-1,.1-1.89-.22-3.36-.77-1.51-.56-3.39-1.27-5.82-1.37-.87-.02-1.72.11-2.57.33-1.18.31-2.34.82-3.48,1.31-1.14.49-2.86,1.24-3.53,1.16-2.02-.23-2.86-.8-3.04-5.55-.25-6.74-5.02-10.19-8.18-12.48-.79-.56-1.53-1.11-2.11-1.61-.89-.79-1.26-1.99-.98-3.3.47-2.24,2.59-4.17,5.71-5.21,1.41-.31,7.49-1.97,9.42-7.47.7-1.99,2.34-3.15,3.99-2.81.71.14,1.39.5,2.17.92,1.81.96,4.54,2.42,8.15.63,1.73-.85,3.25-2.38,4.72-3.86.93-.93,2.45-2.46,3.14-2.72,2.13,0,3.39.82,3.73,2.45.08.37.13.78.2,1.21.45,2.97,1.22,7.96,6.86,10.7,1.1.52,1.87,2.06,1.92,3.82.04,1.33-.31,4.69-4.45,6.99Z"/>
  <g>
    <path class="cls-1" d="m79.88,198.65c-9.77-1.38-17.94-6.31-25.19-12.82-8.55-7.67-15.08-16.92-20.53-26.94-10.36-19.03-16.98-39.38-21.04-60.61-1.35-7.07-2.43-14.17-2.22-21.4.47-16.44,7.19-29.56,20.76-39.03.85-.59,1.72-1.17,2.65-1.62,1.79-.86,3.67-.3,4.68,1.29,1.01,1.58.71,3.51-.78,4.8-.44.39-.96.69-1.45,1.02-10.88,7.21-16.91,17.3-18.23,30.31-.77,7.63.22,15.11,1.56,22.54,3.51,19.43,9.55,38.04,18.63,55.61,5.34,10.33,11.69,19.96,20.3,27.92,6.32,5.83,13.42,10.27,22.08,11.65,3.28.52,6.62.85,9.94.96,8.52.27,17.04.34,25.54-.6,7.29-.81,13.69-3.65,19.51-7.95,7.49-5.55,13.36-12.6,18.4-20.35,9.71-14.92,16.19-31.26,21.05-48.29,2.63-9.2,4.59-18.54,5.71-28.04.86-7.34.78-14.66-1.37-21.81-2.78-9.24-8.35-16.42-16.36-21.75-.62-.41-1.27-.78-1.82-1.27-1.46-1.28-1.7-3.27-.65-4.82,1-1.48,2.8-1.99,4.52-1.26.41.17.8.4,1.17.64,12.66,8.16,20.05,19.63,21.95,34.64,1.08,8.51,0,16.88-1.51,25.19-3.38,18.59-8.87,36.54-16.96,53.64-5.64,11.92-12.44,23.11-21.79,32.55-6.78,6.84-14.49,12.23-23.88,14.88-5.02,1.42-10.19,1.86-15.38,2.03-3.11.1-6.23.02-9.34.02,0,.15-13.36-.19-19.94-1.12Z"/>
    <path class="cls-1" d="m64.27,37.22c-.01-.13-.13-.22-.26-.21-1.85.17-3.47.3-5.09.48-5.67.65-11.26.17-16.69-1.53-12.52-3.91-17.47-14.87-17.11-24.77.06-1.7,1.15-3.27,2.78-3.72,1.13-.31,2.2-.05,3.19.7.47.36.91.76,1.35,1.16,5.02,4.65,10.82,6.06,17.48,4.48,4.24-1.01,8.53-1.89,12.84-2.54,8.67-1.32,16.52.56,23.04,6.67,1.42,1.33,2.8.41,4.41.54.12.01.23-.07.26-.19.19-.89.38-1.74.54-2.59.87-4.65,2.65-8.92,5.21-12.89,1.15-1.78,2.62-2.67,4.79-2.6,3.04.1,6.08,0,9.12.04,3.16.04,4.67,2.06,3.97,5.17-.75,3.32-1.51,6.64-2.21,9.96-.19.88-.23,1.79-.32,2.63,0,.08.03.17.09.22,1.14.92,1.86.29,2.65-.44,4.1-3.78,8.94-6.08,14.47-6.72,4.53-.53,9.02.02,13.46.98,3.4.73,6.81,1.42,10.21,2.1,5.16,1.03,9.66-.48,13.7-3.67.93-.73,1.8-1.55,2.72-2.29.98-.78,2.07-1.04,3.21-.72,1.63.45,2.71,2.01,2.78,3.7.38,9.61-4.41,19.82-15,24.02-5.84,2.31-11.9,2.9-18.11,2.4-1.91-.16-3.82-.38-5.72-.58-.11.13-.27.23-.29.35-.8,6.16-4.59,9.99-9.98,12.36-3.86,1.7-7.89,2.99-11.81,4.52-1.79.7-3.57,1.46-5.26,2.36-2.26,1.21-4.11,2.9-5.14,5.34-.65,1.55-1.76,2.55-3.55,2.56-1.79,0-2.9-.99-3.56-2.54-1.11-2.59-3.04-4.44-5.53-5.54-3.58-1.59-7.27-2.92-10.91-4.36-1.86-.74-3.74-1.4-5.56-2.23-5.43-2.48-9.43-6.16-10.17-12.6Zm35.34,16.37c.08.08.2.09.3.03,2.26-1.47,4.23-2.93,6.39-4.07,2.21-1.17,4.6-2.01,6.93-2.94,3.57-1.43,7.29-2.54,10.7-4.26,5.87-2.97,6-9.17.31-12.51-2.07-1.22-4.43-2.14-6.77-2.66-11.2-2.48-22.47-2.39-33.73-.32-3.35.62-6.62,1.66-9.34,3.87-2.71,2.2-3.48,5.23-2.13,8.12.87,1.86,2.44,3,4.23,3.75,3.34,1.4,6.72,2.7,10.12,3.92,4.71,1.69,9.28,3.59,12.99,7.07ZM34.02,19.38c.29.81.36,1.09.49,1.34,2.21,4.51,5.97,7.11,10.68,8.38,6.63,1.78,13.31,1.26,19.96.09.49-.09,1.1-.51,1.39-.91,2.35-3.3,5.61-5.3,9.3-6.76.42-.17.79-.45,1.54-.88-1.61-.62-2.83-1.16-4.08-1.57-4.71-1.5-9.39-.67-14.06.25-3.05.6-6.06,1.38-9.12,1.97-5.36,1.02-10.6.69-16.1-1.9Zm131.98.13c-.72.24-.98.31-1.23.41-4.5,1.91-9.15,2.39-13.93,1.46-4.14-.8-8.26-1.74-12.4-2.51-4.8-.89-9.58-1.08-14.16,1.08-.47.22-.89.56-1.55.98,4.54,1.73,8.4,3.84,11.01,7.72.2.3.73.47,1.14.54,5.65,1.04,11.33,1.5,17.01.48,2.23-.4,4.47-1.09,6.54-2.01,3.43-1.53,5.88-4.15,7.58-8.16Zm-67.48-1.58h5.09c.12,0,.22-.08.24-.2.61-3.25,1.21-6.46,1.89-10.1.03-.16-.11-.31-.27-.28-1.55.23-3.17.11-3.68.8-2,2.74-3.14,5.93-3.5,9.5-.01.14.1.27.25.27Z"/>
    <path class="cls-1" d="m39.42,85.7c2.14-.03,3.56,1.47,3.71,3.85.25,4.07.42,8.14.82,12.19,1.07,10.64,4.07,20.74,8.61,30.41.25.54.54,1.06.77,1.6.95,2.24.36,4.17-1.55,5.13-1.95.98-4.02.23-5.13-2.04-1.2-2.46-2.33-4.96-3.35-7.5-5.06-12.59-7.5-25.69-7.49-39.25,0-2.76,1.34-4.37,3.6-4.4Z"/>
    <path class="cls-1" d="m51.34,50.27c2.34.8,3.03,3.74,1.57,5.73-.22.29-.45.55-.74.73-3.94,2.49-6.01,6.24-7.53,10.42-.18.49-.34.98-.57,1.44-.9,1.77-2.68,2.57-4.44,2.01-1.75-.55-2.79-2.25-2.43-4.22.19-1.01.56-1.99.95-2.95,1.78-4.47,4.12-8.55,8.07-11.48.83-.61,1.7-1.23,2.65-1.61.85-.34,1.71-.34,2.48-.07Z"/>
  </g>
</svg>