<?xml version="1.0" encoding="UTF-8"?>
<svg id="Pruebas" xmlns="http://www.w3.org/2000/svg" xmlns:xlink="http://www.w3.org/1999/xlink" viewBox="0 0 200 200">
  <defs>
    <style>
      .cls-1 {
        fill: url(#Degradado_sin_nombre_32);
        stroke-width: 0px;
      }
    </style>
    <linearGradient id="Degradado_sin_nombre_32" data-name="Degradado sin nombre 32" x1="-12.75" y1="164.78" x2="212.48" y2="34.74" gradientUnits="userSpaceOnUse">
      <stop offset="0" stop-color="#eb6840"/>
      <stop offset=".43" stop-color="#e63a5d"/>
      <stop offset="1" stop-color="#874592"/>
    </linearGradient>
  </defs>
  <path class="cls-1" d="m131.99,200c-2.9,0-5.81-.68-8.46-2.03-.12-.06-.24-.13-.36-.21l-51.52-33.62c-3.09-1.5-6.72-1.47-9.78.09l-45.06,29.38c-.1.06-.2.12-.3.18-1.62.86-3.44,1.31-5.26,1.31-6.2,0-11.24-5.05-11.24-11.24V47.13c0-4.1,2.21-7.85,5.79-9.83L57.85,2.37c.11-.07.22-.14.34-.2,5.31-2.81,11.68-2.89,17.05-.2.12.06.24.13.35.2l52.76,33.75c3.07,1.46,6.66,1.41,9.69-.13l45.14-29.42c.1-.06.2-.12.3-.18,1.61-.86,3.44-1.31,5.26-1.31,6.2,0,11.24,5.04,11.24,11.24v136.7c0,4.14-2.24,7.9-5.87,9.87l-53.21,35.01c-.11.07-.22.14-.34.2-2.68,1.39-5.64,2.09-8.59,2.09Zm-4.8-8.8c3.05,1.49,6.64,1.47,9.68-.04l53.18-34.99c.11-.07.22-.14.34-.2,1.18-.61,1.91-1.82,1.91-3.15V16.13c0-1.96-1.59-3.55-3.55-3.55-.53,0-1.06.12-1.53.35l-45.13,29.41c-.1.06-.2.12-.3.18-5.3,2.8-11.67,2.88-17.03.2-.12-.06-.24-.13-.36-.2L71.64,8.76c-3.06-1.46-6.65-1.42-9.68.12L9.93,43.79c-.11.07-.22.14-.34.21-1.16.62-1.89,1.82-1.89,3.14v136.73c0,1.96,1.59,3.55,3.55,3.55.53,0,1.06-.12,1.53-.35l45.04-29.37c.1-.06.2-.12.3-.18,5.36-2.84,11.78-2.89,17.18-.14.12.06.24.13.36.21l51.52,33.62Z"/>
  <path class="cls-1" d="m133.28,199.99c-2.12,0-3.85-1.72-3.85-3.85V40.83c0-2.12,1.72-3.85,3.85-3.85s3.85,1.72,3.85,3.85v155.32c0,2.12-1.72,3.85-3.85,3.85Z"/>
  <path class="cls-1" d="m66.72,163.01c-2.12,0-3.85-1.72-3.85-3.85V3.85C62.87,1.72,64.59,0,66.72,0s3.85,1.72,3.85,3.85v155.32c0,2.12-1.72,3.85-3.85,3.85Z"/>
</svg>