<?xml version="1.0" encoding="UTF-8"?>
<svg id="Pruebas" xmlns="http://www.w3.org/2000/svg" xmlns:xlink="http://www.w3.org/1999/xlink" viewBox="0 0 200 200">
  <defs>
    <style>
      .cls-1 {
        fill: url(#Degradado_sin_nombre_32);
        stroke-width: 0px;
      }
    </style>
    <linearGradient id="Degradado_sin_nombre_32" data-name="Degradado sin nombre 32" x1="3.93" y1="195.94" x2="197.06" y2="2.81" gradientUnits="userSpaceOnUse">
      <stop offset="0" stop-color="#eb6840"/>
      <stop offset=".43" stop-color="#e63a5d"/>
      <stop offset="1" stop-color="#874592"/>
    </linearGradient>
  </defs>
  <path class="cls-1" d="m82.29,109.32H9.27c-4.29,0-7.77,3.49-7.77,7.77v73.19c0,2.08.81,4.04,2.28,5.51s3.41,2.26,5.48,2.26h.02c13.84-.02,54.57-.06,73.02-.08,4.28-.01,7.76-3.49,7.76-7.77v-73.11c0-4.28-3.49-7.77-7.77-7.77Zm-1.69,78.97H11.05v-69.37h69.55v69.37Z"/>
  <path class="cls-1" d="m22.65,6.73c0,2.6-2.12,4.73-4.73,4.73h-6.91v7.1c0,2.61-2.12,4.73-4.73,4.73h-.05c-2.61,0-4.73-2.12-4.73-4.73V5.46c0-.94.37-1.82,1.03-2.49.67-.66,1.54-1.02,2.47-1.02h.03l4.45.03c2.8.02,5.59.02,8.43.02h.01c1.26,0,2.45.49,3.34,1.38.9.9,1.39,2.08,1.39,3.35Z"/>
  <path class="cls-1" d="m10.82,46.73v5.94c0,2.57-2.09,4.66-4.66,4.66s-4.66-2.09-4.66-4.66v-5.94c0-2.57,2.09-4.67,4.66-4.67s4.66,2.1,4.66,4.67Z"/>
  <path class="cls-1" d="m10.81,80.77v5.53c0,2.57-2.09,4.66-4.65,4.66s-4.66-2.09-4.66-4.66v-5.53c0-2.57,2.09-4.66,4.66-4.66s4.65,2.09,4.65,4.66Z"/>
  <path class="cls-1" d="m198.5,181.33v12.98c0,1.93-1.57,3.5-3.5,3.5h-13.02c-2.56,0-4.63-2.08-4.63-4.63s2.07-4.64,4.63-4.64h7.09v-7.21c0-2.56,2.08-4.63,4.63-4.63h.17c2.55,0,4.63,2.07,4.63,4.63Z"/>
  <path class="cls-1" d="m124.34,6.73c0,2.55-2.07,4.62-4.61,4.62h-5.51c-2.55,0-4.62-2.07-4.62-4.62s2.07-4.61,4.62-4.61h5.51c2.54,0,4.61,2.07,4.61,4.61Z"/>
  <path class="cls-1" d="m90.58,6.72c0,2.53-2.06,4.59-4.58,4.59h-5.81c-2.53,0-4.59-2.06-4.59-4.59s2.06-4.58,4.59-4.58h5.81c2.52,0,4.58,2.06,4.58,4.58Z"/>
  <path class="cls-1" d="m56.6,6.74c0,2.55-2.07,4.62-4.62,4.62h-5.52c-2.54,0-4.62-2.07-4.62-4.62s2.08-4.61,4.62-4.61h5.52c2.55,0,4.62,2.07,4.62,4.61Z"/>
  <path class="cls-1" d="m158.23,6.74c0,2.55-2.07,4.62-4.62,4.62h-5.45c-2.55,0-4.62-2.07-4.62-4.62s2.07-4.62,4.62-4.62h5.45c2.55,0,4.62,2.07,4.62,4.62Z"/>
  <path class="cls-1" d="m198.46,46.85v5.62c0,2.53-2.06,4.6-4.67,4.6s-4.6-2.07-4.6-4.6v-5.62c0-2.54,2.06-4.6,4.67-4.6s4.6,2.06,4.6,4.6Z"/>
  <path class="cls-1" d="m198.46,148.55v5.68c0,2.54-2.07,4.6-4.68,4.6s-4.6-2.06-4.6-4.6v-5.68c0-2.53,2.07-4.6,4.68-4.6s4.6,2.07,4.6,4.6Z"/>
  <path class="cls-1" d="m198.5,114.67v5.65c0,2.54-2.07,4.6-4.67,4.6s-4.6-2.06-4.6-4.6v-5.65c0-2.54,2.06-4.6,4.6-4.6h.07c2.53,0,4.6,2.06,4.6,4.6Z"/>
  <path class="cls-1" d="m124.36,193.24c0,2.54-2.06,4.6-4.6,4.6h-5.58c-2.54,0-4.6-2.06-4.6-4.66s2.06-4.6,4.6-4.6h5.58c2.54,0,4.6,2.06,4.6,4.66Z"/>
  <path class="cls-1" d="m198.42,80.77v5.6c0,2.53-2.06,4.6-4.61,4.6s-4.6-2.07-4.6-4.6v-5.6c0-2.53,2.07-4.6,4.6-4.6h.01c2.54,0,4.6,2.07,4.6,4.6Z"/>
  <path class="cls-1" d="m158.27,193.23c0,2.54-2.06,4.61-4.6,4.61h-5.58c-2.54,0-4.6-2.07-4.6-4.61s2.06-4.6,4.6-4.6h5.58c2.54,0,4.6,2.07,4.6,4.6Z"/>
  <path class="cls-1" d="m50.46,153.6c0,2.48-2.02,4.5-4.5,4.5h-.3c-2.48,0-4.5-2.02-4.5-4.5s2.02-4.5,4.5-4.5h.3c2.48,0,4.5,2.02,4.5,4.5Z"/>
  <path class="cls-1" d="m198.26,5.45v13.11c0,2.61-2.12,4.73-4.78,4.73-2.21,0-4.15-1.57-4.62-3.73l-.58-2.68-71.46,71.46,2.68.58c2.16.47,3.73,2.41,3.73,4.62v.05c0,2.61-2.12,4.73-4.73,4.73h-13.11c-.94,0-1.82-.37-2.48-1.04-.66-.66-1.02-1.55-1.02-2.48l.03-4.46c.02-2.8.02-5.6.02-8.43,0-1.27.49-2.46,1.38-3.36.9-.89,2.08-1.38,3.35-1.38,2.18,0,4.07,1.48,4.58,3.6l.63,2.6L183.31,11.95l-2.59-.64c-2.13-.51-3.61-2.4-3.61-4.58,0-1.26.49-2.45,1.38-3.35.9-.89,2.09-1.38,3.35-1.38h.01c2.83,0,5.63,0,8.43-.02l4.46-.03h.02c.93,0,1.8.36,2.46,1.02.67.66,1.04,1.54,1.04,2.48Z"/>
</svg>