<?xml version="1.0" encoding="UTF-8"?>
<svg id="Capa_1" data-name="Capa 1" xmlns="http://www.w3.org/2000/svg" xmlns:xlink="http://www.w3.org/1999/xlink" viewBox="0 0 200 200">
  <defs>
    <style>
      .cls-1 {
        fill: url(#Degradado_sin_nombre_31);
        stroke-width: 0px;
      }
    </style>
    <linearGradient id="Degradado_sin_nombre_31" data-name="Degradado sin nombre 31" x1="100" y1="2.51" x2="100" y2="197.49" gradientUnits="userSpaceOnUse">
      <stop offset="0" stop-color="#60c5f1"/>
      <stop offset=".23" stop-color="#47b5e7"/>
      <stop offset=".75" stop-color="#1495d3"/>
      <stop offset="1" stop-color="#0089cb"/>
    </linearGradient>
  </defs>
  <path class="cls-1" d="m192.92,42.39c-.22-.22-.45-.43-.69-.64-.18-.16-.37-.3-.56-.45-.18-.13-.37-.26-.56-.39-.19-.14-.39-.27-.59-.38-1.16-.71-2.45-1.26-3.81-1.7-20.17-6.45-40.33-12.92-60.5-19.37-17.16-5.49-34.32-10.96-51.48-16.45,0,0,0,0-.01,0-1.16-.42-3.39-.77-5.23-.22-3.35,1.12-6.12,2.97-7.9,6.11-.21.38-.6.66-.91.97-11.51,11.51-23.03,23.02-34.54,34.53-.43.43-.9.83-1.3,1.19-.57-.51-1.04-.92-1.49-1.36-5.7-5.57-15.05-4.37-19.14,2.47-1.3,2.19-1.72,4.56-1.72,7.09.02,46.18.02,92.36.02,138.54,0,.44-.02.88,0,1.33.12,2.18,1.56,3.76,3.72,3.79,5.7.06,11.4.06,17.1-.01,2.06-.02,3.5-1.59,3.64-3.66.05-.69.02-1.39.02-2.09V62.47c.66.61.94.86,1.21,1.13l32.65,32.65c.35.36.7.74.99,1.14,4,5.54,8.41,7.01,14.87,4.94,18.18-5.82,36.37-11.63,54.55-17.45,18.42-5.9,36.84-11.83,55.26-17.73.73-.23,1.43-.49,2.11-.79.21-.1.43-.19.64-.3.21-.1.42-.2.63-.32.18-.09.35-.19.53-.31.43-.25.85-.53,1.25-.83.33-.25.65-.52.95-.8,2.99-2.66,4.88-6.53,4.88-10.84s-1.78-7.93-4.6-10.57ZM19.1,189.65h-8.68v-114.03h8.68v114.03Zm.12-130.2c0,2.53,0,5.05-.02,7.58,0,.12-.06.24-.14.59h-8.69c-.04-.67-.1-1.27-.1-1.88-.01-3.85,0-7.71,0-11.56,0-.31-.01-.63,0-.95.13-2.74,1.99-4.7,4.45-4.71,2.46-.02,4.38,1.95,4.47,4.68.07,2.08.02,4.17.02,6.25Zm40.97,24.37c-8.91-8.92-17.91-17.92-26.81-26.82h26.81v26.82Zm0-34.85h-26.82c8.92-8.93,17.92-17.93,26.82-26.83v26.83Zm64.62,29.71c-7.97,2.56-16,5.13-24.42,7.83v-5.29c0-3.67.03-7.35-.02-11.02-.04-2.44-1.64-4.02-3.88-4-2.2,0-3.85,1.66-3.88,4.06-.05,5.44-.01,10.89-.02,16.34v2.38c-1.39.46-2.71.88-4.02,1.31-5,1.6-9.98,3.24-15,4.78-3.09.95-5.24-.63-5.45-3.85-.04-.57-.01-1.14-.01-1.71-.01-24.38-.01-48.76,0-73.14,0-.64-.03-1.27.02-1.9.29-3.02,2.43-4.53,5.3-3.64,6.33,1.97,12.64,4.01,19.16,6.09v2.08c0,5.45,0,10.89,0,16.34.01,2.44,1.33,4.1,3.36,4.37,2.44.33,4.38-1.37,4.41-4.02.05-4.63.02-9.25.02-13.87v-2.39c8.31,2.66,16.35,5.23,24.42,7.81v51.44Zm32.28-10.33c-8.01,2.57-16.04,5.14-24.33,7.8V29.8c8.19,2.61,16.22,5.18,24.33,7.77v30.78Zm27.16-8.69c-3.81,1.24-7.64,2.46-11.46,3.67-2.32.74-4.64,1.47-6.96,2.21-.17.05-.36.07-.77.14v-25.52c1.58.5,3.01.96,4.44,1.41,1.09.35,2.18.69,3.27,1.04,3.79,1.2,7.58,2.4,11.35,3.62,3.46,1.12,5.38,3.56,5.36,6.77-.02,3.14-1.86,5.56-5.23,6.66Z"/>
  <path class="cls-1" d="m140.1,133.63c-9.18,0-18.36,0-27.55,0-3.14,0-5.02-1.48-5-3.91.02-2.43,1.89-3.86,5.06-3.86,17.86,0,35.71,0,53.57,0,5.78,0,10.21-3.11,11.59-8.25,1.18-4.4.14-8.33-3.28-11.4-3.4-3.06-7.42-3.83-11.66-2.11-4.21,1.7-6.63,4.92-7.06,9.53-.03.38-.04.76-.11,1.13-.4,2.43-2.07,3.85-4.28,3.66-2.13-.18-3.61-2.01-3.57-4.39.14-8.59,6.62-16.38,15.12-18.16,11.9-2.49,23.04,6.44,23.18,18.58.11,10.26-8.41,19.07-18.66,19.16-9.12.08-18.24.02-27.36.02h0Z"/>
  <path class="cls-1" d="m113.97,144.86c5.56,0,11.13-.01,16.69,0,2.33,0,3.94,1.27,4.24,3.25.35,2.28-1.23,4.3-3.55,4.48-.94.07-1.9.03-2.84.03-10.12,0-20.23,0-30.35,0-.57,0-1.14.02-1.71-.01-2.21-.13-3.84-1.81-3.82-3.91.02-2.1,1.66-3.81,3.9-3.83,5.82-.05,11.63-.02,17.45-.02h0Z"/>
  <path class="cls-1" d="m60.15,152.63c-4.56,0-9.11.05-13.67-.02-3.22-.05-5.03-3.28-3.37-5.9.86-1.35,2.13-1.86,3.71-1.86,5.88.03,11.77,0,17.66,0,3.04,0,6.08-.02,9.11,0,2.68.02,4.37,1.59,4.33,3.95-.04,2.28-1.7,3.79-4.29,3.8-4.49.02-8.99,0-13.48,0Z"/>
  <path class="cls-1" d="m100.37,53.06c-.04,2.16-1.73,3.8-3.9,3.78-2.12-.02-3.85-1.76-3.86-3.87,0-2.17,1.85-3.95,4.04-3.88,2.15.07,3.75,1.78,3.71,3.97Z"/>
</svg>