<?xml version="1.0" encoding="UTF-8"?>
<svg id="Pruebas" xmlns="http://www.w3.org/2000/svg" xmlns:xlink="http://www.w3.org/1999/xlink" viewBox="0 0 200 200">
  <defs>
    <style>
      .cls-1 {
        fill: url(#Degradado_sin_nombre_13);
        stroke-width: 0px;
      }
    </style>
    <linearGradient id="Degradado_sin_nombre_13" data-name="Degradado sin nombre 13" x1="0" y1="100" x2="200" y2="100" gradientUnits="userSpaceOnUse">
      <stop offset="0" stop-color="#fdca40"/>
      <stop offset="1" stop-color="#f08900"/>
    </linearGradient>
  </defs>
  <g>
    <path class="cls-1" d="m187.03,159.95l-7.85.79c13.9-17.92,21.23-39.92,20.8-62.9-.48-25.8-10.88-50.14-29.28-68.55C152.29,10.9,127.95.5,102.15.02c-20.3-.36-39.99,5.32-56.85,16.48-1.77,1.17-2.26,3.56-1.09,5.33,1.17,1.77,3.56,2.26,5.33,1.09,15.56-10.29,33.7-15.57,52.46-15.2,23.8.44,46.27,10.04,63.26,27.04,16.99,16.99,26.59,39.45,27.03,63.25.4,21.34-6.46,41.75-19.43,58.35l-.88-8.67c-.21-2.12-2.1-3.66-4.22-3.44-1.91.2-3.35,1.76-3.44,3.63l1.81,17.84c.09.94.5,1.81,1.17,2.48.1.09.2.18.3.27h0c.09.08.17.15.26.2.25.17.52.29.8.4.03.01.06.02.08.03.18.06.37.12.56.16.07.01.13.02.2.03.17.03.34.04.51.05.02,0,.04,0,.06,0,.03,0,.05,0,.08,0,.12,0,.25,0,.37,0l17.79-1.79c1.84-.44,3.11-2.17,2.91-4.11-.21-2.11-2.09-3.65-4.21-3.44Z"/>
    <path class="cls-1" d="m12.97,40.05l7.85-.79C6.92,57.17-.41,79.17.02,102.15c.48,25.8,10.88,50.14,29.28,68.55,18.41,18.41,42.75,28.81,68.55,29.29,20.3.36,39.99-5.32,56.85-16.48,1.77-1.17,2.26-3.56,1.09-5.33-1.17-1.77-3.56-2.26-5.33-1.09-15.56,10.29-33.7,15.57-52.46,15.2-23.8-.44-46.27-10.04-63.26-27.04-16.99-16.99-26.59-39.45-27.03-63.25-.4-21.34,6.46-41.75,19.43-58.35l.88,8.67c.21,2.12,2.1,3.66,4.22,3.44,1.91-.2,3.35-1.76,3.44-3.63l-1.81-17.84c-.09-.94-.5-1.81-1.17-2.48-.1-.09-.2-.18-.3-.27h0c-.09-.08-.17-.15-.26-.2-.25-.17-.52-.29-.8-.4-.03-.01-.06-.02-.08-.03-.18-.06-.37-.12-.56-.16-.07-.01-.13-.02-.2-.03-.17-.03-.34-.04-.51-.05-.02,0-.04,0-.06,0-.03,0-.05,0-.08,0-.12,0-.25,0-.37,0l-17.79,1.79c-1.84.44-3.11,2.17-2.91,4.11.21,2.11,2.09,3.65,4.21,3.44Z"/>
  </g>
  <path class="cls-1" d="m134.21,89.79c-.22-.85-.77-1.54-1.58-2-.8-.45-1.79-.55-2.47-.55-7.1-.03-14.2-.02-21.29-.02h-5.34c-.28,0-.55,0-.82.03-1.85.19-3.08,1.45-3.19,3.28-.12,1.9,1.08,3.44,2.91,3.76.47.08.93.08,1.39.07h20.46l-25.46,40.29c.36-8.23.99-16.25,1.6-23.79.16-1.98-.11-3.22-.86-4.05-.74-.81-1.92-1.17-3.81-1.17h-8.76c-3.46,0-6.9,0-10.35,0-.27,0-.55-.02-.86-.05l25.71-40.7-.28,3.74c-.24,3.15-.48,6.29-.68,9.44-.14,2.27,1.15,3.83,3.31,3.97,2.01.14,3.43-1.16,3.77-3.35.06-.37.08-.75.1-1.12,0-.18.02-.35.03-.53l.39-5.01c.3-3.9.61-7.8.91-11.69l.17-2.12c.18-2.35.37-4.7.51-7.05.11-1.77-.81-3.2-2.39-3.75-1.54-.53-3.1.03-4.17,1.49-.21.29-.41.61-.6.92l-28.65,45.38c-2.41,3.81-4.81,7.63-7.22,11.44-.59.93-1.4,2.21-.74,3.81.68,1.66,1.81,2.33,3.9,2.33,5.31,0,10.62,0,15.94,0h7.24s0,.08,0,.12c0,.35.01.64,0,.93-.64,8.38-1.29,16.77-1.94,25.15l-.24,3.02c-.18,2.23-.35,4.45-.51,6.68-.13,1.91.75,3.33,2.43,3.9.39.13.77.2,1.14.2,1.14,0,2.19-.59,3.01-1.72.19-.27.37-.55.54-.83l31.81-50.34,1.12-1.76c1.09-1.72,2.22-3.49,3.29-5.26.61-1.01.81-2.11.56-3.08Z"/>
</svg>