<?xml version="1.0" encoding="utf-8"?>
<!-- Generator: Adobe Illustrator 28.0.0, SVG Export Plug-In . SVG Version: 6.00 Build 0)  -->
<svg version="1.1" id="Capa_1" xmlns="http://www.w3.org/2000/svg" xmlns:xlink="http://www.w3.org/1999/xlink" x="0px" y="0px"
	 viewBox="0 0 111.4 199.5" style="enable-background:new 0 0 111.4 199.5;" xml:space="preserve">
<style type="text/css">
	.st0{fill:url(#thermometer-2_00000129916606854851955180000014765082031501829518_);}
	.st1{fill:url(#SVGID_1_);}
	.st2{fill:url(#SVGID_00000159464245113100200500000002023449061998802350_);}
	.st3{fill:url(#SVGID_00000133530077280468002750000011828042172818955699_);}
</style>
<g>
	
		<linearGradient id="thermometer-2_00000065065070255359990320000003288448561590223260_" gradientUnits="userSpaceOnUse" x1="12.5001" y1="41.5201" x2="125.8908" y2="154.9108" gradientTransform="matrix(1 0 0 -1 0 202)">
		<stop  offset="0" style="stop-color:#74BAFF"/>
		<stop  offset="1" style="stop-color:#2771B9"/>
	</linearGradient>
	<path id="thermometer-2" style="fill:url(#thermometer-2_00000065065070255359990320000003288448561590223260_);" d="M88.2,102.3
		H101c2.2,0,3.9,1.8,3.9,3.9l0,0c0,2.2-1.8,3.9-3.9,3.9H88.2c-2.2,0-3.9-1.8-3.9-3.9l0,0C84.2,104.1,86,102.3,88.2,102.3z
		 M88.2,89.5H101c2.2,0,3.9,1.8,3.9,3.9l0,0c0,2.2-1.8,3.9-3.9,3.9H88.2c-2.2,0-3.9-1.8-3.9-3.9l0,0C84.2,91.3,86,89.5,88.2,89.5z
		 M88.2,76.7H101c2.2,0,3.9,1.8,3.9,3.9l0,0c0,2.2-1.8,3.9-3.9,3.9H88.2c-2.2,0-3.9-1.8-3.9-3.9l0,0C84.2,78.5,86,76.7,88.2,76.7z
		 M88.2,63.9H101c2.2,0,3.9,1.8,3.9,4l0,0c0,2.2-1.8,3.9-3.9,3.9H88.2c-2.2,0-3.9-1.8-3.9-3.9l0,0C84.2,65.7,86,63.9,88.2,63.9z
		 M88.2,51.2H101c2.2,0,3.9,1.8,3.9,4l0,0c0,2.2-1.8,4-3.9,4H88.2c-2.2,0-3.9-1.8-3.9-4l0,0C84.2,53,86,51.2,88.2,51.2z M99.8,186.8
		c7.5-7.9,11.6-18.3,11.6-29.1c-0.1-14.3-7.3-27.6-19.2-35.5V119c0-2.2-1.8-4-4-4l0,0c-2.2,0-4,1.8-4,4v7.3l2.1,1.2
		c10.6,6.1,17.1,17.3,17.3,29.5c0,8.9-3.5,17.5-9.8,23.8c-0.4,0.5-0.8,0.9-1.3,1.3c-6.8,6.5-15.9,10-25.2,9.6
		c-18-0.9-32.3-15.3-33-33.3c-0.2-9.4,3.5-18.4,10.2-25c2.2-2.3,4.8-4.3,7.6-5.9l1.6-0.9V23.4c0-4.1,1.7-8,4.7-10.8
		c5.7-6.1,15.3-6.3,21.4-0.6c3,2.8,4.7,6.8,4.7,10.9v19.3c0,2.2,1.8,4,4,4l0,0c2.2,0,4-1.8,4-4V23.3C92.4,12.2,84.6,2.6,73.8,0.4
		c-3.2-0.6-6.4-0.6-9.6,0c-4.5,0.9-8.6,3.2-11.9,6.4c-4.1,4.3-6.4,10-6.4,16v99c-0.2,0.1-0.5,0.3-0.5,0.3
		c-12.2,7.8-19.4,21.5-18.9,36c0.7,18.8,13.5,35.1,31.7,40.1c7.3,1.7,15,1.7,22.3,0c6.9-1.9,13.3-5.4,18.4-10.4
		C99.1,187.6,99.5,187.2,99.8,186.8L99.8,186.8z M74.5,136.4l-1.7-0.4V44.4c0-2.2-1.8-4-3.9-4l0,0c-2.2,0-3.9,1.8-3.9,4v91.7
		l-1.2,0.3c-11.5,3-18.3,14.7-15.4,26.1c2.9,11.4,14.7,18.3,26.1,15.4c11.5-3,18.3-14.7,15.4-26.1C87.9,144.3,82,138.4,74.5,136.4
		C74.5,136.4,74.5,136.4,74.5,136.4z"/>
	
		<linearGradient id="SVGID_1_" gradientUnits="userSpaceOnUse" x1="-58.4844" y1="112.5044" x2="54.9056" y2="225.8944" gradientTransform="matrix(1 0 0 -1 0 202)">
		<stop  offset="0" style="stop-color:#74BAFF"/>
		<stop  offset="1" style="stop-color:#2771B9"/>
	</linearGradient>
	<path class="st1" d="M15,1.1c0,0-0.1-0.1-0.2-0.2C14.2,0.2,13.4,0,12.6,0c-0.7,0-1.4,0.3-1.9,0.8l-0.1,0l0,0l0,0l-0.1,0.1L10.4,1
		l-0.1,0.1l0,0c-0.9,1-3,3.7-5.1,6.8C1.7,13.1,0,17,0,19.9c-0.1,3.4,1.2,6.6,3.6,9.1c2.4,2.4,5.6,3.8,9,3.9h0h0c3.4,0,6.6-1.4,9-3.9
		c2.4-2.5,3.7-5.7,3.6-9.1C25.3,17.9,24.3,12.2,15,1.1L15,1.1z M19.3,19.9c0,3.7-2.9,6.8-6.6,6.9C9,26.7,6,23.6,6,19.9
		c0-2,2.6-6.8,6.6-12c0.7,0.9,1.5,2,2.3,3.2C19,17,19.3,19.3,19.3,19.9L19.3,19.9z"/>
	
		<linearGradient id="SVGID_00000173847276929766541380000011965169096651572628_" gradientUnits="userSpaceOnUse" x1="-36.4819" y1="90.5019" x2="76.9081" y2="203.8919" gradientTransform="matrix(1 0 0 -1 0 202)">
		<stop  offset="0" style="stop-color:#74BAFF"/>
		<stop  offset="1" style="stop-color:#2771B9"/>
	</linearGradient>
	<path style="fill:url(#SVGID_00000173847276929766541380000011965169096651572628_);" d="M15,45.1c0,0-0.1-0.1-0.2-0.2
		c-0.5-0.6-1.4-0.8-2.1-0.8c-0.7,0-1.4,0.3-1.9,0.8l-0.1,0l0,0l0,0l-0.1,0L10.4,45l-0.1,0.1l0,0c-0.9,1-3,3.7-5.1,6.8
		C1.7,57.1,0,61,0,63.9c-0.1,3.4,1.2,6.6,3.6,9.1c2.4,2.4,5.6,3.8,9,3.9h0h0c3.4-0.1,6.6-1.4,9-3.9c2.4-2.4,3.7-5.7,3.6-9.1
		C25.3,61.9,24.3,56.2,15,45.1L15,45.1z M19.3,63.9c0,3.7-2.9,6.8-6.6,6.9C9,70.7,6,67.6,6,63.9c0-2,2.6-6.8,6.6-12
		c0.7,0.9,1.5,2,2.3,3.2C19,61,19.3,63.3,19.3,63.9L19.3,63.9z"/>
	
		<linearGradient id="SVGID_00000062160964429203179730000015292828368009154975_" gradientUnits="userSpaceOnUse" x1="-14.4819" y1="68.5019" x2="98.9081" y2="181.8919" gradientTransform="matrix(1 0 0 -1 0 202)">
		<stop  offset="0" style="stop-color:#74BAFF"/>
		<stop  offset="1" style="stop-color:#2771B9"/>
	</linearGradient>
	<path style="fill:url(#SVGID_00000062160964429203179730000015292828368009154975_);" d="M15,89.1c0,0-0.1-0.1-0.2-0.2
		c-0.5-0.6-1.4-0.8-2.1-0.8c-0.7,0-1.4,0.3-1.9,0.8l-0.1,0l0,0l0,0l-0.1,0.1L10.4,89l-0.1,0.1l0,0c-0.9,1-3,3.7-5.1,6.8
		c-3.5,5.1-5.2,9-5.2,11.9c-0.1,3.4,1.2,6.6,3.6,9.1c2.4,2.4,5.6,3.8,9,3.9h0h0c3.4-0.1,6.6-1.4,9-3.9c2.4-2.4,3.7-5.7,3.6-9.1
		C25.3,105.9,24.3,100.2,15,89.1L15,89.1z M19.3,107.9c0,3.7-2.9,6.8-6.6,6.9C9,114.7,6,111.6,6,107.9c0-2.1,2.6-6.8,6.6-12
		c0.7,0.9,1.5,2,2.3,3.2C19,105,19.3,107.3,19.3,107.9L19.3,107.9z"/>
</g>
</svg>
