<?xml version="1.0" encoding="UTF-8"?>
<svg id="Pruebas" xmlns="http://www.w3.org/2000/svg" xmlns:xlink="http://www.w3.org/1999/xlink" viewBox="0 0 200 200">
  <defs>
    <style>
      .cls-1 {
        fill: url(#Degradado_sin_nombre_31);
        stroke-width: 0px;
      }
    </style>
    <linearGradient id="Degradado_sin_nombre_31" data-name="Degradado sin nombre 31" x1="648.79" y1="-613.2" x2="648.79" y2="-413.2" gradientTransform="translate(-548.79 613.2)" gradientUnits="userSpaceOnUse">
      <stop offset="0" stop-color="#60c5f1"/>
      <stop offset=".23" stop-color="#47b5e7"/>
      <stop offset=".75" stop-color="#1495d3"/>
      <stop offset="1" stop-color="#0089cb"/>
    </linearGradient>
  </defs>
  <path class="cls-1" d="m112.81,188.93h-29.13c0-2.99-.04-5.99.02-8.99.02-1.03.74-1.61,1.77-1.73.23-.03.46-.02.68-.02,6.76,0,13.52.01,20.27.01-1.55-3.49-2.74-7.17-3.52-11.01h-8.22v-61.58h10.62v32.05c2.54-6.68,6.38-12.71,11.22-17.79v-14.38c1.96,0,3.77.09,5.57-.02,2.93-.18,5.12-2.52,5.15-5.34.05-2.91-2.2-5.28-5.23-5.5-.52-.04-1.05-.02-1.58-.02h-40.87c-.61,0-1.22-.03-1.82.04-2.03.22-3.55,1.27-4.45,3.1-1.68,3.45.72,7.46,4.66,7.72,1.86.12,3.72.02,5.54.02v61.92c-.96.29-1.76.49-2.54.78-4.8,1.8-8.06,6.33-8.18,11.49-.07,3.08,0,6.15,0,9.41h-36.53c-.69,0-1.37-.03-2.05.04-2.89.28-5.05,2.64-5.02,5.47.03,2.73,2.13,5.03,4.91,5.35.67.07,1.36.04,2.04.04,29.39.01,58.78.01,88.16.01-4.35-3.09-8.22-6.83-11.46-11.07Z"/>
  <path class="cls-1" d="m62.47,48.78c1.97,2.34,5.29,2.55,7.53.74,2.26-1.84,2.76-5.08.87-7.51-3.56-4.6-7.26-9.09-10.93-13.6-1.06-1.29-2.5-1.92-4.35-1.94-1.96.13-3.62,1.06-4.58,2.97-1,1.99-.87,4.02.51,5.76,3.6,4.57,7.23,9.12,10.96,13.58Z"/>
  <path class="cls-1" d="m134.32,50.71c1.13.02,2.56-.99,3.75-2.48,3.31-4.13,6.65-8.23,9.95-12.36.42-.53.81-1.1,1.09-1.71,1.06-2.28.38-5-1.59-6.52-2.02-1.56-4.74-1.55-6.71.07-.52.43-.97.95-1.4,1.48-3.28,4.05-6.55,8.12-9.82,12.18-.33.41-.66.83-.91,1.29-2.03,3.66.6,8.09,5.63,8.05Z"/>
  <path class="cls-1" d="m41.87,67.81c3.05,1.32,6.02,0,7.22-2.63,1.04-2.3.51-4.88-1.64-6.51-4.27-3.25-8.62-6.4-13-9.5-.22-.16-.46-.28-.71-.4-1.57-.7-3.39-.64-4.93.13-.37.19-.72.4-1.04.66-2.73,2.25-2.44,6.26.63,8.58,4.03,3.06,8.14,6.03,12.27,8.97.38.27.78.51,1.2.7Z"/>
  <path class="cls-1" d="m158.98,67.35c4.4-3.08,8.69-6.29,13-9.5,1.41-1.05,2.11-2.54,2.09-4.76-.07-1.62-.95-3.24-2.74-4.22-1.86-1.02-3.84-1.07-5.59.17-4.44,3.15-8.86,6.33-13.17,9.64-2.49,1.91-2.81,5.09-1.05,7.48,1.72,2.34,4.92,2.97,7.47,1.19Z"/>
  <path class="cls-1" d="m84.29,75.74c1.52,1.71,3.72,1.97,5.85.99,2.11-.97,3.18-2.69,3.17-5.56-.12-.38-.2-1.39-.71-2.05-2.62-3.41-5.23-6.83-8.08-10.04-1.75-1.97-4.98-1.91-7.03-.28-2.08,1.66-2.83,4.73-1.26,6.9,2.52,3.48,5.22,6.84,8.07,10.05Z"/>
  <path class="cls-1" d="m37.38,17.64c2.06,2.4,5.18,2.62,7.51.76,2.29-1.83,2.78-5.03.92-7.5-2.32-3.08-4.79-6.04-7.25-9.01-1.01-1.22-2.37-1.86-3.54-1.83-2.61-.02-4.27.92-5.28,2.8-1.04,1.96-.97,3.99.4,5.77,2.35,3.05,4.74,6.09,7.25,9.01Z"/>
  <path class="cls-1" d="m155.15,18.26c2.28,1.88,5.49,1.7,7.52-.66,2.51-2.92,4.9-5.95,7.22-9.03.11-.15.21-.31.3-.48,1.21-2.26.82-5.14-1.15-6.78-.48-.4-1.03-.72-1.65-.95-2.11-.78-4.38-.28-5.96,1.57-2.45,2.88-4.84,5.81-7.12,8.82-1.89,2.49-1.46,5.62.84,7.51Z"/>
  <path class="cls-1" d="m116.43,75.04c2.39-2.83,4.71-5.72,6.94-8.67.69-.92.97-2.14,1.44-3.23-.26-2.3-1.57-4.28-3.55-5.11-2.1-.88-4.65-.38-6.2,1.44-2.44,2.88-4.82,5.82-7.11,8.82-1.87,2.45-1.47,5.66.78,7.53,2.29,1.9,5.67,1.62,7.7-.78Z"/>
  <path class="cls-1" d="m186.47,46.52c.57-.27,1.79-.67,2.82-1.35,2.19-1.47,4.29-3.08,6.41-4.65.91-.67,1.86-1.31,2.65-2.11,1.94-1.95,2.1-4.88.47-7.02-1.63-2.15-4.59-2.97-6.86-1.48-3.46,2.28-6.79,4.77-10.03,7.35-1.77,1.41-2.12,3.98-1.18,6.01.98,2.13,2.68,3.18,5.72,3.24Z"/>
  <path class="cls-1" d="m125.65,85.07c1.75,2.4,4.82,2.96,7.45,1.29,1.33-.85,2.58-1.83,3.86-2.77,1.82-1.34,3.69-2.63,5.43-4.07,1.76-1.46,2.3-3.89,1.54-5.98-.27-.75-.71-1.41-1.26-1.96-1.65-1.64-4.21-1.93-6.3-.92-.17.08-.33.17-.48.28-3.1,2.14-6.17,4.34-9.14,6.67-2.48,1.94-2.84,5.07-1.1,7.46Z"/>
  <path class="cls-1" d="m17.43,36.65c-2.8-2.17-5.67-4.26-8.59-6.27-.09-.06-.18-.12-.28-.18-2.79-1.66-6.51-.82-7.92,2.11-.07.15-.13.29-.19.45-.85,2.21-.32,4.5,1.69,6.09,2.9,2.28,5.89,4.47,8.92,6.58,2.65,1.84,5.9,1.28,7.64-1.15,1.75-2.45,1.28-5.65-1.27-7.63Z"/>
  <path class="cls-1" d="m64,70.84c-1.8-1.16-3.74-1.14-5.57-.06-1.76,1.03-2.63,2.64-2.63,4.7,0,1.78.71,3.24,2.12,4.3,2.9,2.17,5.79,4.35,8.76,6.42,2.71,1.88,5.81,1.38,7.64-1.07,1.82-2.43,1.37-5.54-1.17-7.63-1.28-1.05-2.65-2-3.99-2.97-1.71-1.24-3.38-2.53-5.16-3.67Z"/>
  <g>
    <path class="cls-1" d="m154.39,159.26c-.75,0-1.29.22-1.63.66-.34.44-.62,1.01-.85,1.71-.54,1.48-1.34,2.6-2.41,3.36-1.06.77-2.37,1.15-3.91,1.15-1.42,0-2.66-.34-3.72-1.01-1.06-.67-1.88-1.69-2.45-3.06-.58-1.37-.87-3.08-.87-5.14,0-3.08.65-5.46,1.96-7.13,1.3-1.67,3.06-2.51,5.26-2.51,1.39,0,2.55.32,3.5.97.94.65,1.76,1.64,2.46,2.95.42.79.8,1.35,1.15,1.68.34.32.85.48,1.54.48.62,0,1.14-.23,1.57-.7.43-.47.65-1.01.65-1.63,0-1.11-.44-2.3-1.33-3.56-.89-1.26-2.18-2.32-3.85-3.17-1.07-.55-2.24-.92-3.51-1.11-.71-.12-1.44-.17-2.21-.17-1.76,0-3.42.31-4.97.94-1.55.62-2.91,1.53-4.06,2.73-1.16,1.2-2.05,2.64-2.67,4.33-.26.71-.47,1.47-.62,2.27-.21,1.07-.31,2.23-.31,3.45,0,1.31.13,2.55.37,3.72.25,1.17.62,2.27,1.12,3.3.49,1.02,1.08,1.96,1.78,2.79.78.91,1.64,1.65,2.58,2.21.93.56,1.97.97,3.11,1.23,1.14.27,2.41.4,3.81.4.61,0,1.19-.03,1.75-.09t.02-.01c1.13-.13,2.15-.39,3.07-.78.43-.18.84-.39,1.22-.61.85-.48,1.58-1.05,2.19-1.7.89-.94,1.55-1.9,1.96-2.88.42-.99.62-1.9.62-2.74,0-.66-.22-1.22-.68-1.66-.46-.45-1.01-.67-1.64-.67Z"/>
    <path class="cls-1" d="m178.47,166.27c-.49-.39-1.21-.58-2.15-.58h-9.42c.3-.46.59-.85.88-1.17.68-.82,1.92-1.97,3.73-3.45,1.81-1.48,3.1-2.57,3.88-3.26.77-.69,1.52-1.65,2.26-2.87.16-.26.29-.52.41-.79.47-1.01.7-2.1.7-3.29,0-.95-.18-1.86-.53-2.75-.36-.88-.85-1.66-1.49-2.34-.64-.67-1.38-1.2-2.22-1.59-1.3-.57-2.87-.86-4.71-.86-1.53,0-2.87.22-4,.67-1.1.44-2.01,1.01-2.73,1.7-.03.02-.06.05-.09.08-.74.74-1.3,1.56-1.67,2.46-.37.9-.56,1.77-.56,2.6,0,.68.2,1.23.59,1.62s.9.6,1.5.6c.69,0,1.21-.22,1.57-.65.35-.43.67-1.05.95-1.86.29-.81.49-1.3.61-1.48.1-.15.2-.3.31-.43.87-1.1,2-1.65,3.41-1.65.74,0,1.43.17,2.06.51.64.33,1.14.81,1.5,1.42.37.6.55,1.29.55,2.06,0,.67-.15,1.35-.46,2.05-.01.04-.03.09-.05.13-.34.74-.84,1.46-1.5,2.17-.66.7-1.48,1.4-2.46,2.1-.56.37-1.48,1.15-2.77,2.34-1.28,1.18-2.73,2.61-4.33,4.27-.39.41-.74.97-1.07,1.69-.32.71-.48,1.29-.48,1.72,0,.67.25,1.26.76,1.76.5.5,1.2.75,2.11.75h13.29c.79,0,1.38-.2,1.78-.61.39-.41.58-.91.58-1.5,0-.66-.24-1.19-.74-1.57Z"/>
    <path class="cls-1" d="m197.84,145.83c-.99-3.83-2.49-7.46-4.43-10.8-7.44-12.83-21.33-21.47-37.25-21.47-16.86,0-31.47,9.7-38.51,23.83-1.81,3.61-3.13,7.51-3.86,11.61-.43,2.46-.66,5-.66,7.58,0,8.08,2.23,15.63,6.1,22.09,3.52,5.88,8.41,10.85,14.23,14.46,6.59,4.11,14.37,6.48,22.7,6.48,7.79,0,15.09-2.07,21.4-5.69,7.87-4.51,14.17-11.44,17.9-19.78,2.4-5.36,3.73-11.31,3.73-17.56,0-3.71-.47-7.31-1.35-10.74h0Zm-6.64,10.75c0,10.49-4.63,19.91-11.96,26.33-3.33,2.93-7.22,5.24-11.49,6.74-3.63,1.28-7.53,1.97-11.59,1.97-5.25,0-10.24-1.16-14.71-3.25-3.45-1.6-6.59-3.74-9.32-6.32-6.77-6.39-11-15.44-11-25.47,0-1.09.05-2.17.15-3.23.35-3.82,1.31-7.46,2.8-10.82,5.42-12.34,17.76-20.98,32.08-20.98,13.54,0,25.31,7.72,31.14,18.99,1.71,3.3,2.91,6.9,3.5,10.7h0c.26,1.75.4,3.53.4,5.34Z"/>
  </g>
</svg>