<?xml version="1.0" encoding="UTF-8"?>
<svg id="Capa_1" data-name="Capa 1" xmlns="http://www.w3.org/2000/svg" xmlns:xlink="http://www.w3.org/1999/xlink" viewBox="0 0 200 200">
  <defs>
    <style>
      .cls-1 {
        fill: url(#Degradado_sin_nombre_13);
        stroke-width: 0px;
      }
    </style>
    <linearGradient id="Degradado_sin_nombre_13" data-name="Degradado sin nombre 13" x1="40.99" y1="177.78" x2="177.62" y2="41.16" gradientUnits="userSpaceOnUse">
      <stop offset="0" stop-color="#fdca40"/>
      <stop offset="1" stop-color="#f08900"/>
    </linearGradient>
  </defs>
  <g id="_Group_" data-name=" Group ">
    <path id="_Path_" data-name=" Path " class="cls-1" d="m14.94,56.15l15,8.7c.7.4,1.4.6,2.2.6,2.4,0,4.3-1.9,4.3-4.3,0-1.6-.8-3-2.2-3.8l-15-8.7c-2.1-1.2-4.7-.5-5.9,1.6-1.2,2-.5,4.6,1.6,5.9q0-.1,0,0Z"/>
    <path id="_Path_2" data-name=" Path 2" class="cls-1" d="m56.94,34.65c1.2,2.1,3.9,2.8,5.9,1.6,2.1-1.2,2.8-3.9,1.6-5.9l-8.7-15c-1.2-2.1-3.9-2.8-5.9-1.6-2.1,1.2-2.8,3.9-1.6,5.9l8.7,15Z"/>
    <path id="_Path_3" data-name=" Path 3" class="cls-1" d="m195.14,95.75h-17.3c-2.4,0-4.3,1.9-4.3,4.3s1.9,4.3,4.3,4.3h17.3c2.4,0,4.3-1.9,4.3-4.3.1-2.4-1.9-4.3-4.3-4.3h0Z"/>
    <path id="_Path_4" data-name=" Path 4" class="cls-1" d="m99.74,26.35c2.4,0,4.3-1.9,4.3-4.3V4.65c0-2.4-1.9-4.3-4.3-4.3s-4.3,1.9-4.3,4.3h0v17.3c0,2.4,1.9,4.4,4.3,4.4Z"/>
    <path id="_Path_5" data-name=" Path 5" class="cls-1" d="m26.04,100.05c0-2.4-1.9-4.3-4.3-4.3H4.34c-2.4,0-4.3,1.9-4.3,4.3s1.9,4.3,4.3,4.3h17.3c2.4,0,4.4-1.9,4.4-4.3Z"/>
    <path id="_Path_6" data-name=" Path 6" class="cls-1" d="m99.74,173.75c-2.4,0-4.3,1.9-4.3,4.3h0v17.3c0,2.4,1.9,4.3,4.3,4.3s4.3-1.9,4.3-4.3v-17.3c0-2.3-1.9-4.3-4.3-4.3Z"/>
    <path id="_Path_7" data-name=" Path 7" class="cls-1" d="m136.64,36.25c.7.4,1.4.6,2.2.6,1.5,0,3-.8,3.8-2.2l8.7-15c1.2-2.1.5-4.8-1.6-5.9-2.1-1.2-4.8-.5-5.9,1.6l-8.7,15c-1.3,2-.6,4.7,1.5,5.9h0Z"/>
    <path id="_Path_8" data-name=" Path 8" class="cls-1" d="m167.35,65.35c.8,0,1.5-.2,2.2-.6l15-8.7c2.1-1.1,2.9-3.8,1.8-5.9-1.1-2.1-3.8-2.9-5.9-1.8-.1,0-.1.1-.2.1l-15,8.7c-2.1,1.2-2.8,3.9-1.6,5.9.7,1.5,2.2,2.3,3.7,2.3h0Z"/>
    <path id="_Path_10" data-name=" Path 10" class="cls-1" d="m29.94,135.35l-15,8.7c-2.1,1.2-2.8,3.9-1.6,5.9.8,1.3,2.2,2.2,3.7,2.2.8,0,1.5-.2,2.2-.6l15-8.7c2.1-1.2,2.8-3.9,1.6-5.9-1.2-2.1-3.9-2.8-5.9-1.6Z"/>
    <path id="_Compound_Path_" data-name=" Compound Path " class="cls-1" d="m99.75,34.95c-35.9,0-65.1,29.1-65.1,65.1s29.1,65.1,65.1,65.1c1.68,0,3.34-.06,4.98-.19-.45-2.77-.68-5.61-.68-8.51v-.18c-1.42.12-2.85.18-4.3.18-31.1,0-56.4-25.2-56.4-56.4s25.3-56.4,56.4-56.4,56.4,25.2,56.4,56.4c0,1.06-.04,2.12-.1,3.17.41-.02.82-.02,1.24-.02,2.53,0,5.02.18,7.46.52.07-1.21.1-2.44.1-3.67-.1-35.9-29.2-65-65.1-65.1Z"/>
    <path id="_Path_12" data-name=" Path 12" class="cls-1" d="m62.84,163.85c-2.1-1.2-4.7-.5-5.9,1.6h0l-8.7,15c-1.2,2.1-.5,4.7,1.6,5.9h0c.7.4,1.4.6,2.2.6,1.6,0,3-.8,3.8-2.2l8.7-15c1.1-2,.4-4.7-1.7-5.9h0Z"/>
  </g>
  <g>
    <g>
      <path class="cls-1" d="m163.05,113.88c-1.99-.28-4.02-.43-6.09-.43-.94,0-1.88.03-2.81.1-21.84,1.4-39.17,19.08-40.14,40.95-.04.65-.05,1.3-.05,1.95,0,2.36.19,4.68.56,6.94,3.33,20.41,21.1,36.06,42.44,36.06,23.7,0,43-19.3,43-43,0-21.64-16.01-39.61-36.91-42.57Zm-6.09,77.57c-17.74,0-32.44-13.27-34.7-30.41-.2-1.5-.3-3.03-.3-4.59,0-1.67.12-3.31.34-4.91,2.14-15.15,14.01-27.22,29.07-29.64,1.82-.3,3.69-.45,5.59-.45,1.32,0,2.62.07,3.89.22,17.48,1.94,31.11,16.8,31.11,34.78,0,19.3-15.7,35-35,35Z"/>
      <path class="cls-1" d="m163.05,113.88c-1.99-.28-4.02-.43-6.09-.43-.94,0-1.88.03-2.81.1-21.84,1.4-39.17,19.08-40.14,40.95-.04.65-.05,1.3-.05,1.95,0,2.36.19,4.68.56,6.94,3.33,20.41,21.1,36.06,42.44,36.06,23.7,0,43-19.3,43-43,0-21.64-16.01-39.61-36.91-42.57Zm-6.09,77.57c-17.74,0-32.44-13.27-34.7-30.41-.2-1.5-.3-3.03-.3-4.59,0-1.67.12-3.31.34-4.91,2.14-15.15,14.01-27.22,29.07-29.64,1.82-.3,3.69-.45,5.59-.45,1.32,0,2.62.07,3.89.22,17.48,1.94,31.11,16.8,31.11,34.78,0,19.3-15.7,35-35,35Z"/>
    </g>
    <g>
      <path class="cls-1" d="m153.66,144.56c-.51-.55-1.18-.83-2.01-.83s-1.49.28-1.98.83c-.49.55-.74,1.38-.74,2.5v13.46c0,2.32-.44,4.04-1.33,5.19-.54.69-1.32,1.18-2.32,1.45-.65.17-1.39.26-2.23.26-1.56,0-2.77-.28-3.63-.84-.86-.57-1.46-1.35-1.8-2.37,0-.01-.01-.02-.01-.03-.33-1.01-.5-2.27-.5-3.78v-13.34c0-1.11-.25-1.94-.75-2.49-.12-.14-.25-.26-.4-.36-.44-.32-.99-.48-1.63-.48-.81,0-1.47.28-1.97.84-.5.55-.75,1.38-.75,2.49v13.05c0,2.05.22,3.81.67,5.28.44,1.48,1.14,2.68,2.09,3.63.82.81,1.85,1.44,3.08,1.89.19.07.39.14.6.2,1.51.45,3.3.67,5.39.67,1.6,0,3.01-.17,4.24-.53.12-.03.24-.06.35-.1,1.3-.41,2.45-1.08,3.44-1.99,1.14-1.08,1.92-2.32,2.34-3.74.41-1.42.62-3.19.62-5.31v-13.05c0-1.12-.26-1.95-.77-2.5Z"/>
      <path class="cls-1" d="m181.97,145.02c-.23-.39-.54-.7-.94-.94-.41-.23-.84-.35-1.31-.35-.64,0-1.15.15-1.52.46-.37.3-.63.64-.79,1.01-.16.38-.4,1.05-.72,2.01l-.33.98-5.83,17.34-6.15-18.19c-.41-1.26-.8-2.17-1.19-2.75-.39-.57-1.05-.86-1.99-.86-.77,0-1.4.26-1.91.78-.5.52-.75,1.09-.75,1.72,0,.25.04.55.12.91.08.36.17.69.29,1,.12.31.23.62.34.94l6.46,17.58c.24.68.47,1.32.7,1.92.24.61.51,1.15.83,1.62.31.48.73.86,1.24,1.15.51.29,1.14.43,1.88.43s1.36-.14,1.87-.44c.52-.3.93-.68,1.23-1.14.31-.46.58-1,.82-1.61.23-.61.47-1.25.7-1.93l5.87-15.85.7-1.88c.11-.32.22-.63.33-.93.11-.3.21-.61.28-.93.07-.31.11-.6.11-.88,0-.39-.11-.78-.34-1.17Z"/>
    </g>
  </g>
</svg>