<?xml version="1.0" encoding="UTF-8"?>
<svg id="Capa_1" data-name="Capa 1" xmlns="http://www.w3.org/2000/svg" xmlns:xlink="http://www.w3.org/1999/xlink" viewBox="0 0 84.92 199.52">
  <defs>
    <style>
      .cls-1 {
        fill: url(#Degradado_sin_nombre_31);
        stroke-width: 0px;
      }
    </style>
    <linearGradient id="Degradado_sin_nombre_31" data-name="Degradado sin nombre 31" x1="-708.91" y1="-2319.41" x2="-708.91" y2="-2315.8" gradientTransform="translate(16813.51 128484.22) scale(23.66 55.4)" gradientUnits="userSpaceOnUse">
      <stop offset="0" stop-color="#60c6f2"/>
      <stop offset=".23" stop-color="#47b6e8"/>
      <stop offset=".75" stop-color="#1496d4"/>
      <stop offset="1" stop-color="#008acc"/>
    </linearGradient>
  </defs>
  <path id="thermometer" class="cls-1" d="m61.67,102.35h12.8c2.18,0,3.95,1.77,3.95,3.95h0c0,2.18-1.77,3.95-3.95,3.95h-12.8c-2.18,0-3.95-1.77-3.95-3.95h0c0-2.18,1.77-3.95,3.95-3.95Zm0-12.8h12.8c2.18,0,3.95,1.77,3.95,3.95h0c0,2.18-1.77,3.95-3.95,3.95h-12.8c-2.18,0-3.95-1.77-3.95-3.95h0c0-2.18,1.77-3.95,3.95-3.95Zm0-12.8h12.8c2.18,0,3.95,1.77,3.95,3.95h0c0,2.18-1.77,3.95-3.95,3.95h-12.8c-2.18,0-3.95-1.77-3.95-3.95h0c0-2.18,1.77-3.95,3.95-3.95Zm0-12.8h12.8c2.18,0,3.95,1.77,3.95,3.95h0c0,2.18-1.77,3.95-3.95,3.95h-12.8c-2.18,0-3.95-1.77-3.95-3.95h0c0-2.18,1.77-3.95,3.95-3.95Zm0-12.7h12.8c2.18,0,3.95,1.77,3.95,3.95h0c0,2.18-1.77,3.95-3.95,3.95h-12.8c-2.18,0-3.95-1.77-3.95-3.95h0c0-2.18,1.77-3.95,3.95-3.95Zm11.65,135.5c7.5-7.9,11.6-18.3,11.6-29.1-.1-14.3-7.3-27.6-19.2-35.5v-3.1c0-2.21-1.79-4-4-4h0c-2.21,0-4,1.79-4,4v7.3l2.1,1.2c10.6,6.1,17.1,17.3,17.3,29.5,0,8.9-3.5,17.5-9.8,23.8-.4.5-.8.9-1.3,1.3-6.8,6.5-15.9,10-25.2,9.6-18-.9-32.3-15.3-33-33.3-.2-9.4,3.5-18.4,10.2-25,2.2-2.3,4.8-4.3,7.6-5.9l1.6-.9V23.35c0-4.1,1.7-8,4.7-10.8,5.7-6.1,15.3-6.3,21.4-.6,3,2.8,4.7,6.8,4.7,10.9v19.3c0,2.21,1.79,4,4,4h0c2.21,0,4-1.79,4-4v-18.8c-.1-11.1-7.9-20.7-18.7-22.9-3.2-.6-6.4-.6-9.6,0-4.5.9-8.6,3.2-11.9,6.4-4.1,4.3-6.4,10-6.4,16v99c-.2.1-.5.3-.5.3C6.72,129.95-.48,143.65.02,158.15c.7,18.8,13.5,35.1,31.7,40.1,7.3,1.7,15,1.7,22.3,0,6.9-1.9,13.3-5.4,18.4-10.4.2-.3.6-.7.9-1.1Zm-25.3-50.3l-1.7-.4V44.4c0-2.18-1.77-3.95-3.95-3.95h0c-2.18,0-3.95,1.77-3.95,3.95v91.75l-1.2.3c-11.5,3-18.3,14.7-15.4,26.1,2.9,11.4,14.7,18.3,26.1,15.4,11.5-3,18.3-14.7,15.4-26.1-1.9-7.5-7.8-13.4-15.3-15.4h0Z"/>
</svg>