<svg id="Grupo_16850" data-name="Grupo 16850" xmlns="http://www.w3.org/2000/svg" xmlns:xlink="http://www.w3.org/1999/xlink" width="21.899" height="22.701" viewBox="0 0 21.899 22.701">
  <defs>
    <clipPath id="clip-path">
      <rect id="Rectángulo_2531" data-name="Rectángulo 2531" width="21.899" height="22.701" fill="none"/>
    </clipPath>
  </defs>
  <g id="Grupo_16849" data-name="Grupo 16849" clip-path="url(#clip-path)">
    <path id="Trazado_27419" data-name="Trazado 27419" d="M21.645,9.1a1.753,1.753,0,0,0,0-1.806c-.449-.916-1.147-2.061-1.692-2.94a2.489,2.489,0,0,0-.7-.846c-1.42-.906-2.471.662-3.657.26-1.16-.394-.789-1.868-1.224-2.747A1.8,1.8,0,0,0,12.916.06a31.9,31.9,0,0,0-3.886,0A1.776,1.776,0,0,0,7.39,1.375C7.148,2.26,7.332,3.5,6.2,3.8c-1.069.277-1.96-.963-3.26-.436a1.978,1.978,0,0,0-.975.965C1.412,5.2.722,6.351.267,7.267A1.79,1.79,0,0,0,.076,8.709c.339,1.225,2.39,1.534,1.933,3.035-.268.879-1.541,1.2-1.887,2.127a1.774,1.774,0,0,0,.028,1.338A28.455,28.455,0,0,0,1.96,18.382a1.985,1.985,0,0,0,1.007.979c1.287.494,2.2-.747,3.264-.441,1.259.361.834,1.9,1.3,2.8a1.943,1.943,0,0,0,1.3.929c1.322-.123,2.95.164,4.235,0a1.891,1.891,0,0,0,1.209-.8c.6-.937.111-3.054,1.81-3,1.118.037,2.257,1.376,3.466.1.64-1.178,1.691-2.524,2.2-3.744a1.735,1.735,0,0,0-.2-1.732c-.461-.631-1.456-.988-1.674-1.768-.372-1.338,1.216-1.7,1.762-2.607M7.493,14A4.355,4.355,0,1,1,15,12.955,4.364,4.364,0,0,1,7.493,14" transform="translate(0 0)"/>
  </g>
</svg>
