<svg id="Grupo_16739" data-name="Grupo 16739" xmlns="http://www.w3.org/2000/svg" xmlns:xlink="http://www.w3.org/1999/xlink" width="26.693" height="24.112" viewBox="0 0 26.693 24.112">
  <defs>
    <clipPath id="clip-path">
      <rect id="Rectángulo_2499" data-name="Rectángulo 2499" width="26.693" height="24.112"/>
    </clipPath>
  </defs>
  <g id="Grupo_16738" data-name="Grupo 16738" transform="translate(0 0)" clip-path="url(#clip-path)">
    <path id="Trazado_27354" data-name="Trazado 27354" d="M15.736,2.948A2.948,2.948,0,1,1,12.788,0a2.954,2.954,0,0,1,2.948,2.948" transform="translate(-1.432 0)"/>
    <path id="Trazado_27355" data-name="Trazado 27355" d="M30.236,11.528A2.948,2.948,0,1,1,27.288,8.58a2.956,2.956,0,0,1,2.948,2.948" transform="translate(-3.543 -1.249)"/>
    <path id="Trazado_27356" data-name="Trazado 27356" d="M5.9,15.608A2.948,2.948,0,1,1,2.948,12.66,2.954,2.954,0,0,1,5.9,15.608" transform="translate(0 -1.843)"/>
    <path id="Trazado_27357" data-name="Trazado 27357" d="M20.436,24.268a2.948,2.948,0,1,1-2.948-2.948,2.948,2.948,0,0,1,2.948,2.948" transform="translate(-2.116 -3.103)"/>
    <path id="Trazado_27358" data-name="Trazado 27358" d="M17.2,17.748a4.5,4.5,0,0,0-1.666.35L13.47,8.827a4.515,4.515,0,0,0,1.666-.367Z" transform="translate(-1.961 -1.231)"/>
    <path id="Trazado_27359" data-name="Trazado 27359" d="M24.718,16.777l-2.845,3.64a4.38,4.38,0,0,0-1.333-1.068l2.8-3.589a4.367,4.367,0,0,0,1.376,1.017" transform="translate(-2.99 -2.294)"/>
    <path id="Trazado_27360" data-name="Trazado 27360" d="M10.08,8.11,7.269,11.69A4.3,4.3,0,0,0,5.91,10.639L8.73,7.05a4.422,4.422,0,0,0,1.35,1.06" transform="translate(-0.86 -1.026)"/>
  </g>
</svg>
