<svg xmlns="http://www.w3.org/2000/svg" width="16.25" height="16.25" viewBox="0 0 16.25 16.25">
  <path id="Unión_7" data-name="Unión 7" d="M-2945.031,1021.03l-4.4-4.463A6.474,6.474,0,0,1-2953.5,1018a6.5,6.5,0,0,1-6.5-6.5,6.5,6.5,0,0,1,6.5-6.5,6.5,6.5,0,0,1,6.5,6.5,6.471,6.471,0,0,1-1.376,4l4.406,4.471a.75.75,0,0,1,0,1.06.747.747,0,0,1-.531.22A.747.747,0,0,1-2945.031,1021.03Zm-13.469-9.53a5.005,5.005,0,0,0,5,5,5.005,5.005,0,0,0,5-5,5.006,5.006,0,0,0-5-5A5.006,5.006,0,0,0-2958.5,1011.5Z" transform="translate(2960 -1005)" fill="#495867"/>
</svg>
